<svg width="92" height="46" viewBox="0 0 92 46" fill="none" xmlns="http://www.w3.org/2000/svg">
<circle cx="69" cy="23" r="23" fill="#3CBA54"/>
<circle cx="54" cy="23" r="23" fill="#DB3236"/>
<circle cx="39" cy="23" r="23" fill="#F4C20D"/>
<circle cx="23" cy="23" r="23" fill="#4885ED"/>
<path d="M30.8628 14.4077C30.2002 14.4077 29.6611 14.9479 29.6611 15.612V30.3958C29.7218 31.994 32.0087 31.9883 32.069 30.3958V15.612C32.069 14.948 31.5279 14.4077 30.8628 14.4077Z" fill="white"/>
<path d="M23.0002 14.4077C22.335 14.4077 21.7939 14.9479 21.7939 15.612V30.3958C21.8547 31.9918 24.1462 31.9905 24.2064 30.3958V15.612C24.2064 14.948 23.6653 14.4077 23.0002 14.4077Z" fill="white"/>
<path d="M26.931 18.8114C26.2685 18.8114 25.7295 19.3517 25.7295 20.0158V25.9921C25.7901 27.5904 28.0771 27.5845 28.1373 25.9921V20.0158C28.1373 19.3517 27.5962 18.8114 26.931 18.8114Z" fill="white"/>
<path d="M34.7939 21.0133C34.1313 21.0133 33.5923 21.5536 33.5923 22.2177V23.7902C33.6529 25.3885 35.9399 25.3826 36.0001 23.7902V22.2177C36.0001 21.5536 35.459 21.0133 34.7939 21.0133Z" fill="white"/>
<path d="M11.2063 21.0133C10.5411 21.0133 10 21.5536 10 22.2176V23.7901C10.0608 25.3837 12.3478 25.3872 12.4078 23.7901V22.2176C12.4078 21.5536 11.8688 21.0133 11.2063 21.0133Z" fill="white"/>
<path d="M15.1374 16.6096C14.4723 16.6096 13.9312 17.1498 13.9312 17.8139V28.1939C13.992 29.7876 16.279 29.791 16.339 28.1939V17.8139C16.339 17.1498 15.8 16.6096 15.1374 16.6096Z" fill="white"/>
<path d="M19.069 10.0039C18.4039 10.0039 17.8628 10.5442 17.8628 11.2083V34.7995C17.9236 36.3932 20.2105 36.3966 20.2706 34.7995V11.2083C20.2706 10.5442 19.7315 10.0039 19.069 10.0039Z" fill="white"/>
</svg>
