<svg width="84" height="30" viewBox="0 0 84 30" fill="none" xmlns="http://www.w3.org/2000/svg">
<path fill-rule="evenodd" clip-rule="evenodd" d="M51.5527 24.5197C46.7364 28.1087 39.7675 30 33.7577 30C25.3397 30 17.7529 26.8623 11.9988 21.6399C11.5513 21.2316 11.9562 20.6728 12.489 20.9952C18.6906 24.6272 26.3414 26.8193 34.2479 26.8193C39.5757 26.8193 45.4577 25.7017 50.8494 23.4022C51.6806 23.0368 52.3626 23.9394 51.5527 24.5197ZM53.556 22.2201C52.938 21.425 49.4855 21.8548 47.9298 22.0267C47.4609 22.0912 47.3757 21.6614 47.8019 21.382C50.5511 19.4263 55.0691 19.9851 55.6019 20.6513C56.1347 21.3175 55.474 25.8737 52.874 28.0443C52.4691 28.3881 52.1068 28.1947 52.2773 27.7649C52.874 26.3035 54.174 23.0153 53.556 22.2201Z" fill="#FF9900"/>
<path fill-rule="evenodd" clip-rule="evenodd" d="M48.0362 7.58462V5.69339C48.0362 5.414 48.2493 5.22058 48.5051 5.22058H56.9444C57.2214 5.22058 57.4345 5.414 57.4345 5.69339V7.32672C57.4345 7.60611 57.2001 7.94997 56.7952 8.53023L52.4264 14.8272C54.046 14.7842 55.7722 15.0206 57.2427 15.8587C57.5837 16.0522 57.669 16.3315 57.6903 16.5894V18.6096C57.6903 18.889 57.3919 19.2114 57.0722 19.0394C54.4723 17.664 51.0411 17.5136 48.1641 19.0609C47.8657 19.2114 47.5674 18.9105 47.5674 18.6311V16.6969C47.5674 16.396 47.5674 15.8587 47.887 15.3859L52.9378 8.05742H48.5264C48.2707 8.05742 48.0362 7.864 48.0362 7.58462ZM17.2839 19.4263H14.7266C14.4708 19.4048 14.279 19.2329 14.279 18.9965V5.71488C14.279 5.45699 14.4921 5.24207 14.7692 5.24207H17.1561C17.4118 5.26357 17.6036 5.43549 17.6249 5.69339V7.43418H17.6675C18.2856 5.75786 19.4577 4.98418 21.0347 4.98418C22.6331 4.98418 23.6347 5.75786 24.3593 7.43418C24.9773 5.75786 26.3839 4.98418 27.897 4.98418C28.9626 4.98418 30.156 5.43549 30.8593 6.44558C31.6691 7.56313 31.4986 9.17497 31.4986 10.6149V18.9965C31.4986 19.2544 31.2855 19.4693 31.0084 19.4693H28.4511C28.1953 19.4478 27.9822 19.2544 27.9822 18.9965V11.9688C27.9822 11.4101 28.0249 10.0131 27.9183 9.47584C27.7265 8.5947 27.1511 8.33681 26.4052 8.33681C25.7872 8.33681 25.1265 8.74514 24.8708 9.43286C24.615 10.0991 24.6363 11.2166 24.6363 11.9688V18.9965C24.6363 19.2544 24.4232 19.4693 24.1462 19.4693H21.5888C21.3331 19.4478 21.12 19.2544 21.12 18.9965V11.9688C21.12 10.4859 21.3544 8.31532 19.5429 8.31532C17.7102 8.31532 17.7741 10.4429 17.7741 11.9688V18.9965C17.7954 19.2114 17.561 19.4263 17.2839 19.4263ZM64.7017 4.96269C68.5164 4.96269 70.5623 8.25085 70.5623 12.4416C70.5623 16.482 68.282 19.7057 64.7017 19.7057C60.9722 19.7057 58.9263 16.4175 58.9263 12.3127C58.9263 8.16488 60.9935 4.96269 64.7017 4.96269ZM64.723 7.67058C62.8263 7.67058 62.7198 10.271 62.7198 11.8829C62.7198 13.4947 62.6984 16.9763 64.7017 16.9763C66.6837 16.9763 66.7902 14.1824 66.7902 12.4846C66.7902 11.3671 66.7476 10.0346 66.4066 8.96005C66.1083 8.03593 65.5329 7.67058 64.723 7.67058ZM75.4853 19.4263H72.9279C72.6722 19.4048 72.459 19.2114 72.459 18.9535V5.6719C72.4804 5.43549 72.6935 5.24207 72.9492 5.24207H75.3361C75.5492 5.26357 75.741 5.414 75.7836 5.60742V7.6276H75.8262C76.5508 5.82234 77.5525 4.9412 79.3213 4.9412C80.4721 4.9412 81.6016 5.34953 82.3049 6.51005C82.9656 7.56313 82.9656 9.36839 82.9656 10.6364V18.9965C82.9442 19.2329 82.7311 19.4048 82.4754 19.4048H79.9393C79.7049 19.3833 79.5131 19.2114 79.4918 18.9965V11.7969C79.4918 10.3355 79.6623 8.22935 77.8934 8.22935C77.2754 8.22935 76.7 8.65918 76.4016 9.28242C76.0394 10.0991 75.9967 10.8943 75.9967 11.7969V18.9535C75.9967 19.2114 75.7623 19.4263 75.4853 19.4263ZM41.3231 13.0864C41.3231 14.0965 41.3445 14.9346 40.833 15.8372C40.4281 16.568 39.7674 17.0193 39.0641 17.0193C38.0838 17.0193 37.5084 16.2671 37.5084 15.1495C37.5084 12.9359 39.4691 12.5491 41.3231 12.5491V13.0864ZM43.9018 19.4048C43.7313 19.5552 43.4969 19.5767 43.3051 19.4693C42.4526 18.7601 42.3035 18.4162 41.8346 17.75C40.4281 19.1899 39.4264 19.6412 37.615 19.6412C35.4625 19.6412 33.7789 18.3087 33.7789 15.6008C33.7789 13.4947 34.9084 12.0763 36.5068 11.3671C37.892 10.7438 39.8527 10.6364 41.3231 10.4644V10.1206C41.3231 9.49734 41.3658 8.78813 41.0035 8.25085C40.6838 7.77804 40.0871 7.58462 39.5543 7.58462C38.574 7.58462 37.7002 8.10041 37.4871 9.13199C37.4445 9.36839 37.274 9.5833 37.0396 9.60479L34.5461 9.32541C34.333 9.28242 34.0986 9.11049 34.1625 8.78813C34.7379 5.73637 37.4658 4.83374 39.8953 4.83374C41.1527 4.83374 42.7723 5.1776 43.7526 6.12321C45.01 7.30523 44.8821 8.87409 44.8821 10.5719V14.6122C44.8821 15.8158 45.3723 16.353 45.8412 17.0193C46.0116 17.2557 46.033 17.5351 45.8198 17.707C45.351 18.1368 44.4346 18.9535 43.9018 19.4048ZM7.69381 13.0864C7.69381 14.0965 7.71512 14.9346 7.20365 15.8372C6.79873 16.568 6.15939 17.0193 5.43481 17.0193C4.45448 17.0193 3.87908 16.2671 3.87908 15.1495C3.87908 12.9359 5.83972 12.5491 7.69381 12.5491V13.0864ZM10.2938 19.4048C10.1233 19.5552 9.88888 19.5767 9.69708 19.4693C8.84462 18.7601 8.69544 18.4162 8.22659 17.75C6.82004 19.1899 5.81841 19.6412 4.00694 19.6412C1.8545 19.6412 0.170898 18.3087 0.170898 15.6008C0.170898 13.4947 1.3004 12.0763 2.89875 11.3671C4.28399 10.7438 6.24464 10.6364 7.71512 10.4644V10.1206C7.71512 9.49734 7.75774 8.78813 7.39545 8.25085C7.07578 7.77804 6.47906 7.58462 5.94628 7.58462C4.96596 7.58462 4.09219 8.10041 3.87908 9.13199C3.83645 9.36839 3.66596 9.5833 3.43154 9.60479L0.938108 9.32541C0.724994 9.28242 0.490569 9.11049 0.554503 8.78813C1.12991 5.73637 3.85776 4.83374 6.28726 4.83374C7.54463 4.83374 9.16429 5.1776 10.1446 6.12321C11.402 7.30523 11.2741 8.87409 11.2741 10.5719V14.6122C11.2741 15.8158 11.7643 16.353 12.2331 17.0193C12.4036 17.2557 12.4249 17.5351 12.2331 17.707C11.743 18.1368 10.8053 18.9535 10.2938 19.4048Z" fill="black"/>
</svg>
