<svg width="30" height="30" viewBox="0 0 30 30" fill="none" xmlns="http://www.w3.org/2000/svg">
<g clip-path="url(#clip0_12_443)">
<path d="M19.5856 4.79801C20.6571 3.50138 21.1945 2.10068 21.1945 0.600168C21.1945 0.401285 21.1856 0.20055 21.1636 0C20.4174 0.0394433 19.6237 0.269992 18.7844 0.687017C17.9435 1.11034 17.2503 1.64088 16.7051 2.27901C15.6128 3.53934 14.998 5.08078 14.998 6.52111C14.998 6.72018 15.0106 6.90962 15.0322 7.08943C16.7283 7.23016 18.2924 6.33945 19.5856 4.79801Z" fill="#666666"/>
<path d="M25.3537 20.6257C24.0154 19.3609 23.3343 17.7676 23.3143 15.8536C23.2925 13.3961 24.3875 11.4804 26.6016 10.1126C25.3648 8.32011 23.505 7.32514 21.0296 7.12144C20.116 7.04237 19.0009 7.2431 17.6796 7.7279C16.2826 8.25066 15.4582 8.51288 15.2152 8.51288C14.8898 8.51288 14.148 8.28863 12.9926 7.84642C11.8338 7.40569 10.9014 7.18144 10.1904 7.18144C8.89089 7.20347 7.68421 7.54791 6.56744 8.22381C5.45067 8.89972 4.55838 9.82043 3.88766 10.9876C3.03423 12.4407 2.60815 14.1748 2.60815 16.1853C2.60815 17.9406 2.92417 19.7533 3.55457 21.6253C4.1432 23.3587 4.89455 24.8789 5.80846 26.19C6.66025 27.4179 7.37128 28.2845 7.93975 28.7901C8.83041 29.6343 9.7227 30.0361 10.6179 29.9974C11.2065 29.9773 11.9764 29.7713 12.9321 29.3771C13.8863 28.9843 14.7784 28.7901 15.6101 28.7901C16.4032 28.7901 17.2708 28.9843 18.2146 29.3771C19.1554 29.7713 19.9636 29.966 20.6336 29.966C21.5673 29.9436 22.4389 29.553 23.2526 28.7901C23.7776 28.3251 24.4587 27.4881 25.2905 26.2788C25.9006 25.3918 26.4274 24.427 26.8724 23.3789C27.0558 22.9345 27.2284 22.4715 27.3918 21.9882C26.6378 21.6662 25.9603 21.2127 25.3537 20.6257Z" fill="#666666"/>
</g>
<defs>
<clipPath id="clip0_12_443">
<rect width="30" height="30" fill="white"/>
</clipPath>
</defs>
</svg>
