<svg width="120" height="323" viewBox="0 0 120 323" fill="none" xmlns="http://www.w3.org/2000/svg">
<path d="M-17.2568 -30.7447C-8.01651 -30.3333 0.855929 -31.6961 10.0618 -30.9853C32.4365 -29.2579 53.7268 -25.9609 75.5843 -20.8793C90.9266 -17.3125 112.897 -14.7716 117.682 2.82389C119.091 8.00488 115.399 17.9397 112.986 22.3217C105.449 36.0101 92.5658 48.9533 82.219 60.4981C61.3049 83.8336 30.9962 101.95 23.3977 134.633C20.5189 147.016 25.1401 150.68 30.341 161.476C41.8306 185.324 59.0648 208.098 65.574 233.958C70.4357 253.273 57.3359 261.915 43.0896 271.863C28.225 282.242 10.2803 286.595 -6.83859 291.994C-37.3437 301.615 -67.5441 309.882 -97.6104 321.185" stroke="#DB3236" stroke-width="3" stroke-linecap="round"/>
</svg>
