<svg width="512" height="978" viewBox="0 0 512 978" fill="none" xmlns="http://www.w3.org/2000/svg">
<path d="M1299 947.621C1199.12 960.041 1098.12 967.219 997.591 971.383C855.278 977.279 713.348 982.668 573.107 952.942C530.486 943.909 490.097 927.011 450.068 910.226C407.306 892.296 366.628 871.903 326.44 848.889C283.02 824.025 234.257 791.234 195.164 760.164C165.225 736.369 138.345 715.068 113.875 688.944L113.089 688.266C94.0992 671.896 85.9636 664.042 65.1527 637.711C37.9837 603.335 19.5519 568.683 8.25367 529.4C1.57749 506.188 -3.25224 469.74 12.7737 449.171C20.5729 439.161 34.1697 435.106 46.0424 432.232C83.1369 423.255 121.079 420.414 159.139 419.56M159.139 419.56C177.371 419.151 195.631 419.198 213.836 419.244L215.823 419.249C302.773 419.469 390.036 421.482 476.684 429.079C547.79 435.314 619.515 442.945 687.014 467.444C735.303 484.97 743.428 540.642 731.404 584.762C725.749 605.51 715.575 613.88 694.998 618.144C671.551 623.002 646.602 620.3 623.1 617.127C544.395 606.5 467.163 580.68 394.882 548.576C329.56 519.562 265.907 488.169 205.006 450.77C188.391 440.567 173.076 430.569 159.139 419.56ZM159.139 419.56C136.599 401.754 117.665 381.301 102.671 353.053C78.9395 308.346 71.7976 250.883 90.2063 203.113C112.642 144.893 166.928 97.3255 223.204 73.4919C283.826 47.8177 351.724 37.5971 416.576 29.533C514.452 17.3627 613.092 17.3754 711.45 11.2571C800.82 5.69785 889.963 4.02523 979.441 2.42002C1054.63 1.07125 1128.75 1.83815 1201.71 22.3326C1221.44 27.8752 1244.47 35.6701 1260.45 49.1665C1266.16 53.9877 1271.86 60.8044 1278.56 63.171" stroke="#DB3236" stroke-width="3" stroke-linecap="round"/>
</svg>
