<svg width="296" height="1323" viewBox="0 0 296 1323" fill="none" xmlns="http://www.w3.org/2000/svg">
<path d="M-645.984 255.814C-635.573 241.648 -628.738 240.207 -612.485 234.216C-586.828 224.759 -562.664 211.945 -537.713 200.864C-493.543 181.247 -450.196 159.554 -405.766 140.593C-348.271 116.057 -288.415 100.965 -228.91 82.4618C-171.098 64.4852 -115.029 44.1462 -55.1916 33.4315C1.1458 23.3436 58.6463 15.284 115.546 8.93596C162.819 3.66181 230.427 -8.25359 272.462 21.8814C295.297 38.2511 300.562 77.9857 285.085 101.375C269.672 124.67 242.265 143.678 218.794 157.385C162.936 190.006 102.412 214.622 43.0524 239.988C-57.8793 283.118 -154.692 331.456 -251.308 383.313C-260.164 388.066 -241.861 385.786 -236.44 387.035C-198.878 395.684 -162.251 405.093 -124.046 411.387C-20.8563 428.386 90.9884 431.744 185.89 479.544C218.586 496.013 239.293 523.367 211.171 553.079C179.351 586.698 137.138 605.849 97.6479 628.761C13.3626 677.662 -71.4909 728.234 -151.483 783.888C-223.304 833.856 -294.949 884.78 -365.111 937.068C-375.986 945.174 -382.711 947.209 -369.916 955.286C-319.615 987.039 -266.01 1012.67 -215.668 1044.21C-187.804 1061.67 -159.952 1080.49 -139.039 1106.3C-123.499 1125.48 -123.936 1150.72 -127.345 1174.03C-130.795 1197.62 -142.17 1214.29 -160.453 1229.12C-189.439 1252.63 -217.773 1272.11 -251.649 1287.5C-276.147 1298.63 -306.356 1305.08 -328.102 1321.04" stroke="#DB3236" stroke-width="3" stroke-linecap="round"/>
</svg>
