<svg width="221" height="703" viewBox="0 0 221 703" fill="none" xmlns="http://www.w3.org/2000/svg">
<path d="M539.716 1.9502C487.634 17.5934 436.245 36.2473 385.807 56.3833C314.404 84.8894 243.31 113.577 181.4 160.388C162.585 174.614 146.739 192.487 131.042 210.221C114.274 229.165 99.117 248.944 84.8244 269.995C69.3826 292.738 53.1983 320.844 41.3608 345.895C32.2949 365.081 24.1408 382.273 18.3199 401.471L18.0943 402.003C12.6481 414.844 10.5149 420.789 6.54269 439.283C1.35684 463.428 0.53428 485.776 4.32227 508.98C6.56063 522.692 12.8559 542.965 25.6321 550.241C31.8497 553.782 39.5024 552.898 46.0259 551.775C66.4075 548.264 85.7464 541.333 104.671 533.329M104.671 533.329C113.736 529.494 122.706 525.414 131.65 521.345L132.626 520.901C175.342 501.471 217.786 481.028 258.599 457.778C292.091 438.699 325.555 418.747 352.928 390.848C372.511 370.889 363.263 339.756 346.853 319.184C339.135 309.51 332.14 307.361 321.004 309.685C308.315 312.334 296.686 319.299 285.881 326.191C249.696 349.272 217.85 380.03 189.934 412.998C164.706 442.792 140.865 473.469 119.807 506.699C114.061 515.765 108.906 524.433 104.671 533.329ZM104.671 533.329C97.8193 547.716 93.3719 562.696 92.7167 580.908C91.6799 609.731 101.837 641.589 122.256 662.665C147.143 688.352 185.161 701.352 218.512 701.408C254.438 701.467 290.267 691.769 324.085 681.612C375.123 666.283 423.639 644.365 473.475 625.74C518.756 608.817 563.001 589.897 607.395 570.868C644.7 554.877 680.978 538.007 711.985 511.006C720.371 503.704 729.847 494.481 734.497 483.821C736.158 480.014 737.342 475.155 740.073 472.421" stroke="#DB3236" stroke-width="3" stroke-linecap="round"/>
</svg>
