<svg width="90" height="30" viewBox="0 0 90 30" fill="none" xmlns="http://www.w3.org/2000/svg">
<g clip-path="url(#clip0_12_447)">
<path d="M22.1559 10.4992H11.6404V13.6389H19.0981C18.7298 18.0413 15.0892 19.9189 11.653 19.9189C7.25664 19.9189 3.42019 16.4386 3.42019 11.5604C3.42019 6.80828 7.07723 3.14858 11.6627 3.14858C15.2004 3.14858 17.2849 5.41752 17.2849 5.41752L19.4699 3.14109C19.4699 3.14109 16.6656 0 11.5511 0C5.03832 0 0 5.53049 0 11.5042C0 17.3578 4.73935 23.0656 11.7171 23.0656C17.854 23.0656 22.3464 18.8357 22.3464 12.5805C22.3464 11.261 22.1559 10.4983 22.1559 10.4983V10.4992Z" fill="#4885ED"/>
<path d="M30.7699 8.22557C26.4551 8.22557 23.3628 11.6198 23.3628 15.5782C23.3628 19.5952 26.3622 23.0524 30.8205 23.0524C34.8566 23.0524 38.1632 19.9486 38.1632 15.6646C38.1632 10.7543 34.3169 8.22557 30.7699 8.22557ZM30.8128 11.1375C32.9345 11.1375 34.9453 12.8636 34.9453 15.6448C34.9453 18.367 32.9431 20.1423 30.8031 20.1423C28.4514 20.1423 26.5963 18.2472 26.5963 15.6231C26.5963 13.0553 28.4285 11.1375 30.8128 11.1375Z" fill="#DB3236"/>
<path d="M46.8793 8.22557C42.5644 8.22557 39.4722 11.6198 39.4722 15.5782C39.4722 19.5952 42.4716 23.0524 46.9299 23.0524C50.966 23.0524 54.2725 19.9486 54.2725 15.6646C54.2726 10.7543 50.4263 8.22557 46.8793 8.22557ZM46.9221 11.1375C49.0442 11.1375 51.0548 12.8636 51.0548 15.6448C51.0548 18.367 49.0526 20.1423 46.9124 20.1423C44.561 20.1423 42.7058 18.2472 42.7058 15.6231C42.7058 13.0553 44.5378 11.1375 46.9221 11.1375Z" fill="#F4C20D"/>
<path d="M62.6799 8.23323C58.7193 8.23323 55.6062 11.7233 55.6062 15.6407C55.6062 20.1029 59.2154 23.0618 62.6116 23.0618C64.7115 23.0618 65.8281 22.2232 66.6525 21.2605V22.7223C66.6525 25.2798 65.1092 26.8117 62.7795 26.8117C60.5288 26.8117 59.4001 25.1279 59.0078 24.1725L56.1762 25.3636C57.1806 27.5009 59.2029 29.7296 62.8031 29.7296C66.7409 29.7296 69.7421 27.2341 69.7421 22.0002V8.67907H66.6529V9.93489C65.7029 8.90501 64.4038 8.23339 62.6799 8.23323ZM62.9665 11.1394C64.9082 11.1394 66.9023 12.8077 66.9023 15.6565C66.9023 18.5523 64.9126 20.1481 62.9237 20.1481C60.8121 20.1481 58.8476 18.4232 58.8476 15.684C58.8476 12.8378 60.888 11.1394 62.9665 11.1394Z" fill="#4885ED"/>
<path d="M83.4773 8.21561C79.7413 8.21561 76.6047 11.2063 76.6047 15.6192C76.6047 20.2887 80.101 23.058 83.8363 23.058C86.9538 23.058 88.867 21.3421 90.0087 19.8046L87.4616 18.0994C86.8007 19.1314 85.6958 20.1401 83.8518 20.1401C81.7802 20.1401 80.828 18.9989 80.238 17.8933L90.1174 13.7687L89.6046 12.5599C88.6502 10.1929 86.4236 8.21593 83.4776 8.21593L83.4773 8.21561ZM83.6059 11.0668C84.9523 11.0668 85.921 11.7869 86.3326 12.6503L79.735 15.425C79.4504 13.2768 81.473 11.0668 83.6059 11.0668Z" fill="#DB3236"/>
<path d="M71.8948 22.6179H75.1399V0.766663H71.8948V22.6179Z" fill="#3CBA54"/>
</g>
<defs>
<clipPath id="clip0_12_447">
<rect width="90" height="30" fill="white"/>
</clipPath>
</defs>
</svg>
