<svg width="42" height="45" viewBox="0 0 42 45" fill="none" xmlns="http://www.w3.org/2000/svg">
<path d="M19.7706 3.06748C19.4337 2.73056 18.9583 2.56942 18.4866 2.64486C18.0164 2.71518 17.6069 3.00522 17.3843 3.42638L7.94452 21.2585L2.79909 26.4032C1.21627 27.9875 0.732127 30.2368 1.29172 32.254C-0.56064 34.6066 -0.4288 38.022 1.73924 40.193C2.90969 41.3619 4.44636 41.9464 5.98303 41.9464C7.29557 41.9464 8.59347 41.493 9.67749 40.6398C10.2041 40.7862 10.7417 40.8859 11.2852 40.8859C12.3377 40.8851 13.3822 40.5899 14.3168 40.0413L18.1812 43.9043C18.9114 44.6352 19.8717 45 20.8319 45C21.7921 45 22.7531 44.6352 23.4841 43.9043C24.9461 42.4423 24.9461 40.0633 23.4841 38.6014L19.7713 34.8886L20.673 33.9869L38.5051 24.5457C38.9255 24.3231 39.2156 23.9136 39.2873 23.4427C39.3577 22.9724 39.2009 22.4956 38.864 22.1594L19.7706 3.06748ZM3.86114 38.0711C3.07962 37.2888 2.83205 36.1821 3.095 35.183L6.74844 38.8365C5.75011 39.0994 4.64339 38.8526 3.86114 38.0711ZM9.16477 37.0105L4.92098 32.7667C3.752 31.5977 3.752 29.6941 4.92098 28.5244L9.16477 24.2806L17.6509 32.7667L13.4071 37.0098C12.2381 38.1802 10.3352 38.1809 9.16477 37.0105ZM21.3629 40.7225C21.5512 40.9108 21.5797 41.1356 21.5797 41.2528C21.5797 41.37 21.5512 41.5949 21.3637 41.7824C21.0765 42.068 20.5909 42.0717 20.3023 41.7831L16.5888 38.0711L17.6502 37.0098L21.3629 40.7225ZM20.0489 30.9231L11.0091 21.8818L19.0858 6.62497L35.3072 22.845L20.0489 30.9231ZM25.4837 4.50015V1.50005C25.4837 0.671653 26.1546 0 26.9837 0C27.8128 0 28.4838 0.671653 28.4838 1.50005V4.50015C28.4838 5.32854 27.8128 6.0002 26.9837 6.0002C26.1546 6.0002 25.4837 5.32854 25.4837 4.50015ZM41.9842 14.9998C41.9842 15.8282 41.3133 16.4998 40.4842 16.4998H37.4841C36.6549 16.4998 35.984 15.8282 35.984 14.9998C35.984 14.1714 36.6549 13.4997 37.4841 13.4997H40.4842C41.3133 13.4997 41.9842 14.1714 41.9842 14.9998ZM31.9233 10.0601C31.3374 9.47419 31.3374 8.52494 31.9233 7.93898L34.9234 4.93888C35.5094 4.35292 36.4586 4.35292 37.0446 4.93888C37.6305 5.52484 37.6305 6.47409 37.0446 7.06004L34.0445 10.0601C33.7515 10.3531 33.3677 10.4996 32.9839 10.4996C32.6001 10.4996 32.2163 10.3531 31.9233 10.0601Z" fill="#4885ED"/>
</svg>
