<svg width="45" height="45" viewBox="0 0 45 45" fill="none" xmlns="http://www.w3.org/2000/svg">
<path fill-rule="evenodd" clip-rule="evenodd" d="M41.0654 18.2677C41.3746 19.6292 41.5385 21.0462 41.5385 22.5C41.5385 33.0069 33.0069 41.5385 22.5 41.5385C11.9931 41.5385 3.46154 33.0069 3.46154 22.5C3.46154 11.9931 11.9931 3.46154 22.5 3.46154C23.9538 3.46154 25.3708 3.62538 26.7323 3.93462C27.6623 4.14692 28.5923 3.56077 28.8023 2.63077C29.0146 1.69846 28.4308 0.770769 27.4985 0.558462C25.89 0.193846 24.2169 0 22.5 0C10.0823 0 0 10.0823 0 22.5C0 34.9177 10.0823 45 22.5 45C34.9177 45 45 34.9177 45 22.5C45 20.7831 44.8062 19.11 44.4415 17.5015C44.2292 16.5692 43.3015 15.9854 42.3692 16.1977C41.4392 16.4077 40.8531 17.3377 41.0654 18.2677Z" fill="#4885ED"/>
<path fill-rule="evenodd" clip-rule="evenodd" d="M32.3074 22.4999C32.3074 27.9138 27.9135 32.3076 22.4997 32.3076C17.0859 32.3076 12.692 27.9138 12.692 22.4999C12.692 17.0861 17.0859 12.6923 22.4997 12.6923C23.4551 12.6923 24.2305 11.9169 24.2305 10.9615C24.2305 10.0061 23.4551 9.23071 22.4997 9.23071C15.1751 9.23071 9.23047 15.1753 9.23047 22.4999C9.23047 29.8246 15.1751 35.7692 22.4997 35.7692C29.8243 35.7692 35.7689 29.8246 35.7689 22.4999C35.7689 21.5446 34.9935 20.7692 34.0382 20.7692C33.0828 20.7692 32.3074 21.5446 32.3074 22.4999Z" fill="#4885ED"/>
<path fill-rule="evenodd" clip-rule="evenodd" d="M28.6979 13.8531L23.8563 18.6947C23.4317 18.5447 22.9748 18.4616 22.4994 18.4616C20.2702 18.4616 18.4609 20.2708 18.4609 22.5001C18.4609 24.7293 20.2702 26.5385 22.4994 26.5385C24.7286 26.5385 26.5379 24.7293 26.5379 22.5001C26.5379 22.0247 26.4548 21.5678 26.3048 21.1432L31.1463 16.3016L36.0063 17.2731C36.574 17.3885 37.1602 17.2108 37.5686 16.8001L44.4917 9.87698C44.8863 9.48467 45.0663 8.92621 44.9763 8.37698C44.8886 7.82774 44.5402 7.35467 44.0417 7.10544L39.9432 5.05621L37.894 0.957745C37.6448 0.459283 37.1717 0.110822 36.6225 0.0231294C36.0732 -0.0668706 35.5148 0.11313 35.1225 0.507745L28.1994 7.43082C27.7886 7.83928 27.6109 8.42544 27.7263 8.99313L28.6979 13.8531ZM35.8725 4.65236L37.1048 7.11928C37.2732 7.45621 37.5432 7.72621 37.8802 7.89467L40.3471 9.12698L35.7756 13.6985L32.0463 12.9531L31.3009 9.2239L35.8725 4.65236Z" fill="#4885ED"/>
</svg>
