<svg width="1920" height="265" viewBox="0 0 1920 265" fill="none" xmlns="http://www.w3.org/2000/svg">
<rect x="-59.9756" y="142.21" width="2038.66" height="72.9759" transform="rotate(-4 -59.9756 142.21)" fill="#F4C20D"/>
<path d="M-0.845977 171.941C-5.11052 171.353 -8.62519 168.298 -9.80005 164.157C-10.0265 163.358 -10.7817 162.828 -11.6097 162.886C-12.4376 162.944 -13.1117 163.574 -13.2248 164.396C-13.812 168.661 -16.8673 172.175 -21.0086 173.35C-21.807 173.577 -22.3375 174.332 -22.2796 175.16C-22.2217 175.988 -21.5914 176.662 -20.7691 176.775C-16.5047 177.362 -12.99 180.417 -11.8151 184.559C-11.5887 185.357 -10.8335 185.888 -10.0055 185.83C-9.1776 185.772 -8.50351 185.142 -8.39037 184.319C-7.80308 180.055 -4.74783 176.54 -0.606599 175.365C0.191779 175.139 0.722287 174.384 0.664394 173.556C0.6065 172.728 -0.023842 172.054 -0.845977 171.941Z" fill="white"/>
<path d="M276.735 152.53C272.471 151.943 268.956 148.888 267.781 144.746C267.555 143.948 266.799 143.417 265.971 143.475C265.143 143.533 264.469 144.164 264.356 144.986C263.769 149.25 260.714 152.765 256.572 153.94C255.774 154.166 255.244 154.922 255.301 155.749C255.359 156.577 255.99 157.251 256.812 157.365C261.076 157.952 264.591 161.007 265.766 165.148C265.992 165.947 266.748 166.477 267.576 166.419C268.403 166.361 269.078 165.731 269.191 164.909C269.778 160.644 272.833 157.13 276.974 155.955C277.773 155.728 278.303 154.973 278.245 154.145C278.188 153.317 277.557 152.643 276.735 152.53Z" fill="white"/>
<path d="M554.058 133.138C549.793 132.551 546.279 129.495 545.104 125.354C544.877 124.556 544.122 124.025 543.294 124.083C542.466 124.141 541.792 124.771 541.679 125.593C541.092 129.858 538.037 133.373 533.895 134.547C533.097 134.774 532.566 135.529 532.624 136.357C532.682 137.185 533.312 137.859 534.135 137.972C538.399 138.559 541.914 141.615 543.089 145.756C543.315 146.554 544.07 147.085 544.898 147.027C545.726 146.969 546.4 146.339 546.513 145.517C547.101 141.252 550.156 137.737 554.297 136.563C555.096 136.336 555.626 135.581 555.568 134.753C555.51 133.925 554.88 133.251 554.058 133.138Z" fill="white"/>
<path d="M67.4109 154.132L61.3058 154.559L63.259 182.49L67.0896 182.223L65.7084 162.471L70.3616 181.994L74.5115 181.704L76.1434 161.46L77.5441 181.492L81.694 181.201L79.7408 153.27L73.6357 153.697L72.0298 173.737L67.4109 154.132ZM85.7881 176.665L86.0839 180.894L90.3135 180.599L90.0178 176.369L85.7881 176.665ZM102.468 151.68L96.0435 152.13L93.5276 180.374L97.5577 180.092L97.9615 174.971L103.348 174.595L104.461 179.609L108.89 179.3L102.468 151.68ZM99.3822 156.868L102.485 170.846L98.2551 171.142L99.3822 156.868ZM111.835 174.843L112.131 179.073L116.361 178.777L116.065 174.548L111.835 174.843ZM130.109 177.816L134.618 177.501L132.665 149.569L128.755 149.842L129.924 166.561L124.246 150.158L118.739 150.543L120.692 178.474L124.643 178.198L123.228 157.968L130.109 177.816ZM138.662 172.967L138.958 177.197L143.188 176.901L142.892 172.672L138.662 172.967ZM152.944 164.591L154.939 164.451L155.299 169.599C155.438 171.594 154.611 172.373 153.214 172.471C151.818 172.569 150.89 171.912 150.75 169.917L149.695 154.834C149.556 152.838 150.381 152.019 151.777 151.921C153.174 151.824 154.105 152.52 154.244 154.516L154.453 157.508L158.603 157.218L158.414 154.505C158.101 150.036 155.688 147.638 151.378 147.939C147.069 148.241 145.013 150.951 145.326 155.42L146.341 169.944C146.654 174.413 149.067 176.811 153.376 176.51C157.686 176.208 159.742 173.498 159.429 169.029L158.81 160.171L152.665 160.601L152.944 164.591ZM163.229 171.25L163.524 175.479L167.754 175.183L167.458 170.954L163.229 171.25ZM179.908 146.265L173.484 146.714L170.968 174.959L174.998 174.677L175.402 169.556L180.789 169.18L181.901 174.194L186.331 173.884L179.908 146.265ZM176.823 151.453L179.925 165.431L175.696 165.726L176.823 151.453ZM189.276 169.428L189.572 173.658L193.801 173.362L193.506 169.132L189.276 169.428Z" fill="white"/>
<path d="M344.992 134.721L338.887 135.148L340.84 163.08L344.671 162.812L343.289 143.06L347.943 162.583L352.093 162.293L353.724 142.05L355.125 162.081L359.275 161.791L357.322 133.859L351.217 134.286L349.611 154.327L344.992 134.721ZM363.369 157.254L363.665 161.484L367.895 161.188L367.599 156.959L363.369 157.254ZM380.049 132.27L373.625 132.719L371.109 160.964L375.139 160.682L375.543 155.561L380.929 155.184L382.042 160.199L386.471 159.889L380.049 132.27ZM376.963 137.458L380.066 151.435L375.836 151.731L376.963 137.458ZM389.416 155.433L389.712 159.663L393.942 159.367L393.646 155.137L389.416 155.433ZM407.69 158.405L412.199 158.09L410.246 130.158L406.336 130.432L407.505 147.151L401.827 130.747L396.32 131.132L398.273 159.064L402.224 158.788L400.809 138.557L407.69 158.405ZM416.243 153.557L416.539 157.787L420.769 157.491L420.473 153.261L416.243 153.557ZM430.525 145.18L432.52 145.041L432.88 150.188C433.019 152.183 432.192 152.963 430.795 153.061C429.399 153.158 428.471 152.502 428.331 150.506L427.276 135.423C427.137 133.428 427.962 132.609 429.358 132.511C430.755 132.413 431.686 133.11 431.825 135.105L432.035 138.098L436.184 137.808L435.995 135.094C435.682 130.625 433.269 128.228 428.96 128.529C424.65 128.83 422.594 131.54 422.907 136.009L423.922 150.534C424.235 155.003 426.648 157.401 430.957 157.099C435.267 156.798 437.323 154.088 437.01 149.619L436.391 140.76L430.246 141.19L430.525 145.18ZM440.81 151.839L441.106 156.069L445.335 155.773L445.039 151.543L440.81 151.839ZM457.489 126.855L451.065 127.304L448.549 155.548L452.579 155.267L452.983 150.146L458.37 149.769L459.483 154.784L463.912 154.474L457.489 126.855ZM454.404 132.043L457.506 146.02L453.277 146.316L454.404 132.043ZM466.857 150.018L467.153 154.247L471.383 153.952L471.087 149.722L466.857 150.018Z" fill="white"/>
<path d="M622.315 115.329L616.21 115.756L618.163 143.688L621.993 143.42L620.612 123.668L625.265 143.191L629.415 142.901L631.047 122.658L632.448 142.689L636.598 142.399L634.645 114.467L628.539 114.894L626.934 134.935L622.315 115.329ZM640.692 137.862L640.988 142.092L645.217 141.796L644.922 137.566L640.692 137.862ZM657.372 112.878L650.947 113.327L648.431 141.571L652.462 141.289L652.865 136.169L658.252 135.792L659.365 140.807L663.794 140.497L657.372 112.878ZM654.286 118.066L657.389 132.043L653.159 132.339L654.286 118.066ZM666.739 136.041L667.035 140.27L671.265 139.975L670.969 135.745L666.739 136.041ZM685.013 139.013L689.522 138.698L687.569 110.766L683.658 111.039L684.827 127.759L679.149 111.355L673.643 111.74L675.596 139.672L679.546 139.395L678.132 119.165L685.013 139.013ZM693.566 134.165L693.862 138.394L698.091 138.099L697.796 133.869L693.566 134.165ZM707.848 125.788L709.843 125.649L710.203 130.796C710.342 132.791 709.515 133.571 708.118 133.668C706.721 133.766 705.793 133.109 705.654 131.114L704.599 116.031C704.46 114.036 705.284 113.216 706.681 113.119C708.078 113.021 709.008 113.718 709.148 115.713L709.357 118.705L713.507 118.415L713.317 115.702C713.005 111.233 710.592 108.835 706.282 109.137C701.973 109.438 699.917 112.148 700.229 116.617L701.245 131.142C701.558 135.611 703.971 138.008 708.28 137.707C712.59 137.406 714.646 134.696 714.333 130.226L713.714 121.368L707.569 121.798L707.848 125.788ZM718.132 132.447L718.428 136.677L722.658 136.381L722.362 132.151L718.132 132.447ZM734.812 107.462L728.388 107.912L725.872 136.156L729.902 135.874L730.306 130.754L735.693 130.377L736.805 135.391L741.234 135.082L734.812 107.462ZM731.727 112.65L734.829 126.628L730.599 126.924L731.727 112.65ZM744.18 130.625L744.476 134.855L748.705 134.559L748.41 130.33L744.18 130.625Z" fill="white"/>
<path d="M832.12 113.694C827.856 113.107 824.341 110.051 823.166 105.91C822.94 105.112 822.184 104.581 821.356 104.639C820.528 104.697 819.854 105.327 819.741 106.15C819.154 110.414 816.099 113.929 811.957 115.104C811.159 115.33 810.629 116.085 810.686 116.913C810.744 117.741 811.375 118.415 812.197 118.528C816.461 119.116 819.976 122.171 821.151 126.312C821.377 127.111 822.133 127.641 822.961 127.583C823.788 127.525 824.463 126.895 824.576 126.073C825.163 121.808 828.218 118.293 832.359 117.119C833.158 116.892 833.688 116.137 833.63 115.309C833.573 114.481 832.942 113.807 832.12 113.694Z" fill="white"/>
<path d="M1109.7 94.2836C1105.44 93.6964 1101.92 90.641 1100.75 86.4998C1100.52 85.7014 1099.77 85.1709 1098.94 85.2288C1098.11 85.2867 1097.44 85.9169 1097.32 86.7392C1096.74 91.0037 1093.68 94.5184 1089.54 95.6932C1088.74 95.9197 1088.21 96.675 1088.27 97.5029C1088.33 98.3308 1088.96 99.0048 1089.78 99.118C1094.04 99.7052 1097.56 102.76 1098.73 106.902C1098.96 107.7 1099.71 108.231 1100.54 108.173C1101.37 108.115 1102.04 107.485 1102.16 106.662C1102.74 102.398 1105.8 98.8831 1109.94 97.7083C1110.74 97.4818 1111.27 96.7266 1111.21 95.8987C1111.15 95.0708 1110.52 94.3967 1109.7 94.2836Z" fill="white"/>
<path d="M1387.02 74.8912C1382.76 74.304 1379.24 71.2487 1378.07 67.1075C1377.84 66.3091 1377.09 65.7786 1376.26 65.8365C1375.43 65.8944 1374.76 66.5246 1374.65 67.3468C1374.06 71.6114 1371 75.126 1366.86 76.3009C1366.06 76.5274 1365.53 77.2826 1365.59 78.1106C1365.65 78.9385 1366.28 79.6124 1367.1 79.7257C1371.37 80.3129 1374.88 83.3681 1376.05 87.5095C1376.28 88.3078 1377.04 88.8384 1377.86 88.7805C1378.69 88.7226 1379.37 88.0923 1379.48 87.27C1380.07 83.0054 1383.12 79.4908 1387.26 78.316C1388.06 78.0894 1388.59 77.3343 1388.53 76.5064C1388.48 75.6785 1387.85 75.0044 1387.02 74.8912Z" fill="white"/>
<path d="M1664.07 55.297C1659.81 54.7098 1656.29 51.6544 1655.12 47.5132C1654.89 46.7148 1654.14 46.1843 1653.31 46.2422C1652.48 46.3001 1651.81 46.9304 1651.69 47.7526C1651.11 52.0171 1648.05 55.5318 1643.91 56.7067C1643.11 56.9331 1642.58 57.6884 1642.64 58.5163C1642.7 59.3442 1643.33 60.0182 1644.15 60.1315C1648.41 60.7186 1651.93 63.7739 1653.1 67.9152C1653.33 68.7136 1654.09 69.2441 1654.91 69.1862C1655.74 69.1283 1656.42 68.4981 1656.53 67.6757C1657.12 63.4112 1660.17 59.8965 1664.31 58.7218C1665.11 58.4952 1665.64 57.74 1665.58 56.9121C1665.53 56.0842 1664.9 55.4101 1664.07 55.297Z" fill="white"/>
<path d="M900.377 95.8852L894.272 96.3121L896.225 124.244L900.056 123.976L898.675 104.224L903.328 123.747L907.478 123.457L909.109 103.214L910.51 123.245L914.66 122.955L912.707 95.023L906.602 95.4499L904.996 115.491L900.377 95.8852ZM918.754 118.418L919.05 122.648L923.28 122.352L922.984 118.122L918.754 118.418ZM935.434 93.4338L929.01 93.883L926.494 122.127L930.524 121.846L930.928 116.725L936.314 116.348L937.427 121.363L941.856 121.053L935.434 93.4338ZM932.348 98.6217L935.451 112.599L931.221 112.895L932.348 98.6217ZM944.801 116.597L945.097 120.826L949.327 120.531L949.031 116.301L944.801 116.597ZM963.075 119.569L967.584 119.254L965.631 91.3222L961.721 91.5956L962.89 108.315L957.212 91.9109L951.705 92.296L953.658 120.228L957.609 119.952L956.194 99.7209L963.075 119.569ZM971.628 114.721L971.924 118.951L976.154 118.655L975.858 114.425L971.628 114.721ZM985.91 106.344L987.905 106.205L988.265 111.352C988.404 113.347 987.577 114.127 986.18 114.225C984.784 114.322 983.856 113.665 983.716 111.67L982.661 96.587C982.522 94.5919 983.347 93.7724 984.743 93.6747C986.14 93.5771 987.071 94.2738 987.21 96.269L987.42 99.2616L991.569 98.9715L991.38 96.2581C991.067 91.789 988.654 89.3915 984.345 89.6928C980.035 89.9942 977.979 92.7042 978.292 97.1733L979.307 111.698C979.62 116.167 982.033 118.564 986.342 118.263C990.652 117.962 992.708 115.252 992.395 110.783L991.776 101.924L985.631 102.354L985.91 106.344ZM996.195 113.003L996.491 117.233L1000.72 116.937L1000.42 112.707L996.195 113.003ZM1012.87 88.0186L1006.45 88.4678L1003.93 116.712L1007.96 116.43L1008.37 111.31L1013.76 110.933L1014.87 115.948L1019.3 115.638L1012.87 88.0186ZM1009.79 93.2065L1012.89 107.184L1008.66 107.48L1009.79 93.2065ZM1022.24 111.182L1022.54 115.411L1026.77 115.115L1026.47 110.886L1022.24 111.182Z" fill="white"/>
<path d="M1177.96 76.4748L1171.85 76.9017L1173.81 104.834L1177.64 104.566L1176.26 84.8139L1180.91 104.337L1185.06 104.047L1186.69 83.8035L1188.09 103.835L1192.24 103.544L1190.29 75.6126L1184.18 76.0395L1182.58 96.0804L1177.96 76.4748ZM1196.33 99.0078L1196.63 103.237L1200.86 102.942L1200.56 98.712L1196.33 99.0078ZM1213.01 74.0234L1206.59 74.4726L1204.07 102.717L1208.1 102.435L1208.51 97.3145L1213.9 96.9378L1215.01 101.952L1219.44 101.643L1213.01 74.0234ZM1209.93 79.2113L1213.03 93.1889L1208.8 93.4847L1209.93 79.2113ZM1222.38 97.1864L1222.68 101.416L1226.91 101.12L1226.61 96.8906L1222.38 97.1864ZM1240.66 100.159L1245.17 99.8436L1243.21 71.9118L1239.3 72.1852L1240.47 88.9044L1234.79 72.5005L1229.29 72.8856L1231.24 100.817L1235.19 100.541L1233.77 80.3105L1240.66 100.159ZM1249.21 95.3105L1249.5 99.5401L1253.73 99.2444L1253.44 95.0147L1249.21 95.3105ZM1263.49 86.9338L1265.49 86.7943L1265.85 91.9417C1265.99 93.9368 1265.16 94.7165 1263.76 94.8141C1262.36 94.9118 1261.44 94.2549 1261.3 92.2598L1260.24 77.1766C1260.1 75.1815 1260.93 74.362 1262.32 74.2643C1263.72 74.1667 1264.65 74.8634 1264.79 76.8586L1265 79.8512L1269.15 79.5611L1268.96 76.8477C1268.65 72.3786 1266.23 69.9811 1261.93 70.2824C1257.62 70.5838 1255.56 73.2938 1255.87 77.7629L1256.89 92.2874C1257.2 96.7565 1259.61 99.154 1263.92 98.8527C1268.23 98.5513 1270.29 95.8413 1269.98 91.3722L1269.36 82.5138L1263.21 82.9435L1263.49 86.9338ZM1273.78 93.5926L1274.07 97.8223L1278.3 97.5265L1278.01 93.2968L1273.78 93.5926ZM1290.46 68.6082L1284.03 69.0574L1281.52 97.3017L1285.55 97.0199L1285.95 91.8993L1291.34 91.5226L1292.45 96.5372L1296.88 96.2275L1290.46 68.6082ZM1287.37 73.7961L1290.47 87.7737L1286.24 88.0695L1287.37 73.7961ZM1299.82 91.7712L1300.12 96.0009L1304.35 95.7051L1304.05 91.4754L1299.82 91.7712Z" fill="white"/>
<path d="M1455.28 57.0825L1449.18 57.5094L1451.13 85.4412L1454.96 85.1733L1453.58 65.4215L1458.23 84.9445L1462.38 84.6543L1464.01 64.4112L1465.41 84.4423L1469.56 84.1521L1467.61 56.2203L1461.51 56.6472L1459.9 76.688L1455.28 57.0825ZM1473.66 79.6154L1473.95 83.8451L1478.18 83.5493L1477.89 79.3197L1473.66 79.6154ZM1490.34 54.631L1483.91 55.0803L1481.4 83.3246L1485.43 83.0428L1485.83 77.9221L1491.22 77.5454L1492.33 82.5601L1496.76 82.2503L1490.34 54.631ZM1487.25 59.8189L1490.35 73.7966L1486.12 74.0923L1487.25 59.8189ZM1499.71 77.794L1500 82.0237L1504.23 81.7279L1503.93 77.4983L1499.71 77.794ZM1517.98 80.7666L1522.49 80.4513L1520.53 52.5195L1516.62 52.7929L1517.79 69.5121L1512.12 53.1082L1506.61 53.4933L1508.56 81.4251L1512.51 81.1488L1511.1 60.9182L1517.98 80.7666ZM1526.53 75.9181L1526.83 80.1478L1531.06 79.852L1530.76 75.6223L1526.53 75.9181ZM1540.81 67.5415L1542.81 67.402L1543.17 72.5494C1543.31 74.5445 1542.48 75.3241 1541.08 75.4218C1539.69 75.5195 1538.76 74.8626 1538.62 72.8675L1537.56 57.7843C1537.43 55.7892 1538.25 54.9696 1539.65 54.872C1541.04 54.7743 1541.97 55.4711 1542.11 57.4662L1542.32 60.4589L1546.47 60.1687L1546.28 57.4553C1545.97 52.9863 1543.56 50.5888 1539.25 50.8901C1534.94 51.1914 1532.88 53.9015 1533.2 58.3706L1534.21 72.8951C1534.52 77.3642 1536.94 79.7617 1541.25 79.4603C1545.56 79.159 1547.61 76.449 1547.3 71.9799L1546.68 63.1215L1540.53 63.5512L1540.81 67.5415ZM1551.1 74.2003L1551.39 78.4299L1555.62 78.1342L1555.33 73.9045L1551.1 74.2003ZM1567.78 49.2159L1561.35 49.6651L1558.84 77.9094L1562.87 77.6276L1563.27 72.507L1568.66 72.1303L1569.77 77.1449L1574.2 76.8352L1567.78 49.2159ZM1564.69 54.4038L1567.79 68.3814L1563.57 68.6771L1564.69 54.4038ZM1577.15 72.3788L1577.44 76.6085L1581.67 76.3128L1581.38 72.0831L1577.15 72.3788Z" fill="white"/>
<path d="M1733.34 37.6386L1727.24 38.0655L1729.19 65.9973L1733.02 65.7295L1731.64 45.9777L1736.29 65.5007L1740.44 65.2105L1742.08 44.9673L1743.48 64.9984L1747.63 64.7082L1745.67 36.7764L1739.57 37.2033L1737.96 57.2442L1733.34 37.6386ZM1751.72 60.1716L1752.02 64.4013L1756.25 64.1055L1755.95 59.8758L1751.72 60.1716ZM1768.4 35.1872L1761.98 35.6364L1759.46 63.8807L1763.49 63.5989L1763.89 58.4783L1769.28 58.1016L1770.39 63.1162L1774.82 62.8065L1768.4 35.1872ZM1765.31 40.3751L1768.42 54.3527L1764.19 54.6485L1765.31 40.3751ZM1777.77 58.3502L1778.06 62.5798L1782.29 62.2841L1782 58.0544L1777.77 58.3502ZM1796.04 61.3227L1800.55 61.0074L1798.6 33.0756L1794.69 33.3491L1795.86 50.0682L1790.18 33.6644L1784.67 34.0494L1786.62 61.9812L1790.57 61.705L1789.16 41.4744L1796.04 61.3227ZM1804.59 56.4743L1804.89 60.7039L1809.12 60.4082L1808.82 56.1785L1804.59 56.4743ZM1818.88 48.0976L1820.87 47.9581L1821.23 53.1055C1821.37 55.1007 1820.54 55.8803 1819.15 55.978C1817.75 56.0756 1816.82 55.4188 1816.68 53.4236L1815.63 38.3405C1815.49 36.3453 1816.31 35.5258 1817.71 35.4281C1819.11 35.3305 1820.04 36.0272 1820.18 38.0224L1820.39 41.0151L1824.54 40.7249L1824.35 38.0115C1824.03 33.5424 1821.62 31.1449 1817.31 31.4463C1813 31.7476 1810.95 34.4576 1811.26 38.9267L1812.27 53.4512C1812.59 57.9203 1815 60.3178 1819.31 60.0165C1823.62 59.7151 1825.67 57.0051 1825.36 52.536L1824.74 43.6777L1818.6 44.1074L1818.88 48.0976ZM1829.16 54.7564L1829.46 58.9861L1833.69 58.6903L1833.39 54.4606L1829.16 54.7564ZM1845.84 29.772L1839.42 30.2213L1836.9 58.4656L1840.93 58.1837L1841.33 53.0631L1846.72 52.6864L1847.83 57.701L1852.26 57.3913L1845.84 29.772ZM1842.75 34.9599L1845.86 48.9375L1841.63 49.2333L1842.75 34.9599ZM1855.21 52.935L1855.5 57.1647L1859.73 56.8689L1859.44 52.6392L1855.21 52.935Z" fill="white"/>
<rect x="-64.499" y="71.4128" width="2056.41" height="86" transform="rotate(3 -64.499 71.4128)" fill="#DB3236"/>
<path d="M1305.8 181.95C1301.64 180.847 1298.53 177.387 1297.86 173.133C1297.74 172.313 1297.05 171.694 1296.22 171.651C1295.39 171.608 1294.65 172.151 1294.44 172.953C1293.33 177.114 1289.87 180.231 1285.62 180.892C1284.8 181.019 1284.18 181.704 1284.14 182.533C1284.09 183.362 1284.64 184.108 1285.44 184.32C1289.6 185.423 1292.72 188.884 1293.38 193.137C1293.51 193.957 1294.19 194.576 1295.02 194.619C1295.85 194.663 1296.59 194.119 1296.81 193.317C1297.91 189.156 1301.37 186.04 1305.62 185.378C1306.44 185.251 1307.06 184.566 1307.11 183.737C1307.15 182.908 1306.61 182.162 1305.8 181.95Z" fill="white"/>
<path d="M712.055 137.77L703.966 137.346L702.134 172.298L707.627 172.586L708.315 159.454L710.911 159.59C716.404 159.878 719.26 156.973 719.553 151.381L719.791 146.837C720.084 141.245 717.547 138.058 712.055 137.77ZM711.793 142.763C713.541 142.855 714.448 143.703 714.317 146.2L714.042 151.443C713.911 153.939 712.921 154.688 711.173 154.597L708.577 154.461L709.197 142.627L711.793 142.763ZM739.774 174.271C739.293 172.944 739.309 171.693 739.398 169.995L739.68 164.602C739.871 160.957 739.111 158.264 736.425 156.972C738.932 155.951 740.203 153.665 740.392 150.07L740.536 147.323C740.818 141.931 738.51 139.156 732.818 138.858L724.53 138.424L722.698 173.376L728.19 173.663L728.936 159.433L730.833 159.532C733.33 159.663 734.366 160.919 734.196 164.165L733.908 169.657C733.759 172.503 733.93 173.063 734.182 173.977L739.774 174.271ZM732.407 143.843C734.354 143.945 735.145 145.088 735.015 147.585L734.834 151.03C734.687 153.826 733.392 154.66 731.345 154.552L729.198 154.44L729.76 143.705L732.407 143.843ZM750.739 147.858C750.87 145.362 752.018 144.471 753.766 144.562C755.513 144.654 756.562 145.66 756.431 148.157L755.442 167.031C755.311 169.527 754.163 170.418 752.415 170.327C750.668 170.235 749.619 169.229 749.75 166.732L750.739 147.858ZM744.276 166.095C743.983 171.687 746.761 175.037 752.154 175.32C757.546 175.603 760.66 172.561 760.953 166.969L761.905 148.794C762.198 143.202 759.42 139.852 754.027 139.569C748.635 139.286 745.521 142.328 745.228 147.92L744.276 166.095ZM784.952 141.59L776.663 141.156L774.831 176.108L783.47 176.561C788.962 176.848 791.96 174.102 792.242 168.709L792.392 165.863C792.585 162.168 791.576 159.461 788.69 158.159C791.197 157.138 792.415 154.899 792.604 151.304L792.669 150.056C792.952 144.663 790.644 141.889 784.952 141.59ZM783.595 160.795C786.091 160.926 787.088 161.98 786.917 165.225L786.758 168.271C786.622 170.868 785.579 171.664 783.731 171.567L780.586 171.403L781.148 160.667L783.595 160.795ZM784.54 146.575C786.488 146.678 787.279 147.821 787.148 150.317L787.046 152.264C786.899 155.061 785.604 155.894 783.557 155.787L781.41 155.674L781.894 146.437L784.54 146.575ZM796.614 177.249L811.144 178.011L811.406 173.018L802.368 172.544L803.938 142.585L798.446 142.297L796.614 177.249ZM821.486 151.566C821.616 149.069 822.765 148.178 824.512 148.27C826.26 148.361 827.309 149.368 827.178 151.864L826.189 170.738C826.058 173.235 824.91 174.126 823.162 174.034C821.414 173.943 820.366 172.937 820.496 170.44L821.486 151.566ZM815.022 169.803C814.729 175.395 817.508 178.745 822.9 179.028C828.293 179.31 831.406 176.269 831.699 170.677L832.652 152.502C832.945 146.909 830.167 143.559 824.774 143.277C819.381 142.994 816.268 146.035 815.975 151.628L815.022 169.803ZM847.745 166.861L847.484 171.854C847.353 174.351 846.207 175.192 844.46 175.101C842.712 175.009 841.661 174.053 841.791 171.556L842.781 152.682C842.911 150.185 844.06 149.294 845.807 149.386C847.555 149.477 848.604 150.484 848.473 152.98L848.277 156.725L853.469 156.997L853.647 153.602C853.94 148.01 851.312 144.667 845.919 144.385C840.527 144.102 837.563 147.151 837.27 152.744L836.317 170.919C836.024 176.511 838.653 179.853 844.045 180.136C849.438 180.418 852.402 177.369 852.695 171.777L852.938 167.133L847.745 166.861ZM869.618 181.075L875.261 181.371L868.637 161.597L877.092 146.419L871.6 146.131L863.612 160.984L864.41 145.754L858.917 145.467L857.086 180.419L862.578 180.706L863.141 169.971L865.006 166.865L869.618 181.075ZM890.335 169.093L890.074 174.086C889.943 176.583 888.797 177.424 887.05 177.333C885.302 177.241 884.251 176.285 884.381 173.788L885.371 154.914C885.501 152.417 886.65 151.526 888.397 151.618C890.145 151.709 891.194 152.716 891.063 155.212L890.867 158.957L896.059 159.229L896.237 155.834C896.53 150.242 893.902 146.899 888.509 146.617C883.117 146.334 880.153 149.383 879.86 154.976L878.907 173.151C878.614 178.743 881.243 182.085 886.635 182.368C892.028 182.65 894.992 179.601 895.285 174.009L895.528 169.365L890.335 169.093ZM905.953 167.959L912.195 168.286L911.41 183.266L917.002 183.559L918.834 148.607L913.241 148.314L912.456 163.293L906.215 162.966L907 147.986L901.507 147.699L899.676 182.651L905.168 182.938L905.953 167.959ZM936.497 149.532L928.458 149.111L921.034 183.77L926.077 184.034L927.358 177.743L934.099 178.096L934.715 184.487L940.258 184.777L936.497 149.532ZM931.879 155.499L933.599 173.313L928.306 173.036L931.879 155.499ZM944.314 184.99L949.806 185.278L951.638 150.326L946.145 150.038L944.314 184.99ZM967.054 186.182L972.696 186.477L974.528 151.525L969.635 151.269L968.538 172.19L963.992 150.973L957.102 150.612L955.27 185.564L960.213 185.823L961.54 160.508L967.054 186.182ZM996.799 152.693L989.159 152.292L987.328 187.244L992.121 187.496L993.416 162.779L996.215 187.71L1001.41 187.982L1006.52 163.116L1005.2 188.181L1010.4 188.453L1012.23 153.501L1004.59 153.101L999.543 177.721L996.799 152.693ZM1022.95 159.07L1032.44 159.567L1032.7 154.574L1017.72 153.789L1015.89 188.741L1030.87 189.526L1031.13 184.533L1021.64 184.036L1022.18 173.8L1029.72 174.195L1029.98 169.202L1022.44 168.807L1022.95 159.07ZM1035.77 189.783L1044.46 190.238C1049.95 190.526 1052.81 187.622 1053.1 182.029L1054.03 164.354C1054.32 158.761 1051.78 155.574 1046.29 155.286L1037.6 154.831L1035.77 189.783ZM1045.93 160.274C1047.68 160.366 1048.68 161.32 1048.55 163.816L1047.59 181.991C1047.46 184.488 1046.37 185.332 1044.62 185.24L1041.52 185.078L1042.83 160.112L1045.93 160.274ZM1057.65 190.93L1063.14 191.218L1064.97 156.266L1059.48 155.978L1057.65 190.93ZM1082.67 157.193L1074.63 156.772L1067.21 191.431L1072.25 191.695L1073.53 185.403L1080.27 185.757L1080.89 192.148L1086.43 192.438L1082.67 157.193ZM1078.05 163.159L1079.77 180.974L1074.48 180.697L1078.05 163.159ZM1113.75 158.822L1105.72 158.401L1098.29 193.06L1103.33 193.324L1104.62 187.032L1111.36 187.386L1111.97 193.777L1117.51 194.067L1113.75 158.822ZM1109.14 164.788L1110.86 182.603L1105.56 182.325L1109.14 164.788ZM1130.57 180.231L1133.06 180.362L1132.73 186.803C1132.6 189.3 1131.45 190.141 1129.7 190.049C1127.96 189.958 1126.9 189.002 1127.03 186.505L1128.02 167.631C1128.15 165.134 1129.3 164.243 1131.05 164.335C1132.8 164.426 1133.85 165.433 1133.72 167.929L1133.52 171.674L1138.71 171.946L1138.89 168.551C1139.18 162.959 1136.56 159.616 1131.16 159.334C1125.77 159.051 1122.81 162.1 1122.51 167.693L1121.56 185.868C1121.27 191.46 1123.9 194.802 1129.29 195.085C1134.68 195.367 1137.65 192.318 1137.94 186.726L1138.52 175.641L1130.83 175.238L1130.57 180.231ZM1149.59 165.707L1159.07 166.204L1159.34 161.211L1144.36 160.426L1142.52 195.378L1157.5 196.163L1157.77 191.17L1148.28 190.672L1148.81 180.437L1156.35 180.832L1156.62 175.839L1149.08 175.443L1149.59 165.707ZM1174.14 197.035L1179.78 197.33L1181.61 162.378L1176.72 162.122L1175.62 183.043L1171.08 161.826L1164.19 161.465L1162.36 196.417L1167.3 196.676L1168.62 171.361L1174.14 197.035ZM1196.63 185.145L1196.37 190.139C1196.24 192.635 1195.09 193.476 1193.34 193.385C1191.6 193.293 1190.55 192.337 1190.68 189.84L1191.67 170.966C1191.8 168.47 1192.94 167.578 1194.69 167.67C1196.44 167.762 1197.49 168.768 1197.36 171.264L1197.16 175.009L1202.35 175.281L1202.53 171.886C1202.82 166.294 1200.2 162.952 1194.8 162.669C1189.41 162.386 1186.45 165.436 1186.15 171.028L1185.2 189.203C1184.91 194.795 1187.54 198.137 1192.93 198.42C1198.32 198.703 1201.29 195.654 1201.58 190.061L1201.82 185.418L1196.63 185.145ZM1210.58 198.944L1216.07 199.232L1216.68 187.648L1224.84 164.644L1219.6 164.369L1214.57 180.077L1211.21 163.929L1205.47 163.629L1211.18 187.36L1210.58 198.944Z" fill="white"/>
<path d="M639.718 147.042C635.557 145.939 632.441 142.479 631.779 138.225C631.652 137.405 630.967 136.786 630.138 136.743C629.309 136.7 628.563 137.243 628.351 138.045C627.248 142.206 623.787 145.323 619.534 145.984C618.714 146.111 618.095 146.796 618.052 147.625C618.008 148.454 618.552 149.2 619.354 149.412C623.515 150.515 626.631 153.976 627.293 158.229C627.42 159.049 628.105 159.668 628.934 159.711C629.763 159.755 630.509 159.211 630.721 158.409C631.824 154.248 635.285 151.132 639.538 150.47C640.358 150.343 640.977 149.658 641.02 148.829C641.064 148 640.52 147.255 639.718 147.042Z" fill="white"/>
<path d="M45.969 102.862L37.8801 102.438L36.0483 137.39L41.5408 137.678L42.229 124.546L44.8254 124.682C50.3179 124.97 53.1738 122.065 53.4669 116.473L53.705 111.929C53.9981 106.337 51.4614 103.15 45.969 102.862ZM45.7073 107.855C47.4549 107.947 48.3617 108.795 48.2309 111.292L47.9561 116.535C47.8253 119.031 46.8347 119.78 45.0871 119.689L42.4907 119.553L43.1109 107.719L45.7073 107.855ZM73.6885 139.363C73.2073 138.036 73.2227 136.785 73.3117 135.087L73.5943 129.694C73.7854 126.049 73.0253 123.356 70.3392 122.064C72.8461 121.043 74.1175 118.757 74.3059 115.162L74.4498 112.416C74.7324 107.023 72.4245 104.248 66.7323 103.95L58.4437 103.516L56.6119 138.468L62.1044 138.756L62.8502 124.525L64.7475 124.624C67.2441 124.755 68.2798 126.011 68.1097 129.257L67.8219 134.749C67.6727 137.595 67.8437 138.155 68.0961 139.07L73.6885 139.363ZM66.3208 108.935C68.2681 109.037 69.0594 110.18 68.9286 112.677L68.748 116.122C68.6015 118.918 67.3061 119.752 65.2589 119.644L63.1118 119.532L63.6744 108.797L66.3208 108.935ZM84.653 112.95C84.7838 110.454 85.932 109.563 87.6797 109.654C89.4273 109.746 90.476 110.752 90.3452 113.249L89.356 132.123C89.2252 134.619 88.077 135.51 86.3294 135.419C84.5818 135.327 83.533 134.321 83.6638 131.824L84.653 112.95ZM78.1897 131.187C77.8966 136.779 80.6751 140.129 86.0677 140.412C91.4603 140.695 94.5737 137.653 94.8668 132.061L95.8193 113.886C96.1124 108.294 93.3339 104.944 87.9413 104.661C82.5487 104.378 79.4353 107.42 79.1422 113.012L78.1897 131.187ZM118.866 106.682L110.577 106.248L108.745 141.2L117.384 141.653C122.876 141.94 125.874 139.194 126.157 133.801L126.306 130.955C126.499 127.26 125.49 124.553 122.604 123.251C125.111 122.23 126.33 119.991 126.518 116.396L126.583 115.148C126.866 109.755 124.558 106.981 118.866 106.682ZM117.509 125.888C120.005 126.018 121.002 127.072 120.832 130.317L120.672 133.363C120.536 135.96 119.493 136.756 117.645 136.659L114.5 136.495L115.062 125.759L117.509 125.888ZM118.454 111.668C120.402 111.77 121.193 112.913 121.062 115.409L120.96 117.356C120.814 120.153 119.518 120.986 117.471 120.879L115.324 120.766L115.808 111.529L118.454 111.668ZM130.528 142.341L145.058 143.103L145.32 138.11L136.282 137.636L137.852 107.677L132.36 107.389L130.528 142.341ZM155.4 116.658C155.53 114.161 156.679 113.27 158.426 113.362C160.174 113.453 161.223 114.46 161.092 116.956L160.103 135.83C159.972 138.327 158.824 139.218 157.076 139.126C155.328 139.035 154.28 138.029 154.411 135.532L155.4 116.658ZM148.936 134.895C148.643 140.487 151.422 143.837 156.814 144.12C162.207 144.402 165.32 141.361 165.613 135.769L166.566 117.594C166.859 112.001 164.081 108.651 158.688 108.369C153.295 108.086 150.182 111.127 149.889 116.72L148.936 134.895ZM181.659 131.953L181.398 136.946C181.267 139.443 180.121 140.284 178.374 140.193C176.626 140.101 175.575 139.145 175.706 136.648L176.695 117.774C176.825 115.277 177.974 114.386 179.721 114.478C181.469 114.569 182.518 115.576 182.387 118.072L182.191 121.817L187.383 122.089L187.561 118.694C187.854 113.102 185.226 109.759 179.833 109.477C174.441 109.194 171.477 112.243 171.184 117.836L170.231 136.011C169.938 141.603 172.567 144.945 177.96 145.228C183.352 145.51 186.316 142.461 186.609 136.869L186.852 132.225L181.659 131.953ZM203.533 146.167L209.175 146.463L202.551 126.689L211.007 111.511L205.514 111.223L197.526 126.076L198.324 110.846L192.831 110.559L191 145.511L196.492 145.798L197.055 135.063L198.92 131.957L203.533 146.167ZM224.249 134.185L223.988 139.178C223.857 141.675 222.711 142.516 220.964 142.425C219.216 142.333 218.165 141.377 218.295 138.88L219.285 120.006C219.415 117.509 220.564 116.618 222.311 116.71C224.059 116.801 225.108 117.808 224.977 120.304L224.781 124.049L229.973 124.321L230.151 120.926C230.444 115.334 227.816 111.992 222.423 111.709C217.031 111.426 214.067 114.475 213.774 120.068L212.821 138.243C212.528 143.835 215.157 147.177 220.55 147.46C225.942 147.742 228.906 144.693 229.199 139.101L229.442 134.457L224.249 134.185ZM239.867 133.051L246.109 133.378L245.324 148.358L250.916 148.651L252.748 113.699L247.155 113.406L246.37 128.385L240.129 128.058L240.914 113.078L235.421 112.791L233.59 147.743L239.082 148.031L239.867 133.051ZM270.411 114.624L262.372 114.203L254.948 148.862L259.991 149.126L261.272 142.835L268.013 143.188L268.63 149.579L274.172 149.87L270.411 114.624ZM265.793 120.591L267.513 138.405L262.22 138.128L265.793 120.591ZM278.228 150.082L283.72 150.37L285.552 115.418L280.059 115.13L278.228 150.082ZM300.968 151.274L306.61 151.57L308.442 116.617L303.549 116.361L302.452 137.282L297.906 116.065L291.016 115.704L289.184 150.656L294.127 150.915L295.454 125.6L300.968 151.274ZM330.713 117.785L323.073 117.384L321.242 152.336L326.035 152.588L327.33 127.871L330.13 152.802L335.322 153.074L340.431 128.208L339.117 153.273L344.31 153.545L346.142 118.593L338.502 118.193L333.457 142.813L330.713 117.785ZM356.866 124.162L366.353 124.659L366.614 119.666L351.635 118.881L349.803 153.833L364.783 154.618L365.044 149.625L355.557 149.128L356.094 138.892L363.634 139.287L363.895 134.294L356.356 133.899L356.866 124.162ZM369.684 154.875L378.372 155.33C383.865 155.618 386.721 152.714 387.014 147.121L387.94 129.446C388.233 123.853 385.697 120.666 380.204 120.378L371.516 119.923L369.684 154.875ZM379.842 125.366C381.59 125.458 382.592 126.412 382.461 128.908L381.508 147.083C381.377 149.58 380.282 150.424 378.534 150.332L375.438 150.17L376.747 125.204L379.842 125.366ZM391.564 156.022L397.057 156.31L398.889 121.358L393.396 121.07L391.564 156.022ZM416.586 122.285L408.547 121.864L401.123 156.523L406.166 156.787L407.447 150.495L414.188 150.849L414.804 157.24L420.346 157.53L416.586 122.285ZM411.967 128.252L413.687 146.066L408.394 145.789L411.967 128.252ZM447.668 123.914L439.629 123.493L432.205 158.152L437.248 158.416L438.529 152.124L445.27 152.478L445.886 158.869L451.429 159.159L447.668 123.914ZM443.05 129.88L444.77 147.695L439.477 147.418L443.05 129.88ZM464.482 145.323L466.979 145.454L466.641 151.895C466.51 154.392 465.365 155.233 463.617 155.142C461.869 155.05 460.818 154.094 460.949 151.597L461.938 132.723C462.069 130.226 463.217 129.335 464.965 129.427C466.712 129.518 467.761 130.525 467.63 133.021L467.434 136.766L472.627 137.038L472.805 133.643C473.098 128.051 470.469 124.708 465.076 124.426C459.684 124.143 456.72 127.192 456.427 132.785L455.475 150.96C455.182 156.552 457.81 159.894 463.203 160.177C468.595 160.459 471.559 157.41 471.852 151.818L472.433 140.733L464.744 140.33L464.482 145.323ZM483.501 130.799L492.988 131.296L493.249 126.303L478.27 125.518L476.438 160.47L491.418 161.255L491.679 156.262L482.192 155.765L482.729 145.529L490.268 145.924L490.53 140.931L482.99 140.535L483.501 130.799ZM508.053 162.127L513.695 162.422L515.527 127.47L510.634 127.214L509.537 148.135L504.991 126.918L498.101 126.557L496.269 161.509L501.212 161.768L502.539 136.453L508.053 162.127ZM530.544 150.237L530.282 155.231C530.151 157.727 529.006 158.568 527.258 158.477C525.511 158.385 524.459 157.429 524.59 154.932L525.579 136.058C525.71 133.562 526.858 132.671 528.606 132.762C530.353 132.854 531.402 133.86 531.271 136.357L531.075 140.101L536.268 140.374L536.446 136.978C536.739 131.386 534.11 128.044 528.718 127.761C523.325 127.478 520.361 130.528 520.068 136.12L519.116 154.295C518.823 159.887 521.451 163.229 526.844 163.512C532.237 163.795 535.2 160.746 535.493 155.153L535.737 150.51L530.544 150.237ZM544.491 164.036L549.983 164.324L550.59 152.74L558.755 129.736L553.513 129.461L548.484 145.169L545.124 129.021L539.382 128.721L545.098 152.452L544.491 164.036Z" fill="white"/>
<path d="M1378.14 172.678L1370.05 172.254L1368.22 207.206L1373.71 207.494L1374.4 194.362L1377 194.498C1382.49 194.786 1385.35 191.881 1385.64 186.289L1385.88 181.745C1386.17 176.153 1383.63 172.966 1378.14 172.678ZM1377.88 177.671C1379.63 177.763 1380.53 178.611 1380.4 181.108L1380.13 186.351C1380 188.847 1379.01 189.597 1377.26 189.505L1374.66 189.369L1375.28 177.535L1377.88 177.671ZM1405.86 209.179C1405.38 207.852 1405.39 206.601 1405.48 204.903L1405.77 199.511C1405.96 195.866 1405.2 193.172 1402.51 191.88C1405.02 190.86 1406.29 188.573 1406.48 184.978L1406.62 182.232C1406.9 176.839 1404.6 174.065 1398.9 173.766L1390.62 173.332L1388.78 208.284L1394.28 208.572L1395.02 194.341L1396.92 194.441C1399.42 194.571 1400.45 195.827 1400.28 199.073L1399.99 204.565C1399.84 207.412 1400.02 207.971 1400.27 208.886L1405.86 209.179ZM1398.49 178.751C1400.44 178.854 1401.23 179.997 1401.1 182.493L1400.92 185.938C1400.77 188.735 1399.48 189.568 1397.43 189.461L1395.28 189.348L1395.85 178.613L1398.49 178.751ZM1416.82 182.766C1416.96 180.27 1418.1 179.379 1419.85 179.47C1421.6 179.562 1422.65 180.568 1422.52 183.065L1421.53 201.939C1421.4 204.435 1420.25 205.327 1418.5 205.235C1416.75 205.143 1415.7 204.137 1415.84 201.641L1416.82 182.766ZM1410.36 201.003C1410.07 206.595 1412.85 209.945 1418.24 210.228C1423.63 210.511 1426.75 207.469 1427.04 201.877L1427.99 183.702C1428.28 178.11 1425.51 174.76 1420.11 174.477C1414.72 174.195 1411.61 177.236 1411.31 182.828L1410.36 201.003ZM1451.04 176.498L1442.75 176.064L1440.92 211.016L1449.56 211.469C1455.05 211.757 1458.05 209.01 1458.33 203.617L1458.48 200.771C1458.67 197.076 1457.66 194.37 1454.78 193.067C1457.28 192.047 1458.5 189.807 1458.69 186.212L1458.75 184.964C1459.04 179.571 1456.73 176.797 1451.04 176.498ZM1449.68 195.704C1452.18 195.835 1453.17 196.888 1453 200.134L1452.84 203.179C1452.71 205.776 1451.66 206.572 1449.82 206.476L1446.67 206.311L1447.23 195.575L1449.68 195.704ZM1450.63 181.484C1452.57 181.586 1453.36 182.729 1453.23 185.225L1453.13 187.173C1452.99 189.969 1451.69 190.802 1449.64 190.695L1447.5 190.582L1447.98 181.345L1450.63 181.484ZM1462.7 212.158L1477.23 212.919L1477.49 207.926L1468.45 207.452L1470.02 177.493L1464.53 177.206L1462.7 212.158ZM1487.57 186.474C1487.7 183.978 1488.85 183.086 1490.6 183.178C1492.35 183.27 1493.39 184.276 1493.26 186.772L1492.27 205.647C1492.14 208.143 1491 209.034 1489.25 208.943C1487.5 208.851 1486.45 207.845 1486.58 205.348L1487.57 186.474ZM1481.11 204.711C1480.81 210.303 1483.59 213.653 1488.99 213.936C1494.38 214.218 1497.49 211.177 1497.79 205.585L1498.74 187.41C1499.03 181.817 1496.25 178.467 1490.86 178.185C1485.47 177.902 1482.35 180.943 1482.06 186.536L1481.11 204.711ZM1513.83 201.769L1513.57 206.763C1513.44 209.259 1512.29 210.1 1510.55 210.009C1508.8 209.917 1507.75 208.961 1507.88 206.464L1508.87 187.59C1509 185.094 1510.15 184.202 1511.89 184.294C1513.64 184.386 1514.69 185.392 1514.56 187.888L1514.36 191.633L1519.56 191.905L1519.73 188.51C1520.03 182.918 1517.4 179.576 1512 179.293C1506.61 179.01 1503.65 182.059 1503.36 187.652L1502.4 205.827C1502.11 211.419 1504.74 214.761 1510.13 215.044C1515.52 215.327 1518.49 212.277 1518.78 206.685L1519.02 202.042L1513.83 201.769ZM1535.7 215.984L1541.35 216.279L1534.72 196.506L1543.18 181.327L1537.69 181.039L1529.7 195.892L1530.5 180.663L1525 180.375L1523.17 215.327L1528.66 215.615L1529.23 204.879L1531.09 201.773L1535.7 215.984ZM1556.42 204.001L1556.16 208.995C1556.03 211.491 1554.88 212.332 1553.14 212.241C1551.39 212.149 1550.34 211.193 1550.47 208.696L1551.46 189.822C1551.59 187.326 1552.74 186.434 1554.48 186.526C1556.23 186.618 1557.28 187.624 1557.15 190.12L1556.95 193.865L1562.15 194.137L1562.32 190.742C1562.62 185.15 1559.99 181.808 1554.59 181.525C1549.2 181.242 1546.24 184.292 1545.95 189.884L1544.99 208.059C1544.7 213.651 1547.33 216.993 1552.72 217.276C1558.11 217.559 1561.08 214.51 1561.37 208.917L1561.61 204.274L1556.42 204.001ZM1572.04 202.867L1578.28 203.194L1577.5 218.174L1583.09 218.467L1584.92 183.515L1579.33 183.222L1578.54 198.201L1572.3 197.874L1573.09 182.895L1567.59 182.607L1565.76 217.559L1571.25 217.847L1572.04 202.867ZM1602.58 184.441L1594.54 184.019L1587.12 218.678L1592.16 218.942L1593.44 212.651L1600.18 213.004L1600.8 219.395L1606.34 219.686L1602.58 184.441ZM1597.96 190.407L1599.68 208.221L1594.39 207.944L1597.96 190.407ZM1610.4 219.898L1615.89 220.186L1617.72 185.234L1612.23 184.946L1610.4 219.898ZM1633.14 221.09L1638.78 221.386L1640.61 186.434L1635.72 186.177L1634.62 207.098L1630.08 185.882L1623.19 185.52L1621.36 220.472L1626.3 220.731L1627.63 195.416L1633.14 221.09ZM1662.88 187.601L1655.25 187.2L1653.41 222.152L1658.21 222.404L1659.5 197.688L1662.3 222.618L1667.49 222.89L1672.6 198.024L1671.29 223.089L1676.48 223.361L1678.31 188.409L1670.67 188.009L1665.63 212.629L1662.88 187.601ZM1689.04 193.978L1698.52 194.475L1698.79 189.482L1683.81 188.697L1681.97 223.649L1696.95 224.434L1697.22 219.441L1687.73 218.944L1688.27 208.708L1695.81 209.103L1696.07 204.11L1688.53 203.715L1689.04 193.978ZM1701.86 224.691L1710.54 225.147C1716.04 225.434 1718.89 222.53 1719.19 216.938L1720.11 199.262C1720.4 193.67 1717.87 190.482 1712.38 190.195L1703.69 189.739L1701.86 224.691ZM1712.01 195.182C1713.76 195.274 1714.76 196.228 1714.63 198.724L1713.68 216.899C1713.55 219.396 1712.45 220.24 1710.71 220.148L1707.61 219.986L1708.92 195.02L1712.01 195.182ZM1723.74 225.838L1729.23 226.126L1731.06 191.174L1725.57 190.886L1723.74 225.838ZM1748.76 192.101L1740.72 191.68L1733.29 226.339L1738.34 226.603L1739.62 220.312L1746.36 220.665L1746.98 227.056L1752.52 227.346L1748.76 192.101ZM1744.14 198.068L1745.86 215.882L1740.57 215.605L1744.14 198.068ZM1779.84 193.73L1771.8 193.309L1764.38 227.968L1769.42 228.232L1770.7 221.941L1777.44 222.294L1778.06 228.685L1783.6 228.975L1779.84 193.73ZM1775.22 199.697L1776.94 217.511L1771.65 217.234L1775.22 199.697ZM1796.65 215.139L1799.15 215.27L1798.81 221.711C1798.68 224.208 1797.54 225.049 1795.79 224.958C1794.04 224.866 1792.99 223.91 1793.12 221.413L1794.11 202.539C1794.24 200.043 1795.39 199.151 1797.14 199.243C1798.88 199.335 1799.93 200.341 1799.8 202.837L1799.61 206.582L1804.8 206.854L1804.98 203.459C1805.27 197.867 1802.64 194.525 1797.25 194.242C1791.86 193.959 1788.89 197.008 1788.6 202.601L1787.65 220.776C1787.35 226.368 1789.98 229.71 1795.37 229.993C1800.77 230.276 1803.73 227.226 1804.02 221.634L1804.6 210.549L1796.92 210.146L1796.65 215.139ZM1815.67 200.615L1825.16 201.112L1825.42 196.119L1810.44 195.334L1808.61 230.286L1823.59 231.071L1823.85 226.078L1814.36 225.581L1814.9 215.345L1822.44 215.74L1822.7 210.747L1815.16 210.352L1815.67 200.615ZM1840.22 231.943L1845.87 232.239L1847.7 197.287L1842.81 197.03L1841.71 217.951L1837.16 196.734L1830.27 196.373L1828.44 231.325L1833.38 231.584L1834.71 206.269L1840.22 231.943ZM1862.72 220.054L1862.45 225.047C1862.32 227.543 1861.18 228.385 1859.43 228.293C1857.68 228.201 1856.63 227.245 1856.76 224.748L1857.75 205.874C1857.88 203.378 1859.03 202.487 1860.78 202.578C1862.53 202.67 1863.57 203.676 1863.44 206.173L1863.25 209.918L1868.44 210.19L1868.62 206.794C1868.91 201.202 1866.28 197.86 1860.89 197.577C1855.5 197.295 1852.53 200.344 1852.24 205.936L1851.29 224.111C1850.99 229.703 1853.62 233.046 1859.02 233.328C1864.41 233.611 1867.37 230.562 1867.66 224.969L1867.91 220.326L1862.72 220.054ZM1876.66 233.852L1882.15 234.14L1882.76 222.556L1890.93 199.552L1885.68 199.277L1880.66 214.986L1877.3 198.838L1871.55 198.537L1877.27 222.268L1876.66 233.852Z" fill="white"/>
</svg>
