<svg width="320" height="132" viewBox="0 0 320 132" fill="none" xmlns="http://www.w3.org/2000/svg">
<rect x="-347.509" y="70.7622" width="1014.42" height="36.3122" transform="rotate(-4 -347.509 70.7622)" fill="#F4C20D"/>
<path d="M-8.00117 57.4687L-11.039 57.6811L-10.0671 71.5797L-8.16103 71.4464L-8.84829 61.6181L-6.5329 71.3326L-4.46796 71.1882L-3.65594 61.1154L-2.95896 71.0827L-0.894019 70.9383L-1.86591 57.0396L-4.90376 57.2521L-5.70286 67.2242L-8.00117 57.4687ZM1.14319 68.6809L1.29036 70.7855L3.39502 70.6384L3.24785 68.5337L1.14319 68.6809ZM9.44288 56.2488L6.24619 56.4724L4.99429 70.5265L6.99967 70.3863L7.20059 67.8383L9.88105 67.6509L10.4346 70.1461L12.6386 69.992L9.44288 56.2488ZM7.90749 58.8303L9.45132 65.7855L7.34667 65.9326L7.90749 58.8303ZM14.1042 67.7746L14.2513 69.8792L16.356 69.7321L16.2088 67.6274L14.1042 67.7746ZM23.197 69.2537L25.4407 69.0968L24.4688 55.1981L22.523 55.3342L23.1047 63.6535L20.2793 55.4911L17.5393 55.6827L18.5112 69.5813L20.4769 69.4439L19.7729 59.3773L23.197 69.2537ZM27.4529 66.8411L27.6001 68.9458L29.7047 68.7986L29.5576 66.694L27.4529 66.8411ZM34.5594 62.673L35.5521 62.6036L35.7313 65.1649C35.8007 66.1576 35.3888 66.5456 34.6939 66.5942C33.999 66.6428 33.5372 66.3159 33.4678 65.3232L32.9429 57.8179C32.8735 56.8251 33.2839 56.4173 33.9789 56.3687C34.6738 56.3201 35.137 56.6668 35.2064 57.6596L35.3106 59.1487L37.3755 59.0044L37.2811 57.6542C37.1256 55.4304 35.9248 54.2374 33.7805 54.3874C31.6361 54.5373 30.6131 55.8858 30.7686 58.1096L31.274 65.3369C31.4295 67.5607 32.6302 68.7537 34.7746 68.6037C36.9189 68.4538 37.942 67.1053 37.7865 64.8815L37.4782 60.4736L34.4205 60.6875L34.5594 62.673ZM39.6771 65.9863L39.8242 68.091L41.9289 67.9438L41.7817 65.8392L39.6771 65.9863ZM47.9767 53.5543L44.78 53.7778L43.5282 67.832L45.5335 67.6918L45.7345 65.1438L48.4149 64.9563L48.9685 67.4516L51.1724 67.2974L47.9767 53.5543ZM46.4414 56.1357L47.9852 63.0909L45.8805 63.2381L46.4414 56.1357ZM52.638 65.08L52.7852 67.1847L54.8898 67.0375L54.7427 64.9328L52.638 65.08Z" fill="white"/>
<path d="M96.391 56.5727C94.269 56.2805 92.5202 54.7602 91.9356 52.6996C91.8229 52.3023 91.4471 52.0383 91.0351 52.0671C90.6231 52.0959 90.2877 52.4095 90.2314 52.8187C89.9392 54.9407 88.419 56.6896 86.3583 57.2742C85.961 57.3869 85.697 57.7627 85.7258 58.1746C85.7546 58.5866 86.0683 58.922 86.4774 58.9783C88.5994 59.2705 90.3482 60.7908 90.9329 62.8515C91.0455 63.2487 91.4213 63.5127 91.8333 63.4839C92.2453 63.4551 92.5807 63.1415 92.637 62.7323C92.9292 60.6103 94.4495 58.8614 96.5101 58.2769C96.9074 58.1641 97.1714 57.7884 97.1426 57.3764C97.1138 56.9644 96.8001 56.629 96.391 56.5727Z" fill="white"/>
<path d="M234.513 46.9145C232.391 46.6223 230.642 45.102 230.058 43.0414C229.945 42.6441 229.569 42.3801 229.157 42.4089C228.745 42.4377 228.41 42.7513 228.353 43.1605C228.061 45.2825 226.541 47.0314 224.48 47.616C224.083 47.7287 223.819 48.1045 223.848 48.5164C223.877 48.9284 224.19 49.2638 224.599 49.3201C226.721 49.6123 228.47 51.1326 229.055 53.1933C229.168 53.5905 229.543 53.8545 229.955 53.8257C230.367 53.7969 230.703 53.4833 230.759 53.0741C231.051 50.9521 232.572 49.2032 234.632 48.6187C235.029 48.5059 235.293 48.1302 235.265 47.7182C235.236 47.3062 234.922 46.9708 234.513 46.9145Z" fill="white"/>
<path d="M130.361 47.7929L127.323 48.0053L128.295 61.904L130.201 61.7707L129.514 51.9423L131.829 61.6568L133.894 61.5124L134.706 51.4396L135.403 61.4069L137.468 61.2625L136.496 47.3639L133.458 47.5763L132.659 57.5485L130.361 47.7929ZM139.505 59.0051L139.652 61.1098L141.757 60.9626L141.61 58.8579L139.505 59.0051ZM147.805 46.5731L144.608 46.7966L143.356 60.8508L145.361 60.7105L145.562 58.1625L148.243 57.9751L148.796 60.4703L151 60.3162L147.805 46.5731ZM146.269 49.1545L147.813 56.1097L145.708 56.2568L146.269 49.1545ZM152.466 58.0988L152.613 60.2034L154.718 60.0563L154.571 57.9516L152.466 58.0988ZM161.559 59.5779L163.802 59.421L162.831 45.5224L160.885 45.6584L161.467 53.9778L158.641 45.8153L155.901 46.0069L156.873 59.9056L158.839 59.7681L158.135 49.7015L161.559 59.5779ZM165.815 57.1654L165.962 59.27L168.067 59.1228L167.919 57.0182L165.815 57.1654ZM172.921 52.9972L173.914 52.9278L174.093 55.4891C174.162 56.4819 173.751 56.8698 173.056 56.9184C172.361 56.967 171.899 56.6401 171.83 55.6474L171.305 48.1421C171.235 47.1493 171.646 46.7415 172.341 46.693C173.036 46.6444 173.499 46.9911 173.568 47.9838L173.672 49.473L175.737 49.3286L175.643 47.9784C175.487 45.7546 174.287 44.5616 172.142 44.7116C169.998 44.8615 168.975 46.21 169.13 48.4338L169.636 55.6611C169.791 57.8849 170.992 59.0779 173.136 58.9279C175.281 58.778 176.304 57.4295 176.148 55.2057L175.84 50.7979L172.782 51.0117L172.921 52.9972ZM178.039 56.3106L178.186 58.4152L180.291 58.268L180.144 56.1634L178.039 56.3106ZM186.339 43.8785L183.142 44.1021L181.89 58.1562L183.895 58.016L184.096 55.468L186.777 55.2805L187.33 57.7758L189.534 57.6217L186.339 43.8785ZM184.803 46.46L186.347 53.4151L184.242 53.5623L184.803 46.46ZM191 55.4042L191.147 57.5089L193.252 57.3617L193.104 55.2571L191 55.4042Z" fill="white"/>
<path d="M268.483 38.1347L265.445 38.3471L266.417 52.2457L268.323 52.1125L267.636 42.2841L269.951 51.9986L272.016 51.8542L272.828 41.7814L273.525 51.7487L275.59 51.6043L274.618 37.7056L271.58 37.9181L270.781 47.8903L268.483 38.1347ZM277.627 49.3469L277.774 51.4516L279.879 51.3044L279.732 49.1997L277.627 49.3469ZM285.927 36.9149L282.73 37.1384L281.478 51.1926L283.484 51.0523L283.684 48.5043L286.365 48.3169L286.919 50.8121L289.122 50.658L285.927 36.9149ZM284.391 39.4963L285.935 46.4515L283.831 46.5986L284.391 39.4963ZM290.588 48.4406L290.735 50.5452L292.84 50.3981L292.693 48.2934L290.588 48.4406ZM299.681 49.9197L301.925 49.7628L300.953 35.8641L299.007 36.0002L299.589 44.3196L296.763 36.1571L294.023 36.3487L294.995 50.2474L296.961 50.1099L296.257 40.0433L299.681 49.9197ZM303.937 47.5071L304.084 49.6118L306.189 49.4646L306.041 47.36L303.937 47.5071ZM311.043 43.339L312.036 43.2696L312.215 45.8309C312.285 46.8237 311.873 47.2116 311.178 47.2602C310.483 47.3088 310.021 46.9819 309.952 45.9892L309.427 38.4839C309.357 37.4911 309.768 37.0833 310.463 37.0348C311.158 36.9862 311.621 37.3329 311.69 38.3256L311.794 39.8148L313.859 39.6704L313.765 38.3202C313.609 36.0964 312.409 34.9034 310.264 35.0534C308.12 35.2033 307.097 36.5518 307.252 38.7756L307.758 46.0029C307.913 48.2267 309.114 49.4197 311.258 49.2697C313.403 49.1198 314.426 47.7713 314.27 45.5475L313.962 41.1397L310.904 41.3535L311.043 43.339ZM316.161 46.6524L316.308 48.757L318.413 48.6098L318.266 46.5052L316.161 46.6524ZM324.461 34.2203L321.264 34.4438L320.012 48.498L322.017 48.3578L322.218 45.8098L324.899 45.6223L325.452 48.1176L327.656 47.9635L324.461 34.2203ZM322.925 36.8018L324.469 43.7569L322.364 43.9041L322.925 36.8018ZM329.122 45.746L329.269 47.8507L331.374 47.7035L331.227 45.5989L329.122 45.746Z" fill="white"/>
<rect x="-349.76" y="35.5342" width="1023.25" height="42.793" transform="rotate(3 -349.76 35.5342)" fill="#DB3236"/>
<path d="M36.6676 68.1568L32.6427 67.9459L31.7312 85.3378L34.4642 85.481L34.8067 78.9466L36.0986 79.0143C38.8316 79.1576 40.2527 77.7123 40.3985 74.9296L40.517 72.6686C40.6629 69.8859 39.4006 68.3001 36.6676 68.1568ZM36.5374 70.6414C37.407 70.687 37.8583 71.1092 37.7931 72.3515L37.6564 74.9603C37.5913 76.2026 37.0984 76.5753 36.2288 76.5298L34.9369 76.4621L35.2455 70.5737L36.5374 70.6414ZM50.4606 86.3193C50.2212 85.659 50.2289 85.0366 50.2732 84.1918L50.4138 81.5085C50.5089 79.6948 50.1306 78.3545 48.7941 77.7115C50.0415 77.2038 50.6741 76.066 50.7679 74.2772L50.8395 72.9107C50.9801 70.2273 49.8317 68.8467 46.9993 68.6983L42.8749 68.4821L41.9635 85.874L44.6965 86.0172L45.0676 78.9363L46.0117 78.9857C47.254 79.0508 47.7693 79.6758 47.6847 81.2907L47.5415 84.0238C47.4673 85.4399 47.5523 85.7185 47.6779 86.1735L50.4606 86.3193ZM46.7946 71.1789C47.7635 71.2297 48.1573 71.7985 48.0922 73.0407L48.0023 74.7551C47.9294 76.1464 47.2848 76.5611 46.2661 76.5077L45.1978 76.4517L45.4777 71.1099L46.7946 71.1789ZM55.9165 73.1767C55.9816 71.9345 56.553 71.491 57.4226 71.5366C58.2921 71.5822 58.814 72.0829 58.7489 73.3252L58.2567 82.7168C58.1916 83.9591 57.6203 84.4025 56.7507 84.3569C55.8811 84.3113 55.3592 83.8106 55.4243 82.5683L55.9165 73.1767ZM52.7004 82.2512C52.5546 85.0339 53.9371 86.7008 56.6205 86.8415C59.3038 86.9821 60.853 85.4688 60.9988 82.6861L61.4728 73.6423C61.6186 70.8596 60.2361 69.1927 57.5528 69.0521C54.8694 68.9114 53.3202 70.4247 53.1744 73.2074L52.7004 82.2512ZM72.9406 70.0578L68.8162 69.8417L67.9047 87.2335L72.203 87.4588C74.936 87.602 76.4277 86.2352 76.5684 83.5519L76.6426 82.1357C76.7389 80.2971 76.2365 78.9504 74.8006 78.3021C76.0479 77.7944 76.6544 76.6802 76.7482 74.8913L76.7807 74.2702C76.9214 71.5869 75.7729 70.2062 72.9406 70.0578ZM72.2653 79.6142C73.5076 79.6793 74.0033 80.2036 73.9187 81.8185L73.8393 83.3341C73.7715 84.6261 73.2525 85.0224 72.3332 84.9742L70.7679 84.8922L71.0479 79.5504L72.2653 79.6142ZM72.7358 72.5385C73.7048 72.5892 74.0985 73.158 74.0334 74.4003L73.9826 75.3692C73.9097 76.7606 73.2651 77.1752 72.2465 77.1219L71.1781 77.0659L71.419 72.4694L72.7358 72.5385ZM78.7436 87.8016L85.9736 88.1805L86.1038 85.6959L81.6068 85.4603L82.3881 70.5529L79.6551 70.4097L78.7436 87.8016ZM91.1195 75.0216C91.1846 73.7794 91.756 73.3359 92.6256 73.3815C93.4952 73.4271 94.017 73.9278 93.9519 75.1701L93.4597 84.5617C93.3946 85.804 92.8233 86.2474 91.9537 86.2018C91.0841 86.1562 90.5622 85.6555 90.6273 84.4133L91.1195 75.0216ZM87.9034 84.0961C87.7576 86.8788 89.1401 88.5457 91.8235 88.6864C94.5068 88.827 96.056 87.3137 96.2018 84.531L96.6758 75.4872C96.8216 72.7045 95.4391 71.0376 92.7558 70.897C90.0725 70.7563 88.5232 72.2696 88.3774 75.0523L87.9034 84.0961ZM104.186 82.6325L104.056 85.117C103.991 86.3593 103.421 86.7779 102.551 86.7323C101.682 86.6867 101.158 86.2109 101.224 84.9686L101.716 75.577C101.781 74.3347 102.352 73.8913 103.222 73.9368C104.091 73.9824 104.613 74.4831 104.548 75.7254L104.45 77.5888L107.034 77.7242L107.123 76.0347C107.269 73.252 105.961 71.589 103.277 71.4484C100.594 71.3078 99.1195 72.825 98.9736 75.6077L98.4997 84.6514C98.3538 87.4341 99.6618 89.0972 102.345 89.2378C105.028 89.3784 106.503 87.8612 106.649 85.0785L106.77 82.7679L104.186 82.6325ZM115.07 89.7054L117.878 89.8525L114.581 80.0132L118.789 72.4606L116.056 72.3174L112.081 79.7078L112.478 72.1299L109.745 71.9867L108.834 89.3785L111.567 89.5218L111.847 84.18L112.775 82.6341L115.07 89.7054ZM125.379 83.7431L125.248 86.2277C125.183 87.4699 124.613 87.8885 123.744 87.8429C122.874 87.7974 122.351 87.3215 122.416 86.0792L122.908 76.6876C122.973 75.4453 123.545 75.0019 124.414 75.0475C125.284 75.0931 125.806 75.5938 125.741 76.8361L125.643 78.6995L128.227 78.8349L128.315 77.1454C128.461 74.3627 127.153 72.6997 124.47 72.559C121.787 72.4184 120.312 73.9356 120.166 76.7183L119.692 85.7621C119.546 88.5448 120.854 90.2078 123.538 90.3484C126.221 90.4891 127.696 88.9719 127.841 86.1892L127.963 83.8785L125.379 83.7431ZM133.15 83.1788L136.256 83.3415L135.865 90.7952L138.648 90.941L139.559 73.5491L136.776 73.4033L136.386 80.857L133.28 80.6942L133.671 73.2405L130.938 73.0973L130.026 90.4892L132.759 90.6324L133.15 83.1788ZM148.348 74.0098L144.348 73.8001L140.654 91.0462L143.164 91.1777L143.801 88.047L147.155 88.2228L147.462 91.4029L150.22 91.5475L148.348 74.0098ZM146.05 76.9786L146.906 85.843L144.273 85.7049L146.05 76.9786ZM152.238 91.6532L154.971 91.7965L155.882 74.4046L153.149 74.2614L152.238 91.6532ZM163.553 92.2463L166.361 92.3934L167.272 75.0015L164.837 74.8739L164.292 85.2842L162.03 74.7268L158.601 74.5471L157.69 91.939L160.149 92.0679L160.81 79.4712L163.553 92.2463ZM178.354 75.5823L174.553 75.3831L173.641 92.7749L176.026 92.9L176.671 80.6014L178.064 93.0067L180.648 93.1421L183.19 80.7686L182.536 93.2411L185.12 93.3765L186.031 75.9846L182.23 75.7854L179.719 88.036L178.354 75.5823ZM191.368 78.7557L196.088 79.0031L196.218 76.5185L188.765 76.1279L187.853 93.5198L195.307 93.9104L195.437 91.4258L190.717 91.1784L190.983 86.0851L194.735 86.2817L194.865 83.7972L191.114 83.6006L191.368 78.7557ZM197.746 94.0382L202.069 94.2648C204.802 94.408 206.223 92.9628 206.369 90.1801L206.83 81.3847C206.976 78.602 205.714 77.0161 202.981 76.8729L198.657 76.6463L197.746 94.0382ZM202.801 79.3549C203.67 79.4004 204.169 79.875 204.103 81.1173L203.629 90.161C203.564 91.4033 203.019 91.8232 202.15 91.7776L200.609 91.6969L201.26 79.2741L202.801 79.3549ZM208.633 94.6088L211.366 94.752L212.278 77.3602L209.545 77.2169L208.633 94.6088ZM221.084 77.8217L217.084 77.612L213.389 94.8581L215.899 94.9896L216.536 91.8589L219.89 92.0347L220.197 95.2148L222.955 95.3594L221.084 77.8217ZM218.786 80.7905L219.641 89.6549L217.008 89.5168L218.786 80.7905ZM236.55 78.6322L232.55 78.4226L228.856 95.6686L231.365 95.8001L232.003 92.6695L235.357 92.8453L235.663 96.0254L238.421 96.1699L236.55 78.6322ZM234.252 81.6011L235.108 90.4654L232.474 90.3274L234.252 81.6011ZM244.917 89.2853L246.159 89.3504L245.991 92.5555C245.926 93.7978 245.356 94.2164 244.486 94.1708C243.617 94.1252 243.093 93.6494 243.158 92.4071L243.651 83.0155C243.716 81.7732 244.287 81.3298 245.157 81.3753C246.026 81.4209 246.548 81.9216 246.483 83.1639L246.385 85.0273L248.969 85.1627L249.058 83.4732C249.204 80.6905 247.896 79.0275 245.212 78.8869C242.529 78.7463 241.054 80.2635 240.909 83.0462L240.435 92.0899C240.289 94.8726 241.597 96.5357 244.28 96.6763C246.963 96.8169 248.438 95.2997 248.584 92.517L248.873 87.0013L245.047 86.8008L244.917 89.2853ZM254.38 82.058L259.101 82.3054L259.231 79.8209L251.777 79.4302L250.866 96.8221L258.319 97.2127L258.45 94.7282L253.729 94.4808L253.996 89.3875L257.748 89.5841L257.878 87.0995L254.126 86.9029L254.38 82.058ZM266.597 97.6466L269.405 97.7937L270.316 80.4018L267.881 80.2742L267.336 90.6845L265.074 80.1271L261.645 79.9474L260.734 97.3393L263.193 97.4682L263.853 84.8715L266.597 97.6466ZM277.788 91.7306L277.658 94.2151C277.593 95.4574 277.023 95.876 276.154 95.8304C275.284 95.7848 274.761 95.309 274.826 94.0667L275.318 84.6751C275.383 83.4328 275.955 82.9894 276.824 83.035C277.694 83.0805 278.216 83.5812 278.15 84.8235L278.053 86.6869L280.637 86.8224L280.725 85.1329C280.871 82.3502 279.563 80.6871 276.88 80.5465C274.196 80.4059 272.722 81.9231 272.576 84.7058L272.102 93.7495C271.956 96.5322 273.264 98.1953 275.947 98.3359C278.631 98.4765 280.105 96.9593 280.251 94.1766L280.372 91.866L277.788 91.7306ZM284.728 98.5968L287.461 98.74L287.763 92.9758L291.826 81.5291L289.218 81.3924L286.715 89.2088L285.044 81.1737L282.186 81.0239L285.03 92.8326L284.728 98.5968Z" fill="white"/>
<path d="M0.652354 73.1664C-1.41823 72.6178 -2.96878 70.8957 -3.2979 68.7791C-3.36134 68.3711 -3.70212 68.0633 -4.11458 68.0417C-4.52698 68.0201 -4.89812 68.2904 -5.00386 68.6897C-5.55247 70.7603 -7.27454 72.3108 -9.39112 72.6399C-9.79916 72.7034 -10.107 73.0442 -10.1286 73.4566C-10.1502 73.869 -9.87975 74.2401 -9.48053 74.3459C-7.41 74.8945 -5.85944 76.6166 -5.53033 78.7331C-5.46689 79.1412 -5.1261 79.449 -4.71365 79.4706C-4.30125 79.4922 -3.93011 79.2218 -3.82436 78.8226C-3.2757 76.752 -1.55363 75.2014 0.562894 74.8724C0.970941 74.8089 1.27874 74.4681 1.30036 74.0557C1.32197 73.6433 1.05153 73.2721 0.652354 73.1664Z" fill="white"/>
</svg>
