<svg width="169" height="106" viewBox="0 0 169 106" fill="none" xmlns="http://www.w3.org/2000/svg">
<g clip-path="url(#clip0_20_320)">
<path d="M145.923 55.5582C145.923 58.6446 144.172 60.042 142.137 60.042C140.227 60.042 139.145 58.9437 139.145 55.3304V47.8888H134.302V57.6633C134.302 62.0568 136.18 64.6506 140.158 64.6506C142.385 64.6506 144.358 63.6108 145.95 62.1802L146.204 64.326H150.72V47.8888H145.917L145.923 55.5582ZM40.7808 45.7226C40.4286 45.7226 40.0908 45.8655 39.8418 46.1198C39.5928 46.3741 39.4529 46.719 39.4529 47.0787C39.4529 47.4383 39.5928 47.7833 39.8418 48.0376C40.0908 48.2919 40.4286 48.4348 40.7808 48.4348C41.1328 48.4348 41.4704 48.292 41.7193 48.0378C41.9682 47.7836 42.1081 47.4388 42.1081 47.0793C42.1081 46.7198 41.9682 46.3751 41.7193 46.1209C41.4704 45.8667 41.1328 45.7239 40.7808 45.7239V45.7226ZM27.5167 25.9189C24.0342 25.9192 20.5858 26.62 17.3684 27.9812C14.151 29.3424 11.2277 31.3375 8.76528 33.8525C6.30291 36.3675 4.34971 39.3532 3.01722 42.6391C1.68472 45.925 0.999022 49.4467 0.999268 53.0032C0.999513 56.5597 1.6857 60.0814 3.01865 63.367C4.3516 66.6527 6.3052 69.6381 8.76793 72.1528C11.2306 74.6674 14.1543 76.6621 17.3718 78.0229C20.5894 79.3837 24.0379 80.0839 27.5205 80.0837C34.5537 80.0832 41.2986 77.2294 46.2715 72.1503C51.2444 67.0711 54.0378 60.1826 54.0373 53C54.0368 45.8175 51.2424 38.9294 46.2689 33.8509C41.2953 28.7725 34.55 25.9197 27.5167 25.9202V25.9189ZM39.5781 64.3299C38.0333 66.0727 36.1496 67.4676 34.0474 68.4254C31.9451 69.3833 29.6704 69.8831 27.3684 69.8929H27.3373C25.0142 69.8896 22.7178 69.3874 20.5972 68.419C18.4765 67.4505 16.579 66.0373 15.0279 64.2713C13.4628 62.5062 12.2845 60.4205 11.5716 58.1533C10.8587 55.8861 10.6277 53.4897 10.894 51.124C11.3191 47.3372 12.9813 43.8071 15.6125 41.1037C18.2437 38.4003 21.6901 36.6813 25.3956 36.2242C26.0374 36.1479 26.6842 36.1097 27.3311 36.1097C30.9783 36.1023 34.5234 37.3396 37.4034 39.6249C37.5418 39.7326 37.6409 39.8844 37.6849 40.0563C37.7289 40.2281 37.7154 40.4101 37.6464 40.5731C37.6013 40.682 37.5332 40.7793 37.447 40.8582L35.691 42.4644C35.5065 42.6325 35.2678 42.7254 35.0205 42.7253C34.8087 42.7252 34.6021 42.6585 34.4286 42.5344C32.6699 41.2776 30.6211 40.5099 28.4839 40.3068C26.3466 40.1038 24.1943 40.4723 22.2388 41.3762C20.6341 42.1126 19.1996 43.1864 18.0289 44.5275C16.8502 45.8649 15.965 47.444 15.4326 49.1592C14.9002 50.8744 14.7329 52.686 14.9419 54.4726C15.2733 57.326 16.5361 59.9823 18.5267 62.013C20.5173 64.0438 23.1196 65.3307 25.914 65.6662C26.3876 65.7184 26.8649 65.7464 27.3423 65.7464C28.9897 65.7485 30.621 65.4147 32.1404 64.7645C33.6599 64.1143 35.0369 63.1609 36.1908 61.96C36.2866 61.8609 36.4007 61.7821 36.5264 61.7281C36.6522 61.6742 36.7872 61.6461 36.9236 61.6457C37.1216 61.6455 37.3154 61.7048 37.4807 61.8162L39.4298 63.122C39.5244 63.1862 39.6044 63.2703 39.6646 63.3686C39.7248 63.467 39.7637 63.5773 39.7788 63.6922C39.7929 63.8073 39.7823 63.9241 39.7479 64.0347C39.7135 64.1452 39.656 64.2468 39.5794 64.3324L39.5781 64.3299ZM40.7808 51.1673C39.719 51.1673 38.7006 50.7365 37.9498 49.9698C37.199 49.203 36.7771 48.163 36.7771 47.0787C36.7771 45.9943 37.199 44.9543 37.9498 44.1876C38.7006 43.4208 39.719 42.99 40.7808 42.99C41.8426 42.99 42.861 43.4208 43.6118 44.1876C44.3626 44.9543 44.7844 45.9943 44.7844 47.0787C44.7844 48.163 44.3626 49.203 43.6118 49.9698C42.861 50.7365 41.8426 51.1673 40.7808 51.1673ZM128.732 45.9071C129.192 45.9078 129.642 45.7696 130.024 45.5098C130.407 45.25 130.706 44.8803 130.884 44.4473C131.06 44.014 131.107 43.5369 131.018 43.0764C130.93 42.6159 130.709 42.1926 130.385 41.8599C130.142 41.6118 129.848 41.4218 129.525 41.3035C129.201 41.1852 128.856 41.1415 128.514 41.1755C128.172 41.2096 127.842 41.3206 127.547 41.5005C127.252 41.6805 127 41.9249 126.808 42.2162C126.553 42.6064 126.416 43.0653 126.416 43.5348C126.412 44.0042 126.546 44.464 126.8 44.8553C127.054 45.2467 127.417 45.5517 127.841 45.7315C128.124 45.8499 128.427 45.9097 128.732 45.9071ZM92.1358 47.5579C87.2055 47.5579 84.0849 51.4575 84.0849 56.0062C84.0849 60.686 87.3638 64.6519 92.4237 64.6519C97.0062 64.6519 99.5237 61.2702 99.9013 59.0608L95.7325 58.6051C95.3662 59.1425 94.875 59.5785 94.3029 59.8739C93.7307 60.1694 93.0957 60.3151 92.4548 60.2979C89.9748 60.2979 88.9865 58.8979 88.8917 57.5997H100.188V56.3448C100.188 51.5593 97.1333 47.5579 92.1358 47.5579ZM88.8917 54.2575C88.9865 52.9899 90.2277 51.9182 92.1358 51.9182C94.0712 51.9182 95.2876 53.0166 95.3823 54.2575H88.8917ZM163.133 54.5197C159.634 53.3488 158.831 53.252 158.831 52.5686C158.831 51.8851 159.755 51.6268 160.517 51.6268C161.281 51.6268 162.428 51.9182 162.454 52.9262H167.292C167.227 50.0333 164.711 47.5642 160.354 47.5642C157.045 47.5642 153.991 49.4479 153.991 52.5686C153.991 55.2999 155.996 56.7597 158.986 57.606C162.167 58.516 163.188 58.6777 163.188 59.5839C163.188 60.3309 162.073 60.5919 161.183 60.5919C159.527 60.5919 158.414 59.9746 158.318 59.0315H153.522C153.617 62.8649 156.704 64.6544 161.094 64.6544C164.818 64.6544 168 62.9617 168 59.6793C168.002 57.8657 167.144 55.8179 163.133 54.5197ZM102.384 64.3324H107.188V39.9597H102.384V64.3324ZM126.345 64.3324H131.149V47.8888H126.345V64.3324ZM63.6 52.7964C63.6 59.5559 68.6287 64.6595 74.9285 64.6595C78.5564 64.6595 80.7511 63.0991 81.5151 62.4169V57.5055C80.9754 58.1889 78.9079 60.0077 75.5342 60.0077C71.6833 60.0077 68.4056 57.1809 68.4056 52.7939C68.4056 48.4068 71.6833 45.5431 75.5342 45.5431C78.9079 45.5431 80.9754 47.3962 81.5151 48.0784V43.1759C80.7511 42.4924 78.5564 40.932 74.9273 40.932C68.6212 40.932 63.5987 46.0357 63.5987 52.7939L63.6 52.7964ZM119.227 54.5209C115.726 53.35 114.924 53.2533 114.924 52.5699C114.924 51.8864 115.846 51.628 116.61 51.628C117.374 51.628 118.519 51.9195 118.547 52.9275H123.385C123.32 50.0346 120.804 47.5655 116.447 47.5655C113.139 47.5655 110.083 49.4491 110.083 52.5699C110.083 55.3011 112.086 56.7609 115.078 57.6073C118.26 58.5173 119.278 58.6789 119.278 59.5851C119.278 60.3322 118.165 60.5931 117.276 60.5931C115.618 60.5931 114.506 59.9759 114.409 59.0328H109.608C109.703 62.8662 112.79 64.6557 117.181 64.6557C120.905 64.6557 124.085 62.9629 124.085 59.6806C124.085 57.8669 123.228 55.8191 119.218 54.5209H119.227Z" fill="url(#paint0_linear_20_320)"/>
</g>
<defs>
<linearGradient id="paint0_linear_20_320" x1="14.1331" y1="84.29" x2="147.098" y2="20.798" gradientUnits="userSpaceOnUse">
<stop stop-color="#382BC6"/>
<stop offset="1" stop-color="#FF3CAC"/>
</linearGradient>
<clipPath id="clip0_20_320">
<rect width="167" height="56" fill="white" transform="translate(1 25)"/>
</clipPath>
</defs>
</svg>
