<svg width="109" height="60" viewBox="0 0 109 60" fill="none" xmlns="http://www.w3.org/2000/svg">
<g clip-path="url(#clip0_202_2)">
<path d="M57.2975 9.21888H59.7672C60.5304 9.21888 61.1194 9.055 61.5344 8.72698C61.9492 8.39915 62.1568 7.93373 62.1568 7.33145C62.1568 6.68887 61.9527 6.19691 61.5446 5.85563C61.136 5.51411 60.5437 5.34335 59.7672 5.34335H57.2975V9.21894V9.21888ZM54.8677 16.2068V3.07422H59.968C61.3335 3.07422 62.4479 3.47594 63.3115 4.27908C64.1749 5.08229 64.6068 6.11989 64.6068 7.39159C64.6068 8.60996 64.1782 9.59738 63.3215 10.3535C62.4646 11.11 61.3469 11.488 59.968 11.488H57.2975V16.2069H54.8677V16.2068Z" fill="white"/>
<path d="M70.2091 10.6647H72.8196L75.6108 16.2068H73.0205L70.2091 10.6647ZM68.3017 9.27902H70.8318C71.5947 9.27902 72.1736 9.11845 72.5686 8.79725C72.9633 8.47582 73.161 8.00732 73.161 7.39153C73.161 6.74889 72.9633 6.2468 72.5686 5.88537C72.1736 5.52388 71.5947 5.34323 70.8318 5.34323H68.3017V9.27902ZM65.8718 16.2068V3.07422H71.0525C72.3911 3.07422 73.4853 3.48589 74.3358 4.30918C75.1856 5.13247 75.6108 6.18009 75.6108 7.45179C75.6108 8.68361 75.1923 9.67772 74.3557 10.4338C73.519 11.1902 72.418 11.5683 71.0525 11.5683H68.3017V16.2069H65.8718V16.2068Z" fill="white"/>
<path d="M79.8775 6.21677C79.2951 7.04006 79.004 8.18141 79.004 9.64052C79.004 11.0997 79.2918 12.231 79.8676 13.0342C80.4429 13.8374 81.2461 14.239 82.2771 14.239C83.3077 14.239 84.1077 13.8373 84.6767 13.0342C85.2456 12.231 85.53 11.0997 85.53 9.64052C85.53 8.18141 85.2421 7.04006 84.6667 6.21677C84.091 5.39342 83.2945 4.98174 82.2771 4.98174C81.2596 4.98174 80.46 5.39342 79.8775 6.21677ZM76.5543 9.64052C76.5543 7.4451 77.0728 5.72481 78.1104 4.47989C79.1476 3.23473 80.5367 2.6123 82.2771 2.6123C83.9105 2.6123 85.269 3.24493 86.3534 4.50999C87.4379 5.77505 87.9801 7.48533 87.9801 9.64052C87.9801 11.8361 87.468 13.5495 86.4436 14.7809C85.4197 16.0128 84.0308 16.6284 82.2771 16.6284C80.5232 16.6284 79.131 16.0128 78.1006 14.7809C77.0694 13.5495 76.5542 11.8361 76.5542 9.64052H76.5543Z" fill="white"/>
<path d="M57.0429 27.4767H59.5055C60.987 27.4767 61.7275 27.0015 61.7275 26.0508C61.7275 25.0758 60.987 24.5881 59.5055 24.5881H57.0429V27.4767ZM57.0429 22.4771H59.5055C60.851 22.4771 61.524 21.9835 61.524 20.9958C61.524 20.5022 61.3665 20.1412 61.0517 19.9125C60.7369 19.6843 60.2214 19.5699 59.5055 19.5699H57.0429V22.477V22.4771ZM61.3015 23.4215V23.6623C62.1041 23.8228 62.7489 24.1594 63.2367 24.6712C63.7241 25.1838 63.9681 25.7981 63.9681 26.5138C63.9681 27.4397 63.5853 28.1836 62.8201 28.7451C62.0545 29.307 61.0175 29.5877 59.7093 29.5877H54.8022V17.4778H59.7093C61.0175 17.4778 62.0238 17.7618 62.7274 18.3295C63.4312 18.8974 63.7829 19.6626 63.7829 20.6255C63.7829 21.354 63.5667 21.968 63.1349 22.4681C62.7025 22.9678 62.0916 23.286 61.3015 23.4216L61.3015 23.4215Z" fill="white"/>
<path d="M65.2268 17.4778H67.4675V27.4767H74.1149V29.5876H65.2268V17.4778Z" fill="white"/>
<path d="M77.1054 20.3757C76.5684 21.1349 76.2999 22.1873 76.2999 23.5328C76.2999 24.8784 76.5651 25.9214 77.0962 26.6621C77.6268 27.4028 78.3675 27.773 79.3182 27.773C80.2687 27.773 81.0061 27.4028 81.5308 26.6621C82.0553 25.9214 82.3178 24.8784 82.3178 23.5328C82.3178 22.1873 82.0523 21.1349 81.5217 20.3757C80.991 19.6165 80.2562 19.2368 79.3182 19.2368C78.38 19.2368 77.6424 19.6165 77.1055 20.3757H77.1054ZM74.0408 23.5328C74.0408 21.5084 74.519 19.9219 75.4758 18.7739C76.4325 17.6259 77.7133 17.0518 79.3182 17.0518C80.8242 17.0518 82.0771 17.6352 83.0771 18.8017C84.0771 19.9683 84.5769 21.5453 84.5769 23.5327C84.5769 25.5574 84.1047 27.1374 83.1604 28.273C82.2161 29.4089 80.9351 29.9764 79.3182 29.9764C77.7008 29.9764 76.4171 29.4089 75.4669 28.273C74.5161 27.1374 74.0408 25.5574 74.0408 23.5327V23.5328Z" fill="white"/>
<path d="M95.8164 21.3663L93.6313 21.792C93.4091 20.9898 93.0632 20.3726 92.5945 19.9404C92.1252 19.5084 91.5511 19.2922 90.8724 19.2922C89.9094 19.2922 89.1562 19.6659 88.6132 20.4127C88.0699 21.1596 87.7985 22.218 87.7985 23.5883C87.7985 24.9215 88.0699 25.9523 88.6132 26.6806C89.1562 27.4091 89.9094 27.773 90.8724 27.773C91.6006 27.773 92.2147 27.5323 92.7148 27.0507C93.2147 26.5694 93.5324 25.8967 93.6682 25.0325L95.8719 25.4769C95.6002 26.909 95.0138 28.0169 94.1127 28.8006C93.2116 29.5847 92.1314 29.9764 90.8724 29.9764C89.2427 29.9764 87.9466 29.4149 86.9838 28.2914C86.0208 27.1683 85.5396 25.6004 85.5396 23.5882C85.5396 21.5392 86.0209 19.9496 86.9838 18.8201C87.9466 17.6905 89.2427 17.1257 90.8724 17.1257C92.0203 17.1257 93.0325 17.4932 93.9091 18.2275C94.7853 18.9622 95.421 20.0083 95.8163 21.3661L95.8164 21.3663Z" fill="white"/>
<path d="M97.1309 17.4778H99.3714V22.9588L104.389 17.4778H107.167L102.39 22.9959L107.167 29.5876H104.149L100.612 24.5142L99.3714 25.7363V29.5876H97.1309V17.4778Z" fill="white"/>
<path d="M65.6911 35.3621L63.3216 35.8239C63.0806 34.9538 62.7057 34.2847 62.1972 33.8159C61.6882 33.3474 61.0658 33.1129 60.3296 33.1129C59.2856 33.1129 58.4687 33.5179 57.88 34.328C57.2908 35.138 56.9964 36.2856 56.9964 37.7716C56.9964 39.2173 57.2908 40.3353 57.88 41.125C58.4687 41.9151 59.2855 42.3098 60.3296 42.3098C61.1195 42.3098 61.7856 42.049 62.3277 41.5267C62.8697 41.0045 63.2143 40.2752 63.3617 39.338L65.7515 39.8197C65.4568 41.373 64.8209 42.5743 63.8439 43.4242C62.8664 44.2747 61.6952 44.6995 60.3297 44.6995C58.5628 44.6995 57.157 44.0905 56.1129 42.8722C55.0687 41.6542 54.5466 39.9541 54.5466 37.7717C54.5466 35.5498 55.0687 33.826 56.1129 32.601C57.157 31.3761 58.5628 30.7637 60.3297 30.7637C61.5746 30.7637 62.6722 31.1623 63.6229 31.9586C64.5732 32.7551 65.2627 33.8897 65.6911 35.3622L65.6911 35.3621Z" fill="white"/>
<path d="M74.9479 31.145H77.3979V44.2776H74.9479V31.145ZM68.3012 36.4462H75.9919V38.7355H68.3012V36.4462ZM67.1165 31.145H69.5463V44.2776H67.1165V31.145Z" fill="white"/>
<path d="M81.7348 38.7556H87.9799V41.0246H81.7348V38.7556ZM84.4657 34.3581L81.1726 44.2776H78.542L82.9797 31.145H86.6545L91.1121 44.2776H88.5017L85.1684 34.3581L84.9477 33.2336H84.6867L84.4657 34.3581Z" fill="white"/>
<path d="M92.2568 31.125H94.6867V44.2777H92.2568V31.125Z" fill="white"/>
<path d="M104.747 31.145H107.196V44.2777H104.044L98.8029 34.6992V44.2777H96.373V31.145H99.5055L104.747 40.6834V31.145Z" fill="white"/>
<path d="M62.07 55.4525L67.3038 45.8318H68.7942V56.9092H67.7611V47.0684L62.5441 56.9092H61.1383L55.9554 47.0684V56.9092H54.9053V45.8318H56.4294L61.6295 55.4525L61.8326 56.0793L62.07 55.4525Z" fill="white"/>
<path d="M70.6062 45.8318H80.1929V46.8311H71.6565V50.8793H80.1253V51.8958H71.6565V55.8928H80.1929V56.9093H70.6062V45.8318Z" fill="white"/>
<path d="M82.6321 55.876H86.138C87.5722 55.876 88.6789 55.4836 89.458 54.6987C90.2372 53.914 90.6266 52.7933 90.6266 51.3366C90.6266 49.8913 90.2398 48.779 89.4663 47.9998C88.6928 47.2207 87.5834 46.8311 86.138 46.8311H82.6321V55.876ZM81.5818 56.9091V45.8318H86.3245C87.8937 45.8318 89.1755 46.3514 90.1692 47.3902C91.1629 48.4291 91.66 49.7698 91.66 51.4127C91.66 53.0558 91.1712 54.3829 90.1947 55.3931C89.2179 56.404 87.9276 56.909 86.3245 56.909H81.5818V56.9091Z" fill="white"/>
<path d="M93.1843 45.8318H94.2346V56.9092H93.1843V45.8318Z" fill="white"/>
<path d="M98.0795 52.5222H105.566V53.5214H98.0795V52.5222ZM101.501 47.2718L96.6566 56.9093H95.437L101.01 45.8318H102.585L108.191 56.9093H107.023L102.094 47.2718L101.907 46.6279H101.687L101.501 47.2718Z" fill="white"/>
<path d="M34.053 25.8281C34.052 28.0883 32.2193 29.9209 29.9592 29.9219H19.9852C19.6422 29.922 19.3219 30.0941 19.1326 30.3804L12.5448 39.5825C12.4899 39.665 12.3971 39.7146 12.2979 39.7146C12.1351 39.7146 12.0027 39.5834 12.0012 39.4206L12.0011 17.4602C12.0012 15.1997 13.8344 13.3664 16.0949 13.3664H29.9592C32.2198 13.3664 34.053 15.1997 34.053 17.4602V25.8281ZM35.5219 5.92508e-05H10.6856C4.78349 0.00136277 5.92508e-05 4.78604 5.92508e-05 10.6877L0 54.3348C0 59.2689 5.87815 61.8334 9.49459 58.4846L22.3444 44.4024C23.0187 43.8006 23.4669 43.2674 24.5645 43.2031H35.5219C41.4218 43.2018 46.2034 38.4189 46.2034 32.5195V32.5169V10.6877C46.2034 10.6861 46.2034 10.6848 46.2034 10.6836C46.2034 4.78421 41.4218 0.00130352 35.5224 0H35.5219L35.5219 5.92508e-05Z" fill="white"/>
</g>
<defs>
<clipPath id="clip0_202_2">
<rect width="108.191" height="60" fill="white"/>
</clipPath>
</defs>
</svg>
