<svg width="142" height="60" viewBox="0 0 142 60" fill="none" xmlns="http://www.w3.org/2000/svg">
<g clip-path="url(#clip0_12_388)">
<path d="M0.557578 0H141.687V59.9998H0V0H0.557578ZM140.571 1.12021H1.11516V58.8796H140.571V1.12021Z" fill="black"/>
<path d="M54.945 9.93483H51.4148V19.3009H53.5461V16.3573H54.945C56.7833 16.3573 58.2088 14.9256 58.2088 13.1461C58.2088 11.3664 56.7833 9.93483 54.945 9.93483ZM54.945 14.3502H53.5461V11.9418H54.945C55.5977 11.9418 56.0773 12.4637 56.0773 13.1461C56.0773 13.8285 55.5977 14.3502 54.945 14.3502ZM64.1766 19.301H66.4679L64.4832 15.8622C65.5088 15.3404 66.2016 14.2967 66.2016 13.1461C66.2016 11.3665 64.7761 9.93486 63.0044 9.93486H59.2744V19.301H61.4058V16.2235H62.4183L64.1766 19.301ZM61.4058 11.9418H63.0044C63.5906 11.9418 64.0701 12.4637 64.0701 13.1461C64.0701 13.8285 63.5906 14.3503 63.0044 14.3503H61.4058V11.9418ZM71.7832 19.4882C74.4609 19.4882 76.6323 17.3742 76.6323 14.6179C76.6323 11.8616 74.4609 9.74744 71.7832 9.74744C69.1056 9.74744 66.9343 11.8616 66.9343 14.6179C66.9343 17.3742 69.1056 19.4882 71.7832 19.4882ZM71.7832 17.401C70.2646 17.401 69.0657 16.2904 69.0657 14.6179C69.0657 12.9454 70.2646 11.8348 71.7832 11.8348C73.3019 11.8348 74.5008 12.9454 74.5008 14.6179C74.5008 16.2904 73.3019 17.401 71.7832 17.401ZM57.1962 30.8347C57.7024 30.3932 58.0089 29.7776 58.0089 29.0017C58.0089 27.3825 56.69 26.3256 55.0649 26.3256H51.4148V35.6917H55.3312C56.9964 35.6917 58.3419 34.6078 58.3419 32.9488C58.3419 31.9987 57.889 31.2761 57.1962 30.8347ZM55.0649 28.3326C55.5577 28.3326 55.8775 28.6805 55.8775 29.1621C55.8775 29.6438 55.5444 29.9917 55.0649 29.9917H53.5461V28.3325H55.0649V28.3326ZM55.3312 33.6847H53.5461V31.8917H55.3312C55.8641 31.8917 56.2105 32.2664 56.2105 32.7881C56.2105 33.31 55.8641 33.6847 55.3312 33.6847V33.6847ZM61.539 33.6312V26.3256H59.4076V35.6917H64.8694V33.6312H61.539ZM69.7184 35.879C72.3961 35.879 74.5674 33.765 74.5674 31.0086C74.5674 28.2523 72.3961 26.1382 69.7184 26.1382C67.0408 26.1382 64.8694 28.2523 64.8694 31.0086C64.8694 33.765 67.0408 35.879 69.7184 35.879ZM69.7184 33.7917C68.1998 33.7917 67.0009 32.6811 67.0009 31.0086C67.0009 29.3361 68.1998 28.2256 69.7184 28.2256C71.2371 28.2256 72.436 29.3361 72.436 31.0086C72.436 32.6811 71.2371 33.7917 69.7184 33.7917ZM80.2157 35.879C81.9209 35.879 83.4128 35.0361 84.2122 33.7115L82.3738 32.641C81.9741 33.3636 81.1616 33.7917 80.2157 33.7917C78.5639 33.7917 77.4982 32.6812 77.4982 31.0087C77.4982 29.3362 78.5639 28.2256 80.2157 28.2256C81.1616 28.2256 81.9609 28.6538 82.3738 29.3762L84.2122 28.3058C83.3996 26.9813 81.9076 26.1382 80.2157 26.1382C77.4049 26.1382 75.3668 28.2523 75.3668 31.0087C75.3668 33.765 77.4049 35.879 80.2157 35.879V35.879ZM92.7512 35.6917L89.4741 30.8882L92.618 26.3256H90.1936L87.3426 30.3932V26.3256H85.2113V35.6917H87.3426V31.3566L90.3267 35.6917H92.7512ZM97.2005 35.879C98.9056 35.879 100.398 35.0361 101.197 33.7115L99.3586 32.641C98.9589 33.3636 98.1464 33.7917 97.2005 33.7917C95.5487 33.7917 94.483 32.6812 94.483 31.0087C94.483 29.3362 95.5487 28.2256 97.2005 28.2256C98.1464 28.2256 98.9457 28.6538 99.3586 29.3762L101.197 28.3058C100.384 26.9813 98.8924 26.1382 97.2005 26.1382C94.3897 26.1382 92.3515 28.2523 92.3515 31.0087C92.3515 33.765 94.3897 35.879 97.2005 35.879V35.879ZM107.258 26.3256V29.9114H104.327V26.3256H102.196V35.6917H104.327V31.972H107.258V35.6917H109.39V26.3256H107.258ZM116.916 35.6917H119.248L116.077 26.3256H113.359L110.189 35.6917H112.52L112.986 34.2199H116.45L116.916 35.6917H116.916ZM113.626 32.2128L114.718 28.7742L115.811 32.2128H113.626ZM120.047 26.3256V35.6916H122.178V26.3256H120.047ZM128.972 26.3256V31.41L125.375 26.3256H123.777V35.6916H125.908V30.6072L129.505 35.6916H131.104V26.3256H128.972H128.972ZM60.7398 42.7163H58.6083L56.0773 46.8775L53.5461 42.7163H51.4148V52.0824H53.5461V46.6367L55.9573 50.6106H56.1972L58.6083 46.6367V52.0824H60.7398V42.7163H60.7398ZM64.4698 50.0219V48.3627H67.8003V46.329H64.4698V44.7768H68.1333V42.7163H62.3384V52.0824H68.1998V50.0219H64.4698V50.0219ZM73.1287 42.7163H69.3987V52.0824H73.1287C75.6998 52.0824 77.6581 50.0487 77.6581 47.3993C77.6581 44.75 75.6998 42.7163 73.1287 42.7163V42.7163ZM73.1287 50.0219H71.5301V44.7768H73.1287C74.5941 44.7768 75.6065 45.7937 75.6065 47.3994C75.6065 49.0049 74.5941 50.0219 73.1287 50.0219ZM78.857 42.7163V52.0824H80.9884V42.7163H78.857ZM88.515 52.0824H90.8463L87.6758 42.7163H84.9582L81.7877 52.0824H84.119L84.5852 50.6106H88.0489L88.5151 52.0824H88.515ZM85.2246 48.6035L86.317 45.1649L87.4093 48.6035H85.2246Z" fill="black"/>
<path d="M29.4431 9.7741C29.4519 9.7741 29.4595 9.76826 29.4619 9.75998C29.4726 9.7244 29.491 9.677 29.4917 9.67578C29.5265 9.58928 29.5756 9.50808 29.6355 9.43555C29.6374 9.43311 29.6754 9.38925 29.7064 9.36006C29.8703 9.20281 30.0927 9.11155 30.3209 9.10802C30.3212 9.10802 30.3214 9.10802 30.3217 9.10802C30.3275 9.10802 30.3335 9.10749 30.3391 9.10802C30.3394 9.10802 30.3398 9.10802 30.34 9.10802C30.6273 9.11102 30.9059 9.25604 31.0715 9.48812C31.0915 9.51622 31.1153 9.55534 31.1189 9.56187C31.2047 9.70853 31.2472 9.88167 31.2419 10.0501C31.2409 10.0752 31.2558 10.0986 31.2794 10.1079C31.812 10.3237 37.5011 12.627 38.4546 13.0129C38.5314 13.0439 38.6193 13.0257 38.6775 12.9666C38.8423 12.7982 39.0714 12.6925 39.3098 12.6902C39.31 12.6902 39.3103 12.6902 39.3104 12.6902C39.3163 12.6902 39.3163 12.6902 39.3222 12.6902C39.3223 12.6902 39.3226 12.6902 39.3227 12.6902C39.6383 12.693 39.9444 12.8725 40.0997 13.152C40.148 13.2387 40.1813 13.3328 40.1993 13.4292C40.1993 13.4304 40.1998 13.4315 40.1998 13.4322C40.2003 13.438 40.2109 13.5 40.2132 13.5509C40.2155 13.6135 40.212 13.6772 40.2014 13.7398C40.2003 13.7467 40.1993 13.7538 40.1975 13.7614C40.1924 13.7906 40.1848 13.8187 40.1767 13.8473C40.1767 13.8479 40.1763 13.8486 40.1763 13.8491C40.1739 13.856 40.1641 13.8882 40.1555 13.9111C40.1284 13.9825 40.0915 14.049 40.0475 14.1111C39.9991 14.1783 39.995 14.2678 40.0376 14.3391C40.474 15.0653 42.667 18.7125 43.0955 19.4251C43.1368 19.4939 43.2142 19.5323 43.2934 19.5235C43.326 19.5193 43.3598 19.5173 43.3929 19.5173C43.3929 19.5173 43.3936 19.5173 43.3941 19.5173C43.5967 19.5193 43.7964 19.5902 43.9506 19.7176C43.9519 19.7181 43.9529 19.7186 43.9529 19.7193C43.9554 19.721 43.9774 19.7396 43.9774 19.7396C43.9973 19.7571 44.0142 19.7741 44.017 19.7769C44.0367 19.7965 44.0531 19.8152 44.0531 19.8152C44.0619 19.825 44.0642 19.8276 44.0642 19.8276C44.0897 19.8576 44.091 19.86 44.098 19.8689C44.098 19.869 44.098 19.869 44.0985 19.8691C44.1049 19.8785 44.1089 19.883 44.12 19.8995C44.12 19.8997 44.1205 19.8999 44.1205 19.9001C44.1205 19.9002 44.1364 19.9225 44.1364 19.9225C44.1457 19.9375 44.1427 19.9328 44.1503 19.9454C44.1503 19.9454 44.1503 19.9454 44.1503 19.9456C44.1526 19.9484 44.1742 19.9848 44.1899 20.0163C44.191 20.0187 44.2038 20.046 44.2038 20.046C44.2202 20.0838 44.2225 20.0904 44.2225 20.0904C44.2329 20.119 44.2417 20.1452 44.2422 20.1482C44.2464 20.1597 44.2469 20.1638 44.2469 20.1638C44.2469 20.1649 44.2556 20.1957 44.2556 20.1957C44.2591 20.2104 44.2632 20.229 44.2632 20.229C44.2667 20.2477 44.2714 20.2731 44.2714 20.2731C44.2737 20.2883 44.276 20.3071 44.276 20.3071C44.2824 20.3635 44.2818 20.375 44.2818 20.375C44.2824 20.3841 44.2824 20.3934 44.2824 20.4027C44.283 20.4039 44.283 20.4051 44.283 20.4065C44.283 20.4105 44.283 20.421 44.283 20.4248C44.283 20.4261 44.283 20.4274 44.2824 20.4285C44.2818 20.4643 44.2795 20.5002 44.2749 20.5359C44.2749 20.5368 44.2714 20.5577 44.2714 20.558C44.2626 20.6145 44.2656 20.5917 44.2598 20.6183L44.2539 20.6416C44.2533 20.6433 44.2528 20.6448 44.2528 20.6464C44.251 20.6518 44.247 20.6683 44.2452 20.6742C44.244 20.6758 44.244 20.6775 44.2434 20.6791C44.2376 20.6988 44.2295 20.7208 44.2283 20.7242C44.223 20.738 44.2149 20.7587 44.2144 20.7603C44.1985 20.7975 44.1916 20.8114 44.1899 20.8148C44.1823 20.8294 44.1718 20.8484 44.1684 20.8551C44.1677 20.8562 44.1672 20.8573 44.1666 20.8584C44.1631 20.8641 44.1474 20.8897 44.1474 20.8899C44.1212 20.9322 44.127 20.9227 44.1106 20.9443C44.1106 20.9444 44.0944 20.9675 44.077 20.9884C44.0758 20.9897 44.0752 20.9907 44.074 20.992C44.0699 20.9964 44.0536 21.0149 44.049 21.0212C44.0472 21.0232 44.0455 21.0251 44.0437 21.0269C44.0262 21.0453 44.0187 21.0524 44.0175 21.0539C44.0169 21.0539 44.0169 21.054 44.0169 21.0541C44.0053 21.0654 43.9942 21.0763 43.982 21.087C43.9634 21.1035 43.9616 21.1045 43.9529 21.1119C43.9384 21.1238 43.9185 21.1386 43.9122 21.1431C43.911 21.144 43.9099 21.145 43.9087 21.1458C43.8935 21.1565 43.844 21.189 43.8144 21.2051C43.8144 21.2051 43.8144 21.2053 43.8137 21.2053C43.812 21.2063 43.8102 21.2076 43.8079 21.2085C43.7381 21.2463 43.6956 21.3215 43.7003 21.4015C43.7491 22.3324 44.025 27.5439 44.0735 28.4602C44.0775 28.5387 44.1258 28.6082 44.198 28.6391C44.2364 28.6544 44.2731 28.6734 44.308 28.695C44.3378 28.7132 44.3068 28.6869 44.3878 28.7505C44.3878 28.7507 44.407 28.7664 44.407 28.7664C44.4315 28.7871 44.4547 28.809 44.4769 28.8322C44.4774 28.8324 44.4774 28.8329 44.478 28.833L44.4921 28.8478C44.524 28.884 44.5264 28.888 44.538 28.9029C44.5391 28.9046 44.5607 28.9346 44.5643 28.9401C44.5863 28.9722 44.5974 28.9928 44.5997 28.9968C44.609 29.0135 44.6212 29.037 44.6212 29.037C44.6358 29.066 44.6393 29.0742 44.6393 29.0742C44.6463 29.0917 44.6497 29.1 44.655 29.113L44.658 29.1213C44.6585 29.1224 44.6591 29.1236 44.6598 29.1248C44.6825 29.1872 44.6981 29.2519 44.7057 29.3174V29.3175L44.708 29.3387C44.7115 29.3789 44.7121 29.4335 44.7121 29.4361C44.7116 29.4583 44.7093 29.4878 44.7086 29.498C44.708 29.5001 44.7081 29.5019 44.7081 29.504C44.7068 29.5132 44.7058 29.5233 44.7051 29.5262C44.7051 29.5276 44.7051 29.5289 44.7051 29.5303C44.6959 29.5995 44.679 29.6676 44.6533 29.7321C44.6522 29.734 44.6515 29.7361 44.6505 29.7381C44.6469 29.7466 44.6313 29.784 44.6306 29.7843C44.6306 29.7844 44.6306 29.7847 44.6306 29.7848C44.6278 29.7908 44.6272 29.7923 44.6196 29.8071V29.8072C44.6196 29.8073 44.5712 29.8976 44.5159 29.9643C44.5147 29.9658 44.5136 29.9673 44.5124 29.9687C44.5124 29.9687 44.4938 29.9901 44.4874 29.9969C44.4863 29.9987 44.4846 30.0004 44.4828 30.0021C44.4763 30.0088 44.4746 30.0105 44.4746 30.0105C44.4543 30.0311 44.4339 30.0509 44.4117 30.0695C44.3983 30.0811 44.3978 30.0815 44.3925 30.0861C44.3849 30.0917 44.3763 30.0982 44.3763 30.0983C44.3763 30.0983 44.3763 30.0985 44.3763 30.0986C44.3581 30.1119 44.3407 30.1245 44.322 30.1364C44.3093 30.1444 44.3086 30.1448 44.3041 30.1475C44.219 30.1988 44.2079 30.1986 44.1852 30.2079C44.0771 30.2522 43.96 30.2704 43.8441 30.2658C43.765 30.2632 43.6921 30.3057 43.6555 30.3756C43.2515 31.1433 41.0817 35.2686 40.6656 36.0597C40.6265 36.1338 40.6358 36.2241 40.6894 36.2884C40.7575 36.3698 40.814 36.4629 40.853 36.5654C40.8576 36.5769 40.8611 36.5885 40.8658 36.6C40.8838 36.6529 40.8979 36.7067 40.9077 36.7665C40.9077 36.7681 40.9082 36.7699 40.9082 36.7717C40.9088 36.7804 40.9141 36.8125 40.9141 36.8137C40.9257 36.9168 40.9211 37.0219 40.9024 37.1224C40.9019 37.125 40.9012 37.1274 40.9007 37.13C40.8954 37.1516 40.8681 37.263 40.8314 37.3448C40.6439 37.7627 40.1526 38.0213 39.6883 37.9134C39.5124 37.8726 39.3508 37.7814 39.2212 37.6561C39.1614 37.5988 39.0731 37.5829 38.9974 37.6162C38.0065 38.05 31.825 40.7599 31.0153 41.115C30.9651 41.1369 30.9309 41.1846 30.9258 41.2393C30.9258 41.2398 30.9257 41.2402 30.9257 41.2409C30.9257 41.2417 30.9238 41.2599 30.9231 41.2652C30.9231 41.2671 30.9227 41.269 30.9224 41.2708C30.915 41.3272 30.901 41.3827 30.8801 41.4358C30.8793 41.438 30.8785 41.4401 30.8774 41.4422C30.8751 41.4478 30.8667 41.4673 30.8628 41.4763C30.8614 41.4795 30.86 41.4827 30.8584 41.4858C30.8452 41.5121 30.8379 41.5257 30.8261 41.5451C30.808 41.5749 30.7879 41.6034 30.7656 41.6303C30.7639 41.6322 30.7623 41.6342 30.7607 41.6361C30.7553 41.6419 30.7403 41.6585 30.7341 41.6656C30.7319 41.668 30.7296 41.6705 30.7272 41.6729C30.7104 41.6896 30.6886 41.7093 30.6816 41.7157C30.6798 41.7172 30.6782 41.7188 30.6765 41.72C30.6616 41.7325 30.6553 41.7374 30.6452 41.745C30.4012 41.9272 30.0364 41.9272 29.7926 41.737C29.7759 41.724 29.7548 41.7052 29.7474 41.6983C29.7456 41.6968 29.7438 41.6953 29.7422 41.6937C29.7303 41.6821 29.7163 41.6679 29.711 41.6623C29.7092 41.6604 29.7072 41.6584 29.7055 41.6564C29.6641 41.6102 29.628 41.5597 29.599 41.504C29.5963 41.499 29.5821 41.4684 29.5782 41.4601C29.5775 41.4588 29.577 41.4574 29.5763 41.4559C29.5763 41.4559 29.5763 41.4559 29.5763 41.4558C29.5717 41.4451 29.5612 41.438 29.5496 41.438C29.1687 41.438 23.3652 41.438 22.7423 41.438C22.711 41.438 22.6831 41.4584 22.6734 41.4883C22.6714 41.4948 22.6309 41.605 22.5897 41.6774C22.4808 41.868 22.3077 42.0171 22.107 42.1022C22.0313 42.1343 21.9821 42.2089 21.9821 42.2916C21.9814 43.3495 21.9814 49.8501 21.9814 50.8735C21.9814 50.9509 22.0242 51.0217 22.0925 51.057C22.1229 51.0718 22.152 51.0889 22.1794 51.108C22.1794 51.108 22.1795 51.1082 22.1796 51.1082C22.1822 51.1101 22.2098 51.1292 22.2334 51.1486C22.2355 51.1504 22.2375 51.152 22.2394 51.1538C22.2484 51.1617 22.2811 51.1908 22.2811 51.1908C22.2902 51.1998 22.2995 51.2089 22.3083 51.2183C22.3118 51.2221 22.3121 51.2221 22.3156 51.2259C22.3537 51.2673 22.3857 51.3097 22.4124 51.3538C22.4135 51.3557 22.4147 51.3578 22.4158 51.3597C22.4209 51.3686 22.4411 51.4048 22.4411 51.4048C22.4618 51.4458 22.48 51.4883 22.4938 51.5317C22.4941 51.5321 22.4942 51.5327 22.4945 51.5333C22.4945 51.5333 22.4971 51.542 22.4982 51.5457C22.4985 51.5469 22.4988 51.5482 22.4992 51.5492C22.5001 51.5519 22.5014 51.5574 22.5024 51.56C22.5028 51.5613 22.503 51.5625 22.5033 51.5638C22.5076 51.5803 22.5126 51.6012 22.5126 51.6012C22.5163 51.6181 22.5206 51.641 22.5206 51.641C22.523 51.6562 22.5257 51.6762 22.5257 51.6762C22.5294 51.708 22.5305 51.7264 22.5305 51.7264C22.5317 51.7453 22.5321 51.7669 22.5321 51.7687C22.5325 51.7945 22.5306 51.8295 22.53 51.8389C22.53 51.8401 22.5299 51.8414 22.5298 51.8428C22.5294 51.8486 22.529 51.8524 22.5288 51.8547C22.5287 51.8567 22.5284 51.8585 22.5283 51.8606C22.5236 51.9023 22.5215 51.913 22.5186 51.9286C22.5124 51.9622 22.5041 51.9953 22.4936 52.0279C22.4932 52.0295 22.4926 52.031 22.4922 52.0325C22.4903 52.0378 22.4848 52.054 22.4823 52.0607C22.4816 52.0629 22.4808 52.0651 22.48 52.0671C22.4776 52.0732 22.4758 52.0779 22.4758 52.0779C22.4757 52.0784 22.4756 52.0788 22.4754 52.0791C22.4541 52.1316 22.4449 52.1483 22.4423 52.1528C22.4419 52.1532 22.4415 52.1538 22.4412 52.1543C22.4318 52.1718 22.4185 52.1948 22.4139 52.2025C22.4127 52.2047 22.4115 52.2067 22.4103 52.2088C22.384 52.2502 22.355 52.2897 22.3222 52.3257C22.3203 52.3277 22.3184 52.3298 22.3163 52.3319C22.3093 52.3391 22.2863 52.3625 22.2777 52.371C22.2754 52.3733 22.2729 52.3758 22.2706 52.3779C22.261 52.3868 22.2498 52.3965 22.2464 52.3994C22.2456 52.4001 22.2448 52.4009 22.2438 52.4017C22.2283 52.4148 22.2076 52.4305 22.2012 52.4353C22.1999 52.4362 22.1987 52.4372 22.1973 52.4381C22.1778 52.4521 22.167 52.4594 22.151 52.4696C21.8795 52.6406 21.5047 52.6306 21.242 52.4342C21.2412 52.4336 21.2279 52.4237 21.2149 52.4132C21.2023 52.4029 21.2065 52.4067 21.1961 52.3975L21.1764 52.3798C21.1749 52.3786 21.1736 52.3774 21.1722 52.3762C21.1656 52.3699 21.1638 52.3683 21.1638 52.3683C21.1495 52.3543 21.1314 52.3351 21.1251 52.3286C21.1239 52.3272 21.1226 52.3258 21.1214 52.3243C21.0885 52.2874 21.0582 52.2477 21.0325 52.2055C21.0313 52.2034 21.0302 52.2015 21.0292 52.1995C21.0251 52.1927 21.012 52.1692 21.0062 52.1589C21.0043 52.1556 21.0027 52.1524 21.0008 52.1488C20.992 52.1305 20.9818 52.1086 20.9793 52.1028C20.9787 52.1018 20.9783 52.1006 20.9779 52.0997C20.9755 52.094 20.9699 52.0903 20.9639 52.0903C20.6487 52.0903 13.1206 52.0903 12.0176 52.0903C11.9403 52.0903 11.8693 52.1342 11.8344 52.2034C11.8167 52.2401 11.7957 52.2757 11.7722 52.3103C11.7691 52.3149 11.6828 52.4342 11.586 52.5125C11.3149 52.7318 10.9177 52.7822 10.5978 52.63C10.4557 52.5622 10.3324 52.4583 10.2389 52.3296C10.2387 52.3293 10.2386 52.3292 10.2383 52.3289L10.2351 52.3244C10.2351 52.3243 10.2351 52.3243 10.2349 52.3243C10.1221 52.1647 10.0608 51.972 10.062 51.7732C10.0624 51.6981 10.0719 51.623 10.09 51.5502L10.0914 51.5448C10.0914 51.5444 10.0915 51.5441 10.0916 51.5438C10.1576 51.2892 10.3389 51.0721 10.5709 50.9485C10.6374 50.9133 10.6795 50.8445 10.6804 50.769C10.6911 49.924 10.7456 45.2118 10.7555 44.3648C10.7564 44.2907 10.7176 44.2219 10.6541 44.1845C10.6426 44.1781 10.6313 44.1712 10.6205 44.164C10.6192 44.1633 10.6181 44.1623 10.6169 44.1615C10.6146 44.1599 10.6058 44.1539 10.6016 44.1511C10.5998 44.15 10.5982 44.1486 10.5966 44.1474C10.5755 44.1319 10.555 44.1156 10.5355 44.0982C10.535 44.0978 10.5346 44.0974 10.5342 44.097C10.5321 44.0951 10.5228 44.0866 10.5153 44.0794C10.4967 44.0614 10.5121 44.0791 10.4731 44.035C10.4586 44.0184 10.4436 43.999 10.4385 43.9922C10.4375 43.9908 10.4364 43.9895 10.4353 43.9881C10.4195 43.9661 10.4041 43.9437 10.3906 43.9202C10.3904 43.9199 10.3904 43.9198 10.3903 43.9197C10.3903 43.9197 10.3845 43.9094 10.3825 43.9058C10.3818 43.9045 10.3811 43.9032 10.3804 43.902C10.358 43.8605 10.3391 43.817 10.3249 43.7718C10.3246 43.7707 10.3242 43.7695 10.3239 43.7684C10.3235 43.7672 10.3188 43.7513 10.317 43.745C10.3166 43.7433 10.3161 43.7416 10.3157 43.7399C10.3147 43.7362 10.3139 43.7335 10.3135 43.7316C10.3128 43.7297 10.3124 43.7277 10.312 43.7256C10.2997 43.6725 10.2919 43.6188 10.291 43.5658C10.291 43.565 10.291 43.5639 10.291 43.5631C10.291 43.5557 10.2911 43.5085 10.2946 43.474C10.2962 43.4572 10.2985 43.4405 10.3014 43.4239C10.3051 43.4012 10.3127 43.37 10.3127 43.37V43.3699C10.3229 43.3319 10.3192 43.3454 10.3211 43.3392C10.3211 43.3392 10.331 43.3079 10.3325 43.3044C10.3369 43.2914 10.3436 43.2747 10.3459 43.2688C10.3467 43.2671 10.3473 43.2654 10.348 43.2638C10.3582 43.2405 10.3729 43.211 10.3775 43.2019C10.3785 43.2003 10.3793 43.1986 10.3802 43.1969C10.3867 43.1849 10.383 43.1912 10.3902 43.1789C10.3905 43.1785 10.3909 43.1778 10.3912 43.1773C10.3956 43.1701 10.4144 43.1394 10.4309 43.1168C10.4323 43.1146 10.4339 43.1125 10.4354 43.1105C10.4402 43.1043 10.4543 43.0863 10.4605 43.0785C10.4624 43.0762 10.4643 43.0737 10.4663 43.0714C10.4708 43.0664 10.4788 43.0574 10.4823 43.0532C10.4837 43.0518 10.4849 43.0505 10.4861 43.0491C10.4943 43.0401 10.5029 43.0315 10.5114 43.023C10.5275 43.0071 10.5294 43.0058 10.5376 42.9985C10.5517 42.986 10.5713 42.9704 10.5767 42.966C10.5782 42.9648 10.5799 42.9636 10.5815 42.9622C10.6064 42.9436 10.6322 42.9266 10.6593 42.9112C10.723 42.8746 10.7626 42.8063 10.7623 42.7323C10.7608 41.6144 10.7437 33.6091 10.7414 32.5595C10.7414 32.4942 10.7103 32.4328 10.6578 32.394C10.6151 32.3621 10.5761 32.3241 10.5428 32.2802C10.5145 32.2429 10.49 32.2024 10.4711 32.1596C10.4702 32.1574 10.4692 32.1554 10.4684 32.1532C10.4665 32.1487 10.4599 32.1322 10.4567 32.1242C10.4553 32.121 10.4542 32.1179 10.4531 32.1148C10.4518 32.1105 10.4503 32.1065 10.4495 32.1044C10.4488 32.1026 10.4483 32.1008 10.4477 32.0989C10.4424 32.0824 10.4371 32.0618 10.4348 32.0526C10.4341 32.0498 10.4333 32.0468 10.4327 32.0438C10.4303 32.0321 10.4277 32.0189 10.4268 32.0135C10.4264 32.0112 10.426 32.009 10.4256 32.0067C10.4219 31.9823 10.4195 31.9518 10.4193 31.9493C10.416 31.8971 10.4168 31.867 10.4264 31.8098C10.4281 31.7985 10.4311 31.784 10.4327 31.7771C10.4333 31.7745 10.4338 31.7719 10.4345 31.7694C10.4388 31.7528 10.4448 31.7321 10.4467 31.7256C10.4474 31.723 10.4482 31.7206 10.4491 31.7178C10.4583 31.6908 10.4671 31.6703 10.4671 31.6703C10.4672 31.6702 10.4672 31.67 10.4674 31.6698C10.5102 31.5739 10.5777 31.4904 10.6606 31.4275C10.7113 31.3884 10.7409 31.3282 10.741 31.2642C10.7439 30.2598 10.7613 22.7623 10.7631 22.0371C10.7632 22.0044 10.7433 21.9746 10.7129 21.9624C10.7125 21.9623 10.7119 21.962 10.7114 21.9619C10.7069 21.9601 10.7025 21.9582 10.6982 21.9563C10.6982 21.9563 10.6978 21.9563 10.6978 21.956C10.6096 21.9176 10.5275 21.864 10.4582 21.7977C10.457 21.7967 10.4559 21.7955 10.4545 21.7944C10.4521 21.7919 10.4349 21.7747 10.4289 21.7688C10.4272 21.7672 10.4256 21.7652 10.424 21.7636C10.3884 21.7253 10.356 21.6842 10.3284 21.6404C10.3276 21.6392 10.3266 21.638 10.326 21.6367C10.323 21.6316 10.3087 21.608 10.3087 21.608C10.2994 21.5918 10.304 21.6001 10.2961 21.5853C10.2961 21.5853 10.2738 21.544 10.2568 21.5002C10.2566 21.4998 10.2562 21.4992 10.2562 21.4988C10.2562 21.4987 10.2495 21.4809 10.2477 21.4765C10.2475 21.4756 10.247 21.4745 10.2468 21.4735C10.2408 21.4572 10.2345 21.4365 10.2345 21.4363C10.2251 21.4037 10.2299 21.4215 10.2249 21.4018C10.2249 21.4018 10.2124 21.3517 10.2061 21.3047C10.2058 21.3028 10.2056 21.3009 10.2054 21.2989C10.2049 21.2944 10.203 21.278 10.2023 21.2713C10.202 21.2692 10.2019 21.2668 10.2018 21.2648C10.1986 21.2242 10.198 21.1836 10.2004 21.1431C10.2004 21.1425 10.2004 21.1415 10.2005 21.1407C10.2011 21.134 10.2045 21.0914 10.2107 21.0534C10.2114 21.0505 10.2119 21.0478 10.2125 21.0452C10.2148 21.0335 10.2236 20.9929 10.2236 20.9929C10.2236 20.9928 10.2236 20.9928 10.2236 20.9928C10.2349 20.9499 10.2308 20.9651 10.233 20.9582C10.233 20.9582 10.2387 20.9401 10.24 20.9355C10.2404 20.9345 10.2407 20.9335 10.241 20.9325C10.2453 20.9199 10.2509 20.9047 10.2532 20.8986C10.2539 20.8966 10.2545 20.8949 10.2552 20.893C10.2641 20.8715 10.2752 20.846 10.2759 20.8449C10.2846 20.8259 10.2982 20.8004 10.2982 20.8002C10.3071 20.7838 10.3023 20.7923 10.3109 20.7775L10.3219 20.7593C10.3232 20.7573 10.3246 20.755 10.3259 20.7528C10.3378 20.7345 10.3532 20.7125 10.3581 20.7054C10.3595 20.7035 10.3607 20.7016 10.362 20.7C10.4422 20.5929 10.5482 20.5041 10.6695 20.4462C10.6697 20.446 10.6701 20.4459 10.6705 20.4458C10.7284 20.4189 10.7656 20.3605 10.7656 20.2965C10.7661 19.294 10.7705 11.8217 10.771 10.7597C10.771 10.6896 10.7348 10.623 10.675 10.5855C10.6714 10.5832 10.6677 10.5809 10.664 10.5784C10.664 10.5784 10.6639 10.5784 10.6636 10.5784C10.661 10.5761 10.622 10.5498 10.591 10.5235C10.591 10.5235 10.5608 10.4972 10.5348 10.468C10.5347 10.468 10.5344 10.468 10.5343 10.4673C10.5343 10.4673 10.5281 10.4604 10.5252 10.4574C10.5243 10.4563 10.5233 10.4551 10.5224 10.4539C10.5094 10.4387 10.5012 10.4287 10.4895 10.4124C10.4891 10.4118 10.4891 10.4118 10.4891 10.4118C10.4889 10.4118 10.4832 10.4036 10.4807 10.4007C10.4798 10.399 10.4788 10.3977 10.4779 10.3965C10.4672 10.3802 10.4651 10.3767 10.4599 10.3686C10.4497 10.3516 10.4372 10.3282 10.4327 10.3194C10.4315 10.3171 10.4303 10.3141 10.429 10.3118C10.4087 10.2684 10.3918 10.224 10.3808 10.1779C10.3804 10.1761 10.3729 10.1381 10.3702 10.1235C10.3693 10.1193 10.3687 10.1153 10.3683 10.1112C10.3642 10.0808 10.3623 10.0417 10.3623 10.0417C10.3616 9.99833 10.3622 9.99833 10.3628 9.98543C10.3638 9.96792 10.3661 9.94754 10.3662 9.94456C10.3685 9.92527 10.3703 9.9136 10.3738 9.89539C10.3758 9.88372 10.3707 9.90123 10.3829 9.85397C10.3941 9.8112 10.4092 9.76855 10.4288 9.72878C10.429 9.72878 10.4291 9.72824 10.4294 9.72824C10.4315 9.72349 10.4476 9.692 10.4638 9.66565C10.4649 9.66387 10.4659 9.66281 10.467 9.66156C10.4694 9.65803 10.4797 9.64227 10.4828 9.63752C10.4846 9.63521 10.486 9.6329 10.4876 9.63059C10.5122 9.59665 10.5272 9.57967 10.5444 9.5616C10.5462 9.55982 10.5482 9.5586 10.5501 9.55685C10.5567 9.54992 10.574 9.5335 10.5809 9.52644C10.5836 9.5236 10.5863 9.52129 10.5889 9.51882C10.6096 9.50184 10.6369 9.48093 10.637 9.48093C10.6376 9.48024 10.6384 9.47971 10.6391 9.47915C10.6668 9.4592 10.6715 9.45742 10.684 9.44983C10.7847 9.38898 10.9021 9.35696 11.019 9.35571C11.0193 9.35571 11.0194 9.35571 11.0195 9.35571C11.0241 9.35571 11.0241 9.35571 11.0286 9.35571C11.0287 9.35571 11.0288 9.35571 11.029 9.35571C11.1532 9.35693 11.2775 9.39251 11.382 9.46095C11.3829 9.46148 11.3839 9.46217 11.3848 9.46273C11.3899 9.46626 11.4213 9.48786 11.4417 9.50481H11.4419C11.4597 9.5188 11.4833 9.54162 11.4833 9.54162C11.5122 9.56972 11.5388 9.60069 11.5627 9.6341C11.5642 9.63587 11.5656 9.63818 11.5671 9.64049C11.5718 9.64755 11.5859 9.66859 11.5859 9.66859C11.5934 9.68136 11.6037 9.69956 11.6037 9.69956C11.6087 9.70771 11.6095 9.71001 11.6095 9.71001C11.63 9.74926 11.6705 9.77383 11.7147 9.77383C12.5054 9.77383 19.2377 9.77383 19.8306 9.77383C19.855 9.77383 19.8768 9.75916 19.8855 9.73581C19.886 9.73403 19.9164 9.66275 19.9187 9.65922C19.9232 9.64986 19.9293 9.63818 19.9313 9.63465C19.9316 9.63412 19.932 9.63287 19.9324 9.63234C19.9404 9.61714 19.9359 9.62529 19.9443 9.61061C19.9444 9.61061 19.9444 9.61061 19.9447 9.61008C19.9475 9.60599 19.9691 9.56975 19.9894 9.54164C19.9909 9.53987 19.9923 9.53812 19.9938 9.53581C19.9991 9.52941 20.0151 9.50893 20.0222 9.50022C20.0239 9.49778 20.0258 9.49547 20.0278 9.49316C20.0324 9.48786 20.0419 9.47674 20.046 9.47212C20.0472 9.47034 20.0488 9.46912 20.0502 9.46737C20.0604 9.45692 20.0734 9.44346 20.0769 9.43993C20.0779 9.4394 20.0788 9.43816 20.0798 9.43709C20.0992 9.41836 20.1261 9.39554 20.134 9.38901C20.1353 9.38792 20.1367 9.3867 20.138 9.38561C20.1667 9.36213 20.1929 9.34406 20.2281 9.32246C20.2325 9.31946 20.2325 9.31946 20.237 9.31715C20.3583 9.24641 20.4985 9.20891 20.6382 9.20716C20.6383 9.20716 20.6386 9.20716 20.6387 9.20716C20.6421 9.20716 20.6456 9.20716 20.649 9.20716C20.6494 9.20716 20.6498 9.20716 20.6502 9.20716C20.8407 9.2096 21.0294 9.27968 21.1733 9.40544H21.1734C21.1749 9.40721 21.2014 9.43001 21.2234 9.45283C21.2248 9.45461 21.226 9.45567 21.2274 9.45745C21.2322 9.4622 21.2556 9.48786 21.2556 9.48786C21.2702 9.50537 21.2893 9.52941 21.2893 9.52941C21.3097 9.55685 21.3027 9.54815 21.3066 9.55398L21.32 9.57328C21.3267 9.5832 21.3281 9.58551 21.3281 9.58551C21.3281 9.58551 21.3312 9.59082 21.3327 9.59312C21.3336 9.5949 21.3343 9.59612 21.335 9.59721C21.3519 9.62531 21.3691 9.65928 21.3691 9.65928C21.3846 9.69147 21.3938 9.71185 21.4042 9.74117H21.4044C21.4114 9.76046 21.4303 9.77389 21.4513 9.77389C22.0162 9.77389 29.0754 9.77389 29.4434 9.77389L29.4431 9.7741ZM11.1543 52.5608C11.1539 52.5609 11.1534 52.5609 11.153 52.561C11.1519 52.5612 11.1492 52.5617 11.1492 52.5617C11.1507 52.5615 11.1523 52.5612 11.1536 52.5609C11.155 52.5606 11.1563 52.5604 11.1578 52.5601C11.1578 52.5601 11.1554 52.5605 11.1543 52.5608H11.1543ZM21.9688 52.4011L21.968 52.4015L21.9688 52.4011ZM21.9746 52.3988C21.9744 52.3989 21.9738 52.3992 21.9734 52.3993C21.9725 52.3996 21.9708 52.4003 21.9708 52.4003C21.9718 52.3999 21.9729 52.3994 21.974 52.399C21.9752 52.3987 21.9761 52.3982 21.9772 52.3978C21.9772 52.3978 21.9756 52.3985 21.9747 52.3988H21.9746ZM21.9796 52.3967L21.9785 52.3973L21.9796 52.3967ZM21.2614 52.2623C21.2614 52.2623 21.2617 52.2624 21.2618 52.2624L21.2614 52.2622C21.2614 52.2622 21.2614 52.2622 21.2614 52.2623ZM21.2549 52.2558C21.2557 52.2566 21.2565 52.2574 21.2572 52.2582C21.258 52.259 21.2588 52.2597 21.2596 52.2605C21.2596 52.2605 21.2583 52.2593 21.2576 52.2586C21.2573 52.2584 21.2571 52.2581 21.2568 52.2578C21.2561 52.257 21.2549 52.2558 21.2549 52.2558L21.2549 52.2558ZM21.2533 52.2543L21.2537 52.2547L21.253 52.254C21.253 52.254 21.2531 52.2541 21.2533 52.2543L21.2533 52.2543ZM10.2824 52.1212C10.2829 52.1224 10.2834 52.1237 10.284 52.1247C10.2847 52.126 10.2852 52.1273 10.2857 52.1287C10.2857 52.1287 10.2848 52.1264 10.2843 52.1253C10.2841 52.125 10.284 52.1246 10.2837 52.1242C10.2833 52.1232 10.2824 52.1212 10.2824 52.1212L10.2824 52.1212ZM10.2813 52.1193C10.2815 52.1194 10.2817 52.1197 10.2817 52.1198L10.2807 52.1177C10.2807 52.1177 10.2811 52.1187 10.2813 52.1193L10.2813 52.1193ZM22.3812 51.8781L22.381 51.8792L22.3812 51.8781ZM22.382 51.8724C22.3819 51.8729 22.3819 51.8734 22.3817 51.8738C22.3816 51.8747 22.3813 51.8765 22.3813 51.8765C22.3816 51.8754 22.3817 51.8742 22.3819 51.8732C22.382 51.8719 22.3823 51.8708 22.3823 51.8696C22.3823 51.8696 22.3821 51.8715 22.382 51.8724V51.8724ZM16.0975 48.6659C16.0798 48.6506 16.054 48.6488 16.0343 48.6617C15.671 48.8994 12.5039 50.9708 11.9399 51.3398C11.8918 51.3713 11.8707 51.4313 11.8886 51.4861C11.8888 51.4861 11.8888 51.4861 11.8888 51.4861C11.9053 51.5363 11.952 51.5703 12.0046 51.5703C12.9276 51.5704 20.4561 51.5704 20.918 51.5704C20.9311 51.5704 20.9423 51.5617 20.9457 51.5489C20.9459 51.5481 20.9462 51.547 20.9465 51.5462C20.948 51.5408 20.9495 51.5363 20.9501 51.5344L20.9507 51.5324C20.9562 51.5152 20.9503 51.4962 20.9357 51.4855C20.6298 51.2613 17.597 49.0366 17.169 48.7229C17.1404 48.7019 17.1016 48.7012 17.0721 48.7213C17.072 48.7215 17.0718 48.7216 17.0717 48.7216C17.0699 48.7227 17.037 48.7451 17.0047 48.7631C17.0032 48.764 17.0017 48.7648 17.0002 48.7654C16.9924 48.7695 16.9604 48.7861 16.9349 48.7972C16.933 48.7981 16.9308 48.799 16.9288 48.7998C16.9129 48.806 16.8403 48.834 16.7718 48.8473C16.5359 48.893 16.2808 48.8249 16.0974 48.6659H16.0975ZM10.2901 51.422C10.2901 51.4221 10.2899 51.4224 10.2899 51.4225C10.2897 51.4229 10.2891 51.424 10.2891 51.424L10.2901 51.4219V51.422ZM10.2945 51.4136C10.2937 51.4148 10.2932 51.416 10.2925 51.4172C10.292 51.4184 10.2913 51.4195 10.2907 51.4208C10.2907 51.4208 10.2917 51.4187 10.2922 51.4178C10.2923 51.4174 10.2926 51.4169 10.2927 51.4165C10.2933 51.4156 10.2945 51.4135 10.2945 51.4135L10.2945 51.4136ZM10.2959 51.4109C10.2957 51.411 10.2956 51.4114 10.2955 51.4117L10.2959 51.4106V51.4109ZM21.9995 51.1713C21.9999 51.1715 22.0003 51.1717 22.0007 51.1718C22.0016 51.1722 22.0032 51.1731 22.0032 51.1731C22.0022 51.1725 22.0011 51.1721 22 51.1716C21.9989 51.1711 21.9978 51.1706 21.9967 51.1701C21.9967 51.1701 21.9984 51.1709 21.9994 51.1713H21.9995ZM21.9933 51.1685L21.9961 51.1698C21.9951 51.1693 21.9943 51.1689 21.9933 51.1685ZM21.9897 51.1669L21.992 51.1679C21.9912 51.1675 21.9904 51.1673 21.9897 51.1669ZM21.9876 51.166H21.9877H21.9876ZM21.3997 42.1278C21.3619 42.1147 21.3197 42.1278 21.2959 42.1601C20.8949 42.7029 17.7165 47.0045 17.3179 47.544C17.294 47.5762 17.2917 47.6195 17.3116 47.6543V47.6544L17.3235 47.6754C17.3318 47.6915 17.3429 47.7137 17.3429 47.7137C17.3508 47.7304 17.3606 47.7541 17.3606 47.7541C17.3678 47.7718 17.3766 47.7963 17.3766 47.7963C17.3796 47.8055 17.3828 47.815 17.3855 47.8243C17.402 47.8783 17.4 47.8767 17.4039 47.8969C17.4099 47.9256 17.4109 47.9348 17.4131 47.9511C17.4153 47.9666 17.4172 47.987 17.4172 47.987C17.421 48.0358 17.421 48.0854 17.4165 48.1346C17.4097 48.2067 17.4412 48.2772 17.4995 48.3198C18.0847 48.7506 21.0378 50.9166 21.2688 51.0861C21.2773 51.0923 21.289 51.0927 21.2979 51.087C21.2983 51.0867 21.2986 51.0866 21.2991 51.0863C21.3164 51.0755 21.3343 51.0655 21.3524 51.0562C21.4202 51.0209 21.463 50.9504 21.463 50.8734C21.4635 49.8207 21.4635 42.9843 21.4635 42.2174C21.4635 42.1769 21.4378 42.1408 21.3998 42.1276C21.3998 42.1278 21.3998 42.1278 21.3997 42.1278H21.3997ZM11.4616 44.2124C11.4332 44.1897 11.394 44.1859 11.3617 44.2028C11.3617 44.2028 11.341 44.2136 11.3177 44.224L11.3168 44.2244C11.2912 44.2352 11.2745 44.2602 11.2741 44.2882C11.2679 44.8257 11.2108 49.77 11.1998 50.708C11.1989 50.7946 11.2517 50.8726 11.3323 50.9034C11.3611 50.9128 11.3887 50.925 11.4156 50.9384C11.4806 50.9714 11.5582 50.9673 11.6193 50.9273C12.2322 50.5279 15.3535 48.4863 15.7793 48.2077C15.8089 48.1886 15.8255 48.1548 15.8231 48.1195C15.8231 48.119 15.8217 48.0955 15.8213 48.0879C15.8212 48.0857 15.8211 48.0838 15.8211 48.0819C15.8207 48.0606 15.8212 48.0339 15.8215 48.0258C15.8215 48.024 15.8216 48.0224 15.8216 48.0208C15.8227 48.0034 15.8241 47.9844 15.8246 47.9817C15.826 47.9644 15.8293 47.9413 15.8304 47.9344C15.8306 47.9329 15.8308 47.9316 15.8311 47.9299C15.8332 47.9163 15.8365 47.8996 15.8376 47.8943C15.8378 47.8934 15.838 47.8924 15.8383 47.8913C15.8393 47.8862 15.84 47.8825 15.8406 47.8803C15.841 47.8783 15.8414 47.8767 15.8419 47.8748C15.8469 47.8548 15.8538 47.8294 15.8538 47.8294C15.8708 47.7739 15.8653 47.793 15.8726 47.7736C15.8735 47.7712 15.8822 47.75 15.8848 47.7435C15.8853 47.7422 15.8858 47.741 15.8864 47.7398C15.8868 47.7387 15.8865 47.7375 15.8857 47.7369C15.7996 47.6681 11.9425 44.5955 11.4616 44.2124H11.4616ZM16.867 48.6691L16.8661 48.6695L16.867 48.6691ZM16.8726 48.6668C16.8722 48.6671 16.8719 48.6672 16.8715 48.6672C16.8705 48.6677 16.8688 48.6684 16.8688 48.6684C16.87 48.668 16.871 48.6676 16.872 48.6672C16.873 48.6665 16.8742 48.6661 16.8752 48.6657C16.8752 48.6657 16.8735 48.6664 16.8726 48.6668H16.8726ZM16.8776 48.6647L16.8765 48.6651L16.8776 48.6647ZM17.2698 48.1514L17.2697 48.1525L17.2698 48.1514ZM17.2707 48.146C17.2706 48.1464 17.2706 48.1468 17.2706 48.1472C17.2705 48.1481 17.2701 48.1499 17.2701 48.1499C17.2703 48.1488 17.2705 48.1476 17.2706 48.1465C17.2707 48.1454 17.271 48.1441 17.2711 48.143C17.2711 48.143 17.2709 48.1449 17.2707 48.146ZM15.9763 47.9345C15.9762 47.9348 15.9762 47.9349 15.9762 47.9352C15.976 47.9356 15.976 47.9359 15.976 47.9359L15.9763 47.9346V47.9345ZM15.9778 47.9263C15.9778 47.9275 15.9774 47.9287 15.9771 47.9298C15.977 47.931 15.9767 47.9322 15.9766 47.9332C15.9766 47.9332 15.9768 47.9316 15.977 47.9306C15.9771 47.9302 15.9772 47.9298 15.9772 47.9294C15.9775 47.9282 15.9777 47.9263 15.9777 47.9263H15.9778ZM17.0118 35.7409C16.9605 35.6775 16.8767 35.6502 16.7982 35.6718C16.6843 35.7039 16.5637 35.7127 16.4454 35.6975C16.367 35.6876 16.2901 35.724 16.2474 35.7908C15.6572 36.7167 11.792 42.7862 11.6046 43.0804C11.6005 43.0869 11.6008 43.0956 11.6055 43.1017C11.6055 43.1018 11.6055 43.1018 11.6055 43.1018C11.6057 43.1019 11.6057 43.1022 11.6059 43.1023C11.6076 43.1045 11.6183 43.1189 11.6183 43.1189C11.625 43.1285 11.6261 43.13 11.6261 43.13C11.645 43.1576 11.6481 43.1636 11.6573 43.1791C11.6676 43.1968 11.6803 43.2221 11.6803 43.2221C11.6917 43.2457 11.7057 43.2793 11.7057 43.2793C11.7126 43.2972 11.721 43.3219 11.721 43.3219C11.7286 43.3468 11.7357 43.3715 11.7409 43.3969C11.7411 43.3987 11.7416 43.4006 11.742 43.4023C11.7432 43.409 11.7487 43.4412 11.7487 43.4412C11.7525 43.4668 11.7551 43.4927 11.756 43.5185C11.7561 43.5194 11.7561 43.5202 11.7561 43.5212C11.7563 43.5243 11.7567 43.5494 11.7567 43.5494C11.7567 43.5502 11.7567 43.551 11.7567 43.5518C11.7558 43.6071 11.7545 43.6109 11.7519 43.6333C11.7507 43.6446 11.7486 43.6594 11.7479 43.6637C11.7477 43.6648 11.7475 43.6659 11.7472 43.6673C11.7451 43.6803 11.7419 43.6961 11.7411 43.7001C11.7411 43.7013 11.7407 43.7024 11.7404 43.7034C11.7331 43.7388 11.7461 43.7753 11.7745 43.7978C12.237 44.1663 15.8724 47.0625 16.2121 47.3332C16.2273 47.3453 16.248 47.3474 16.2651 47.3389C16.2653 47.3389 16.2653 47.3389 16.2653 47.3389C16.3736 47.2848 16.4942 47.2563 16.6153 47.2554C16.6153 47.2554 16.6153 47.2554 16.6154 47.2554C16.6204 47.2554 16.6204 47.2554 16.6254 47.2554C16.6646 47.2556 16.7037 47.2588 16.7424 47.2647C16.8174 47.2762 16.8926 47.2453 16.9376 47.1841C17.4706 46.4645 20.5167 42.3416 20.8895 41.837C20.9118 41.8068 20.9124 41.7659 20.8907 41.7354C20.8903 41.7348 20.8898 41.7342 20.8895 41.7335C20.7801 41.5659 20.7196 41.3665 20.7227 41.1647C20.7227 41.1601 20.7285 41.03 20.7526 40.9335C20.763 40.8918 20.7819 40.8369 20.7833 40.8328C20.7916 40.81 20.803 40.783 20.8035 40.7818C20.816 40.7529 20.8298 40.7246 20.8448 40.6971C20.8848 40.6237 20.8764 40.5337 20.8242 40.4689C20.2848 39.7991 17.5472 36.405 17.0118 35.7409L17.0118 35.7409ZM10.6159 43.9764C10.616 43.9765 10.616 43.9765 10.6161 43.9766L10.6157 43.9764H10.6159ZM10.61 43.9707C10.6107 43.9714 10.6114 43.972 10.6121 43.9727C10.613 43.9735 10.6137 43.9742 10.6144 43.9749C10.6144 43.9749 10.6133 43.9739 10.6126 43.9731C10.6123 43.973 10.6119 43.9726 10.6117 43.9723C10.6111 43.9718 10.61 43.9707 10.61 43.9707ZM10.6087 43.9693L10.6091 43.9698L10.6086 43.9692C10.6086 43.9692 10.6086 43.9693 10.6087 43.9693V43.9693ZM11.6059 43.6403L11.6057 43.641L11.6059 43.6403ZM11.6068 43.6353C11.6066 43.6357 11.6066 43.6361 11.6065 43.6365C11.6065 43.6373 11.6061 43.6388 11.6061 43.6388C11.6064 43.6378 11.6065 43.6369 11.6066 43.636C11.6068 43.6349 11.6069 43.6338 11.607 43.6327C11.607 43.6327 11.6068 43.6342 11.6068 43.6353ZM10.445 43.4379C10.445 43.4382 10.4447 43.4383 10.4447 43.4386C10.4447 43.439 10.4447 43.4395 10.4447 43.4395L10.445 43.438V43.4379ZM10.4464 43.4306C10.4462 43.4318 10.4459 43.4327 10.4457 43.4339C10.4455 43.4348 10.4453 43.4359 10.4452 43.4369C10.4452 43.4369 10.4455 43.4354 10.4456 43.4346C10.4457 43.4342 10.4457 43.4338 10.4459 43.4332C10.446 43.4323 10.4464 43.4306 10.4464 43.4306L10.4464 43.4306ZM11.4722 32.3373C11.4657 32.3339 11.4577 32.3351 11.4525 32.3404C11.4521 32.3408 11.4515 32.3412 11.4511 32.3416C11.4453 32.3473 11.4042 32.3865 11.3662 32.4125C11.366 32.4126 11.3658 32.4128 11.3655 32.4129C11.3654 32.4129 11.3252 32.4399 11.2895 32.4575C11.2708 32.4667 11.2588 32.486 11.2588 32.5069C11.2599 33.0523 11.2744 39.7165 11.279 41.9212C11.2793 42.0126 11.3395 42.0933 11.4271 42.1189C11.5147 42.1445 11.6085 42.109 11.6577 42.032C12.7408 40.3309 15.7909 35.5413 15.8885 35.388C15.89 35.3858 15.8899 35.3829 15.8881 35.3808C15.888 35.3804 15.8876 35.3801 15.8873 35.3799C15.8788 35.3685 15.8742 35.3632 15.8604 35.3433C15.8604 35.3432 15.8604 35.3432 15.8603 35.3432C15.8603 35.3429 15.8458 35.3216 15.8457 35.3216C15.8457 35.3215 15.8457 35.3215 15.8457 35.3215C15.842 35.3159 15.8413 35.3154 15.832 35.2997C15.8319 35.2997 15.8319 35.2997 15.8319 35.2996C15.8319 35.2996 15.8174 35.2746 15.8128 35.2669C15.8117 35.265 15.8108 35.2634 15.8097 35.2614C15.8053 35.2534 15.7943 35.2327 15.7841 35.2107C15.784 35.2098 15.7834 35.2092 15.7832 35.2085C15.783 35.2083 15.7729 35.1849 15.7728 35.1847C15.7726 35.1844 15.7725 35.1842 15.7724 35.1839C15.7502 35.1317 15.7476 35.1173 15.747 35.115C15.7391 35.0908 15.7364 35.0804 15.7361 35.0794C15.7317 35.0629 15.7298 35.0553 15.7294 35.0536C15.7294 35.0535 15.7294 35.0534 15.7294 35.0532C15.7224 35.023 15.7213 35.0167 15.7213 35.0167C15.7199 35.0095 15.7195 35.0087 15.7168 34.9912C15.7168 34.9912 15.7111 34.9583 15.7084 34.9257C15.7084 34.9255 15.7068 34.9019 15.7061 34.8922C15.7061 34.8896 15.7057 34.8867 15.7057 34.8842C15.7053 34.8721 15.7052 34.8588 15.7051 34.8525C15.7051 34.8504 15.7051 34.8479 15.7051 34.8456C15.7053 34.8277 15.706 34.81 15.706 34.81C15.7078 34.7689 15.7157 34.7131 15.7157 34.7127C15.7202 34.6851 15.7229 34.673 15.7234 34.6707C15.7236 34.6706 15.7236 34.6703 15.7236 34.6703C15.7286 34.6483 15.7317 34.6359 15.7328 34.6315C15.7329 34.6305 15.7333 34.6295 15.7336 34.6286C15.7348 34.6239 15.7401 34.6055 15.7414 34.6005C15.7417 34.5996 15.742 34.5987 15.7422 34.5979V34.5978C15.7428 34.5962 15.742 34.5944 15.7405 34.5933C15.6226 34.5311 11.7088 32.4625 11.4722 32.3373H11.4722ZM30.4315 41.7012L30.4307 41.7015L30.4315 41.7012ZM30.4365 41.6992C30.4361 41.6994 30.4357 41.6996 30.4352 41.6997C30.4343 41.7001 30.4331 41.7005 30.4331 41.7005C30.4339 41.7003 30.4349 41.6998 30.4357 41.6995C30.4366 41.6992 30.4377 41.6988 30.4385 41.6982C30.4385 41.6982 30.437 41.6988 30.4365 41.6992H30.4365ZM29.8361 41.5843C29.8362 41.5844 29.8362 41.5844 29.8363 41.5846L29.8361 41.5843ZM29.8342 41.5825L29.8346 41.5829L29.8325 41.5809C29.8325 41.5809 29.8337 41.582 29.8341 41.5825L29.8342 41.5825ZM29.8307 41.579C29.8309 41.5793 29.8311 41.5794 29.8313 41.5797C29.8317 41.5801 29.8326 41.5809 29.8326 41.5809L29.8305 41.5789C29.8305 41.5789 29.8305 41.579 29.8307 41.579ZM29.8293 41.5777C29.8294 41.5778 29.8296 41.5779 29.8296 41.578L29.829 41.5775C29.829 41.5775 29.8292 41.5775 29.8293 41.5777ZM20.9473 41.543V41.5433V41.543ZM26.6992 37.2743C26.6516 37.2158 26.5756 37.1887 26.5019 37.2043C26.4184 37.2221 26.3313 37.222 26.2475 37.2058C26.1821 37.1936 26.1147 37.214 26.0669 37.2605C25.5915 37.7228 23.2243 40.0264 22.6857 40.5503C22.6246 40.6098 22.6063 40.7012 22.6399 40.7798C22.6476 40.7972 22.6547 40.815 22.6612 40.8329C22.6799 40.8841 22.7284 40.9181 22.7825 40.9181C23.5772 40.9181 29.1033 40.9181 29.5417 40.9181C29.5582 40.9181 29.5732 40.9079 29.5796 40.8924C29.5799 40.8917 29.5803 40.891 29.5805 40.8903C29.5808 40.8899 29.5809 40.8895 29.5811 40.8891C29.5926 40.8633 29.5888 40.8333 29.5709 40.8115C29.2926 40.4686 27.1585 37.8399 26.6992 37.2743ZM20.9635 40.7804C20.9635 40.7805 20.9635 40.7805 20.9635 40.7806V40.7804ZM20.9666 40.7744C20.9666 40.7744 20.9665 40.7745 20.9665 40.7747L20.9666 40.7744ZM30.3259 31.773C30.3114 31.7712 30.2979 31.7797 30.2928 31.7933C30.1669 32.1305 29.843 32.3885 29.4779 32.4257C29.4088 32.4326 29.3396 32.4321 29.271 32.4242C29.1909 32.4147 29.1124 32.4535 29.0713 32.5235C28.7102 33.1325 27.1139 35.8361 26.9186 36.1664C26.9071 36.186 26.9073 36.2104 26.919 36.2301C26.9198 36.2315 26.9208 36.2328 26.9216 36.2344C26.9262 36.2429 26.945 36.2766 26.945 36.2766C26.9636 36.3145 26.9565 36.2998 26.9635 36.3171C26.9867 36.3725 27.0028 36.431 27.0096 36.491L27.0114 36.5072C27.0142 36.5439 27.0154 36.5805 27.0126 36.6173C27.0122 36.623 27.0115 36.6286 27.0107 36.6342C27.0086 36.6454 27.0047 36.6689 26.9989 36.6965C26.9854 36.758 27.0007 36.8223 27.0403 36.8711C27.4321 37.3542 29.476 39.8716 29.9128 40.4097C29.9599 40.4674 30.0344 40.4954 30.1075 40.4825C30.1443 40.4749 30.1817 40.4712 30.2194 40.4708C30.2263 40.4708 30.2263 40.4708 30.2331 40.4708C30.3591 40.4727 30.4851 40.5087 30.5925 40.5754L30.5927 40.5755L30.596 40.5774C30.6244 40.5954 30.6621 40.6244 30.6621 40.6244C30.7002 40.6558 30.7526 40.6628 30.7977 40.6431C31.6177 40.2836 38.7098 37.1745 38.9164 37.084C38.9191 37.0826 38.9208 37.0799 38.9203 37.0768C38.8948 36.9005 38.9391 36.5819 39.075 36.3751C39.1048 36.3299 39.1387 36.287 39.1756 36.2473C39.2335 36.1852 39.2473 36.0938 39.2104 36.0173C38.9754 35.5281 38.1715 33.8623 37.942 33.3868C37.9074 33.3149 37.8343 33.2695 37.7546 33.2704C37.6405 33.2725 37.5256 33.2516 37.4188 33.2063C37.3731 33.1868 37.3293 33.1634 37.2879 33.1361C37.2863 33.1352 37.2848 33.1341 37.2833 33.1331C37.2749 33.1271 37.2399 33.1027 37.2203 33.0868C37.2202 33.0868 37.22 33.0867 37.22 33.0867C37.1918 33.0639 37.1647 33.0392 37.1396 33.0127C37.1395 33.0124 37.1391 33.0121 37.1388 33.0117C37.1388 33.0117 37.1296 33.0018 37.1265 32.9983C37.1252 32.9972 37.1243 32.9961 37.1233 32.995C37.0893 32.9567 37.0579 32.9156 37.0313 32.8716C37.0301 32.8698 37.0291 32.868 37.0279 32.866C37.0244 32.8597 37.0118 32.8373 37.0064 32.828C37.0048 32.8251 37.0031 32.8221 37.0017 32.8191C36.9977 32.8112 36.9902 32.7963 36.9879 32.7915C36.9798 32.7742 36.9708 32.753 36.9694 32.7493C36.9527 32.7081 36.9392 32.6657 36.9292 32.6225C36.9291 32.6219 36.9289 32.6215 36.9288 32.621C36.9278 32.6165 36.9192 32.5768 36.915 32.5443L36.9149 32.544C36.9149 32.5439 36.9149 32.5439 36.9149 32.5439C36.8836 32.5401 30.7652 31.8245 30.3259 31.7731L30.3259 31.773ZM21.2643 32.1598C21.2332 32.1395 21.1932 32.1394 21.162 32.1594C20.71 32.4478 17.5308 34.4778 17.3807 34.5734C17.3776 34.5756 17.3763 34.5795 17.3774 34.5831C17.3852 34.6074 17.3879 34.6178 17.3882 34.6187C17.3906 34.6277 17.3933 34.6384 17.3933 34.6384C17.401 34.6691 17.4086 34.7127 17.4086 34.7127C17.4126 34.7417 17.4164 34.7803 17.4167 34.7826C17.4188 34.8101 17.4188 34.8209 17.4192 34.8372C17.4192 34.8382 17.4192 34.8393 17.4192 34.8402C17.4192 34.8451 17.4192 34.8594 17.4192 34.8595C17.4184 34.9052 17.4185 34.8839 17.4178 34.8985C17.4161 34.93 17.4105 34.9715 17.41 34.9745C17.4094 34.9794 17.4044 35.0117 17.3972 35.0434C17.3968 35.0453 17.3929 35.0608 17.3915 35.0665C17.3911 35.068 17.3907 35.0695 17.3903 35.0711C17.3875 35.0817 17.3838 35.0942 17.3827 35.098C17.3825 35.0989 17.3822 35.1 17.3819 35.1011C17.3758 35.1204 17.3681 35.1424 17.367 35.145C17.3539 35.1815 17.3455 35.1989 17.3438 35.2026C17.3437 35.2028 17.3437 35.2031 17.3435 35.2034C17.3254 35.2418 17.3208 35.2504 17.3105 35.2686C17.3105 35.2686 17.3105 35.2686 17.3105 35.2687C17.3071 35.2747 17.3078 35.282 17.3121 35.2874C17.4824 35.4983 20.6476 39.4229 21.2306 40.1458C21.2828 40.2104 21.3684 40.2373 21.4477 40.2141C21.5324 40.1892 21.6204 40.1756 21.7088 40.1742C21.7091 40.1742 21.7094 40.1742 21.7095 40.1742C21.7159 40.1742 21.7222 40.1739 21.7289 40.1742C21.7289 40.1742 21.7291 40.1742 21.7292 40.1742C21.8507 40.1754 21.9714 40.1996 22.0844 40.244C22.1592 40.2732 22.244 40.2559 22.3016 40.2C22.8213 39.6944 25.1857 37.3935 25.6815 36.9112C25.7328 36.8612 25.7547 36.7879 25.739 36.7176C25.7367 36.7095 25.7351 36.7015 25.7334 36.6931C25.7332 36.6912 25.7327 36.6893 25.7323 36.6872C25.7317 36.6828 25.7288 36.6648 25.7276 36.6564C25.7271 36.6534 25.7267 36.6502 25.7264 36.6472C25.7257 36.6419 25.7252 36.6366 25.7248 36.6313C25.7222 36.606 25.7222 36.599 25.7218 36.5856C25.7214 36.5668 25.7223 36.542 25.7228 36.5323C25.7229 36.5297 25.723 36.5274 25.7232 36.5249C25.7235 36.5191 25.7241 36.5131 25.7248 36.5072C25.7304 36.4448 25.7299 36.4595 25.7372 36.4269C25.7373 36.4269 25.7517 36.3704 25.7624 36.3422C25.787 36.2766 25.7728 36.2026 25.7257 36.1508C25.2363 35.613 22.7469 32.8768 22.2211 32.2989C22.1657 32.238 22.0794 32.2161 22.0019 32.2433C21.7706 32.3247 21.5049 32.3062 21.2898 32.1758C21.2813 32.1707 21.2726 32.1654 21.2643 32.1598L21.2643 32.1598ZM26.3676 37.074H26.3647C26.3647 37.074 26.3673 37.074 26.3676 37.074ZM26.3609 37.0738H26.3612H26.3609ZM40.769 37.0419V37.0422V37.0419ZM39.1513 36.5294C39.1513 36.5297 39.1511 36.5297 39.1511 36.5297L39.1513 36.5294ZM39.1544 36.5233C39.1544 36.5234 39.1544 36.5234 39.1543 36.5237L39.1544 36.5233ZM25.8757 36.4679C25.8757 36.468 25.8757 36.468 25.8757 36.468C25.8757 36.4684 25.875 36.4706 25.875 36.4706L25.8757 36.4679ZM38.7074 24.2928C38.6398 24.2551 38.5567 24.2592 38.4927 24.3031C37.8542 24.7419 34.6585 26.9421 34.2419 27.2288C34.2161 27.2467 34.2033 27.2785 34.2094 27.3094C34.2095 27.3104 34.2098 27.3114 34.2099 27.3123C34.211 27.3188 34.2163 27.3487 34.2163 27.3487C34.2208 27.3794 34.2234 27.4103 34.2237 27.4416C34.2237 27.4433 34.2237 27.445 34.2237 27.4467C34.2235 27.4526 34.223 27.4803 34.223 27.4804C34.222 27.5043 34.2199 27.528 34.2162 27.5517C34.2161 27.5533 34.2157 27.555 34.2154 27.5566C34.2145 27.5624 34.2108 27.582 34.2095 27.5896C34.2091 27.5922 34.2085 27.5949 34.2081 27.5973C34.2007 27.6305 34.1911 27.6632 34.1791 27.6951C34.177 27.7008 34.1781 27.7073 34.182 27.712C34.3263 27.8848 36.8772 30.9426 37.3758 31.5404C37.4246 31.5988 37.5013 31.6255 37.5756 31.6098C37.6289 31.5975 37.6834 31.5916 37.7382 31.5908C37.7384 31.5908 37.7388 31.5908 37.7391 31.5908C37.7426 31.5908 37.7463 31.5908 37.7499 31.5908C37.7502 31.5908 37.7503 31.5908 37.7506 31.5908C37.8913 31.5925 38.0309 31.6289 38.1526 31.6976C38.1597 31.7016 38.1669 31.7058 38.1739 31.7101C38.1741 31.7101 38.1742 31.7102 38.1743 31.7103C38.2213 31.7384 38.2656 31.7713 38.3059 31.8082C38.3064 31.8086 38.3068 31.8089 38.307 31.8093C38.3072 31.8093 38.3218 31.823 38.3218 31.823C38.3354 31.8364 38.3533 31.855 38.3533 31.855C38.3617 31.8638 38.3637 31.8662 38.3637 31.8662C38.399 31.9056 38.4313 31.948 38.4588 31.9935C38.4592 31.994 38.4596 31.9947 38.4599 31.9954C38.46 31.9955 38.4727 32.0173 38.4727 32.0173C38.496 32.0583 38.4883 32.0461 38.4919 32.0531C38.5012 32.0721 38.5133 32.099 38.5133 32.099C38.5283 32.1339 38.5409 32.1699 38.5511 32.2066C38.5518 32.2091 38.5625 32.2527 38.5633 32.2571C38.5787 32.3292 38.5756 32.3288 38.5771 32.3456L38.5798 32.3767C38.5822 32.4148 38.5824 32.4531 38.5794 32.4908L38.5778 32.5121C38.5694 32.5876 38.5677 32.5849 38.5645 32.6008C38.5547 32.6497 38.5516 32.6554 38.5468 32.6716C38.5301 32.7283 38.5279 32.7284 38.5212 32.7452C38.5072 32.7795 38.5007 32.793 38.4905 32.8131C38.4902 32.8138 38.4896 32.8144 38.4894 32.8151C38.4876 32.8185 38.481 32.8311 38.4788 32.8354C38.4783 32.8363 38.4778 32.8373 38.4771 32.8384C38.4723 32.8471 38.4668 32.8567 38.4641 32.861C38.4633 32.8625 38.4625 32.864 38.4615 32.8654C38.4468 32.8893 38.4435 32.8942 38.4356 32.9059C38.4131 32.939 38.3885 32.9702 38.3616 32.9994C38.3614 32.9998 38.3611 33.0001 38.3608 33.0004C38.3607 33.0005 38.3508 33.011 38.348 33.0141C38.3474 33.0148 38.3467 33.0155 38.3461 33.0161C38.3461 33.0161 38.3461 33.0161 38.3459 33.0161C38.3431 33.0191 38.3424 33.0238 38.3442 33.0277C38.4076 33.159 39.4198 35.2564 39.6848 35.8049C39.7204 35.8787 39.7958 35.9243 39.8775 35.9212C39.8872 35.9206 39.897 35.9204 39.9069 35.9202C39.9074 35.9202 39.9085 35.9202 39.9092 35.9202C39.9132 35.9202 39.9171 35.9202 39.9212 35.9202C39.9217 35.9202 39.9223 35.9202 39.9229 35.9202C39.9512 35.9205 39.9788 35.9221 40.0069 35.925C40.0893 35.9329 40.1686 35.8898 40.2073 35.8161C40.6532 34.97 43.1105 30.2982 43.2531 30.0271C43.2572 30.0196 43.2554 30.0108 43.2496 30.0049C43.2491 30.0043 43.2484 30.0037 43.2478 30.0032C43.2397 29.9946 43.238 29.9927 43.238 29.9927C43.2164 29.9679 43.1885 29.9328 43.1862 29.9294C43.1448 29.8739 43.1314 29.8482 43.1133 29.8125C43.1105 29.8074 43.0941 29.7727 43.0883 29.761C43.0872 29.7582 43.086 29.7556 43.0848 29.7529C43.0784 29.7378 43.0721 29.72 43.0698 29.7151C43.0698 29.714 43.0698 29.7129 43.0691 29.712C43.058 29.6824 43.0487 29.652 43.0412 29.6211C43.0412 29.6194 43.0406 29.6177 43.04 29.616C43.0388 29.6093 43.0337 29.5856 43.0319 29.5754C43.0312 29.5723 43.0301 29.569 43.0301 29.5656C43.0254 29.5378 43.0213 29.5095 43.0203 29.4812C43.0203 29.4808 43.0203 29.4802 43.0203 29.4798C43.0196 29.4752 43.0178 29.4446 43.0178 29.4148C43.0178 29.4146 43.0185 29.3834 43.0196 29.3709C43.0196 29.3676 43.0196 29.3644 43.0203 29.3613C43.0214 29.334 43.0244 29.3066 43.0289 29.2795C43.0295 29.2776 43.0295 29.2759 43.0302 29.2738C43.0312 29.2673 43.0365 29.2434 43.0383 29.2332C43.0388 29.2295 43.04 29.2262 43.0406 29.2229C43.0499 29.1883 43.0627 29.1462 43.0638 29.1426C43.0756 29.1084 43.0802 29.0984 43.0878 29.0805C43.0883 29.0796 43.089 29.0784 43.0895 29.0773C43.0948 29.0664 43.1181 29.0162 43.1378 28.9836C43.1506 28.9623 43.1688 28.9361 43.1716 28.9321C43.1832 28.9145 43.1827 28.8907 43.1693 28.8737C42.8986 28.5246 40.262 25.1301 39.7228 24.4367C39.6691 24.3677 39.5783 24.3401 39.4958 24.3678C39.4596 24.3812 39.4223 24.3912 39.3844 24.3989C39.156 24.4461 38.9131 24.4064 38.7074 24.2929V24.2928ZM28.4811 31.8348C28.4485 31.7593 28.3745 31.7107 28.2927 31.7107C27.4664 31.7105 23.3574 31.7105 22.6327 31.7105C22.5705 31.7105 22.5139 31.7466 22.4874 31.8029V31.8033C22.4842 31.8103 22.4854 31.8183 22.4905 31.8241C22.6698 32.0212 25.6531 35.3002 26.1585 35.8554C26.2007 35.9018 26.2613 35.9263 26.3238 35.9221C26.3396 35.9206 26.3557 35.9201 26.3717 35.9201C26.3718 35.9201 26.3721 35.9201 26.3721 35.9201C26.3722 35.9201 26.3724 35.9201 26.3725 35.9201C26.4278 35.9205 26.4792 35.8916 26.5073 35.8436C26.795 35.3567 28.264 32.8688 28.6152 32.2739C28.6577 32.2019 28.6528 32.1113 28.6028 32.0444C28.5536 31.9797 28.5128 31.909 28.4811 31.8348H28.4811ZM17.2683 34.9502L17.2681 34.9512L17.2683 34.9502ZM17.2691 34.9448L17.2685 34.9484L17.2688 34.9472C17.2688 34.9464 17.2691 34.9448 17.2691 34.9448ZM17.2696 34.941L17.2691 34.9448L17.2696 34.941ZM15.8616 34.7143C15.8616 34.7146 15.8613 34.7147 15.8613 34.7152C15.8613 34.7154 15.8612 34.7158 15.8612 34.7158L15.8616 34.7144V34.7143ZM15.8634 34.7052C15.8631 34.7064 15.8628 34.7079 15.8624 34.7092C15.8623 34.7104 15.862 34.7116 15.8617 34.7128C15.8617 34.7128 15.8622 34.7108 15.8624 34.7098C15.8624 34.7094 15.8624 34.709 15.8627 34.7085C15.8628 34.7075 15.8634 34.7052 15.8634 34.7052V34.7052ZM16.8549 34.1957C16.8553 34.196 16.8558 34.1961 16.8562 34.1962C16.8571 34.1968 16.859 34.1976 16.859 34.1976C16.8579 34.1972 16.8567 34.1965 16.8556 34.196C16.8545 34.1955 16.8532 34.195 16.8521 34.1945C16.8521 34.1945 16.854 34.1953 16.8549 34.1957H16.8549ZM16.8486 34.1929L16.8514 34.1941C16.8503 34.1937 16.8494 34.1933 16.8486 34.1929ZM16.8467 34.1922H16.8468C16.8468 34.1922 16.8468 34.1922 16.8467 34.1922ZM16.9719 34.0929C17.0373 34.1284 17.1166 34.1255 17.1791 34.0853C17.6126 33.8091 19.229 32.7773 20.1447 32.1927C20.223 32.1426 20.2583 32.046 20.2306 31.9569C20.2027 31.8678 20.1192 31.8085 20.0261 31.8123C18.3953 31.8772 14.5818 32.0292 12.9474 32.0942C12.8545 32.0979 12.7757 32.1639 12.7553 32.255C12.7348 32.346 12.7776 32.4396 12.86 32.4832C13.9023 33.0341 15.8013 34.0379 16.0213 34.1542C16.0339 34.161 16.0491 34.1597 16.0608 34.151L16.0621 34.1501C16.0774 34.1392 16.1401 34.0962 16.2049 34.0664C16.3145 34.016 16.4353 33.9896 16.556 33.9882C16.5561 33.9882 16.5564 33.9882 16.5565 33.9882C16.5621 33.9882 16.5621 33.9882 16.5676 33.9882C16.7082 33.9897 16.8478 34.0251 16.9719 34.0929ZM37.2677 32.9367L37.2679 32.9371L37.2675 32.9367H37.2677ZM37.2609 32.9302C37.2617 32.931 37.2624 32.9318 37.2632 32.9326C37.2643 32.9335 37.2651 32.9343 37.2659 32.9351C37.2659 32.9351 37.2646 32.9337 37.2639 32.933C37.2636 32.9328 37.2632 32.9325 37.2628 32.9321C37.2621 32.9314 37.2609 32.9302 37.2609 32.9302L37.2609 32.9302ZM37.2591 32.9286L37.2597 32.9291L37.259 32.9284C37.259 32.9284 37.2591 32.9284 37.2591 32.9286L37.2591 32.9286ZM38.4307 32.5299L38.4305 32.5308L38.4307 32.5299ZM38.4316 32.524C38.4316 32.5244 38.4316 32.5249 38.4314 32.5253C38.4314 32.5262 38.431 32.5283 38.431 32.5283C38.4312 32.5269 38.4314 32.5258 38.4317 32.5246C38.4318 32.5234 38.4318 32.522 38.4321 32.5209C38.4321 32.5209 38.4318 32.523 38.4317 32.5241L38.4316 32.524ZM21.9847 32.1002L21.9836 32.1006L21.9847 32.1002ZM21.9905 32.0979C21.9902 32.0979 21.9898 32.098 21.9894 32.0983C21.9885 32.0987 21.9866 32.0995 21.9866 32.0995C21.9877 32.099 21.9889 32.0986 21.99 32.098C21.9911 32.0975 21.9921 32.0971 21.9932 32.0967C21.9932 32.0967 21.9915 32.0975 21.9905 32.0979H21.9905ZM21.9959 32.0956L21.9947 32.096L21.9959 32.0956ZM33.2988 28.0986C33.2723 28.0874 33.2419 28.0933 33.2212 28.1131C32.928 28.3952 30.8304 30.4134 30.3393 30.8859C30.2815 30.9417 30.2624 31.0268 30.2908 31.1022C30.2908 31.1022 30.2908 31.1022 30.2908 31.1023C30.2943 31.1113 30.2975 31.1204 30.3008 31.1296C30.3268 31.204 30.3927 31.257 30.4707 31.2662C31.3813 31.3728 36.54 31.9763 36.9789 32.0277C36.9966 32.0297 37.0136 32.0211 37.0227 32.0058L37.0238 32.0044C37.0238 32.0043 37.0238 32.0042 37.0238 32.004C37.0399 31.978 37.0376 31.9446 37.018 31.9211C36.71 31.552 34.39 28.7711 33.9034 28.1878C33.8534 28.1278 33.7739 28.1013 33.698 28.1196C33.5682 28.152 33.4297 28.1468 33.301 28.0994C33.3003 28.0991 33.2996 28.0989 33.2988 28.0986V28.0986ZM10.571 31.8175C10.5708 31.8183 10.5707 31.8193 10.5706 31.82L10.571 31.8175ZM28.6264 31.8088C28.6273 31.81 28.6278 31.8115 28.6283 31.8127C28.629 31.8141 28.6297 31.8153 28.6304 31.8166C28.6304 31.8166 28.6292 31.8143 28.6286 31.8132C28.6285 31.8127 28.6283 31.8123 28.6282 31.8121C28.6277 31.8111 28.6264 31.8087 28.6264 31.8087V31.8088ZM28.6256 31.807C28.6258 31.8071 28.6258 31.8073 28.626 31.8074L28.6248 31.8052C28.6248 31.8052 28.6253 31.8064 28.6256 31.807ZM38.0297 31.7969L38.0329 31.7984C38.0329 31.7984 38.0328 31.7984 38.0327 31.7983C38.032 31.798 38.0297 31.7969 38.0297 31.7969ZM38.0263 31.7953L38.0297 31.7969C38.0297 31.7969 38.0285 31.7964 38.0278 31.7961C38.0277 31.796 38.0274 31.7958 38.0271 31.7957C38.0268 31.7957 38.0263 31.7953 38.0263 31.7953H38.0263ZM38.0228 31.7938L38.0256 31.7951C38.0247 31.7947 38.0237 31.7942 38.0228 31.7938ZM38.021 31.7931H38.0212C38.021 31.7931 38.021 31.7931 38.021 31.7931ZM11.6034 21.9707C11.5459 21.9148 11.4598 21.9008 11.3876 21.9356C11.3878 21.9364 11.3878 21.9364 11.3878 21.9364C11.3229 21.9682 11.2816 22.0345 11.2814 22.1068C11.278 23.154 11.2611 30.3155 11.2591 31.2496C11.259 31.3071 11.2889 31.3605 11.3378 31.3904C11.3393 31.3912 11.3409 31.3922 11.3424 31.3931C11.3437 31.3939 11.3449 31.3949 11.3465 31.3957C11.3811 31.4179 11.4136 31.4433 11.4433 31.472C11.4437 31.4721 11.4438 31.4725 11.4442 31.4729C11.4477 31.4763 11.4679 31.4963 11.4856 31.5172C11.4883 31.5203 11.4907 31.5233 11.493 31.5266C11.5008 31.5368 11.5238 31.5673 11.5238 31.5673C11.5349 31.584 11.5492 31.6079 11.5492 31.6079C11.5561 31.6205 11.557 31.6212 11.5595 31.6262C11.5607 31.6271 11.562 31.6275 11.5632 31.6275C11.7261 31.6223 20.5121 31.2723 20.8903 31.2572C20.8975 31.2569 20.904 31.2517 20.9056 31.2445C20.9173 31.2006 20.9132 31.2163 20.9153 31.2092L20.933 31.1566C20.9343 31.1524 20.936 31.1481 20.9379 31.1438C20.9426 31.1316 20.9529 31.1069 20.9548 31.1025C20.9611 31.0887 20.958 31.0723 20.9471 31.0617C20.5106 30.6369 12.6005 22.9407 11.6033 21.9707L11.6034 21.9707ZM27.1096 19.8869C27.1023 19.8722 27.0871 19.8628 27.0707 19.8628C26.7379 19.8628 23.4263 19.8628 22.7025 19.8628C22.6234 19.8628 22.5511 19.9086 22.5171 19.9803C22.4403 20.1448 22.3139 20.2817 22.1557 20.3721C22.1372 20.3825 22.1182 20.3923 22.0991 20.4014C22.0274 20.4355 21.9817 20.5079 21.9817 20.5875C21.9813 21.7257 21.9813 29.3818 21.9813 30.5079C21.9813 30.5866 22.0257 30.6583 22.0961 30.6933C22.1596 30.7249 22.2193 30.7644 22.273 30.811C22.2838 30.8202 22.2844 30.8212 22.2882 30.8245C22.3067 30.8417 22.3315 30.8671 22.3315 30.8671C22.3431 30.8795 22.3586 30.8968 22.3586 30.8968C22.3696 30.9097 22.384 30.9278 22.384 30.9278C22.3919 30.938 22.3934 30.9402 22.3934 30.9402C22.4025 30.9522 22.4142 30.9688 22.4142 30.9688C22.4279 30.9888 22.4384 31.0058 22.4397 31.0078C22.4578 31.0377 22.4766 31.0745 22.4766 31.0745C22.4925 31.1082 22.5021 31.13 22.5131 31.1599C22.5197 31.1781 22.537 31.1903 22.5565 31.1903C22.9855 31.1903 27.431 31.1903 28.2932 31.1903C28.3755 31.1903 28.4497 31.1412 28.482 31.065C28.4996 31.0216 28.521 30.9798 28.5454 30.9396C28.5461 30.9384 28.5468 30.9373 28.5473 30.9364C28.5518 30.9294 28.5803 30.8846 28.6071 30.85C28.7869 30.6168 29.0738 30.4733 29.3713 30.4701C29.3715 30.4701 29.372 30.4701 29.372 30.4701C29.3783 30.4701 29.3783 30.4701 29.3847 30.4701C29.5133 30.4714 29.6402 30.5 29.7577 30.5512C29.8334 30.5838 29.9211 30.5679 29.9805 30.5106C30.5029 30.0083 32.7944 27.8036 32.8935 27.7081C32.8955 27.7063 32.8962 27.7032 32.8949 27.7008C32.8947 27.6998 32.8943 27.6989 32.894 27.6981C32.8832 27.6686 32.8812 27.6626 32.8768 27.6474L32.8729 27.6333C32.8725 27.6321 32.8721 27.6309 32.8718 27.6297C32.8706 27.6256 32.8701 27.6229 32.8694 27.6209C32.869 27.619 32.8686 27.6172 32.8681 27.6152C32.8572 27.568 32.8505 27.5205 32.8487 27.4724C32.8486 27.4698 32.8484 27.4674 32.8484 27.4648C32.8484 27.4501 32.849 27.3978 32.8544 27.3576C32.8548 27.3548 32.8591 27.3222 32.8672 27.2889C32.8674 27.2879 32.8676 27.2871 32.8678 27.2864C32.8678 27.2863 32.8724 27.2689 32.8737 27.2636C32.8742 27.2613 32.8749 27.2589 32.8756 27.2566C32.8774 27.2506 32.8778 27.2498 32.8778 27.2498C32.8825 27.2335 32.8902 27.2127 32.8932 27.2045C32.8939 27.2024 32.8947 27.2002 32.8957 27.198C32.9056 27.173 32.9166 27.1486 32.9293 27.1248C32.9293 27.1248 32.9294 27.1246 32.9295 27.1246C32.9295 27.1244 32.9366 27.1114 32.9371 27.1105C32.9381 27.1087 32.939 27.1071 32.9399 27.1054C32.962 27.0677 32.9795 27.0442 32.982 27.0411C32.9821 27.0407 32.9821 27.0407 32.9823 27.0405C32.9842 27.038 32.9942 27.0249 32.9982 27.0198C32.9994 27.0181 33.0007 27.0166 33.002 27.015C33.0093 27.006 33.018 26.996 33.022 26.9914C33.0233 26.9896 33.0247 26.9881 33.0262 26.9866C33.0355 26.9766 33.0469 26.9648 33.051 26.9607C33.0524 26.9592 33.0538 26.9579 33.0553 26.9564C33.0658 26.9462 33.0765 26.9364 33.0876 26.9267C33.1415 26.8799 33.1675 26.8081 33.1557 26.7373C33.05 26.0927 32.5618 23.1283 32.451 22.4566C32.4385 22.3798 32.3839 22.3168 32.3099 22.2934C32.2056 22.2611 32.1067 22.2077 32.0191 22.1336C31.9986 22.1165 31.9728 22.0912 31.9661 22.0846C31.9649 22.0834 31.9638 22.0823 31.9627 22.0812C31.9425 22.0605 31.9234 22.0389 31.9055 22.0164C31.9052 22.016 31.9048 22.0154 31.9045 22.0151C31.9037 22.0142 31.8966 22.005 31.8936 22.0011C31.8928 22 31.892 21.9989 31.8911 21.9978C31.8869 21.9924 31.8828 21.9867 31.8813 21.9846C31.8807 21.9838 31.8803 21.9832 31.8798 21.9823C31.8699 21.9685 31.8583 21.9507 31.8541 21.9443C31.8533 21.9431 31.8525 21.9417 31.8517 21.9405C31.8433 21.9265 31.8071 21.86 31.8038 21.8532C31.7689 21.7792 31.7746 21.7835 31.7709 21.7733C31.7624 21.7489 31.7615 21.7447 31.7582 21.7338C31.7531 21.7168 31.7477 21.6944 31.7457 21.6868C31.7451 21.6847 31.7447 21.6825 31.7443 21.6804C31.7352 21.6373 31.7327 21.6184 31.7327 21.6184C31.7258 21.5702 31.7305 21.6063 31.7271 21.5712C31.7271 21.571 31.7252 21.5396 31.7244 21.5274C31.7243 21.5238 31.7242 21.5205 31.724 21.5169C31.7239 21.4987 31.724 21.4774 31.7242 21.4709C31.7242 21.4695 31.7242 21.468 31.7243 21.4668C31.7251 21.4493 31.7147 21.4331 31.6986 21.4265C31.4121 21.3094 28.9462 20.3026 28.4824 20.1132C28.4387 20.0952 28.3886 20.1038 28.353 20.135V20.1352C28.3527 20.1353 28.3526 20.1354 28.3523 20.1357C28.1161 20.3372 27.7581 20.3912 27.4708 20.2481C27.4216 20.2238 27.3751 20.1941 27.3321 20.1601C27.3321 20.1601 27.3321 20.1601 27.3319 20.1601C27.3312 20.1596 27.3106 20.1433 27.2907 20.1254C27.2892 20.1239 27.288 20.1227 27.2865 20.1214C27.2812 20.1164 27.2599 20.0959 27.2597 20.0958C27.2223 20.0577 27.2177 20.051 27.2171 20.0497C27.2171 20.0497 27.2171 20.0497 27.2171 20.0496C27.1986 20.0272 27.197 20.0252 27.1898 20.0158C27.1701 19.9899 27.1518 19.9631 27.1356 19.935C27.1345 19.9332 27.116 19.8989 27.1114 19.8907C27.1107 19.8894 27.1101 19.8882 27.1095 19.8871V19.8869L27.1096 19.8869ZM28.6348 31.0753C28.6347 31.0753 28.6347 31.0756 28.6345 31.0757C28.6343 31.0762 28.6338 31.0773 28.6338 31.0773L28.6348 31.0753V31.0753ZM28.6394 31.0662C28.6386 31.0677 28.6379 31.0689 28.6372 31.0701C28.6367 31.0713 28.636 31.0726 28.6355 31.0738C28.6355 31.0738 28.6365 31.0716 28.6369 31.0707C28.6372 31.0703 28.6373 31.0698 28.6376 31.0696C28.6381 31.0685 28.6394 31.0662 28.6394 31.0662V31.0662ZM28.6409 31.0634C28.6407 31.0636 28.6406 31.0639 28.6405 31.0642C28.6405 31.0643 28.6403 31.0643 28.6403 31.0643L28.6409 31.0634ZM22.0089 30.811C22.0093 30.8112 22.0097 30.8113 22.0101 30.8116C22.0109 30.812 22.0128 30.8128 22.0128 30.8128C22.0117 30.8124 22.0105 30.8118 22.0094 30.8113C22.0083 30.8108 22.0072 30.8102 22.0059 30.8098C22.0059 30.8098 22.0078 30.8106 22.0089 30.811ZM22.0025 30.8083L22.0052 30.8095C22.0044 30.8091 22.0034 30.8086 22.0025 30.8083ZM17.6311 17.2573C17.566 17.2139 17.4809 17.2162 17.418 17.2628C17.1912 17.4314 16.888 17.4885 16.6137 17.4119C16.5431 17.3924 16.4756 17.3639 16.4122 17.3277C16.3398 17.2863 16.2496 17.293 16.184 17.3444C15.475 17.9007 11.7679 20.8103 11.7584 20.8177L11.7585 20.8178C11.7586 20.8183 11.7634 20.8273 11.7695 20.84V20.8402C11.7739 20.8499 11.7754 20.8529 11.7754 20.8529C11.7906 20.8868 11.8069 20.9339 11.8086 20.9386C11.8165 20.9635 11.8253 20.9984 11.8253 20.9984C11.8287 21.0126 11.8329 21.0323 11.8329 21.0323C11.8363 21.0494 11.8399 21.0731 11.8399 21.0731C11.8443 21.102 11.8471 21.1312 11.8481 21.1603C11.8481 21.1613 11.8482 21.1624 11.8482 21.1633C11.8483 21.1665 11.8487 21.1861 11.8487 21.1927C11.8488 21.1959 11.8488 21.199 11.8487 21.2022C11.848 21.2451 11.8469 21.2549 11.8452 21.2712C11.8451 21.2733 11.8448 21.275 11.8447 21.2768C11.8436 21.2855 11.8403 21.3117 11.8391 21.3215C11.8389 21.3243 11.8384 21.3271 11.8379 21.3299C11.8355 21.3441 11.8324 21.3604 11.8314 21.3649C11.8313 21.3657 11.831 21.3665 11.8307 21.3674C11.8199 21.4192 11.8361 21.473 11.8741 21.5099C12.667 22.2814 20.5334 29.9351 21.2705 30.6523C21.3028 30.6836 21.3507 30.6927 21.3922 30.6753C21.3922 30.6751 21.3922 30.6751 21.3922 30.6751C21.4353 30.657 21.4633 30.6148 21.4633 30.5679C21.4634 29.6795 21.4634 21.7435 21.4634 20.5835C21.4634 20.5035 21.4173 20.4306 21.3453 20.3967C21.2174 20.3375 21.1025 20.2473 21.0143 20.1274C20.8886 19.9567 20.832 19.7352 20.8478 19.5254C20.8537 19.451 20.8187 19.3794 20.7569 19.3383C20.2567 19.0042 18.1511 17.6033 17.6311 17.2573ZM44.1292 30.0749L44.128 30.0753L44.1292 30.0749ZM44.135 30.0726C44.135 30.0727 44.1345 30.0728 44.1339 30.073C44.1332 30.0734 44.1309 30.0742 44.1309 30.0742C44.1322 30.0736 44.1332 30.0732 44.1345 30.0728C44.1355 30.0723 44.1368 30.0719 44.138 30.0713C44.138 30.0713 44.1362 30.0722 44.135 30.0726H44.135ZM44.1408 30.0701L44.1397 30.0707L44.1408 30.0701ZM44.5612 29.5198V29.5209V29.5198ZM44.5617 29.5139C44.5617 29.5143 44.5617 29.5147 44.5617 29.5152C44.5617 29.5162 44.5612 29.5182 44.5612 29.5182C44.5612 29.517 44.5617 29.5157 44.5617 29.5146C44.5617 29.5133 44.5624 29.5121 44.5624 29.5108C44.5624 29.5108 44.5617 29.5129 44.5617 29.5139V29.5139ZM43.1739 29.2872C43.1739 29.2875 43.1739 29.2878 43.1733 29.2881C43.1733 29.2883 43.1733 29.2887 43.1733 29.2887L43.1739 29.2873V29.2872ZM43.1756 29.2784C43.1751 29.2796 43.1751 29.2808 43.1745 29.2822C43.1745 29.2834 43.1745 29.2846 43.1739 29.2859C43.1739 29.2859 43.1745 29.2839 43.1745 29.2829C43.1745 29.2825 43.1745 29.282 43.1751 29.2816C43.1751 29.2805 43.1756 29.2784 43.1756 29.2784L43.1756 29.2784ZM44.1537 28.7763L44.1572 28.7778V28.7777C44.156 28.7774 44.1537 28.7763 44.1537 28.7763ZM44.1502 28.7747L44.1537 28.7763C44.1537 28.7763 44.1525 28.7758 44.1525 28.7754C44.1525 28.7754 44.152 28.7753 44.152 28.7751C44.1507 28.775 44.1502 28.7747 44.1502 28.7747ZM44.1467 28.7731L44.1497 28.7743C44.149 28.7739 44.1484 28.7735 44.1467 28.7731ZM42.9347 21.188C42.8648 21.1479 42.778 21.1526 42.7123 21.2001C42.2675 21.5238 40.6736 22.6837 40.2288 23.007C40.1628 23.055 40.1317 23.1375 40.1485 23.2174C40.1881 23.3996 40.1762 23.5931 40.1122 23.769C40.1012 23.7992 40.0887 23.8289 40.0749 23.8578C40.041 23.9284 40.05 24.0121 40.0978 24.0739C40.5105 24.6049 42.3362 26.9547 43.1565 28.0111C43.2118 28.0823 43.3067 28.1092 43.3905 28.0775C43.4743 28.0461 43.5284 27.9633 43.5238 27.8732C43.4388 26.2726 43.2252 22.2352 43.1822 21.4257C43.178 21.3449 43.1268 21.274 43.0523 21.2444C43.0121 21.2286 42.9725 21.2097 42.9348 21.188H42.9347ZM34.0713 27.3528C34.0713 27.3532 34.0715 27.3539 34.0715 27.3543C34.0717 27.3551 34.0718 27.3564 34.0718 27.3564C34.0717 27.3555 34.0716 27.3545 34.0715 27.3536C34.0712 27.3525 34.0711 27.3516 34.0709 27.3505C34.0709 27.3505 34.0712 27.352 34.0713 27.3528ZM33.0017 27.3472C33.0017 27.3476 33.0017 27.3477 33.0017 27.348C33.0016 27.3483 33.0016 27.3487 33.0016 27.3487L33.0017 27.3472V27.3472ZM33.0031 27.3405C33.0028 27.3415 33.0027 27.3425 33.0026 27.3434C33.0023 27.3443 33.0022 27.3453 33.002 27.3462C33.002 27.3462 33.0023 27.3449 33.0023 27.344C33.0024 27.3436 33.0026 27.3432 33.0027 27.3428C33.0028 27.342 33.0031 27.3405 33.0031 27.3405V27.3405ZM33.3205 21.8787C33.3073 21.8748 33.2931 21.8807 33.2867 21.8929C33.2776 21.9095 33.2825 21.9009 33.2738 21.9158L33.2419 21.9667C33.2098 22.0122 33.22 21.9972 33.2155 22.0032C33.2155 22.0032 33.2155 22.0032 33.2154 22.0032C33.1891 22.0372 33.1982 22.0251 33.1935 22.0307C33.1935 22.0307 33.1851 22.0404 33.182 22.0444C33.1809 22.0455 33.1798 22.0467 33.1788 22.0479C33.1638 22.0646 33.1438 22.0851 33.1382 22.0909C33.1368 22.0923 33.1352 22.0938 33.1338 22.0953C33.1271 22.1018 33.1255 22.1033 33.1255 22.1033C33.1147 22.1134 33.0999 22.1265 33.0998 22.1267C33.0996 22.1267 33.0995 22.1267 33.0994 22.1269C33.0613 22.1603 33.0368 22.1764 33.0366 22.1764C33.0366 22.1765 33.0366 22.1765 33.0366 22.1765C32.9997 22.2022 33.0082 22.197 32.9738 22.2172C32.9532 22.2292 32.9423 22.2525 32.9462 22.2758C33.0124 22.6787 33.5584 25.9937 33.6682 26.6603C33.6795 26.7277 33.7247 26.7839 33.7878 26.8089C33.7881 26.8081 33.7881 26.8081 33.7881 26.8081C33.8471 26.831 33.9135 26.8233 33.9659 26.7874C34.524 26.4042 37.4962 24.3577 38.1522 23.9063C38.2238 23.8567 38.2569 23.7668 38.2342 23.6822C38.2197 23.6321 38.21 23.5805 38.205 23.5284C38.2048 23.5255 38.2045 23.5229 38.2042 23.5201C38.2033 23.5018 38.1983 23.4113 38.2029 23.3523C38.203 23.3498 38.2015 23.3475 38.1992 23.3468C38.0482 23.3013 33.6764 21.9858 33.3205 21.8787V21.8787ZM40.0218 23.533V23.5333V23.533ZM38.9868 14.4291C38.905 14.3964 38.8118 14.421 38.7556 14.4888C38.0163 15.3732 33.5248 20.7501 33.2761 21.048C33.2696 21.0557 33.2688 21.0665 33.2738 21.075C33.2738 21.0752 33.2738 21.0752 33.2738 21.0752C33.2738 21.0753 33.2739 21.0754 33.2739 21.0756C33.275 21.0776 33.2835 21.0926 33.2835 21.0926C33.2896 21.1037 33.2908 21.106 33.2908 21.106C33.2913 21.1071 33.2978 21.1197 33.3043 21.1332C33.31 21.1449 33.3124 21.1504 33.3132 21.1521C33.3337 21.1978 33.3414 21.2231 33.3414 21.2231C33.3531 21.2588 33.3577 21.2763 33.3577 21.2763C33.3705 21.324 33.4069 21.3617 33.4542 21.3759C34.028 21.5487 37.5275 22.6017 38.2498 22.8191C38.3251 22.8418 38.4069 22.8193 38.46 22.761C38.6402 22.5643 38.9012 22.4428 39.1725 22.4384C39.1728 22.4384 39.1731 22.4384 39.1734 22.4384C39.1797 22.4384 39.1861 22.4384 39.1924 22.4384C39.1927 22.4384 39.193 22.4384 39.1934 22.4384C39.3741 22.4404 39.5523 22.4942 39.7055 22.5887C39.7757 22.6322 39.8655 22.6288 39.9327 22.5799C40.4448 22.2078 42.4439 20.7534 42.533 20.6888C42.5341 20.6876 42.5346 20.6852 42.5341 20.6831C42.5306 20.6715 42.53 20.6674 42.53 20.6674C42.5295 20.6659 42.5196 20.629 42.5196 20.6288V20.6287C42.505 20.5677 42.505 20.5594 42.505 20.5582V20.5581C42.5015 20.5338 42.4987 20.5095 42.4962 20.485C42.4904 20.4102 42.4934 20.4261 42.4939 20.4048C42.4945 20.3574 42.4945 20.3794 42.4951 20.3642C42.4951 20.364 42.4974 20.3373 42.498 20.3272C42.4987 20.325 42.4987 20.3227 42.4987 20.3204C42.5015 20.2953 42.5033 20.2854 42.5068 20.2627C42.5068 20.2623 42.5131 20.2301 42.5131 20.229C42.5167 20.2144 42.5154 20.2188 42.5172 20.2129L42.523 20.1894C42.523 20.1878 42.5237 20.1863 42.5242 20.1848C42.526 20.1789 42.5306 20.1624 42.5313 20.1568C42.5318 20.1552 42.533 20.1535 42.533 20.1517C42.5417 20.1236 42.551 20.1 42.5516 20.0969C42.5563 20.0858 42.5581 20.0817 42.5581 20.0817C42.5586 20.0804 42.5679 20.0581 42.572 20.0495C42.5725 20.0471 42.5737 20.0445 42.575 20.0419C42.5917 20.0054 42.5965 19.9968 42.6063 19.9796C42.6068 19.9786 42.6075 19.9776 42.6081 19.9766C42.6122 19.9698 42.6285 19.9414 42.6285 19.9413C42.6296 19.9408 42.6296 19.9402 42.6303 19.9397C42.6477 19.9106 42.65 19.9084 42.6558 19.9002L42.668 19.8837L42.6692 19.8819C42.7013 19.8389 42.7041 19.7805 42.6763 19.7342C42.3124 19.1289 39.9898 15.266 39.5749 14.576C39.5386 14.5157 39.4716 14.4819 39.402 14.4888C39.2616 14.5017 39.1182 14.4806 38.9868 14.4292L38.9868 14.4291ZM32.0824 21.9967L32.0826 21.997L32.0822 21.9966C32.0822 21.9966 32.0822 21.9967 32.0824 21.9967ZM32.0755 21.9902C32.0763 21.991 32.0771 21.9918 32.078 21.9925C32.0789 21.9933 32.0796 21.9941 32.0806 21.9949C32.0806 21.9949 32.0793 21.9937 32.0784 21.993C32.0782 21.9927 32.0777 21.9925 32.0775 21.992C32.0768 21.9914 32.0754 21.9901 32.0754 21.9901L32.0755 21.9902ZM32.0739 21.9885L32.0744 21.9889L32.0737 21.9883L32.0738 21.9885L32.0739 21.9885ZM11.2855 21.8268C11.2851 21.8271 11.2847 21.8272 11.2844 21.8273C11.2834 21.8277 11.2818 21.8284 11.2818 21.8284C11.2828 21.828 11.2839 21.8275 11.285 21.8271C11.286 21.8267 11.287 21.8261 11.2883 21.8256C11.2883 21.8256 11.2865 21.8264 11.2856 21.8268H11.2855ZM11.2907 21.8246L11.2896 21.8252L11.2907 21.8246ZM10.5549 21.6914L10.5553 21.6918L10.5549 21.6914ZM10.5482 21.685C10.5492 21.6857 10.5499 21.6865 10.5507 21.6873C10.5515 21.6883 10.5525 21.6888 10.5532 21.6896C10.5532 21.6896 10.5519 21.6884 10.5512 21.6879C10.5508 21.6875 10.5505 21.6872 10.5503 21.6869C10.5496 21.6862 10.5482 21.685 10.5482 21.685L10.5482 21.685ZM10.5466 21.6832L10.547 21.6839L10.5463 21.6832H10.5466H10.5466ZM11.6983 21.2915L11.6982 21.2924L11.6983 21.2915ZM11.6991 21.2856C11.699 21.286 11.699 21.2865 11.699 21.287C11.6987 21.2879 11.6986 21.2897 11.6986 21.2897C11.6987 21.2886 11.6989 21.2875 11.699 21.2863C11.6991 21.2849 11.6994 21.2837 11.6994 21.2826C11.6994 21.2826 11.6993 21.2845 11.6991 21.2856ZM10.3545 21.0661C10.3544 21.0663 10.3544 21.0666 10.3543 21.0669C10.3543 21.0671 10.3541 21.0676 10.3541 21.0676L10.3545 21.0661V21.0661ZM10.3561 21.0575C10.3559 21.0587 10.3556 21.0601 10.3553 21.0612C10.355 21.0624 10.3549 21.0636 10.3546 21.0647C10.3546 21.0647 10.355 21.0628 10.3552 21.0619C10.3553 21.0615 10.3554 21.061 10.3554 21.0606C10.3557 21.0596 10.3561 21.0575 10.3561 21.0575H10.3561ZM30.1913 15.5761C30.1557 15.5745 30.1227 15.5933 30.1069 15.6258C29.9141 16.0124 28.7569 18.3363 28.4865 18.8794C28.4536 18.9453 28.4582 19.0236 28.4987 19.0852C28.524 19.122 28.5453 19.1609 28.5628 19.2014C28.563 19.2017 28.5632 19.2021 28.5633 19.2024C28.5633 19.2025 28.5726 19.2246 28.5726 19.2246C28.5887 19.2646 28.5929 19.2813 28.5929 19.2813C28.6009 19.307 28.61 19.3436 28.61 19.3436C28.6135 19.3603 28.6179 19.3831 28.6179 19.3831C28.6224 19.41 28.6264 19.4456 28.6269 19.4484C28.6305 19.4878 28.63 19.4924 28.6302 19.5051C28.6308 19.5314 28.6293 19.5671 28.629 19.5753C28.6289 19.5766 28.6289 19.5776 28.6288 19.5787C28.6274 19.5977 28.6382 19.6153 28.6557 19.6225C28.9462 19.7412 31.2979 20.7015 31.819 20.9143C31.8777 20.9382 31.9446 20.9258 31.9909 20.8826C31.9919 20.8817 31.9928 20.8809 31.994 20.8799C31.9994 20.875 32.0199 20.8572 32.0249 20.8526C32.0258 20.8519 32.0265 20.8513 32.0275 20.8506C32.0558 20.8271 32.0666 20.7884 32.0544 20.7536C31.8651 20.211 30.454 16.1651 30.2688 15.6338C30.2571 15.6003 30.2264 15.5773 30.1914 15.5754C30.1914 15.5761 30.1914 15.5761 30.1913 15.5761L30.1913 15.5761ZM31.1826 10.6301C31.1074 10.5992 31.0214 10.6162 30.9631 10.6729C30.8786 10.7553 30.7786 10.8226 30.6698 10.8677C30.5935 10.8992 30.5436 10.9747 30.5436 11.0577C30.5432 11.6711 30.5432 13.9841 30.5432 14.2562C30.5432 14.2724 30.5516 14.2871 30.5651 14.2953C30.5652 14.2953 30.5652 14.2953 30.5652 14.2953C30.567 14.2958 30.5686 14.2976 30.5704 14.2976C30.5806 14.3046 30.6204 14.331 30.6204 14.331C30.647 14.3497 30.6726 14.3708 30.6961 14.3929C30.6963 14.3929 30.6963 14.3929 30.6965 14.3936C30.6984 14.3952 30.7272 14.4234 30.7491 14.4497C30.7493 14.4497 30.7494 14.4502 30.7495 14.4502L30.7598 14.4631C30.7713 14.4783 30.7641 14.4667 30.7867 14.4994C30.7867 14.4994 30.8023 14.5222 30.8154 14.5443C30.8154 14.5443 30.8155 14.5443 30.8155 14.545L30.8235 14.559C30.837 14.5841 30.845 14.5999 30.8546 14.6234C30.8554 14.6252 30.856 14.6269 30.8567 14.6285C30.8597 14.6361 30.8707 14.6655 30.8707 14.6655C30.8773 14.6841 30.8846 14.7104 30.8846 14.7104C30.9164 14.8298 30.9164 14.9589 30.8839 15.0741C30.8839 15.0748 30.8836 15.0748 30.8835 15.0748C30.8835 15.0753 30.8693 15.1238 30.8564 15.1537C30.8563 15.1542 30.8562 15.1542 30.8562 15.1549C30.856 15.1549 30.8374 15.1981 30.822 15.2256C30.8218 15.2256 30.8217 15.2262 30.8217 15.2262C30.8197 15.2292 30.799 15.2653 30.7779 15.2946C30.7768 15.2957 30.7757 15.2974 30.7745 15.2992C30.7717 15.3027 30.7599 15.318 30.7564 15.3226C30.7557 15.3238 30.7548 15.325 30.754 15.3256C30.7349 15.3491 30.7292 15.3807 30.7392 15.4096C30.9063 15.8889 32.2671 19.7911 32.5276 20.5376C32.5526 20.6091 32.6146 20.6611 32.6893 20.6732C32.7106 20.6753 32.7316 20.6796 32.7524 20.6845C32.828 20.7035 32.9078 20.6774 32.9579 20.6174C33.6191 19.8281 37.7996 14.8232 38.427 14.0719C38.4727 14.017 38.4871 13.9427 38.4648 13.8748C38.4586 13.8567 38.453 13.8392 38.4483 13.8205C38.4476 13.8175 38.4468 13.8146 38.4461 13.8116C38.4415 13.7906 38.4222 13.6965 38.4196 13.6263C38.4196 13.6257 38.4196 13.6257 38.4196 13.6257C38.418 13.5849 38.3926 13.5492 38.3546 13.5334C37.6895 13.2644 32.1163 11.0079 31.1826 10.6301H31.1826ZM44.1322 20.5155C44.1322 20.5159 44.1322 20.5165 44.1322 20.5169C44.1322 20.5181 44.1315 20.5203 44.1315 20.5203C44.1315 20.5189 44.1322 20.5176 44.1322 20.5162C44.1322 20.515 44.1327 20.5136 44.1327 20.5123C44.1327 20.5123 44.1322 20.5145 44.1322 20.5155ZM44.1333 20.5086L44.1328 20.5109L44.1333 20.5086ZM11.2897 10.6291C11.2889 10.6296 11.2885 10.6301 11.2885 10.6314C11.2885 10.7548 11.2835 19.5177 11.2831 20.3455C11.2831 20.3819 11.3048 20.4148 11.3384 20.4286L11.3403 20.4295C11.3403 20.4295 11.3405 20.4295 11.3407 20.4296C11.3689 20.442 11.4018 20.4379 11.4261 20.4186C11.8361 20.0969 15.2222 17.4391 15.8797 16.9231C15.9426 16.8737 15.9713 16.7923 15.9534 16.7142C15.9447 16.68 15.9388 16.645 15.935 16.6094C15.9234 16.5005 15.9308 16.3894 15.9566 16.2835C15.9572 16.281 15.9577 16.2789 15.9585 16.2766C15.9623 16.2623 15.981 16.1963 16.0011 16.1478C16.004 16.1408 16.0275 16.0871 16.0507 16.046C16.0567 16.035 16.0553 16.0217 16.0471 16.0118C15.764 15.6917 11.3006 10.642 11.2898 10.6291H11.2897ZM22.0088 20.284L22.0121 20.2827L22.0088 20.284ZM22.015 20.2813L22.0136 20.282L22.015 20.2813ZM28.0753 20.1393L28.0743 20.1397L28.0753 20.1393ZM28.0809 20.1368C28.0805 20.137 28.0801 20.1372 28.0797 20.1374C28.0787 20.1378 28.077 20.1384 28.077 20.1384C28.0781 20.138 28.0791 20.1376 28.0802 20.1372C28.0813 20.1367 28.0824 20.1363 28.0833 20.1357C28.0833 20.1357 28.0817 20.1364 28.0809 20.1368H28.0809ZM28.0857 20.1348L28.0847 20.1352L28.0857 20.1348ZM42.7216 20.0691C42.7216 20.0692 42.7216 20.0694 42.7216 20.0696C42.7216 20.07 42.721 20.0708 42.721 20.0708L42.7216 20.069V20.0691ZM42.7262 20.0612C42.725 20.0623 42.7245 20.0633 42.7245 20.0644C42.7239 20.0655 42.7234 20.0669 42.7227 20.0678C42.7227 20.0678 42.7234 20.0661 42.7239 20.065C42.7244 20.0647 42.7244 20.0643 42.7244 20.0639C42.7244 20.0629 42.7262 20.0612 42.7262 20.0612L42.7262 20.0612ZM42.7275 20.0585C42.7275 20.0587 42.7275 20.059 42.7275 20.0593V20.0583C42.7275 20.0583 42.7275 20.0583 42.7275 20.0585ZM27.3742 20.0059L27.3744 20.0062L27.374 20.0058C27.374 20.0058 27.374 20.0059 27.3742 20.0059ZM27.3677 19.9997C27.3684 20.0005 27.3691 20.0011 27.37 20.002C27.3708 20.0028 27.3714 20.0036 27.3723 20.0043C27.3723 20.0043 27.3711 20.0031 27.3704 20.0024C27.37 20.002 27.3697 20.002 27.3694 20.0015C27.3687 20.0009 27.3676 19.9996 27.3676 19.9996L27.3677 19.9997ZM27.3659 19.998L27.3664 19.9986L27.3657 19.9979C27.3657 19.9979 27.3657 19.998 27.3659 19.998L27.3659 19.998ZM21.0575 19.9205C21.0576 19.9208 21.0577 19.921 21.0579 19.9212C21.0581 19.9219 21.0588 19.9232 21.0588 19.9232L21.0572 19.9198C21.0572 19.9198 21.0573 19.9202 21.0575 19.9205V19.9205ZM21.0564 19.9183C21.0565 19.9183 21.0566 19.9186 21.0566 19.9187L21.0557 19.9165C21.0557 19.9165 21.0562 19.9178 21.0564 19.9183ZM43.9033 19.8675L43.9045 19.8684C43.9045 19.8684 43.904 19.8682 43.904 19.868L43.9033 19.8676V19.8675ZM43.9022 19.8664C43.9016 19.8656 43.9005 19.8647 43.8999 19.8639L43.9022 19.8664ZM27.8537 18.7195C27.9338 18.7219 28.0079 18.6775 28.0437 18.6055C28.2522 18.1872 28.9209 16.8442 29.3147 16.0533C29.355 15.9725 29.3381 15.8742 29.273 15.8119C29.2079 15.7494 29.1098 15.7368 29.0311 15.7807C27.7564 16.4931 24.7199 18.1903 23.3497 18.9561C23.2679 19.0017 23.2271 19.0973 23.2508 19.1883C23.2743 19.2794 23.3559 19.343 23.4496 19.343C24.6824 19.343 26.9317 19.343 27.041 19.343C27.0436 19.343 27.0456 19.341 27.0462 19.3387L27.0463 19.3379C27.0532 19.3101 27.055 19.3046 27.055 19.3046C27.0601 19.2875 27.0675 19.265 27.0681 19.2625C27.0694 19.259 27.0706 19.2554 27.072 19.2517C27.0777 19.2365 27.0786 19.234 27.081 19.2278C27.0814 19.2267 27.0821 19.2255 27.0825 19.2244C27.0852 19.2183 27.0958 19.1938 27.0998 19.1842C27.1014 19.1808 27.1031 19.1774 27.1047 19.174C27.1412 19.1004 27.1665 19.0644 27.2007 19.0216C27.2012 19.0211 27.2017 19.0204 27.2022 19.0197C27.2042 19.0173 27.2114 19.0084 27.215 19.0041C27.2165 19.0023 27.218 19.0006 27.2196 18.9988C27.2303 18.9864 27.2439 18.9719 27.248 18.9673C27.2495 18.9658 27.251 18.9643 27.2525 18.9627C27.2795 18.9352 27.3144 18.9055 27.3248 18.8967C27.327 18.8949 27.3293 18.8931 27.3314 18.8914C27.4742 18.7814 27.6509 18.7184 27.8324 18.719H27.8325C27.8395 18.719 27.8467 18.7193 27.8537 18.7194V18.7195ZM29.7032 10.677C29.641 10.6185 29.5492 10.6045 29.4725 10.642C28.235 11.2494 19.0759 15.7489 17.9109 16.3209C17.8403 16.3555 17.7956 16.4276 17.7958 16.5065C17.797 16.539 17.795 16.5714 17.7915 16.6037C17.7824 16.6805 17.8173 16.7558 17.8815 16.7985C18.3862 17.1359 20.4705 18.5229 21.0011 18.8759C21.0704 18.9221 21.1608 18.9217 21.2297 18.875C21.3704 18.778 21.5394 18.7209 21.7166 18.7191C21.7223 18.7191 21.7223 18.7191 21.7281 18.7191C21.8982 18.7207 22.066 18.7765 22.2078 18.8712C22.2716 18.9138 22.3537 18.917 22.4206 18.8795C23.3151 18.3803 29.0596 15.1694 29.512 14.9168C29.5293 14.9069 29.5401 14.8882 29.5403 14.8689C29.5403 14.8678 29.5405 14.8671 29.5405 14.866C29.5432 14.8087 29.5453 14.8029 29.548 14.787V14.7865C29.548 14.7865 29.5524 14.7614 29.554 14.7526C29.5546 14.7497 29.5551 14.7467 29.5557 14.7444C29.5607 14.7221 29.5684 14.6947 29.5684 14.6947C29.5689 14.6929 29.5695 14.6906 29.5701 14.6894C29.5758 14.6707 29.5769 14.6678 29.5801 14.659C29.5803 14.6585 29.5803 14.6585 29.5803 14.6585C29.5818 14.6544 29.5939 14.621 29.6092 14.59H29.6093C29.6093 14.5895 29.6275 14.5532 29.6453 14.5246C29.6464 14.5233 29.6473 14.5216 29.6483 14.5199C29.6505 14.5169 29.6634 14.4977 29.6657 14.4941C29.6672 14.4924 29.6687 14.4901 29.6705 14.4871C29.6999 14.4462 29.7162 14.4298 29.7379 14.4076C29.7809 14.3638 29.8297 14.3263 29.8827 14.2953C29.8852 14.2943 29.8877 14.2925 29.8903 14.2913C29.8941 14.2895 29.9011 14.2859 29.9103 14.2813C29.9805 14.2462 30.0251 14.1749 30.0251 14.0965C30.0254 13.5521 30.0254 11.5489 30.0254 11.0103C30.0254 10.9337 29.9828 10.863 29.9149 10.8273C29.8378 10.7881 29.7665 10.7372 29.7032 10.6771V10.677ZM17.0057 17.2888L17.0049 17.289L17.0057 17.2888ZM17.0138 17.2874C17.0134 17.2875 17.013 17.2875 17.0126 17.2876C17.0114 17.2878 17.0088 17.2883 17.0088 17.2883C17.0104 17.288 17.0118 17.2878 17.0133 17.2875C17.0146 17.2872 17.016 17.287 17.0175 17.2867C17.0175 17.2867 17.015 17.2871 17.0138 17.2874H17.0138ZM17.6474 16.6108V16.6111V16.6108ZM16.1619 16.143C16.1618 16.1432 16.1618 16.1434 16.1616 16.1437C16.1614 16.1441 16.1611 16.1449 16.1611 16.1449L16.1619 16.143H16.1619ZM17.5515 15.8749C17.5673 15.8928 17.5932 15.898 17.6147 15.8875C18.2039 15.5981 25.7116 11.9103 28.2035 10.6864C28.2895 10.6443 28.3351 10.5478 28.3135 10.4542C28.2919 10.3606 28.2089 10.2947 28.1132 10.2947C26.2586 10.2947 22.0941 10.2947 21.4816 10.2947C21.4379 10.2947 21.3981 10.3198 21.3795 10.3596C21.3794 10.3596 21.3794 10.3596 21.3793 10.3601C21.3793 10.3601 21.3732 10.373 21.3702 10.3794C21.3693 10.3812 21.3683 10.3829 21.3672 10.3852C21.3636 10.3923 21.3601 10.3987 21.3601 10.3987C21.3598 10.3994 21.3597 10.4004 21.3594 10.4011C21.3474 10.4232 21.3294 10.4524 21.3244 10.46C21.3234 10.4618 21.3223 10.4636 21.3213 10.4654C21.3161 10.473 21.3149 10.4747 21.3149 10.4747C21.2957 10.5028 21.302 10.494 21.2977 10.4993C21.2977 10.4993 21.288 10.5127 21.2846 10.5168C21.2837 10.518 21.2827 10.5198 21.2816 10.5209C21.2758 10.5285 21.2745 10.5303 21.2745 10.5303C21.2661 10.5402 21.2553 10.5531 21.2511 10.5577C21.2501 10.5589 21.2492 10.5601 21.248 10.5612C21.2389 10.5712 21.2274 10.5835 21.2242 10.5876C21.2233 10.5881 21.2224 10.5894 21.2216 10.5899C21.2144 10.5969 21.2127 10.5987 21.2127 10.5987C21.2044 10.6069 21.1961 10.6145 21.1877 10.6226C21.1664 10.6421 21.1442 10.6601 21.121 10.6771C21.1202 10.6776 21.1194 10.6789 21.1184 10.6794C21.1105 10.6847 21.0749 10.7093 21.0462 10.7263C20.9058 10.8069 20.7422 10.842 20.5814 10.8291C20.5034 10.8232 20.4289 10.863 20.3896 10.9309C19.9665 11.6577 17.7585 15.4576 17.5461 15.823C17.5364 15.8396 17.5385 15.8611 17.5515 15.875V15.8749ZM19.8884 10.3139C19.8838 10.3017 19.8726 10.2946 19.86 10.2946C19.4719 10.2946 13.8085 10.2946 12.1434 10.2946C12.0625 10.2946 11.9893 10.3426 11.9561 10.4162C11.923 10.4904 11.9361 10.5771 11.9898 10.6378C12.9323 11.7044 15.779 14.9256 16.3428 15.563C16.3978 15.6253 16.4847 15.6484 16.5632 15.6212C16.6556 15.5893 16.7531 15.5715 16.8513 15.5697C16.8514 15.5697 16.8516 15.5697 16.8517 15.5697C16.8578 15.5697 16.8637 15.5697 16.8698 15.5697C16.8701 15.5697 16.8705 15.5697 16.8708 15.5697C16.8981 15.5704 16.9254 15.5715 16.9526 15.5745C17.0322 15.5818 17.109 15.5426 17.1493 15.4733C17.5753 14.7413 19.777 10.9518 19.9999 10.5682C20.011 10.5495 20.0094 10.5256 19.9959 10.5079C19.9952 10.5074 19.9946 10.5068 19.9941 10.5056C19.9808 10.4881 19.965 10.4635 19.9589 10.4541C19.9573 10.4524 19.9558 10.4495 19.9543 10.4472C19.9496 10.4396 19.9446 10.4308 19.9427 10.4272C19.942 10.4267 19.9415 10.4255 19.9409 10.4249C19.9331 10.411 19.9369 10.4179 19.9298 10.4044C19.9293 10.4039 19.9289 10.4021 19.9284 10.4016C19.9231 10.3917 19.9008 10.3466 19.8883 10.3139L19.8884 10.3139ZM30.7561 14.7941C30.7561 14.7946 30.7563 14.7946 30.7564 14.7953C30.7565 14.7958 30.7568 14.7976 30.7568 14.7976C30.7565 14.7964 30.7564 14.7958 30.7563 14.7946C30.7562 14.7935 30.7559 14.7923 30.7558 14.7918C30.7558 14.7918 30.756 14.7929 30.7561 14.7941ZM29.6935 14.7882C29.6935 14.7888 29.6935 14.7888 29.6933 14.7888C29.6933 14.79 29.6933 14.79 29.6933 14.79L29.6935 14.7882V14.7882ZM29.6948 14.7819C29.6947 14.7829 29.6944 14.7842 29.6943 14.7847C29.694 14.7852 29.6939 14.787 29.6938 14.7877C29.6938 14.7877 29.694 14.7865 29.6941 14.7852C29.6941 14.7847 29.6943 14.7847 29.6943 14.7847C29.6945 14.7835 29.6948 14.7819 29.6948 14.7819V14.7819ZM40.0633 13.6919C40.0633 13.6925 40.0628 13.6925 40.0628 13.693C40.0628 13.6942 40.0628 13.6965 40.0628 13.6965C40.0628 13.6953 40.0628 13.6935 40.0628 13.6925C40.0633 13.6912 40.0633 13.6895 40.0633 13.6884C40.0633 13.6884 40.0633 13.6907 40.0633 13.6919V13.6919ZM40.0638 13.6849V13.6872V13.6849ZM39.8331 13.041L39.8344 13.0417H39.8338L39.8331 13.041ZM39.8291 13.0375L39.8319 13.0399C39.8319 13.0399 39.8319 13.0399 39.8314 13.0392C39.8314 13.0392 39.8314 13.0392 39.8308 13.0387C39.8303 13.0382 39.8291 13.0375 39.8291 13.0375ZM20.8898 10.642H20.889H20.8898ZM20.8956 10.6395C20.8952 10.6402 20.8948 10.6402 20.8944 10.6402C20.8934 10.6408 20.8918 10.6413 20.8918 10.6413C20.8929 10.6408 20.894 10.6408 20.8951 10.6402C20.896 10.6395 20.8971 10.639 20.8982 10.639C20.8982 10.639 20.8964 10.6395 20.8956 10.6395H20.8956ZM20.9006 10.6378L20.8995 10.6384L20.9006 10.6378ZM10.665 10.3958C10.6652 10.3958 10.6652 10.3958 10.6652 10.3958H10.6648H10.665ZM10.6599 10.3917C10.6606 10.3922 10.6611 10.3928 10.6617 10.3934C10.6624 10.394 10.6629 10.3945 10.6636 10.3951C10.6636 10.3951 10.6626 10.394 10.6622 10.3934C10.6619 10.3934 10.6616 10.3928 10.6613 10.3928C10.6608 10.3922 10.66 10.3917 10.66 10.3917H10.6599ZM10.6587 10.3899C10.6588 10.3904 10.659 10.3904 10.6591 10.3904L10.6584 10.3899C10.6584 10.3899 10.6584 10.3899 10.6587 10.3899H10.6587ZM10.5147 9.92259C10.5147 9.92259 10.5147 9.92259 10.5147 9.92328C10.5146 9.92328 10.5146 9.92381 10.5146 9.92381L10.5147 9.92259ZM10.5159 9.9162C10.5158 9.91673 10.5155 9.91798 10.5154 9.91851C10.5151 9.91973 10.5151 9.92028 10.515 9.9215C10.515 9.9215 10.5151 9.92028 10.5154 9.91973C10.5154 9.9192 10.5154 9.91851 10.5155 9.91795C10.5155 9.91742 10.5159 9.91617 10.5159 9.91617V9.9162ZM29.6495 9.67528C29.6494 9.67581 29.6494 9.67581 29.6492 9.67581C29.6491 9.6765 29.6486 9.67759 29.6486 9.67759L29.6495 9.67528ZM29.6508 9.67297C29.6508 9.67297 29.6506 9.6735 29.6505 9.6735C29.6505 9.67403 29.6501 9.67403 29.6501 9.67403L29.652 9.67064C29.652 9.67064 29.6513 9.67225 29.6509 9.67294L29.6508 9.67297ZM29.6535 9.66713C29.6535 9.66766 29.6533 9.66766 29.6533 9.66822C29.6528 9.66891 29.6519 9.67066 29.6519 9.67066L29.6537 9.66713C29.6537 9.66713 29.6537 9.66713 29.6536 9.66713H29.6535ZM29.655 9.66413C29.6549 9.66535 29.6548 9.66535 29.6546 9.66535L29.6552 9.66413C29.6552 9.66413 29.6552 9.66413 29.655 9.66413ZM30.8548 9.45893L30.8558 9.45946C30.8558 9.45946 30.8555 9.45946 30.8554 9.45946L30.8549 9.45893H30.8548ZM30.8537 9.45771C30.8528 9.45718 30.852 9.45593 30.8509 9.4554L30.8537 9.45771ZM20.9205 9.41276C20.9207 9.41276 20.9212 9.41329 20.9216 9.41329C20.9225 9.41329 20.9243 9.41382 20.9243 9.41382C20.923 9.41329 20.922 9.41329 20.921 9.41273C20.9199 9.41273 20.9188 9.41204 20.9178 9.41096C20.9178 9.41096 20.9195 9.41204 20.9204 9.41273L20.9205 9.41276ZM20.9143 9.40976L20.9171 9.41098C20.9163 9.41098 20.9152 9.41029 20.9143 9.40976ZM20.9108 9.40798L20.9131 9.40921C20.9124 9.40921 20.9116 9.40867 20.9108 9.40798ZM20.9085 9.40745H20.9086C20.9085 9.40745 20.9085 9.40745 20.9085 9.40745Z" fill="black"/>
</g>
<defs>
<clipPath id="clip0_12_388">
<rect width="141.687" height="60" fill="white"/>
</clipPath>
</defs>
</svg>
