<svg width="109" height="60" viewBox="0 0 109 60" fill="none" xmlns="http://www.w3.org/2000/svg">
<g clip-path="url(#clip0_202_71)">
<path d="M57.2975 9.21901H59.7672C60.5304 9.21901 61.1194 9.05512 61.5344 8.7271C61.9492 8.39927 62.1568 7.93385 62.1568 7.33157C62.1568 6.689 61.9527 6.19704 61.5446 5.85575C61.136 5.51423 60.5437 5.34347 59.7672 5.34347H57.2975V9.21906V9.21901ZM54.8677 16.2069V3.07434H59.968C61.3335 3.07434 62.4479 3.47606 63.3115 4.27921C64.1749 5.08241 64.6068 6.12001 64.6068 7.39171C64.6068 8.61008 64.1782 9.5975 63.3215 10.3536C62.4646 11.1101 61.3469 11.4881 59.968 11.4881H57.2975V16.207H54.8677V16.2069Z" fill="#111111"/>
<path d="M70.2089 10.6648H72.8194L75.6105 16.2069H73.0203L70.2089 10.6648ZM68.3015 9.27914H70.8315C71.5945 9.27914 72.1734 9.11857 72.5684 8.79738C72.9631 8.47594 73.1608 8.00744 73.1608 7.39165C73.1608 6.74902 72.9631 6.24693 72.5684 5.8855C72.1734 5.52401 71.5945 5.34335 70.8315 5.34335H68.3015V9.27914ZM65.8716 16.2069V3.07434H71.0523C72.3908 3.07434 73.4851 3.48602 74.3356 4.30931C75.1854 5.1326 75.6106 6.18021 75.6106 7.45191C75.6106 8.68373 75.192 9.67784 74.3555 10.4339C73.5187 11.1903 72.4177 11.5684 71.0523 11.5684H68.3015V16.207H65.8716V16.2069Z" fill="#111111"/>
<path d="M79.8775 6.21689C79.2951 7.04018 79.004 8.18153 79.004 9.64064C79.004 11.0998 79.2918 12.2311 79.8676 13.0343C80.4429 13.8375 81.2461 14.2392 82.2771 14.2392C83.3077 14.2392 84.1077 13.8374 84.6767 13.0343C85.2456 12.2311 85.53 11.0999 85.53 9.64064C85.53 8.18153 85.2421 7.04018 84.6667 6.21689C84.091 5.39354 83.2945 4.98187 82.2771 4.98187C81.2596 4.98187 80.46 5.39354 79.8775 6.21689ZM76.5543 9.64064C76.5543 7.44522 77.0728 5.72493 78.1104 4.48001C79.1476 3.23486 80.5367 2.61243 82.2771 2.61243C83.9105 2.61243 85.269 3.24505 86.3534 4.51011C87.4379 5.77518 87.9801 7.48545 87.9801 9.64064C87.9801 11.8362 87.468 13.5497 86.4436 14.7811C85.4197 16.0129 84.0308 16.6286 82.2771 16.6286C80.5232 16.6286 79.131 16.0129 78.1006 14.7811C77.0694 13.5497 76.5542 11.8362 76.5542 9.64064H76.5543Z" fill="#111111"/>
<path d="M57.0424 27.4768H59.505C60.9865 27.4768 61.727 27.0016 61.727 26.0509C61.727 25.0759 60.9865 24.5882 59.505 24.5882H57.0424V27.4768ZM57.0424 22.4772H59.505C60.8506 22.4772 61.5235 21.9836 61.5235 20.9959C61.5235 20.5024 61.366 20.1413 61.0512 19.9126C60.7364 19.6844 60.2209 19.5701 59.505 19.5701H57.0424V22.4771V22.4772ZM61.301 23.4216V23.6624C62.1036 23.823 62.7484 24.1595 63.2362 24.6714C63.7236 25.1839 63.9676 25.7983 63.9676 26.5139C63.9676 27.4399 63.5848 28.1837 62.8196 28.7452C62.0541 29.3071 61.017 29.5878 59.7088 29.5878H54.8018V17.4779H59.7088C61.017 17.4779 62.0233 17.762 62.7269 18.3296C63.4307 18.8975 63.7824 19.6627 63.7824 20.6257C63.7824 21.3542 63.5662 21.9681 63.1344 22.4682C62.702 22.968 62.0911 23.2861 61.301 23.4218L61.301 23.4216Z" fill="#111111"/>
<path d="M65.2266 17.4778H67.4672V27.4767H74.1147V29.5876H65.2266V17.4778Z" fill="#111111"/>
<path d="M77.1052 20.3757C76.5682 21.1349 76.2997 22.1873 76.2997 23.5328C76.2997 24.8784 76.5648 25.9214 77.096 26.6621C77.6266 27.4028 78.3673 27.773 79.3179 27.773C80.2684 27.773 81.0059 27.4028 81.5306 26.6621C82.0551 25.9214 82.3176 24.8784 82.3176 23.5328C82.3176 22.1873 82.052 21.1349 81.5215 20.3757C80.9907 19.6165 80.256 19.2368 79.318 19.2368C78.3798 19.2368 77.6421 19.6165 77.1052 20.3757H77.1052ZM74.0405 23.5328C74.0405 21.5084 74.5188 19.9219 75.4755 18.7739C76.4322 17.6259 77.7131 17.0518 79.3179 17.0518C80.8239 17.0518 82.0769 17.6352 83.0768 18.8017C84.0768 19.9683 84.5767 21.5453 84.5767 23.5327C84.5767 25.5574 84.1045 27.1374 83.1602 28.273C82.2159 29.4089 80.9348 29.9764 79.3179 29.9764C77.7006 29.9764 76.4169 29.4089 75.4666 28.273C74.5159 27.1374 74.0405 25.5574 74.0405 23.5327V23.5328Z" fill="#111111"/>
<path d="M95.8164 21.3664L93.6313 21.7922C93.4091 20.99 93.0632 20.3727 92.5945 19.9406C92.1252 19.5086 91.5511 19.2924 90.8724 19.2924C89.9094 19.2924 89.1562 19.666 88.6132 20.4128C88.0699 21.1598 87.7985 22.2181 87.7985 23.5884C87.7985 24.9217 88.0699 25.9524 88.6132 26.6808C89.1562 27.4092 89.9094 27.7731 90.8724 27.7731C91.6006 27.7731 92.2147 27.5324 92.7148 27.0508C93.2147 26.5695 93.5324 25.8968 93.6682 25.0326L95.8719 25.477C95.6002 26.9091 95.0138 28.017 94.1127 28.8007C93.2116 29.5848 92.1314 29.9765 90.8724 29.9765C89.2427 29.9765 87.9466 29.4151 86.9838 28.2916C86.0208 27.1684 85.5396 25.6005 85.5396 23.5883C85.5396 21.5393 86.0209 19.9497 86.9838 18.8202C87.9466 17.6906 89.2427 17.1259 90.8724 17.1259C92.0203 17.1259 93.0325 17.4933 93.9091 18.2276C94.7853 18.9623 95.421 20.0085 95.8163 21.3663L95.8164 21.3664Z" fill="#111111"/>
<path d="M97.1309 17.4778H99.3714V22.9588L104.389 17.4778H107.167L102.39 22.9959L107.167 29.5876H104.149L100.612 24.5142L99.3714 25.7363V29.5876H97.1309V17.4778Z" fill="#111111"/>
<path d="M65.6908 35.3621L63.3213 35.8239C63.0804 34.9538 62.7055 34.2847 62.197 33.8159C61.688 33.3474 61.0656 33.1129 60.3294 33.1129C59.2853 33.1129 58.4685 33.5179 57.8798 34.328C57.2905 35.138 56.9961 36.2856 56.9961 37.7716C56.9961 39.2173 57.2905 40.3353 57.8798 41.125C58.4684 41.9151 59.2853 42.3098 60.3294 42.3098C61.1193 42.3098 61.7854 42.049 62.3275 41.5267C62.8694 41.0045 63.2141 40.2752 63.3614 39.338L65.7512 39.8197C65.4566 41.373 64.8207 42.5743 63.8436 43.4242C62.8661 44.2747 61.6949 44.6995 60.3294 44.6995C58.5625 44.6995 57.1568 44.0905 56.1127 42.8722C55.0684 41.6542 54.5464 39.9541 54.5464 37.7717C54.5464 35.5498 55.0684 33.826 56.1127 32.601C57.1567 31.3761 58.5625 30.7637 60.3294 30.7637C61.5744 30.7637 62.672 31.1623 63.6227 31.9586C64.5729 32.7551 65.2624 33.8897 65.6909 35.3622L65.6908 35.3621Z" fill="#111111"/>
<path d="M74.9476 31.1451H77.3977V44.2777H74.9476V31.1451ZM68.301 36.4464H75.9916V38.7356H68.301V36.4464ZM67.1162 31.1451H69.5461V44.2777H67.1162V31.1451Z" fill="#111111"/>
<path d="M81.7348 38.7557H87.9799V41.0247H81.7348V38.7557ZM84.4657 34.3583L81.1726 44.2777H78.542L82.9797 31.1451H86.6545L91.1121 44.2777H88.5017L85.1684 34.3583L84.9477 33.2337H84.6867L84.4657 34.3583Z" fill="#111111"/>
<path d="M92.2563 31.1251H94.6862V44.2779H92.2563V31.1251Z" fill="#111111"/>
<path d="M104.747 31.1451H107.196V44.2778H104.044L98.8029 34.6994V44.2778H96.373V31.1451H99.5055L104.747 40.6835V31.1451Z" fill="#111111"/>
<path d="M62.07 55.4526L67.3038 45.8319H68.7942V56.9093H67.7611V47.0685L62.5441 56.9093H61.1383L55.9554 47.0685V56.9093H54.9053V45.8319H56.4294L61.6295 55.4526L61.8326 56.0794L62.07 55.4526Z" fill="#111111"/>
<path d="M70.606 45.8319H80.1927V46.8312H71.6563V50.8794H80.1251V51.8959H71.6563V55.8929H80.1927V56.9094H70.606V45.8319Z" fill="#111111"/>
<path d="M82.6318 55.8761H86.1378C87.5719 55.8761 88.6786 55.4837 89.4578 54.6989C90.2369 53.9141 90.6264 52.7935 90.6264 51.3367C90.6264 49.8914 90.2396 48.7791 89.466 48C88.6926 47.2208 87.5831 46.8312 86.1378 46.8312H82.6318V55.8761ZM81.5815 56.9092V45.8319H86.3243C87.8935 45.8319 89.1753 46.3515 90.1689 47.3903C91.1626 48.4292 91.6598 49.77 91.6598 51.4129C91.6598 53.0559 91.1709 54.383 90.1945 55.3933C89.2176 56.4041 87.9273 56.9091 86.3243 56.9091H81.5815V56.9092Z" fill="#111111"/>
<path d="M93.1841 45.8318H94.2344V56.9092H93.1841V45.8318Z" fill="#111111"/>
<path d="M98.0791 52.5222H105.566V53.5214H98.0791V52.5222ZM101.5 47.2718L96.6561 56.9093H95.4365L101.009 45.8318H102.584L108.191 56.9093H107.022L102.093 47.2718L101.907 46.6279H101.687L101.5 47.2718Z" fill="#111111"/>
<path d="M34.553 25.8284V25.8281V17.4602C34.553 14.9235 32.4959 12.8664 29.9592 12.8664H16.0949C13.5583 12.8664 11.5012 14.9235 11.5011 17.4602L11.5012 39.4206L11.5012 39.4252C11.5052 39.8623 11.8608 40.2146 12.2979 40.2146C12.5604 40.2146 12.8066 40.0853 12.9551 39.8682L19.5391 30.6715L19.5445 30.6639L19.5496 30.6562C19.6463 30.51 19.8099 30.422 19.9852 30.4219C19.9853 30.4219 19.9854 30.4219 19.9854 30.4219H29.9592H29.9594C32.4955 30.4208 34.5518 28.3644 34.553 25.8284ZM35.5219 0.500059H35.5552C41.1633 0.519029 45.7034 5.07126 45.7034 10.6836V10.6836V10.6836V10.6837V10.6837V10.6837V10.6838V10.6838V10.6838V10.6839V10.6839V10.6839V10.684V10.684V10.684V10.684V10.6841V10.6841V10.6841V10.6842V10.6842V10.6842V10.6843V10.6843V10.6843V10.6843V10.6844V10.6844V10.6844V10.6845V10.6845V10.6845V10.6846V10.6846V10.6846V10.6846V10.6847V10.6847V10.6847V10.6848V10.6848V10.6848V10.6849V10.6849V10.6849V10.685V10.685V10.685V10.685V10.6851V10.6851V10.6851V10.6852V10.6852V10.6852V10.6853V10.6853V10.6853V10.6854V10.6854V10.6854V10.6854V10.6855V10.6855V10.6855V10.6856V10.6856V10.6856V10.6857V10.6857V10.6857V10.6858V10.6858V10.6858V10.6859V10.6859V10.6859V10.686V10.686V10.686V10.6861V10.6861V10.6861V10.6862V10.6862V10.6862V10.6863V10.6863V10.6863V10.6864V10.6864V10.6864V10.6865V10.6865V10.6865V10.6866V10.6866V10.6866V10.6867V10.6867V10.6867V10.6868V10.6868V10.6868V10.6869V10.6869V10.6869V10.687V10.687V10.687V10.6871V10.6871V10.6871V10.6872V10.6872V10.6872V10.6873V10.6873V10.6873V10.6874V10.6874V10.6875V10.6875V10.6875V10.6876V10.6876V10.6877V32.5169V32.5195C45.7034 38.1427 41.1456 42.7018 35.5219 42.7031C35.5218 42.7031 35.5218 42.7031 35.5218 42.7031H24.5645H24.5498L24.5352 42.7039C23.3788 42.7717 22.7906 43.3136 22.2275 43.8324C22.1555 43.8987 22.0838 43.9647 22.0115 44.0293L21.9923 44.0464L21.975 44.0653L9.13972 58.1317C5.84202 61.1631 0.5 58.8256 0.5 54.3348L0.500059 10.6877C0.500059 5.06218 5.05964 0.501362 10.6856 0.500059C10.6857 0.500059 10.6857 0.500059 10.6858 0.500059H35.5219Z" stroke="black"/>
</g>
<defs>
<clipPath id="clip0_202_71">
<rect width="108.191" height="60" fill="white"/>
</clipPath>
</defs>
</svg>
