<svg width="170" height="106" viewBox="0 0 170 106" fill="none" xmlns="http://www.w3.org/2000/svg">
<path d="M67.9038 62.3388H57.1692V48.9113H67.7926V52.4566H61.3321V53.6424H66.3967V56.9036H61.3321V58.7812H67.9038V62.3388ZM80.0096 52.4319V66.1682H75.9331V61.2271C75.6374 61.6703 75.2312 62.0288 74.7546 62.2671C74.278 62.5054 73.7475 62.6153 73.2155 62.5859C71.9432 62.5859 70.8932 62.0918 70.0655 61.1035C69.2063 60.0592 68.7582 58.7369 68.8055 57.3853C68.8055 55.8906 69.2255 54.643 70.0655 53.6671C70.8932 52.6789 71.9432 52.1848 73.2155 52.1848C74.4261 52.1848 75.3278 52.6418 75.9331 53.5436V52.4319H80.0096ZM75.9949 58.4971V56.2489C75.7108 55.7795 75.2043 55.5448 74.4631 55.5448C73.969 55.5448 73.5737 55.7177 73.2649 56.0759C72.9685 56.4218 72.8202 56.8665 72.8202 57.3853C72.8202 57.9042 72.9685 58.3489 73.2649 58.7071C73.5737 59.053 73.9814 59.2259 74.4631 59.2259C75.192 59.2259 75.6984 58.9788 75.9949 58.4971ZM88.0018 58.5218V52.4319H92.0659V62.3388H88.0018V61.0665C87.7795 61.4371 87.3842 61.7829 86.8283 62.1041C86.2972 62.4253 85.7166 62.5859 85.0989 62.5859C84.0119 62.5859 83.1966 62.24 82.6284 61.5606C82.0181 60.7437 81.7162 59.7374 81.776 58.7194V52.4319H85.8525V57.8424C85.8525 58.2377 85.9513 58.5465 86.1366 58.7441C86.3219 58.9541 86.5689 59.053 86.8654 59.053C87.3224 59.053 87.693 58.88 88.0018 58.5218ZM98.1312 62.3388H94.0547V52.4319H98.1312V62.3388ZM97.7359 51.3201C97.2912 51.7524 96.7476 51.9748 96.1053 51.9748C95.8053 51.9805 95.5074 51.9254 95.2292 51.8129C94.9511 51.7004 94.6987 51.5327 94.4871 51.3201C94.0424 50.8877 93.82 50.3442 93.82 49.6895C93.82 49.0719 94.0424 48.5407 94.4871 48.096C94.9318 47.6513 95.4753 47.429 96.1053 47.429C96.7229 47.429 97.2541 47.6513 97.7112 48.096C98.1559 48.5531 98.3906 49.0842 98.3906 49.7019C98.3906 50.3319 98.1682 50.8754 97.7359 51.3201ZM103.159 62.5859C101.158 62.5859 100.157 61.5853 100.157 59.5718V48.9113H104.209V58.67C104.209 58.843 104.258 58.9788 104.369 59.0777C104.468 59.1641 104.592 59.2012 104.74 59.2012C104.901 59.2012 105.061 59.1765 105.222 59.1147V62.2029C104.678 62.45 103.986 62.5735 103.146 62.5735L103.159 62.5859ZM110.879 62.3388H106.803V52.4319H110.879V62.3388ZM110.472 51.3201C110.039 51.7524 109.483 51.9748 108.853 51.9748C108.551 51.9822 108.251 51.9279 107.971 51.8153C107.69 51.7028 107.436 51.5343 107.223 51.3201C106.79 50.8877 106.568 50.3442 106.568 49.6895C106.568 49.0719 106.79 48.5407 107.223 48.096C107.68 47.6513 108.211 47.429 108.853 47.429C109.471 47.429 110.002 47.6513 110.459 48.096C110.904 48.5531 111.126 49.0842 111.126 49.7019C111.126 50.3319 110.904 50.8754 110.472 51.3201ZM112.893 62.3388V48.9113H116.969V53.5436C117.266 53.0985 117.674 52.7388 118.153 52.5004C118.632 52.262 119.165 52.1532 119.699 52.1848C120.959 52.1848 122.009 52.6789 122.849 53.6671C123.689 54.6554 124.109 55.8906 124.109 57.3853C124.109 58.88 123.689 60.1153 122.849 61.1035C122.009 62.0918 120.959 62.5859 119.699 62.5859C118.489 62.5859 117.575 62.1288 116.982 61.2271V62.3388H112.905H112.893ZM116.92 56.2736V58.5218C117.204 58.9912 117.71 59.2259 118.439 59.2259C118.933 59.2259 119.329 59.053 119.625 58.7071C119.934 58.3489 120.082 57.9042 120.082 57.3853C120.082 56.8665 119.934 56.4218 119.625 56.0759C119.482 55.9017 119.3 55.7631 119.095 55.6709C118.889 55.5787 118.664 55.5356 118.439 55.5448C117.723 55.5448 117.204 55.7918 116.92 56.2736ZM129.483 62.3388H125.431V52.4319H129.47V54.013C129.668 53.6054 130.063 53.1977 130.656 52.8024C131.377 52.3056 132.262 52.1065 133.127 52.2466V56.0389C132.73 55.9438 132.324 55.8941 131.916 55.8906C130.829 55.8906 130.014 56.1748 129.47 56.7553V62.3388H129.483ZM138.698 62.3388H134.621V52.4319H138.698V62.3388ZM138.29 51.3201C137.858 51.7524 137.314 51.9748 136.672 51.9748C136.03 51.9748 135.486 51.7524 135.054 51.3201C134.609 50.8877 134.387 50.3442 134.387 49.6895C134.387 49.0719 134.609 48.5407 135.054 48.096C135.498 47.6513 136.042 47.429 136.672 47.429C137.29 47.429 137.821 47.6513 138.278 48.096C138.723 48.5531 138.957 49.0842 138.957 49.7019C138.957 50.3319 138.735 50.8754 138.29 51.3201ZM146.764 58.5218V52.4319H150.828V62.3388H146.764V61.0665C146.542 61.4371 146.147 61.7829 145.591 62.1041C145.06 62.4253 144.479 62.5859 143.861 62.5859C142.774 62.5859 141.959 62.24 141.391 61.5606C140.78 60.7437 140.479 59.7374 140.538 58.7194V52.4319H144.615V57.8424C144.615 58.2377 144.714 58.5465 144.899 58.7441C145.084 58.9541 145.331 59.053 145.64 59.053C146.085 59.053 146.455 58.88 146.764 58.5218ZM156.819 62.3388H152.768V52.4319H156.819V53.7165C157.066 53.3089 157.462 52.9507 158.005 52.6418C158.536 52.3454 159.117 52.1848 159.698 52.1848C160.958 52.1848 161.847 52.716 162.366 53.7783C162.638 53.3213 163.07 52.9383 163.638 52.6418C164.243 52.3454 164.873 52.1848 165.516 52.1848C166.479 52.1848 167.307 52.5307 167.986 53.1977C168.666 53.8648 168.999 54.853 168.999 56.1624V62.3388H164.923V56.9036C164.923 56.1006 164.626 55.693 164.033 55.693C163.552 55.693 163.181 55.8906 162.922 56.2736V62.3265H158.845V56.9036C158.845 56.1006 158.549 55.693 157.956 55.693C157.499 55.693 157.116 55.903 156.819 56.3106V62.3388Z" fill="white"/>
<path d="M37.6138 44.6123L30.2762 48.8246L37.6138 53.0493L44.9267 48.8246L37.6138 44.6247V44.6123ZM8.31287 44.6123L1 48.8246L8.31287 53.0493L15.6505 48.8246L8.31287 44.6247V44.6123Z" fill="#C9EEFF"/>
<path d="M15.6497 65.6366V73.9995L22.9625 69.7995V61.4243L15.6497 65.6243V65.6366Z" fill="#5178E5"/>
<path d="M30.2761 48.8492V57.2121L22.9632 53.0121V44.6369L30.2761 48.8369V48.8492ZM15.6503 40.4246V48.7875L8.31274 44.5875V36.2L15.6503 40.3999V40.4246ZM30.2761 65.5997V73.9625L22.9632 69.7626V61.3997L30.2761 65.5997ZM15.6503 48.874V57.2492L8.31274 53.0369V44.6616L15.6503 48.874Z" fill="#59A8FE"/>
<path d="M15.6503 57.2489V65.5994L8.31274 61.3995V53.0366L15.6503 57.2366V57.2489Z" fill="#59A8FE"/>
<path d="M8.31287 53.037V61.3999L1 57.1999V48.8247L8.31287 53.037ZM22.9633 61.4246V69.7875L15.6505 65.5875V57.2246L22.9633 61.4246ZM15.6505 65.5998V73.9627L8.31287 69.7627V61.3999L15.6505 65.5998Z" fill="#59A8FE"/>
<path d="M30.2754 40.4246V48.7875L37.613 44.5875V36.2L30.2754 40.3999V40.4246ZM15.6497 48.8492V57.2121L22.9625 53.0121V44.6369L15.6497 48.8369V48.8492Z" fill="#5176E6"/>
<path d="M22.9632 52.9998L15.6503 57.1998L22.9632 61.4244L30.2761 57.2121L22.9632 52.9998ZM15.6503 40.437L8.31274 44.6493L15.6503 48.874L22.9632 44.6493L15.6503 40.4493V40.437ZM22.9632 36.2L15.6503 40.437L22.9632 44.6493L30.2761 40.4493L22.9632 36.2123V36.2ZM30.2761 32L22.9632 36.2L30.2761 40.437L37.6136 36.2123L30.2761 32Z" fill="#C9EEFF"/>
<path d="M15.6503 32L8.31274 36.2L15.6503 40.437L22.9632 36.2123L15.6503 32ZM30.2761 40.3876L22.9632 44.6122L30.2761 48.8122L37.6136 44.6122L30.2761 40.3999V40.3876Z" fill="#C9EEFF"/>
<path d="M8.31287 36.2V44.6122L1 48.8245V57.1874L8.31287 61.3997V69.7749L15.6505 73.9749L22.9633 69.7749L30.2762 73.9749L37.6138 69.7749V61.3997L44.9267 57.1998V48.8245L37.6138 44.6246V36.2L30.2762 32L22.9633 36.2L15.6505 32L8.31287 36.2Z" stroke="#002445" stroke-width="0.43" stroke-miterlimit="10" stroke-linejoin="round"/>
<path d="M1 48.8247L8.31287 53.0864M15.6505 65.6369V73.9627" stroke="white" stroke-width="0.43" stroke-miterlimit="10" stroke-linecap="round" stroke-linejoin="round"/>
<path d="M15.6503 57.2492V65.6368M8.31274 44.6123V61.4121M30.2761 65.5998V57.1998" stroke="#002445" stroke-width="0.43" stroke-miterlimit="10" stroke-linejoin="round"/>
<path d="M30.2761 73.9625V65.5997M44.9265 48.7998L37.6136 53.0492M37.6136 36.2L30.2761 40.4864M8.31274 36.2L15.6503 40.474" stroke="white" stroke-width="0.43" stroke-miterlimit="10" stroke-linecap="round" stroke-linejoin="round"/>
<path d="M37.6136 61.5972V44.822M8.33745 53.0367L15.6503 57.2366M8.31274 61.3995L22.9632 69.8365" stroke="#002445" stroke-width="0.43" stroke-miterlimit="10" stroke-linejoin="round"/>
<path d="M30.2751 48.8493V57.2121L37.6127 53.0122V44.637L30.2875 48.8369L30.2751 48.8493Z" fill="#5176E6"/>
<path d="M30.2751 57.2123V65.5751L37.6127 61.3752V53L30.2875 57.2123H30.2751ZM37.6127 53.037V61.3999L44.9256 57.1999V48.8247L37.6127 53.0247V53.037Z" fill="#5176E6"/>
<path d="M22.9624 61.4V69.7752L30.2876 65.5753V57.2124L22.9624 61.4124V61.4Z" fill="#5176E6"/>
<path d="M30.2751 65.5751V73.9503L37.6127 69.738V61.3628L30.2875 65.5751H30.2751Z" fill="#5176E6"/>
<path d="M37.4778 61.3997L22.8397 69.849M37.6136 53.0492L30.2884 57.2121M30.5231 40.4864L22.9632 44.6246M22.9632 36.2L38.0954 44.8963M30.1525 57.1256L22.9632 52.9257V44.6369L15.6503 40.4246M22.9632 36.2L8.31274 44.5999M22.9632 52.8886L15.6009 57.138" stroke="#002445" stroke-width="0.43" stroke-miterlimit="10" stroke-linejoin="round"/>
<path d="M8.31274 44.6123L15.6503 48.874V57.2245L22.9632 61.4245V69.775M37.6136 44.6123L30.2761 48.874V57.2245L22.9632 61.4245" stroke="white" stroke-width="0.43" stroke-miterlimit="10" stroke-linecap="round" stroke-linejoin="round"/>
<path d="M15.6497 48.8743L22.9625 44.6497L30.2754 48.8743" stroke="white" stroke-width="0.43" stroke-miterlimit="10" stroke-linecap="round" stroke-linejoin="round"/>
</svg>
