<svg width="101" height="30" viewBox="0 0 101 30" fill="none" xmlns="http://www.w3.org/2000/svg">
<g clip-path="url(#clip0_12_457)">
<path d="M36.6694 4.93391H40.5L47.0137 16.6472L53.5272 4.93391H57.2749V24.181H54.1496V9.42957L48.4381 19.6443H45.5063L39.7949 9.42957V24.181H36.6694V4.93391Z" fill="#1C2B33"/>
<path d="M69.6384 13.1068C68.9838 12.4426 68.1264 12.1103 67.0662 12.11C66.0335 12.11 65.1692 12.4492 64.4733 13.1275C63.7774 13.8058 63.3371 14.7178 63.1525 15.8634H70.7587C70.6663 14.6902 70.2929 13.7714 69.6384 13.1068ZM67.3572 24.5247C65.9096 24.5247 64.6373 24.2061 63.5403 23.569C62.4432 22.9318 61.5879 22.0498 60.9743 20.9228C60.3612 19.7954 60.0547 18.503 60.0547 17.0457C60.0547 15.5703 60.3543 14.2642 60.9535 13.1275C61.5528 11.9908 62.3849 11.1018 63.4498 10.4604C64.5147 9.81898 65.7386 9.49818 67.1216 9.49805C68.4952 9.49805 69.6776 9.82114 70.6689 10.4673C71.6601 11.1135 72.4228 12.0186 72.957 13.1826C73.4917 14.3467 73.7591 15.7123 73.7591 17.2793V18.1328H63.1525C63.3461 19.306 63.8232 20.2293 64.5839 20.9029C65.3446 21.5765 66.3057 21.9133 67.4672 21.9133C68.3984 21.9133 69.2005 21.7758 69.8735 21.5008C70.5464 21.2259 71.1779 20.8089 71.7677 20.2499L73.4273 22.2709C71.7769 23.7734 69.7531 24.5247 67.3558 24.5247" fill="#1C2B33"/>
<path d="M77.5494 12.3852H74.6729V9.8418H77.5494V5.63509H80.5639V9.8418H84.9336V12.3852H80.5641V18.8329C80.5641 19.905 80.7485 20.6702 81.1173 21.1286C81.4861 21.587 82.1175 21.8162 83.0115 21.816C83.4079 21.816 83.7444 21.8 84.0211 21.7681C84.2979 21.7361 84.6021 21.6925 84.9338 21.6373V24.1533C84.5551 24.2621 84.1692 24.3448 83.779 24.4007C83.3325 24.466 82.8818 24.4982 82.4306 24.4969C79.1761 24.4969 77.5489 22.728 77.549 19.1903L77.5494 12.3852Z" fill="#1C2B33"/>
<path d="M97.6286 14.8601C97.3059 14.0442 96.7967 13.4003 96.101 12.9282C95.4052 12.4562 94.6008 12.2199 93.6878 12.2195C92.3968 12.2195 91.3689 12.6503 90.6038 13.5118C89.8388 14.3733 89.4562 15.5372 89.4559 17.0037C89.4559 18.4797 89.8247 19.6483 90.5623 20.5095C91.2999 21.3707 92.3002 21.8014 93.5633 21.8017C94.4944 21.8017 95.3241 21.5635 96.0525 21.0869C96.7808 20.6104 97.3063 19.9689 97.629 19.1622L97.6286 14.8601ZM100.643 24.181H97.6836V22.1739C97.1732 22.9122 96.4834 23.5104 95.6783 23.913C94.8669 24.3205 93.9449 24.5244 92.9124 24.5249C91.6402 24.5249 90.5131 24.2017 89.5313 23.5554C88.5494 22.9091 87.7774 22.02 87.2152 20.8883C86.6527 19.7565 86.3714 18.4619 86.3716 17.0045C86.3716 15.5382 86.6574 14.2413 87.2291 13.1139C87.8007 11.9865 88.5913 11.1023 89.6007 10.4614C90.6104 9.81995 91.7698 9.49916 93.0788 9.49902C94.0652 9.49902 94.9503 9.68922 95.7339 10.0696C96.507 10.4415 97.1766 10.9961 97.684 11.685V9.84243H100.643L100.643 24.181Z" fill="#1C2B33"/>
<path d="M3.40752 18.2556C3.40752 19.4053 3.65948 20.2881 3.98882 20.8221C4.42062 21.5216 5.06465 21.8179 5.72123 21.8179C6.5681 21.8179 7.34282 21.6074 8.83582 19.5394C10.0319 17.8818 11.4412 15.5551 12.3895 14.0964L13.9954 11.6252C15.111 9.909 16.4022 8.00115 17.8826 6.70796C19.0912 5.65246 20.395 5.06607 21.7071 5.06607C23.91 5.06607 26.0084 6.3446 27.6143 8.74251C29.3718 11.3687 30.2249 14.6765 30.2249 18.0902C30.2249 20.1195 29.8255 21.6106 29.1459 22.7886C28.4893 23.9279 27.2096 25.0661 25.0569 25.0661V21.8179C26.9002 21.8179 27.3602 20.1216 27.3602 18.1802C27.3602 15.4137 26.7162 12.3436 25.2974 10.1498C24.2906 8.59382 22.9858 7.64303 21.5503 7.64303C19.9977 7.64303 18.7483 8.81581 17.3442 10.9069C16.5977 12.0179 15.8313 13.3718 14.9709 14.8996L14.0236 16.5802C12.1208 19.9593 11.6388 20.7289 10.6874 21.9991C9.01983 24.2231 7.59584 25.0661 5.72123 25.0661C3.49743 25.0661 2.09122 24.1017 1.22031 22.6483C0.509357 21.464 0.160156 19.91 0.160156 18.1394L3.40752 18.2556Z" fill="#0081FB"/>
<path d="M2.7207 8.97183C4.20951 6.6734 6.35804 5.06607 8.82231 5.06607C10.2494 5.06607 11.6682 5.48911 13.1497 6.70063C14.7702 8.02523 16.4974 10.2064 18.6522 13.8011L19.4249 15.0912C21.29 18.2032 22.3512 19.8043 22.9723 20.5593C23.771 21.5289 24.3304 21.8179 25.057 21.8179C26.9003 21.8179 27.3603 20.1216 27.3603 18.1802L30.225 18.0902C30.225 20.1195 29.8256 21.6106 29.146 22.7886C28.4894 23.9279 27.2097 25.0661 25.057 25.0661C23.7188 25.0661 22.5332 24.775 21.2221 23.5362C20.2142 22.5854 19.0359 20.8964 18.1295 19.3781L15.4331 14.8671C14.0802 12.6032 12.8392 10.9153 12.1209 10.1509C11.3483 9.3289 10.355 8.33623 8.77004 8.33623C7.48719 8.33623 6.39777 9.2378 5.48608 10.6169L2.7207 8.97183Z" fill="url(#paint0_linear_12_457)"/>
<path d="M8.76995 8.33623C7.4871 8.33623 6.39768 9.2378 5.48599 10.6169C4.19688 12.5655 3.40752 15.4682 3.40752 18.2556C3.40752 19.4053 3.65948 20.2881 3.98882 20.8221L1.22031 22.6483C0.509357 21.464 0.160156 19.91 0.160156 18.1394C0.160156 14.9195 1.04257 11.5635 2.72061 8.97183C4.20942 6.6734 6.35795 5.06607 8.82222 5.06607L8.76995 8.33623Z" fill="url(#paint1_linear_12_457)"/>
</g>
<defs>
<linearGradient id="paint0_linear_12_457" x1="6.53787" y1="17.3174" x2="27.2392" y2="18.3613" gradientUnits="userSpaceOnUse">
<stop stop-color="#0064E1"/>
<stop offset="0.4" stop-color="#0064E1"/>
<stop offset="0.83" stop-color="#0073EE"/>
<stop offset="1" stop-color="#0082FB"/>
</linearGradient>
<linearGradient id="paint1_linear_12_457" x1="4.86496" y1="19.621" x2="4.86496" y2="11.9771" gradientUnits="userSpaceOnUse">
<stop stop-color="#0082FB"/>
<stop offset="1" stop-color="#0064E0"/>
</linearGradient>
<clipPath id="clip0_12_457">
<rect width="100.645" height="30" fill="white"/>
</clipPath>
</defs>
</svg>
