<svg width="93" height="30" viewBox="0 0 93 30" fill="none" xmlns="http://www.w3.org/2000/svg">
<g clip-path="url(#clip0_12_455)">
<path d="M71.6228 25.2292C72.907 25.3253 74.239 25.469 75.4756 25.5177V2.51903H71.6228V25.2292ZM8.83721 16.653L3.79584 2.47138H0.0854492V27.5292C1.36964 27.3854 2.70113 27.1456 3.93801 27.0024V13.347L8.45671 26.4757C9.88384 26.3319 11.2632 26.1871 12.69 26.0447V2.47138H8.83721V16.653ZM16.5431 25.6604C20.1106 25.3735 23.7726 25.0376 27.3879 24.8465V20.9655C25.0571 21.1092 22.7743 21.2535 20.4435 21.3969V15.5514C21.9177 15.5514 23.9631 15.4558 25.7229 15.4558V11.5748C24.2961 11.5748 22.0604 11.5748 20.4435 11.6704V6.40001H27.3879V2.51903H16.5431V25.6604ZM29.8609 6.40001H33.9515V24.4629C35.2357 24.3673 36.5677 24.3673 37.8043 24.3192V6.30393H41.8947V2.47086H29.8606V6.40001H29.8609ZM44.416 24.3192H48.2686V15.3116H53.5961V11.4787H48.3167V6.40027H55.3081V2.51929H44.4155L44.416 24.3192ZM92.7416 2.47138H88.4137L85.607 9.0835L83.0862 2.47138H78.8053L83.3242 14.2578L78.3775 25.8047C79.709 25.9484 81.1364 26.0926 82.4678 26.2356L85.3689 19.4797L88.1761 26.9063C89.6503 27.1451 91.172 27.2888 92.6462 27.5286C92.6462 27.5286 89.3356 18.6585 87.6522 14.3531L92.7416 2.47138ZM61.682 2.47138H57.8292V24.4629C61.3969 24.6072 64.9168 24.7509 68.3883 24.9907V21.1092C66.1526 20.9655 63.9177 20.8223 61.682 20.7262V2.47138Z" fill="#D81F26"/>
</g>
<defs>
<clipPath id="clip0_12_455">
<rect width="92.9032" height="30" fill="white"/>
</clipPath>
</defs>
</svg>
