<svg width="131" height="25" viewBox="0 0 131 25" fill="none" xmlns="http://www.w3.org/2000/svg">
<g style="mix-blend-mode:luminosity">
<path fill-rule="evenodd" clip-rule="evenodd" d="M24.5083 21.6667C24.2667 22.2833 23.7083 23.15 22.9083 23.7667C22.45 24.1167 21.9 24.4583 21.15 24.6833C20.35 24.925 19.3583 25 18.125 25H6.875C5.64167 25 4.65833 24.9167 3.85 24.6833C3.1 24.4583 2.55 24.125 2.09167 23.7667C1.3 23.1583 0.733333 22.2833 0.491667 21.6667C0.00833333 20.425 0 19.0167 0 18.125V6.875C0 5.98333 0.00833333 4.575 0.491667 3.33333C0.733333 2.71667 1.29167 1.85 2.09167 1.23333C2.55 0.883333 3.1 0.541667 3.85 0.316667C4.65833 0.0833333 5.64167 0 6.875 0H18.125C19.3583 0 20.3417 0.0833333 21.15 0.316667C21.9 0.541667 22.45 0.875 22.9083 1.23333C23.7 1.84167 24.2667 2.71667 24.5083 3.33333C25 4.575 25 5.99167 25 6.875V18.125C25 19.0167 24.9917 20.425 24.5083 21.6667Z" fill="url(#paint0_linear_12_371)"/>
<path d="M14.6418 15.0919C14.6085 14.7919 14.5085 14.5752 14.3085 14.3752C13.9335 13.9836 13.2751 13.7252 12.5001 13.7252C11.7251 13.7252 11.0668 13.9752 10.6918 14.3752C10.5001 14.5836 10.3918 14.7919 10.3585 15.0919C10.2918 15.6752 10.3335 16.1752 10.4001 16.9836C10.4668 17.7502 10.5918 18.7752 10.7501 19.8086C10.8668 20.5502 10.9585 20.9502 11.0418 21.2336C11.1835 21.7002 11.6918 22.1002 12.5001 22.1002C13.3085 22.1002 13.8251 21.6919 13.9585 21.2336C14.0418 20.9502 14.1335 20.5502 14.2501 19.8086C14.4085 18.7669 14.5335 17.7502 14.6001 16.9836C14.6751 16.1752 14.7085 15.6752 14.6418 15.0919Z" fill="white"/>
<path d="M14.5502 10.8417C14.5502 11.9751 13.6335 12.8917 12.5002 12.8917C11.3669 12.8917 10.4502 11.9751 10.4502 10.8417C10.4502 9.70842 11.3669 8.79175 12.5002 8.79175C13.6335 8.79175 14.5502 9.71675 14.5502 10.8417Z" fill="white"/>
<path d="M12.4749 2.76661C7.6916 2.78328 3.77493 6.66661 3.70826 11.4499C3.65826 15.3249 6.13326 18.6416 9.5916 19.8583C9.67493 19.8916 9.75826 19.8166 9.74993 19.7333C9.70826 19.4333 9.65826 19.1333 9.62493 18.8333C9.60826 18.7249 9.5416 18.6416 9.44993 18.5916C6.7166 17.3999 4.80826 14.6583 4.8416 11.4833C4.88326 7.31661 8.28326 3.92495 12.4416 3.89161C16.6999 3.85828 20.1749 7.30828 20.1749 11.5583C20.1749 14.6999 18.2749 17.3999 15.5666 18.5916C15.4666 18.6333 15.3999 18.7249 15.3916 18.8333C15.3499 19.1333 15.3083 19.4333 15.2666 19.7333C15.2499 19.8249 15.3416 19.8916 15.4249 19.8583C18.8499 18.6583 21.3083 15.3916 21.3083 11.5583C21.2916 6.70828 17.3333 2.75828 12.4749 2.76661Z" fill="white"/>
<path d="M12.2755 5.68346C9.15881 5.80013 6.65881 8.37513 6.61715 11.4918C6.59215 13.5418 7.61715 15.3585 9.19215 16.4335C9.26715 16.4835 9.37548 16.4251 9.37548 16.3335C9.35048 15.9751 9.35048 15.6585 9.36715 15.3251C9.37548 15.2168 9.33381 15.1168 9.25048 15.0418C8.29215 14.1418 7.70881 12.8585 7.74215 11.4418C7.80881 8.94179 9.81715 6.90846 12.3171 6.80846C15.0338 6.70013 17.2671 8.88346 17.2671 11.5668C17.2671 12.9335 16.6838 14.1668 15.7588 15.0418C15.6838 15.1168 15.6421 15.2168 15.6421 15.3251C15.6588 15.6501 15.6505 15.9668 15.6338 16.3251C15.6255 16.4168 15.7338 16.4835 15.8171 16.4251C17.3671 15.3668 18.3921 13.5751 18.3921 11.5585C18.4005 8.24179 15.6255 5.55013 12.2755 5.68346Z" fill="white"/>
<path d="M127.481 10.3563C129.111 10.3563 130.279 11.2586 130.315 12.5601H128.895C128.831 11.9099 128.279 11.5105 127.439 11.5105C126.621 11.5105 126.074 11.8879 126.074 12.4626C126.074 12.9027 126.438 13.1975 127.2 13.3857L128.439 13.6725C129.922 14.029 130.482 14.5748 130.482 15.6533C130.482 16.9828 129.222 17.892 127.424 17.892C125.688 17.892 124.52 17.0037 124.408 15.6593H125.906C126.012 16.3653 126.578 16.7437 127.494 16.7437C128.397 16.7437 128.965 16.3723 128.965 15.7857C128.965 15.3296 128.685 15.0856 127.916 14.8895L126.6 14.5678C125.27 14.2451 124.599 13.567 124.599 12.5452C124.598 11.2466 125.766 10.3563 127.481 10.3563ZM122.027 8.69921V10.441H123.426V11.637H122.027V15.6961C122.027 16.3265 122.308 16.6203 122.924 16.6203C123.077 16.6203 123.322 16.5984 123.419 16.5844V17.7735C123.252 17.8163 122.916 17.8432 122.581 17.8432C121.09 17.8432 120.51 17.2835 120.51 15.8564V11.637H119.438V10.44H120.51V8.69821H122.027V8.69921ZM115.683 10.3563C117.313 10.3563 118.481 11.2586 118.517 12.5601H117.096C117.032 11.9099 116.48 11.5105 115.64 11.5105C114.822 11.5105 114.276 11.8879 114.276 12.4626C114.276 12.9027 114.64 13.1975 115.402 13.3857L116.641 13.6725C118.123 14.029 118.684 14.5748 118.684 15.6533C118.684 16.9828 117.424 17.892 115.626 17.892C113.89 17.892 112.722 17.0037 112.61 15.6593H114.107C114.213 16.3653 114.78 16.7437 115.696 16.7437C116.599 16.7437 117.166 16.3723 117.166 15.7857C117.166 15.3296 116.887 15.0856 116.117 14.8895L114.801 14.5678C113.472 14.2451 112.8 13.567 112.8 12.5452C112.8 11.2466 113.968 10.3563 115.683 10.3563ZM109.758 15.0458V14.4782L107.995 14.5907C107.016 14.6465 106.498 15.0239 106.498 15.6613C106.498 16.2767 107.037 16.7109 107.877 16.7109C108.947 16.7109 109.758 15.9979 109.758 15.0458ZM104.98 15.6961C104.98 14.4095 105.967 13.6536 107.8 13.5411L109.759 13.4295V12.8699C109.759 12.0373 109.207 11.5902 108.247 11.5902C107.456 11.5902 106.875 11.9955 106.756 12.6249H105.343C105.384 11.3094 106.616 10.3513 108.289 10.3513C110.094 10.3513 111.262 11.2954 111.262 12.7583V17.8033H109.815V16.5934H109.779C109.367 17.3841 108.449 17.9089 107.456 17.9089C105.994 17.9079 104.98 17.0047 104.98 15.6961ZM102.567 12.9744C102.435 12.1977 101.825 11.6161 100.832 11.6161C99.6702 11.6161 98.9004 12.589 98.9004 14.1217C98.9004 15.6891 99.6772 16.6332 100.845 16.6332C101.784 16.6332 102.4 16.1642 102.567 15.3117H104.023C103.855 16.8583 102.617 17.893 100.832 17.893C98.7331 17.893 97.3618 16.4589 97.3618 14.1217C97.3618 11.8332 98.7331 10.3493 100.818 10.3493C102.708 10.3493 103.883 11.5384 104.01 12.9734H102.568V12.9744H102.567ZM90.6208 14.1227C90.6208 15.6344 91.3906 16.6003 92.5658 16.6003C93.7279 16.6003 94.5037 15.6204 94.5037 14.1227C94.5037 12.6388 93.7269 11.6519 92.5658 11.6519C91.3897 11.6509 90.6208 12.6239 90.6208 14.1227ZM89.0753 14.1227C89.0753 11.8481 90.3271 10.3653 92.1535 10.3653C93.2101 10.3653 94.0426 10.8542 94.4629 11.6659H94.4898V7.70534H96.0074V17.8023H94.5386V16.5506H94.5107C94.0765 17.3901 93.237 17.88 92.1664 17.88C90.3271 17.88 89.0753 16.3962 89.0753 14.1227ZM86.489 14.1227C86.489 12.5333 85.7611 11.5962 84.5362 11.5962C83.3113 11.5962 82.5843 12.5412 82.5843 14.1227C82.5843 15.717 83.3122 16.6481 84.5362 16.6481C85.7611 16.6481 86.489 15.717 86.489 14.1227ZM81.0447 14.1227C81.0447 11.8063 82.409 10.3503 84.5362 10.3503C86.6703 10.3503 88.0276 11.8053 88.0276 14.1227C88.0276 16.446 86.6773 17.895 84.5362 17.895C82.3951 17.895 81.0447 16.445 81.0447 14.1227ZM74.7937 13.0372H76.5922C77.9565 13.0372 78.7333 12.3022 78.7333 11.0295C78.7333 9.75581 77.9565 9.02784 76.6002 9.02784H74.7947V13.0372H74.7937ZM77.0125 7.70534C78.9713 7.70534 80.3366 9.05573 80.3366 11.0215C80.3366 12.9953 78.9434 14.3517 76.9637 14.3517H74.7947V17.8014H73.2262V7.70435H77.0125V7.70534ZM63.2049 13.4435H66.8846C66.8507 12.3162 66.1287 11.5752 65.0801 11.5752C64.0364 11.5752 63.2806 12.3301 63.2049 13.4435ZM68.3126 15.6403C68.1105 16.9768 66.8079 17.894 65.1418 17.894C63.0007 17.894 61.6713 16.4589 61.6713 14.1575C61.6713 11.8481 63.0087 10.3503 65.0791 10.3503C67.1156 10.3503 68.3953 11.7495 68.3953 13.9822V14.5001H63.1959V14.5907C63.1959 15.8495 63.9866 16.676 65.1757 16.676C66.0152 16.676 66.6725 16.2767 66.8766 15.6403H68.3126ZM58.6239 7.70534H60.1356V17.8023H58.6239V7.70534ZM55.7897 14.1227C55.7897 12.6319 55.0199 11.6519 53.8448 11.6519C52.6906 11.6519 51.9138 12.6528 51.9138 14.1227C51.9138 15.6055 52.6906 16.6003 53.8448 16.6003C55.0199 16.5993 55.7897 15.6254 55.7897 14.1227ZM57.3443 14.1227C57.3443 16.4101 56.1193 17.88 54.272 17.88C53.2214 17.88 52.3899 17.411 51.9557 16.5914H51.9208V20.2372H50.4091V10.44H51.872V11.6649H51.8989C52.3182 10.8742 53.2144 10.3643 54.2431 10.3643C56.1114 10.3643 57.3443 11.8411 57.3443 14.1227ZM47.6307 14.1227C47.6307 12.6319 46.8609 11.6519 45.6857 11.6519C44.5315 11.6519 43.7548 12.6528 43.7548 14.1227C43.7548 15.6055 44.5315 16.6003 45.6857 16.6003C46.8609 16.5993 47.6307 15.6254 47.6307 14.1227ZM49.1842 14.1227C49.1842 16.4101 47.9583 17.88 46.112 17.88C45.0613 17.88 44.2298 17.411 43.7956 16.5914H43.7607V20.2372H42.249V10.44H43.711V11.6649H43.7378C44.1581 10.8742 45.0544 10.3643 46.0831 10.3643C47.9523 10.3643 49.1842 11.8411 49.1842 14.1227ZM35.0958 13.8139H38.1471L36.6424 9.38436H36.6005L35.0958 13.8139ZM38.5464 15.0737H34.6974L33.7733 17.8023H32.1431L35.7889 7.70534H37.4819L41.1277 17.8023H39.4686L38.5464 15.0737Z" fill="black"/>
</g>
<defs>
<linearGradient id="paint0_linear_12_371" x1="12.5" y1="0" x2="12.5" y2="25" gradientUnits="userSpaceOnUse">
<stop stop-color="#F452FF"/>
<stop offset="1" stop-color="#832BC1"/>
</linearGradient>
</defs>
</svg>
