<svg width="85" height="25" viewBox="0 0 85 25" fill="none" xmlns="http://www.w3.org/2000/svg">
<g style="mix-blend-mode:luminosity">
<rect width="25" height="25" rx="5" fill="#FCE1DF"/>
<path d="M19.3969 12.1661C19.9911 8.90455 18.0043 5.98665 14.8935 5.01775C9.36786 3.29765 5.45376 8.35931 5.49843 13.4607C5.53564 17.5832 6.41771 20.3243 6.41833 20.3249C6.37925 20.2027 7.4623 19.632 7.58698 19.5681C8.01391 19.3519 8.45713 19.1693 8.91256 19.0223C9.84363 18.7121 10.8076 18.5167 11.7641 18.3027C14.7539 17.6204 17.9659 16.3302 19.1097 13.2274C19.2357 12.8826 19.3316 12.5275 19.3963 12.1661H19.3969Z" fill="#FF5C28"/>
<path d="M32.5634 15.8053C33.0021 16.0747 33.9093 16.3679 34.6105 16.3679C35.3276 16.3679 35.6249 16.1325 35.6249 15.7398C35.6249 15.3332 35.3917 15.1459 34.5172 14.85C32.9227 14.3187 32.3141 13.4588 32.3309 12.5537C32.3309 11.118 33.5493 10.0415 35.4383 10.0415C36.3289 10.0415 37.1094 10.2602 37.5787 10.4955L37.172 12.1317C36.6602 11.8625 36.0937 11.7132 35.5156 11.6952C34.9384 11.6952 34.6105 11.9291 34.6105 12.3044C34.6105 12.6797 34.9071 12.8656 35.8429 13.1943C37.296 13.6942 37.8906 14.4434 37.9066 15.5525C37.9066 16.9875 36.7981 18.0361 34.6111 18.0361C33.612 18.0361 32.7215 17.8015 32.1436 17.4882L32.5634 15.8053ZM41.6491 8.16786V10.2316H43.3543V11.9813H41.6491V14.7428C41.6491 15.6646 41.8837 16.0887 42.5863 16.0887C42.8216 16.097 43.0576 16.0754 43.2888 16.026L43.3041 17.8203C43.0075 17.9289 42.4289 18.0222 41.773 18.0222C41.0078 18.0222 40.3679 17.7576 39.9787 17.3663C39.5408 16.9179 39.3228 16.1806 39.3228 15.102V8.81191L41.6491 8.16786ZM52.1914 13.9622C52.1914 16.7571 50.207 18.0382 48.1613 18.0382C45.9284 18.0382 44.2135 16.5691 44.2135 14.1022C44.2135 11.6193 45.8372 10.0415 48.3061 10.0415C50.6289 10.0415 52.1914 11.6499 52.1914 13.9622ZM46.6629 14.0402C46.6629 15.352 47.2095 16.3365 48.2247 16.3365C49.1612 16.3365 49.7398 15.4147 49.7398 14.0242C49.7398 12.8997 49.3018 11.7439 48.2247 11.7439C47.1002 11.7439 46.6622 12.915 46.6622 14.0402H46.6629ZM53.6598 12.7438L53.5971 10.2316H55.6289L55.7187 11.6381H55.7799C56.1706 10.5129 57.0931 10.0436 57.8437 10.0436C58.0115 10.0422 58.1786 10.0575 58.3429 10.0917V12.3246C58.1318 12.2843 57.9173 12.2633 57.7024 12.2619C56.8271 12.2619 56.2346 12.7312 56.0779 13.4644C56.0455 13.6398 56.0299 13.818 56.0313 13.9964V17.869H53.6598V12.7445V12.7438ZM61.653 10.2288L62.7935 13.9971L63.1681 15.4188H63.2308L63.558 13.9831L64.5105 10.2344H67.0408L65.2604 15.2643C64.1673 18.3098 63.4327 19.5115 62.5749 20.2774C61.9402 20.8519 61.144 21.217 60.2946 21.3232L59.7786 19.3249C60.1405 19.2411 60.4878 19.1038 60.8091 18.9176C61.2141 18.6898 61.554 18.3622 61.7964 17.9658C61.8675 17.8644 61.9105 17.7459 61.9211 17.6226C61.9189 17.4875 61.8883 17.3544 61.8313 17.2319L59.0204 10.233L61.6523 10.2288H61.653ZM70.7011 8.16786V10.2316H72.4056V11.9813H70.7011V14.7428C70.7011 15.6646 70.9343 16.0887 71.6376 16.0887C71.8734 16.0968 72.1094 16.0757 72.3401 16.026L72.3554 17.8203C72.0595 17.9289 71.4816 18.0222 70.8243 18.0222C70.0598 18.0222 69.4192 17.7576 69.03 17.3663C68.5935 16.9179 68.3755 16.1806 68.3755 15.102V8.81191L70.7011 8.16786ZM75.5276 14.8054C75.5882 15.7927 76.5735 16.2572 77.6805 16.2572C78.3968 16.269 79.1098 16.1583 79.7888 15.9299L80.1008 17.5383C79.3196 17.8662 78.3677 18.0222 77.3366 18.0222C74.7436 18.0222 73.2606 16.5238 73.2606 14.1335C73.2606 12.1965 74.463 10.0575 77.1186 10.0575C79.5862 10.0575 80.5283 11.9786 80.5283 13.8682C80.5283 14.1823 80.5018 14.4956 80.4496 14.8054H75.527H75.5276ZM78.3218 13.181C78.3218 12.6031 78.0725 11.6353 76.9759 11.6353C75.976 11.6353 75.5701 12.5565 75.5068 13.181H78.3218ZM81.9459 17.8669H84.3202V7.14294L81.9459 7.79605V17.8669Z" fill="black"/>
</g>
</svg>
