<svg width="17" height="17" viewBox="0 0 17 17" fill="none" xmlns="http://www.w3.org/2000/svg">
<path d="M11.8291 1.18951H14.9677L7.79243 8.36822C7.56008 8.60057 7.56008 8.97858 7.79243 9.21093C7.90687 9.32538 8.05946 9.38433 8.21205 9.38433C8.36465 9.38433 8.51724 9.32538 8.63168 9.21093L15.8104 2.03223V5.17075C15.8104 5.5002 16.0774 5.76724 16.4034 5.76724C16.7329 5.76724 16.9999 5.5002 16.9999 5.17075V0.596491C16.9999 0.267034 16.7329 0 16.4034 0H11.8291C11.4997 0 11.2327 0.267034 11.2327 0.596491C11.2361 0.922481 11.4997 1.18951 11.8291 1.18951Z" fill="#4885ED"/>
<path d="M3.56854 17H13.428C15.3978 17 16.9965 15.3978 16.9965 13.4315V8.78784C16.9965 8.45838 16.7295 8.19482 16.4 8.19482C16.0706 8.19482 15.807 8.46185 15.807 8.78784V13.428C15.807 14.7389 14.7389 15.807 13.428 15.807H3.56854C2.25765 15.807 1.18951 14.7389 1.18951 13.428V5.59731V3.57201C1.18951 2.26112 2.25765 1.19298 3.56854 1.19298H8.17054C8.5 1.19298 8.76357 0.925949 8.76357 0.596491C8.76357 0.267034 8.49653 0 8.17054 0H3.56854C1.59874 0 0 1.6022 0 3.56854V5.59384V13.428C0 15.3978 1.6022 17 3.56854 17Z" fill="#4885ED"/>
</svg>
