<svg width="26" height="25" viewBox="0 0 26 25" fill="none" xmlns="http://www.w3.org/2000/svg">
<path d="M17.8484 1.74929H22.4639L11.912 12.3062C11.5703 12.6479 11.5703 13.2038 11.912 13.5455C12.0803 13.7138 12.3047 13.8005 12.5291 13.8005C12.7535 13.8005 12.9779 13.7138 13.1462 13.5455L23.7031 2.98858V7.60404C23.7031 8.08854 24.0958 8.48123 24.5752 8.48123C25.0597 8.48123 25.4524 8.08854 25.4524 7.60404V0.877193C25.4524 0.392697 25.0597 0 24.5752 0H17.8484C17.3639 0 16.9712 0.392697 16.9712 0.877193C16.9763 1.35659 17.3639 1.74929 17.8484 1.74929Z" fill="white"/>
<path d="M5.70025 25H20.1994C23.0962 25 25.4473 22.6438 25.4473 19.7521V12.9233C25.4473 12.4388 25.0546 12.0512 24.5701 12.0512C24.0856 12.0512 23.698 12.4439 23.698 12.9233V19.747C23.698 21.6748 22.1272 23.2456 20.1994 23.2456H5.70025C3.77247 23.2456 2.20168 21.6748 2.20168 19.747V8.23133V5.25296C2.20168 3.32517 3.77247 1.75439 5.70025 1.75439H12.4679C12.9524 1.75439 13.34 1.36169 13.34 0.877193C13.34 0.392697 12.9473 0 12.4679 0H5.70025C2.80347 0 0.452393 2.35618 0.452393 5.24786V8.22623V19.747C0.452393 22.6438 2.80857 25 5.70025 25Z" fill="white"/>
</svg>
