<svg width="29" height="24" viewBox="0 0 29 24" fill="none" xmlns="http://www.w3.org/2000/svg">
<path d="M28.097 3.3253C27.0521 3.77865 25.9388 4.07914 24.778 4.22505C25.9721 3.51984 26.8835 2.41165 27.312 1.07592C26.1987 1.7325 24.9694 2.19627 23.6594 2.45508C22.6022 1.34168 21.0955 0.6521 19.4519 0.6521C16.2629 0.6521 13.6955 3.2124 13.6955 6.3511C13.6955 6.80272 13.7341 7.23696 13.829 7.65036C9.0402 7.41934 4.80282 5.14912 1.95625 1.69081C1.45929 2.54366 1.16778 3.51984 1.16778 4.57071C1.16778 6.54391 2.19507 8.29304 3.72636 9.30569C2.80092 9.28832 1.89303 9.02257 1.12388 8.60396C1.12388 8.62133 1.12388 8.64391 1.12388 8.66649C1.12388 11.4352 3.12052 13.735 5.7388 14.2647C5.26993 14.3915 4.75892 14.4523 4.22859 14.4523C3.85982 14.4523 3.48753 14.4315 3.13808 14.3551C3.8844 16.6114 6.00221 18.2702 8.5204 18.324C6.56064 19.8404 4.0723 20.7541 1.37851 20.7541C0.906127 20.7541 0.453063 20.7332 0 20.6759C2.55155 22.3035 5.57549 23.2327 8.83649 23.2327C19.4361 23.2327 25.2311 14.5479 25.2311 7.01984C25.2311 6.76798 25.2223 6.5248 25.21 6.28336C26.3532 5.48088 27.3138 4.47865 28.097 3.3253Z" fill="black"/>
</svg>
