<svg width="27" height="26" viewBox="0 0 27 26" fill="none" xmlns="http://www.w3.org/2000/svg">
<path d="M18.0444 8.125C17.1543 4.14375 15.2558 1.625 13.5 1.625C11.7442 1.625 9.84572 4.14375 8.95557 8.125H18.0444Z" fill="black"/>
<path d="M8.4375 13C8.43729 14.087 8.51255 15.1727 8.66278 16.25H18.3372C18.4874 15.1727 18.5627 14.087 18.5625 13C18.5627 11.913 18.4874 10.8273 18.3372 9.75H8.66278C8.51255 10.8273 8.43729 11.913 8.4375 13Z" fill="black"/>
<path d="M8.95557 17.875C9.84572 21.8563 11.7442 24.375 13.5 24.375C15.2558 24.375 17.1543 21.8563 18.0444 17.875H8.95557Z" fill="black"/>
<path d="M19.7724 8.12508H25.0881C24.2894 6.37476 23.0758 4.82905 21.5448 3.61192C20.0137 2.39478 18.2077 1.54011 16.2717 1.11646C17.8723 2.47252 19.1278 4.97989 19.7724 8.12508Z" fill="black"/>
<path d="M25.6947 9.75H20.0416C20.1808 10.8281 20.2504 11.9136 20.25 13C20.2501 14.0865 20.1802 15.1719 20.0408 16.25H25.6939C26.3092 14.1238 26.3092 11.8762 25.6939 9.75H25.6947Z" fill="black"/>
<path d="M16.2717 24.8836C18.208 24.4602 20.0144 23.6056 21.5457 22.3885C23.0771 21.1713 24.2909 19.6255 25.0898 17.875H19.7741C19.1278 21.0202 17.8723 23.5276 16.2717 24.8836Z" fill="black"/>
<path d="M7.22773 17.875H1.91211C2.71096 19.6255 3.92477 21.1713 5.45614 22.3885C6.98751 23.6056 8.79382 24.4602 10.7301 24.8836C9.12786 23.5276 7.87236 21.0202 7.22773 17.875Z" fill="black"/>
<path d="M10.7284 1.11646C8.79211 1.53988 6.9858 2.39445 5.45443 3.61159C3.92306 4.82874 2.70926 6.37457 1.9104 8.12508H7.22603C7.87234 4.97989 9.12784 2.47252 10.7284 1.11646Z" fill="black"/>
<path d="M6.75009 13C6.74998 11.9135 6.81987 10.8281 6.95934 9.75H1.30622C0.690896 11.8762 0.690896 14.1238 1.30622 16.25H6.95934C6.81987 15.1719 6.74998 14.0865 6.75009 13Z" fill="black"/>
</svg>
