<svg width="23" height="28" viewBox="0 0 23 28" fill="none" xmlns="http://www.w3.org/2000/svg">
<path d="M22.4803 14.1091C22.2003 12.9056 21.2051 12.0179 20.0072 11.8858C17.1714 11.5724 14.2996 11.571 11.4419 11.5724C8.58299 11.571 5.71183 11.5724 2.87504 11.8858C1.67781 12.0182 0.683196 12.9059 0.403462 14.1091C0.00478175 15.8228 0 17.6934 0 19.4579C0 21.2224 3.5627e-08 23.0928 0.398681 24.8064C0.678414 26.0096 1.67302 26.8973 2.87086 27.0297C5.70705 27.3434 8.57821 27.3445 11.4368 27.3434C14.2957 27.3448 17.1663 27.3434 20.0034 27.0297C21.2006 26.8973 22.1958 26.0096 22.4755 24.8064C22.8739 23.0928 22.876 21.2224 22.876 19.4579C22.8757 17.6931 22.8787 15.8228 22.4803 14.1091ZM6.52503 15.4373H4.86934V24.1395H3.3314V15.4373H1.7059V14.0118H6.52503V15.4373ZM10.7022 24.1398H9.31878V23.3165C8.76918 23.9397 8.24737 24.2436 7.739 24.2436C7.2934 24.2436 6.98677 24.065 6.8484 23.6828C6.77309 23.4546 6.72646 23.0933 6.72646 22.5606V16.5934H8.1087V22.1495C8.1087 22.4699 8.1087 22.6363 8.12125 22.6813C8.15442 22.8935 8.25932 23.0011 8.44462 23.0011C8.72196 23.0011 9.01185 22.7897 9.31848 22.3608V16.5934H10.7019L10.7022 24.1398ZM15.9541 21.8748C15.9541 22.5728 15.9066 23.0756 15.8142 23.3955C15.6295 23.9568 15.2598 24.2436 14.7099 24.2436C14.218 24.2436 13.7434 23.9734 13.2811 23.4088V24.1401H11.8988V14.0118H13.2811V17.3194C13.7276 16.7758 14.2016 16.5009 14.7099 16.5009C15.2598 16.5009 15.6298 16.7873 15.8142 17.3522C15.9072 17.6558 15.9541 18.1548 15.9541 18.8693V21.8748ZM21.1713 20.6158H18.4065V21.9535C18.4065 22.652 18.6376 23.0008 19.1128 23.0008C19.4532 23.0008 19.6513 22.8178 19.7302 22.4525C19.7431 22.3783 19.7613 22.0744 19.7613 21.526H21.1716V21.7255C21.1716 22.1663 21.1546 22.4699 21.142 22.6065C21.0957 22.9092 20.9869 23.1838 20.8192 23.4256C20.4364 23.9737 19.8692 24.2439 19.1471 24.2439C18.4239 24.2439 17.8734 23.9864 17.4738 23.4711C17.1806 23.0933 17.03 22.4986 17.03 21.6966V19.0535C17.03 18.2468 17.1636 17.6567 17.4574 17.2754C17.8566 16.759 18.4068 16.5018 19.1131 16.5018C19.8067 16.5018 20.3566 16.759 20.7439 17.2754C21.0335 17.6567 21.1719 18.2468 21.1719 19.0535V20.6158H21.1713Z" fill="black"/>
<path d="M19.0992 17.7317C18.6371 17.7317 18.4055 18.0808 18.4055 18.7785V19.4767H19.7878V18.7785C19.7875 18.0808 19.5564 17.7317 19.0992 17.7317Z" fill="black"/>
<path d="M13.97 17.7317C13.7423 17.7317 13.5115 17.8381 13.2805 18.0643V22.6637C13.5112 22.8925 13.7423 23.0007 13.97 23.0007C14.3687 23.0007 14.5713 22.6637 14.5713 21.9823V18.7613C14.5713 18.0808 14.3687 17.7317 13.97 17.7317Z" fill="black"/>
<path d="M14.7427 10.8774C15.2522 10.8774 15.7824 10.5711 16.3386 9.9409V10.7727H17.7358V3.14624H16.3386V8.97513C16.029 9.40791 15.7355 9.62193 15.456 9.62193C15.2689 9.62193 15.159 9.51255 15.1285 9.29823C15.1114 9.25301 15.1114 9.0848 15.1114 8.76111V3.14624H13.7188V9.17674C13.7188 9.71534 13.7654 10.0798 13.8425 10.3107C13.9829 10.6971 14.2929 10.8774 14.7427 10.8774Z" fill="black"/>
<path d="M5.01649 6.6276V10.7724H6.56578V6.6276L8.42948 0.538574H6.86285L5.80578 4.55743L4.70597 0.538574H3.07568C3.40234 1.4872 3.74214 2.44055 4.0688 3.39005C4.5658 4.81727 4.87602 5.8933 5.01649 6.6276Z" fill="black"/>
<path d="M10.5051 10.8771C11.205 10.8771 11.749 10.6167 12.1348 10.0964C12.428 9.71475 12.5684 9.11347 12.5684 8.3029V5.63234C12.5684 4.81704 12.4283 4.22109 12.1348 3.8359C11.749 3.31415 11.2053 3.05371 10.5051 3.05371C9.80875 3.05371 9.26512 3.31415 8.8784 3.8359C8.58163 4.22109 8.44116 4.81704 8.44116 5.63234V8.3029C8.44116 9.11347 8.58163 9.71475 8.8784 10.0964C9.26482 10.6167 9.80875 10.8771 10.5051 10.8771ZM9.83834 5.35535C9.83834 4.64972 10.0547 4.29794 10.5051 4.29794C10.9555 4.29794 11.1713 4.64943 11.1713 5.35535V8.56334C11.1713 9.26897 10.9555 9.62193 10.5051 9.62193C10.0547 9.62193 9.83834 9.26897 9.83834 8.56334V5.35535Z" fill="black"/>
</svg>
