<svg width="1920" height="265" viewBox="0 0 1920 265" fill="none" xmlns="http://www.w3.org/2000/svg">
<rect x="-59.9756" y="142.21" width="2038.66" height="72.9759" transform="rotate(-4 -59.9756 142.21)" fill="#F4C20D"/>
<path d="M2.87888 171.992C-1.38567 171.405 -4.90034 168.349 -6.0752 164.208C-6.30167 163.41 -7.05682 162.879 -7.88484 162.937C-8.71275 162.995 -9.38684 163.625 -9.49999 164.447C-10.0872 168.712 -13.1424 172.227 -17.2837 173.401C-18.0821 173.628 -18.6126 174.383 -18.5547 175.211C-18.4968 176.039 -17.8665 176.713 -17.0443 176.826C-12.7798 177.413 -9.26517 180.469 -8.0903 184.61C-7.86382 185.408 -7.10867 185.939 -6.28065 185.881C-5.45274 185.823 -4.77865 185.193 -4.66551 184.371C-4.07823 180.106 -1.02298 176.591 3.11825 175.417C3.91663 175.19 4.44714 174.435 4.38925 173.607C4.33135 172.779 3.70101 172.105 2.87888 171.992Z" fill="white"/>
<path d="M407.617 143.69C403.353 143.102 399.838 140.047 398.663 135.906C398.437 135.107 397.681 134.577 396.853 134.635C396.026 134.693 395.351 135.323 395.238 136.145C394.651 140.41 391.596 143.924 387.455 145.099C386.656 145.326 386.126 146.081 386.184 146.909C386.241 147.737 386.872 148.411 387.694 148.524C391.958 149.111 395.473 152.166 396.648 156.308C396.874 157.106 397.63 157.637 398.458 157.579C399.286 157.521 399.96 156.891 400.073 156.068C400.66 151.804 403.715 148.289 407.857 147.114C408.655 146.888 409.185 146.133 409.128 145.305C409.07 144.477 408.439 143.803 407.617 143.69Z" fill="white"/>
<path d="M68.0501 170.438L73.0379 170.089L73.875 182.06L78.344 181.747L76.3909 153.815L71.9218 154.128L72.7589 166.098L67.771 166.447L66.934 154.477L62.5447 154.783L64.4979 182.715L68.8871 182.408L68.0501 170.438ZM90.5067 152.828L84.0824 153.277L81.5665 181.522L85.5966 181.24L86.0004 176.119L91.3873 175.743L92.4998 180.757L96.929 180.447L90.5067 152.828ZM87.4211 158.016L90.5237 171.994L86.294 172.289L87.4211 158.016ZM104.282 151.865L98.177 152.292L100.13 180.224L103.961 179.956L102.58 160.204L107.233 179.727L111.383 179.437L113.015 159.194L114.415 179.225L118.565 178.934L116.612 151.003L110.507 151.43L108.901 171.47L104.282 151.865ZM120.912 157.438C121.47 165.419 130.124 165.896 130.526 171.642C130.666 173.637 129.838 174.417 128.442 174.515C127.045 174.612 126.117 173.956 125.977 171.96L125.838 169.965L121.688 170.256L121.808 171.971C122.121 176.44 124.534 178.838 128.843 178.537C133.153 178.235 135.209 175.525 134.896 171.056C134.338 163.076 125.684 162.598 125.282 156.852C125.142 154.857 125.887 154.043 127.284 153.945C128.681 153.848 129.532 154.55 129.671 156.545L129.752 157.702L133.902 157.412L133.84 156.534C133.528 152.065 131.155 149.665 126.885 149.964C122.616 150.262 120.6 152.969 120.912 157.438ZM136.126 153.648L140.714 153.327L142.389 177.269L146.778 176.962L145.104 153.02L149.693 152.699L149.413 148.709L135.847 149.658L136.126 153.648ZM157.212 152.173L164.793 151.643L164.514 147.653L152.544 148.49L154.497 176.422L166.468 175.585L166.189 171.595L158.607 172.125L158.035 163.945L164.06 163.523L163.781 159.533L157.756 159.954L157.212 152.173ZM184.031 174.357C183.52 173.35 183.41 172.355 183.315 170.998L183.014 166.689C182.81 163.776 181.944 161.711 179.685 160.947C181.576 159.893 182.363 157.953 182.162 155.08L182.009 152.885C181.707 148.576 179.604 146.598 175.055 146.916L168.431 147.379L170.385 175.311L174.774 175.004L173.979 163.632L175.495 163.526C177.49 163.386 178.435 164.282 178.616 166.876L178.923 171.265C179.082 173.54 179.273 173.968 179.562 174.669L184.031 174.357ZM175.215 150.915C176.771 150.806 177.51 151.636 177.65 153.631L177.843 156.385C177.999 158.619 177.051 159.407 175.415 159.522L173.7 159.641L173.1 151.062L175.215 150.915ZM185.593 152.915C186.151 160.896 194.806 161.373 195.207 167.119C195.347 169.115 194.519 169.894 193.123 169.992C191.726 170.089 190.798 169.433 190.659 167.437L190.519 165.442L186.369 165.733L186.489 167.448C186.802 171.917 189.215 174.315 193.524 174.014C197.834 173.712 199.89 171.002 199.577 166.533C199.019 158.553 190.365 158.075 189.963 152.329C189.823 150.334 190.568 149.52 191.965 149.422C193.362 149.325 194.213 150.027 194.352 152.022L194.433 153.179L198.583 152.889L198.522 152.011C198.209 147.542 195.836 145.142 191.566 145.441C187.297 145.739 185.281 148.446 185.593 152.915ZM212.47 144.3L208.04 144.609L214.303 172.24L220.847 171.782L223.203 143.549L219.173 143.831L217.415 166.85L212.47 144.3ZM226.359 150.065C226.917 158.045 235.572 158.523 235.973 164.269C236.113 166.264 235.285 167.044 233.889 167.141C232.492 167.239 231.564 166.582 231.425 164.587L231.285 162.592L227.135 162.882L227.255 164.598C227.568 169.067 229.981 171.464 234.29 171.163C238.6 170.862 240.656 168.152 240.343 163.683C239.785 155.702 231.131 155.225 230.729 149.479C230.589 147.483 231.335 146.669 232.731 146.572C234.128 146.474 234.979 147.177 235.118 149.172L235.199 150.329L239.349 150.039L239.288 149.161C238.975 144.692 236.602 142.291 232.332 142.59C228.063 142.889 226.047 145.596 226.359 150.065ZM256.587 141.215L249.964 141.678L251.917 169.61L258.82 169.127C263.209 168.82 265.322 166.347 265.02 162.037L264.861 159.763C264.655 156.81 263.589 154.759 261.171 154.006C263.062 152.952 263.811 151.055 263.611 148.182L263.541 147.184C263.239 142.875 261.136 140.897 256.587 141.215ZM257.382 156.597C259.377 156.457 260.271 157.197 260.453 159.79L260.623 162.224C260.768 164.299 260.017 165.033 258.541 165.137L256.027 165.312L255.427 156.733L257.382 156.597ZM256.747 145.213C258.303 145.104 259.043 145.935 259.182 147.93L259.291 149.486C259.447 151.721 258.5 152.509 256.864 152.623L255.148 152.743L254.632 145.361L256.747 145.213ZM267.172 140.475L268.659 161.743C268.971 166.212 271.384 168.609 275.694 168.308C280.003 168.007 282.059 165.296 281.747 160.827L280.26 139.559L276.11 139.85L277.616 161.397C277.756 163.392 276.928 164.172 275.532 164.269C274.135 164.367 273.207 163.71 273.068 161.715L271.561 140.168L267.172 140.475ZM286.42 167.197L298.032 166.385L297.753 162.395L290.53 162.9L288.856 138.958L284.467 139.265L286.42 167.197ZM301.139 166.168L312.75 165.356L312.471 161.365L305.249 161.871L303.575 137.929L299.186 138.236L301.139 166.168ZM313.814 143.949C314.372 151.93 323.027 152.407 323.429 158.153C323.568 160.148 322.741 160.928 321.344 161.026C319.947 161.123 319.019 160.467 318.88 158.471L318.74 156.476L314.59 156.766L314.71 158.482C315.023 162.951 317.436 165.349 321.745 165.048C326.055 164.746 328.111 162.036 327.798 157.567C327.24 149.587 318.586 149.109 318.184 143.363C318.045 141.368 318.79 140.554 320.186 140.456C321.583 140.359 322.434 141.061 322.573 143.056L322.654 144.213L326.804 143.923L326.743 143.045C326.43 138.576 324.057 136.176 319.788 136.474C315.518 136.773 313.502 139.48 313.814 143.949Z" fill="white"/>
<path d="M812.628 115.368C808.364 114.781 804.849 111.726 803.674 107.585C803.448 106.786 802.692 106.256 801.864 106.314C801.037 106.371 800.362 107.002 800.249 107.824C799.662 112.088 796.607 115.603 792.466 116.778C791.667 117.004 791.137 117.76 791.195 118.588C791.252 119.416 791.883 120.089 792.705 120.203C796.969 120.79 800.484 123.845 801.659 127.987C801.885 128.785 802.641 129.315 803.469 129.258C804.297 129.2 804.971 128.569 805.084 127.747C805.671 123.482 808.726 119.968 812.868 118.793C813.666 118.566 814.196 117.811 814.139 116.983C814.081 116.156 813.45 115.481 812.628 115.368Z" fill="white"/>
<path d="M473.061 142.117L478.049 141.768L478.886 153.739L483.355 153.426L481.402 125.494L476.933 125.807L477.77 137.778L472.782 138.126L471.945 126.156L467.556 126.463L469.509 154.394L473.898 154.088L473.061 142.117ZM495.518 124.507L489.093 124.957L486.577 153.201L490.608 152.919L491.011 147.798L496.398 147.422L497.511 152.436L501.94 152.127L495.518 124.507ZM492.432 129.695L495.535 143.673L491.305 143.969L492.432 129.695ZM509.293 123.544L503.188 123.971L505.141 151.903L508.972 151.635L507.591 131.883L512.244 151.406L516.394 151.116L518.026 130.873L519.426 150.904L523.576 150.614L521.623 122.682L515.518 123.109L513.912 143.15L509.293 123.544ZM525.923 129.118C526.481 137.098 535.135 137.576 535.537 143.322C535.677 145.317 534.849 146.096 533.453 146.194C532.056 146.292 531.128 145.635 530.988 143.64L530.849 141.645L526.699 141.935L526.819 143.651C527.131 148.12 529.545 150.517 533.854 150.216C538.164 149.914 540.22 147.204 539.907 142.735C539.349 134.755 530.695 134.277 530.293 128.531C530.153 126.536 530.898 125.722 532.295 125.625C533.691 125.527 534.543 126.229 534.682 128.224L534.763 129.382L538.913 129.091L538.851 128.214C538.539 123.744 536.166 121.344 531.896 121.643C527.627 121.941 525.611 124.649 525.923 129.118ZM541.137 125.327L545.725 125.006L547.4 148.948L551.789 148.641L550.115 124.699L554.704 124.378L554.424 120.388L540.858 121.337L541.137 125.327ZM562.223 123.853L569.804 123.322L569.525 119.332L557.555 120.169L559.508 148.101L571.479 147.264L571.2 143.274L563.618 143.804L563.046 135.624L569.071 135.203L568.792 131.212L562.767 131.634L562.223 123.853ZM589.042 146.036C588.531 145.029 588.421 144.034 588.326 142.678L588.025 138.368C587.821 135.455 586.955 133.391 584.696 132.626C586.587 131.572 587.374 129.632 587.173 126.759L587.02 124.565C586.718 120.255 584.615 118.277 580.066 118.595L573.442 119.058L575.396 146.99L579.785 146.683L578.99 135.311L580.506 135.205C582.501 135.065 583.446 135.962 583.627 138.555L583.934 142.945C584.093 145.219 584.284 145.647 584.573 146.348L589.042 146.036ZM580.226 122.594C581.782 122.485 582.521 123.315 582.661 125.31L582.854 128.064C583.01 130.298 582.062 131.086 580.426 131.201L578.711 131.321L578.111 122.742L580.226 122.594ZM590.604 124.595C591.162 132.575 599.817 133.053 600.218 138.799C600.358 140.794 599.53 141.573 598.134 141.671C596.737 141.769 595.809 141.112 595.67 139.117L595.53 137.122L591.38 137.412L591.5 139.128C591.813 143.597 594.226 145.994 598.535 145.693C602.845 145.391 604.901 142.681 604.588 138.212C604.03 130.232 595.376 129.754 594.974 124.008C594.834 122.013 595.579 121.199 596.976 121.102C598.373 121.004 599.224 121.706 599.363 123.701L599.444 124.859L603.594 124.568L603.533 123.691C603.22 119.222 600.847 116.821 596.577 117.12C592.308 117.418 590.292 120.126 590.604 124.595ZM617.481 115.979L613.051 116.289L619.314 143.919L625.858 143.461L628.214 115.228L624.184 115.51L622.426 138.529L617.481 115.979ZM631.37 121.744C631.928 129.725 640.583 130.202 640.984 135.948C641.124 137.943 640.296 138.723 638.9 138.82C637.503 138.918 636.575 138.261 636.436 136.266L636.296 134.271L632.146 134.561L632.266 136.277C632.579 140.746 634.992 143.144 639.301 142.842C643.611 142.541 645.667 139.831 645.354 135.362C644.796 127.381 636.142 126.904 635.74 121.158C635.6 119.163 636.346 118.349 637.742 118.251C639.139 118.153 639.99 118.856 640.129 120.851L640.21 122.008L644.36 121.718L644.299 120.84C643.986 116.371 641.613 113.971 637.343 114.269C633.074 114.568 631.058 117.275 631.37 121.744ZM661.598 112.894L654.975 113.357L656.928 141.289L663.831 140.806C668.22 140.499 670.333 138.026 670.031 133.716L669.872 131.442C669.666 128.489 668.6 126.438 666.182 125.685C668.073 124.631 668.822 122.734 668.621 119.861L668.552 118.863C668.25 114.554 666.147 112.576 661.598 112.894ZM662.393 128.276C664.388 128.136 665.282 128.876 665.464 131.469L665.634 133.904C665.779 135.978 665.028 136.713 663.552 136.816L661.038 136.992L660.438 128.413L662.393 128.276ZM661.758 116.892C663.314 116.784 664.054 117.614 664.193 119.609L664.302 121.165C664.458 123.4 663.511 124.188 661.875 124.302L660.159 124.422L659.643 117.04L661.758 116.892ZM672.183 112.154L673.67 133.422C673.982 137.891 676.395 140.288 680.705 139.987C685.014 139.686 687.07 136.976 686.758 132.507L685.271 111.239L681.121 111.529L682.627 133.076C682.767 135.071 681.939 135.851 680.543 135.949C679.146 136.046 678.218 135.389 678.079 133.394L676.572 111.847L672.183 112.154ZM691.431 138.876L703.043 138.064L702.764 134.074L695.541 134.579L693.867 110.637L689.478 110.944L691.431 138.876ZM706.15 137.847L717.761 137.035L717.482 133.045L710.26 133.55L708.586 109.608L704.197 109.915L706.15 137.847ZM718.825 115.629C719.383 123.609 728.038 124.087 728.44 129.833C728.579 131.828 727.752 132.607 726.355 132.705C724.958 132.803 724.03 132.146 723.891 130.151L723.751 128.155L719.601 128.446L719.721 130.161C720.034 134.631 722.447 137.028 726.756 136.727C731.066 136.425 733.122 133.715 732.809 129.246C732.251 121.266 723.597 120.788 723.195 115.042C723.056 113.047 723.801 112.233 725.197 112.136C726.594 112.038 727.445 112.74 727.584 114.735L727.665 115.893L731.815 115.602L731.754 114.725C731.441 110.255 729.068 107.855 724.799 108.154C720.529 108.452 718.513 111.159 718.825 115.629Z" fill="white"/>
<path d="M1217.64 87.0475C1213.37 86.4603 1209.86 83.4049 1208.69 79.2637C1208.46 78.4653 1207.7 77.9348 1206.88 77.9927C1206.05 78.0506 1205.37 78.6808 1205.26 79.5031C1204.67 83.7676 1201.62 87.2823 1197.48 88.4572C1196.68 88.6836 1196.15 89.4389 1196.21 90.2668C1196.26 91.0947 1196.89 91.7687 1197.72 91.8819C1201.98 92.4691 1205.5 95.5244 1206.67 99.6657C1206.9 100.464 1207.65 100.995 1208.48 100.937C1209.31 100.879 1209.98 100.249 1210.09 99.4262C1210.68 95.1617 1213.74 91.647 1217.88 90.4723C1218.68 90.2457 1219.21 89.4905 1219.15 88.6626C1219.09 87.8347 1218.46 87.1606 1217.64 87.0475Z" fill="white"/>
<path d="M878.072 113.795L883.06 113.447L883.897 125.417L888.366 125.105L886.413 97.1731L881.944 97.4856L882.781 109.456L877.793 109.805L876.956 97.8344L872.567 98.1414L874.52 126.073L878.909 125.766L878.072 113.795ZM900.529 96.1861L894.104 96.6353L891.588 124.88L895.619 124.598L896.022 119.477L901.409 119.1L902.522 124.115L906.951 123.805L900.529 96.1861ZM897.443 101.374L900.546 115.352L896.316 115.647L897.443 101.374ZM914.304 95.2228L908.199 95.6497L910.152 123.581L913.983 123.314L912.602 103.562L917.255 123.085L921.405 122.795L923.037 102.551L924.437 122.583L928.587 122.292L926.634 94.3606L920.529 94.7875L918.923 114.828L914.304 95.2228ZM930.934 100.796C931.492 108.777 940.146 109.254 940.548 115C940.688 116.995 939.86 117.775 938.464 117.873C937.067 117.97 936.139 117.313 935.999 115.318L935.86 113.323L931.71 113.613L931.83 115.329C932.142 119.798 934.556 122.196 938.865 121.894C943.175 121.593 945.231 118.883 944.918 114.414C944.36 106.434 935.706 105.956 935.304 100.21C935.164 98.2149 935.909 97.401 937.306 97.3033C938.702 97.2057 939.554 97.908 939.693 99.9031L939.774 101.06L943.924 100.77L943.862 99.8923C943.55 95.4232 941.177 93.0229 936.907 93.3214C932.638 93.62 930.622 96.3272 930.934 100.796ZM946.148 97.0058L950.736 96.685L952.411 120.626L956.8 120.32L955.126 96.378L959.714 96.0571L959.435 92.0669L945.869 93.0156L946.148 97.0058ZM967.234 95.5313L974.815 95.0012L974.536 91.0109L962.566 91.848L964.519 119.78L976.49 118.943L976.211 114.952L968.629 115.483L968.057 107.303L974.082 106.881L973.803 102.891L967.778 103.312L967.234 95.5313ZM994.053 117.715C993.542 116.708 993.432 115.713 993.337 114.356L993.036 110.047C992.832 107.134 991.966 105.069 989.707 104.305C991.598 103.251 992.385 101.311 992.184 98.438L992.031 96.2433C991.729 91.9339 989.626 89.9558 985.077 90.2738L978.453 90.737L980.407 118.669L984.796 118.362L984.001 106.99L985.517 106.884C987.512 106.744 988.457 107.64 988.638 110.234L988.945 114.623C989.104 116.898 989.295 117.326 989.584 118.027L994.053 117.715ZM985.237 94.2725C986.793 94.1637 987.532 94.9941 987.672 96.9892L987.865 99.7425C988.021 101.977 987.073 102.765 985.437 102.879L983.722 102.999L983.122 94.4204L985.237 94.2725ZM995.615 96.2734C996.173 104.254 1004.83 104.731 1005.23 110.477C1005.37 112.472 1004.54 113.252 1003.14 113.35C1001.75 113.447 1000.82 112.791 1000.68 110.795L1000.54 108.8L996.391 109.09L996.511 110.806C996.824 115.275 999.237 117.673 1003.55 117.372C1007.86 117.07 1009.91 114.36 1009.6 109.891C1009.04 101.911 1000.39 101.433 999.985 95.6871C999.845 93.692 1000.59 92.878 1001.99 92.7804C1003.38 92.6827 1004.23 93.3851 1004.37 95.3802L1004.46 96.5374L1008.6 96.2472L1008.54 95.3693C1008.23 90.9002 1005.86 88.4999 1001.59 88.7985C997.319 89.0971 995.303 91.8043 995.615 96.2734ZM1022.49 87.6576L1018.06 87.9673L1024.32 115.598L1030.87 115.14L1033.23 86.907L1029.2 87.1888L1027.44 110.208L1022.49 87.6576ZM1036.38 93.4227C1036.94 101.403 1045.59 101.881 1046 107.627C1046.13 109.622 1045.31 110.401 1043.91 110.499C1042.51 110.597 1041.59 109.94 1041.45 107.945L1041.31 105.95L1037.16 106.24L1037.28 107.956C1037.59 112.425 1040 114.822 1044.31 114.521C1048.62 114.22 1050.68 111.51 1050.37 107.04C1049.81 99.0599 1041.15 98.5825 1040.75 92.8365C1040.61 90.8414 1041.36 90.0274 1042.75 89.9297C1044.15 89.8321 1045 90.5344 1045.14 92.5296L1045.22 93.6867L1049.37 93.3965L1049.31 92.5187C1049 88.0496 1046.62 85.6493 1042.35 85.9479C1038.08 86.2464 1036.07 88.9536 1036.38 93.4227ZM1066.61 84.5726L1059.99 85.0357L1061.94 112.968L1068.84 112.485C1073.23 112.178 1075.34 109.705 1075.04 105.395L1074.88 103.121C1074.68 100.168 1073.61 98.1171 1071.19 97.364C1073.08 96.3095 1073.83 94.4126 1073.63 91.5396L1073.56 90.5421C1073.26 86.2326 1071.16 84.2545 1066.61 84.5726ZM1067.4 99.9546C1069.4 99.8151 1070.29 100.555 1070.47 103.148L1070.64 105.582C1070.79 107.657 1070.04 108.391 1068.56 108.495L1066.05 108.67L1065.45 100.091L1067.4 99.9546ZM1066.77 88.5712C1068.32 88.4624 1069.06 89.2928 1069.2 91.2879L1069.31 92.8441C1069.47 95.0787 1068.52 95.8667 1066.89 95.9811L1065.17 96.101L1064.65 88.7191L1066.77 88.5712ZM1077.19 83.8324L1078.68 105.101C1078.99 109.57 1081.41 111.967 1085.72 111.666C1090.03 111.364 1092.08 108.654 1091.77 104.185L1090.28 82.9172L1086.13 83.2074L1087.64 104.755C1087.78 106.75 1086.95 107.53 1085.55 107.627C1084.16 107.725 1083.23 107.068 1083.09 105.073L1081.58 83.5255L1077.19 83.8324ZM1096.44 110.555L1108.05 109.743L1107.77 105.753L1100.55 106.258L1098.88 82.3161L1094.49 82.623L1096.44 110.555ZM1111.16 109.526L1122.77 108.714L1122.49 104.723L1115.27 105.228L1113.6 81.2869L1109.21 81.5938L1111.16 109.526ZM1123.84 87.3073C1124.39 95.2878 1133.05 95.7652 1133.45 101.511C1133.59 103.506 1132.76 104.286 1131.37 104.384C1129.97 104.481 1129.04 103.824 1128.9 101.829L1128.76 99.8342L1124.61 100.124L1124.73 101.84C1125.04 106.309 1127.46 108.707 1131.77 108.405C1136.08 108.104 1138.13 105.394 1137.82 100.925C1137.26 92.9445 1128.61 92.467 1128.21 86.721C1128.07 84.7259 1128.81 83.9119 1130.21 83.8143C1131.6 83.7166 1132.46 84.419 1132.6 86.4141L1132.68 87.5713L1136.83 87.2811L1136.76 86.4032C1136.45 81.9341 1134.08 79.5338 1129.81 79.8324C1125.54 80.131 1123.52 82.8382 1123.84 87.3073Z" fill="white"/>
<path d="M1622.65 58.7262C1618.39 58.139 1614.87 55.0836 1613.7 50.9424C1613.47 50.144 1612.71 49.6135 1611.89 49.6714C1611.06 49.7293 1610.38 50.3596 1610.27 51.1818C1609.68 55.4463 1606.63 58.961 1602.49 60.1359C1601.69 60.3623 1601.16 61.1176 1601.22 61.9455C1601.27 62.7734 1601.9 63.4474 1602.73 63.5607C1606.99 64.1478 1610.51 67.2031 1611.68 71.3444C1611.91 72.1428 1612.66 72.6733 1613.49 72.6154C1614.32 72.5575 1614.99 71.9273 1615.11 71.1049C1615.69 66.8404 1618.75 63.3257 1622.89 62.151C1623.69 61.9244 1624.22 61.1692 1624.16 60.3413C1624.1 59.5134 1623.47 58.8393 1622.65 58.7262Z" fill="white"/>
<path d="M1283.08 85.4742L1288.07 85.1254L1288.91 97.0961L1293.38 96.7836L1291.42 68.8518L1286.95 69.1644L1287.79 81.1351L1282.8 81.4839L1281.97 69.5131L1277.58 69.8201L1279.53 97.7519L1283.92 97.4449L1283.08 85.4742ZM1305.54 67.8648L1299.12 68.314L1296.6 96.5583L1300.63 96.2765L1301.03 91.1558L1306.42 90.7792L1307.53 95.7938L1311.96 95.4841L1305.54 67.8648ZM1302.45 73.0526L1305.56 87.0303L1301.33 87.326L1302.45 73.0526ZM1319.32 66.9015L1313.21 67.3284L1315.16 95.2602L1318.99 94.9923L1317.61 75.2406L1322.27 94.7635L1326.42 94.4733L1328.05 74.2302L1329.45 94.2613L1333.6 93.9711L1331.64 66.0393L1325.54 66.4662L1323.93 86.5071L1319.32 66.9015ZM1335.95 72.475C1336.5 80.4555 1345.16 80.933 1345.56 86.679C1345.7 88.6741 1344.87 89.4537 1343.47 89.5514C1342.08 89.6491 1341.15 88.9922 1341.01 86.9971L1340.87 85.0019L1336.72 85.2921L1336.84 87.0079C1337.15 91.477 1339.57 93.8745 1343.88 93.5732C1348.19 93.2718 1350.24 90.5618 1349.93 86.0927C1349.37 78.1122 1340.72 77.6348 1340.31 71.8888C1340.18 69.8937 1340.92 69.0797 1342.32 68.982C1343.71 68.8844 1344.56 69.5867 1344.7 71.5819L1344.78 72.739L1348.93 72.4488L1348.87 71.571C1348.56 67.1019 1346.19 64.7016 1341.92 65.0002C1337.65 65.2987 1335.63 68.0059 1335.95 72.475ZM1351.16 68.6845L1355.75 68.3637L1357.42 92.3052L1361.81 91.9983L1360.14 68.0567L1364.73 67.7359L1364.45 63.7456L1350.88 64.6943L1351.16 68.6845ZM1372.24 67.21L1379.83 66.6799L1379.55 62.6896L1367.58 63.5267L1369.53 91.4585L1381.5 90.6214L1381.22 86.6312L1373.64 87.1613L1373.07 78.9813L1379.09 78.56L1378.81 74.5697L1372.79 74.991L1372.24 67.21ZM1399.06 89.3933C1398.55 88.3865 1398.44 87.3917 1398.35 86.035L1398.05 81.7256C1397.84 78.8127 1396.98 76.7481 1394.72 75.9838C1396.61 74.9293 1397.4 72.9897 1397.2 70.1167L1397.04 67.9221C1396.74 63.6126 1394.64 61.6345 1390.09 61.9526L1383.46 62.4157L1385.42 90.3475L1389.81 90.0406L1389.01 78.6684L1390.53 78.5623C1392.52 78.4228 1393.47 79.3191 1393.65 81.9128L1393.96 86.3021C1394.12 88.5765 1394.31 89.0043 1394.6 89.7058L1399.06 89.3933ZM1390.25 65.9512C1391.8 65.8424 1392.54 66.6728 1392.68 68.6679L1392.88 71.4212C1393.03 73.6557 1392.08 74.4437 1390.45 74.5581L1388.73 74.6781L1388.13 66.0991L1390.25 65.9512ZM1400.63 67.9521C1401.18 75.9326 1409.84 76.4101 1410.24 82.156C1410.38 84.1512 1409.55 84.9308 1408.16 85.0284C1406.76 85.1261 1405.83 84.4692 1405.69 82.4741L1405.55 80.479L1401.4 80.7692L1401.52 82.485C1401.83 86.9541 1404.25 89.3516 1408.56 89.0502C1412.87 88.7489 1414.92 86.0389 1414.61 81.5698C1414.05 73.5893 1405.4 73.1118 1405 67.3658C1404.86 65.3707 1405.6 64.5568 1407 64.4591C1408.39 64.3614 1409.25 65.0638 1409.39 67.0589L1409.47 68.2161L1413.62 67.9259L1413.55 67.048C1413.24 62.579 1410.87 60.1787 1406.6 60.4772C1402.33 60.7758 1400.31 63.483 1400.63 67.9521ZM1427.5 59.3363L1423.07 59.646L1429.34 87.2765L1435.88 86.8189L1438.24 58.5857L1434.21 58.8675L1432.45 81.8863L1427.5 59.3363ZM1441.39 65.1014C1441.95 73.082 1450.6 73.5594 1451.01 79.3054C1451.15 81.3005 1450.32 82.0801 1448.92 82.1778C1447.53 82.2755 1446.6 81.6186 1446.46 79.6235L1446.32 77.6283L1442.17 77.9185L1442.29 79.6343C1442.6 84.1034 1445.01 86.5009 1449.32 86.1996C1453.63 85.8982 1455.69 83.1882 1455.38 78.7191C1454.82 70.7386 1446.16 70.2612 1445.76 64.5152C1445.62 62.5201 1446.37 61.7061 1447.76 61.6085C1449.16 61.5108 1450.01 62.2131 1450.15 64.2083L1450.23 65.3654L1454.38 65.0753L1454.32 64.1974C1454.01 59.7283 1451.63 57.328 1447.37 57.6266C1443.1 57.9251 1441.08 60.6324 1441.39 65.1014ZM1471.62 56.2513L1465 56.7145L1466.95 84.6463L1473.85 84.1635C1478.24 83.8566 1480.35 81.3832 1480.05 77.0737L1479.89 74.7993C1479.69 71.8465 1478.62 69.7958 1476.2 69.0427C1478.09 67.9882 1478.84 66.0913 1478.64 63.2183L1478.57 62.2208C1478.27 57.9113 1476.17 55.9332 1471.62 56.2513ZM1472.42 71.6333C1474.41 71.4938 1475.3 72.2332 1475.49 74.8269L1475.66 77.261C1475.8 79.3359 1475.05 80.07 1473.57 80.1733L1471.06 80.3491L1470.46 71.77L1472.42 71.6333ZM1471.78 60.2499C1473.34 60.1411 1474.08 60.9715 1474.22 62.9666L1474.32 64.5228C1474.48 66.7574 1473.53 67.5454 1471.9 67.6598L1470.18 67.7798L1469.66 60.3978L1471.78 60.2499ZM1482.2 55.5112L1483.69 76.7792C1484 81.2483 1486.42 83.6458 1490.73 83.3445C1495.04 83.0431 1497.09 80.3331 1496.78 75.864L1495.29 54.596L1491.14 54.8861L1492.65 76.4335C1492.79 78.4287 1491.96 79.2083 1490.56 79.3059C1489.17 79.4036 1488.24 78.7467 1488.1 76.7516L1486.59 55.2042L1482.2 55.5112ZM1501.45 82.2335L1513.06 81.4216L1512.79 77.4313L1505.56 77.9364L1503.89 53.9948L1499.5 54.3018L1501.45 82.2335ZM1516.17 81.2043L1527.78 80.3923L1527.5 76.4021L1520.28 76.9071L1518.61 52.9656L1514.22 53.2725L1516.17 81.2043ZM1528.85 58.986C1529.41 66.9665 1538.06 67.444 1538.46 73.1899C1538.6 75.1851 1537.77 75.9647 1536.38 76.0623C1534.98 76.16 1534.05 75.5031 1533.91 73.508L1533.77 71.5129L1529.62 71.8031L1529.74 73.5189C1530.06 77.988 1532.47 80.3855 1536.78 80.0841C1541.09 79.7828 1543.14 77.0728 1542.83 72.6037C1542.27 64.6232 1533.62 64.1457 1533.22 58.3997C1533.08 56.4046 1533.82 55.5906 1535.22 55.493C1536.62 55.3953 1537.47 56.0977 1537.61 58.0928L1537.69 59.25L1541.84 58.9598L1541.78 58.0819C1541.46 53.6128 1539.09 51.2125 1534.82 51.5111C1530.55 51.8097 1528.53 54.5169 1528.85 58.986Z" fill="white"/>
<path d="M1688.09 57.1534L1693.08 56.8046L1693.92 68.7753L1698.39 68.4628L1696.43 40.531L1691.97 40.8435L1692.8 52.8143L1687.81 53.1631L1686.98 41.1923L1682.59 41.4993L1684.54 69.4311L1688.93 69.1241L1688.09 57.1534ZM1710.55 39.544L1704.13 39.9932L1701.61 68.2375L1705.64 67.9557L1706.04 62.835L1711.43 62.4584L1712.54 67.473L1716.97 67.1633L1710.55 39.544ZM1707.47 44.7318L1710.57 58.7095L1706.34 59.0052L1707.47 44.7318ZM1724.33 38.5807L1718.22 39.0076L1720.17 66.9394L1724 66.6715L1722.62 46.9198L1727.28 66.4427L1731.43 66.1525L1733.06 45.9094L1734.46 65.9405L1738.61 65.6503L1736.66 37.7185L1730.55 38.1454L1728.94 58.1863L1724.33 38.5807ZM1740.96 44.1542C1741.51 52.1347 1750.17 52.6122 1750.57 58.3582C1750.71 60.3533 1749.88 61.1329 1748.49 61.2306C1747.09 61.3283 1746.16 60.6714 1746.02 58.6763L1745.88 56.6811L1741.73 56.9713L1741.85 58.6871C1742.16 63.1562 1744.58 65.5537 1748.89 65.2524C1753.2 64.951 1755.25 62.241 1754.94 57.7719C1754.38 49.7914 1745.73 49.3139 1745.33 43.568C1745.19 41.5729 1745.93 40.7589 1747.33 40.6612C1748.72 40.5636 1749.58 41.2659 1749.72 43.2611L1749.8 44.4182L1753.95 44.128L1753.88 43.2502C1753.57 38.7811 1751.2 36.3808 1746.93 36.6794C1742.66 36.9779 1740.64 39.6851 1740.96 44.1542ZM1756.17 40.3637L1760.76 40.0429L1762.43 63.9844L1766.82 63.6775L1765.15 39.7359L1769.74 39.4151L1769.46 35.4248L1755.89 36.3735L1756.17 40.3637ZM1777.26 38.8892L1784.84 38.3591L1784.56 34.3688L1772.59 35.2059L1774.54 63.1377L1786.51 62.3006L1786.23 58.3104L1778.65 58.8405L1778.08 50.6605L1784.1 50.2392L1783.83 46.2489L1777.8 46.6702L1777.26 38.8892ZM1804.08 61.0725C1803.56 60.0657 1803.45 59.0709 1803.36 57.7142L1803.06 53.4048C1802.85 50.4919 1801.99 48.4273 1799.73 47.663C1801.62 46.6085 1802.41 44.6689 1802.21 41.7959L1802.05 39.6013C1801.75 35.2918 1799.65 33.3137 1795.1 33.6318L1788.48 34.0949L1790.43 62.0267L1794.82 61.7198L1794.02 50.3476L1795.54 50.2415C1797.53 50.102 1798.48 50.9983 1798.66 53.592L1798.97 57.9813C1799.13 60.2557 1799.32 60.6835 1799.61 61.385L1804.08 61.0725ZM1795.26 37.6304C1796.81 37.5216 1797.55 38.352 1797.69 40.3471L1797.89 43.1004C1798.04 45.3349 1797.1 46.1229 1795.46 46.2373L1793.74 46.3573L1793.14 37.7783L1795.26 37.6304ZM1805.64 39.6313C1806.2 47.6118 1814.85 48.0893 1815.25 53.8352C1815.39 55.8304 1814.56 56.61 1813.17 56.7076C1811.77 56.8053 1810.84 56.1484 1810.7 54.1533L1810.56 52.1582L1806.41 52.4484L1806.53 54.1642C1806.85 58.6333 1809.26 61.0308 1813.57 60.7294C1817.88 60.4281 1819.93 57.7181 1819.62 53.249C1819.06 45.2685 1810.41 44.791 1810.01 39.045C1809.87 37.0499 1810.61 36.236 1812.01 36.1383C1813.41 36.0406 1814.26 36.743 1814.4 38.7381L1814.48 39.8953L1818.63 39.6051L1818.57 38.7272C1818.25 34.2582 1815.88 31.8579 1811.61 32.1564C1807.34 32.455 1805.32 35.1622 1805.64 39.6313ZM1832.51 31.0155L1828.08 31.3252L1834.35 58.9557L1840.89 58.4981L1843.25 30.2649L1839.22 30.5467L1837.46 53.5655L1832.51 31.0155ZM1846.4 36.7806C1846.96 44.7612 1855.62 45.2386 1856.02 50.9846C1856.16 52.9797 1855.33 53.7593 1853.93 53.857C1852.54 53.9547 1851.61 53.2978 1851.47 51.3027L1851.33 49.3075L1847.18 49.5977L1847.3 51.3135C1847.61 55.7826 1850.02 58.1801 1854.33 57.8788C1858.64 57.5774 1860.7 54.8674 1860.39 50.3983C1859.83 42.4178 1851.17 41.9404 1850.77 36.1944C1850.63 34.1993 1851.38 33.3853 1852.78 33.2877C1854.17 33.19 1855.02 33.8923 1855.16 35.8875L1855.24 37.0446L1859.39 36.7545L1859.33 35.8766C1859.02 31.4075 1856.65 29.0072 1852.38 29.3058C1848.11 29.6043 1846.09 32.3116 1846.4 36.7806ZM1876.63 27.9305L1870.01 28.3937L1871.96 56.3255L1878.86 55.8427C1883.25 55.5358 1885.37 53.0624 1885.06 48.7529L1884.91 46.4785C1884.7 43.5257 1883.63 41.475 1881.21 40.7219C1883.11 39.6674 1883.86 37.7705 1883.65 34.8975L1883.58 33.9C1883.28 29.5905 1881.18 27.6124 1876.63 27.9305ZM1877.43 43.3125C1879.42 43.173 1880.32 43.9124 1880.5 46.5061L1880.67 48.9402C1880.81 51.0151 1880.06 51.7492 1878.58 51.8525L1876.07 52.0283L1875.47 43.4492L1877.43 43.3125ZM1876.79 31.9291C1878.35 31.8203 1879.09 32.6507 1879.23 34.6458L1879.33 36.202C1879.49 38.4366 1878.54 39.2246 1876.91 39.339L1875.19 39.459L1874.68 32.077L1876.79 31.9291ZM1887.22 27.1904L1888.7 48.4584C1889.02 52.9275 1891.43 55.325 1895.74 55.0237C1900.05 54.7223 1902.1 52.0123 1901.79 47.5432L1900.3 26.2752L1896.15 26.5653L1897.66 48.1127C1897.8 50.1079 1896.97 50.8875 1895.58 50.9851C1894.18 51.0828 1893.25 50.4259 1893.11 48.4308L1891.6 26.8834L1887.22 27.1904ZM1906.46 53.9127L1918.08 53.1008L1917.8 49.1105L1910.57 49.6156L1908.9 25.674L1904.51 25.981L1906.46 53.9127ZM1921.18 52.8835L1932.79 52.0715L1932.52 48.0813L1925.29 48.5863L1923.62 24.6448L1919.23 24.9517L1921.18 52.8835ZM1933.86 30.6652C1934.42 38.6457 1943.07 39.1232 1943.47 44.8691C1943.61 46.8643 1942.78 47.6439 1941.39 47.7415C1939.99 47.8392 1939.06 47.1823 1938.92 45.1872L1938.78 43.1921L1934.63 43.4823L1934.75 45.1981C1935.07 49.6672 1937.48 52.0647 1941.79 51.7633C1946.1 51.462 1948.15 48.752 1947.84 44.2829C1947.28 36.3024 1938.63 35.8249 1938.23 30.0789C1938.09 28.0838 1938.83 27.2698 1940.23 27.1722C1941.63 27.0745 1942.48 27.7769 1942.62 29.772L1942.7 30.9292L1946.85 30.639L1946.79 29.7611C1946.47 25.292 1944.1 22.8917 1939.83 23.1903C1935.56 23.4889 1933.55 26.1961 1933.86 30.6652Z" fill="white"/>
<rect x="-64.4991" y="71.4131" width="2056.41" height="86" transform="rotate(3 -64.4991 71.4131)" fill="#EF1D00"/>
<path d="M1305.8 181.95C1301.64 180.848 1298.53 177.387 1297.86 173.133C1297.74 172.313 1297.05 171.695 1296.22 171.651C1295.39 171.608 1294.65 172.151 1294.44 172.953C1293.33 177.115 1289.87 180.231 1285.62 180.892C1284.8 181.02 1284.18 181.705 1284.14 182.533C1284.09 183.362 1284.64 184.108 1285.44 184.321C1289.6 185.423 1292.72 188.884 1293.38 193.138C1293.51 193.958 1294.19 194.576 1295.02 194.62C1295.85 194.663 1296.59 194.12 1296.81 193.317C1297.91 189.156 1301.37 186.04 1305.62 185.379C1306.44 185.251 1307.06 184.566 1307.11 183.737C1307.15 182.909 1306.61 182.163 1305.8 181.95Z" fill="white"/>
<path d="M712.055 137.77L703.966 137.346L702.134 172.298L707.626 172.586L708.315 159.454L710.911 159.59C716.404 159.878 719.26 156.973 719.553 151.381L719.791 146.837C720.084 141.245 717.547 138.058 712.055 137.77ZM711.793 142.763C713.541 142.855 714.447 143.703 714.317 146.2L714.042 151.443C713.911 153.939 712.92 154.689 711.173 154.597L708.576 154.461L709.197 142.627L711.793 142.763ZM739.774 174.271C739.293 172.944 739.308 171.693 739.397 169.995L739.68 164.603C739.871 160.958 739.111 158.264 736.425 156.972C738.932 155.952 740.203 153.665 740.392 150.07L740.536 147.324C740.818 141.931 738.51 139.157 732.818 138.858L724.529 138.424L722.698 173.376L728.19 173.664L728.936 159.433L730.833 159.533C733.33 159.664 734.366 160.919 734.195 164.165L733.908 169.657C733.758 172.504 733.929 173.063 734.182 173.978L739.774 174.271ZM732.407 143.844C734.354 143.946 735.145 145.089 735.014 147.585L734.834 151.03C734.687 153.827 733.392 154.66 731.345 154.553L729.198 154.44L729.76 143.705L732.407 143.844ZM750.739 147.858C750.87 145.362 752.018 144.471 753.765 144.562C755.513 144.654 756.562 145.66 756.431 148.157L755.442 167.031C755.311 169.527 754.163 170.419 752.415 170.327C750.667 170.235 749.619 169.229 749.75 166.733L750.739 147.858ZM744.275 166.095C743.982 171.688 746.761 175.038 752.153 175.32C757.546 175.603 760.659 172.562 760.953 166.969L761.905 148.794C762.198 143.202 759.42 139.852 754.027 139.569C748.634 139.287 745.521 142.328 745.228 147.92L744.275 166.095ZM784.952 141.59L776.663 141.156L774.831 176.108L783.469 176.561C788.962 176.849 791.96 174.102 792.242 168.709L792.391 165.863C792.585 162.168 791.575 159.462 788.69 158.159C791.196 157.139 792.415 154.899 792.604 151.304L792.669 150.056C792.952 144.663 790.644 141.889 784.952 141.59ZM783.595 160.796C786.091 160.927 787.087 161.98 786.917 165.226L786.758 168.272C786.622 170.868 785.578 171.664 783.731 171.568L780.585 171.403L781.148 160.668L783.595 160.796ZM784.54 146.576C786.487 146.678 787.279 147.821 787.148 150.317L787.046 152.265C786.899 155.061 785.604 155.894 783.557 155.787L781.41 155.674L781.894 146.437L784.54 146.576ZM796.614 177.25L811.144 178.011L811.405 173.018L802.368 172.544L803.938 142.585L798.445 142.298L796.614 177.25ZM821.485 151.566C821.616 149.07 822.764 148.178 824.512 148.27C826.26 148.362 827.308 149.368 827.178 151.864L826.188 170.739C826.058 173.235 824.909 174.126 823.162 174.035C821.414 173.943 820.365 172.937 820.496 170.44L821.485 151.566ZM815.022 169.803C814.729 175.395 817.507 178.745 822.9 179.028C828.293 179.31 831.406 176.269 831.699 170.677L832.652 152.502C832.945 146.909 830.166 143.559 824.774 143.277C819.381 142.994 816.268 146.035 815.975 151.628L815.022 169.803ZM847.745 166.861L847.483 171.855C847.353 174.351 846.207 175.192 844.459 175.101C842.712 175.009 841.66 174.053 841.791 171.556L842.78 152.682C842.911 150.186 844.059 149.294 845.807 149.386C847.555 149.478 848.603 150.484 848.473 152.98L848.276 156.725L853.469 156.997L853.647 153.602C853.94 148.01 851.311 144.668 845.919 144.385C840.526 144.102 837.563 147.152 837.27 152.744L836.317 170.919C836.024 176.511 838.653 179.853 844.045 180.136C849.438 180.419 852.401 177.37 852.695 171.777L852.938 167.134L847.745 166.861ZM869.618 181.076L875.26 181.371L868.636 161.598L877.092 146.419L871.6 146.131L863.612 160.984L864.41 145.755L858.917 145.467L857.085 180.419L862.578 180.707L863.141 169.971L865.006 166.865L869.618 181.076ZM890.335 169.093L890.073 174.087C889.943 176.583 888.797 177.424 887.049 177.333C885.302 177.241 884.25 176.285 884.381 173.788L885.37 154.914C885.501 152.418 886.649 151.527 888.397 151.618C890.145 151.71 891.193 152.716 891.063 155.213L890.866 158.957L896.059 159.23L896.237 155.834C896.53 150.242 893.901 146.9 888.509 146.617C883.116 146.334 880.153 149.384 879.86 154.976L878.907 173.151C878.614 178.743 881.243 182.085 886.635 182.368C892.028 182.651 894.991 179.602 895.285 174.009L895.528 169.366L890.335 169.093ZM905.953 167.959L912.194 168.286L911.409 183.266L917.002 183.559L918.833 148.607L913.241 148.314L912.456 163.293L906.215 162.966L907 147.987L901.507 147.699L899.675 182.651L905.168 182.939L905.953 167.959ZM936.497 149.533L928.458 149.111L921.034 183.77L926.077 184.035L927.358 177.743L934.099 178.096L934.715 184.487L940.258 184.778L936.497 149.533ZM931.878 155.499L933.598 173.313L928.306 173.036L931.878 155.499ZM944.313 184.99L949.806 185.278L951.638 150.326L946.145 150.038L944.313 184.99ZM967.054 186.182L972.696 186.478L974.528 151.526L969.634 151.269L968.538 172.191L963.992 150.974L957.102 150.612L955.27 185.564L960.213 185.824L961.54 160.508L967.054 186.182ZM996.799 152.693L989.159 152.292L987.327 187.245L992.121 187.496L993.416 162.78L996.215 187.71L1001.41 187.982L1006.52 163.116L1005.2 188.181L1010.4 188.453L1012.23 153.501L1004.59 153.101L999.543 177.721L996.799 152.693ZM1022.95 159.07L1032.44 159.568L1032.7 154.574L1017.72 153.789L1015.89 188.741L1030.87 189.526L1031.13 184.533L1021.64 184.036L1022.18 173.8L1029.72 174.195L1029.98 169.202L1022.44 168.807L1022.95 159.07ZM1035.77 189.783L1044.46 190.239C1049.95 190.526 1052.81 187.622 1053.1 182.03L1054.03 164.354C1054.32 158.762 1051.78 155.574 1046.29 155.287L1037.6 154.831L1035.77 189.783ZM1045.93 160.275C1047.68 160.366 1048.68 161.32 1048.55 163.816L1047.59 181.991C1047.46 184.488 1046.37 185.332 1044.62 185.24L1041.52 185.078L1042.83 160.112L1045.93 160.275ZM1057.65 190.93L1063.14 191.218L1064.97 156.266L1059.48 155.978L1057.65 190.93ZM1082.67 157.193L1074.63 156.772L1067.21 191.431L1072.25 191.695L1073.53 185.404L1080.27 185.757L1080.89 192.148L1086.43 192.438L1082.67 157.193ZM1078.05 163.16L1079.77 180.974L1074.48 180.697L1078.05 163.16ZM1113.75 158.822L1105.71 158.401L1098.29 193.06L1103.33 193.324L1104.61 187.033L1111.36 187.386L1111.97 193.777L1117.51 194.067L1113.75 158.822ZM1109.14 164.789L1110.86 182.603L1105.56 182.326L1109.14 164.789ZM1130.57 180.232L1133.06 180.362L1132.73 186.804C1132.6 189.3 1131.45 190.141 1129.7 190.05C1127.96 189.958 1126.9 189.002 1127.03 186.505L1128.02 167.631C1128.15 165.135 1129.3 164.243 1131.05 164.335C1132.8 164.427 1133.85 165.433 1133.72 167.929L1133.52 171.674L1138.71 171.946L1138.89 168.551C1139.18 162.959 1136.55 159.617 1131.16 159.334C1125.77 159.051 1122.81 162.1 1122.51 167.693L1121.56 185.868C1121.27 191.46 1123.9 194.802 1129.29 195.085C1134.68 195.368 1137.64 192.318 1137.94 186.726L1138.52 175.641L1130.83 175.238L1130.57 180.232ZM1149.59 165.707L1159.07 166.204L1159.33 161.211L1144.36 160.426L1142.52 195.378L1157.5 196.163L1157.76 191.17L1148.28 190.673L1148.81 180.437L1156.35 180.832L1156.62 175.839L1149.08 175.444L1149.59 165.707ZM1174.14 197.035L1179.78 197.331L1181.61 162.379L1176.72 162.122L1175.62 183.043L1171.08 161.826L1164.19 161.465L1162.35 196.417L1167.3 196.676L1168.62 171.361L1174.14 197.035ZM1196.63 185.146L1196.37 190.139C1196.24 192.635 1195.09 193.477 1193.34 193.385C1191.6 193.293 1190.54 192.337 1190.68 189.841L1191.66 170.966C1191.8 168.47 1192.94 167.579 1194.69 167.67C1196.44 167.762 1197.49 168.768 1197.36 171.265L1197.16 175.01L1202.35 175.282L1202.53 171.886C1202.82 166.294 1200.2 162.952 1194.8 162.669C1189.41 162.387 1186.45 165.436 1186.15 171.028L1185.2 189.203C1184.91 194.795 1187.54 198.138 1192.93 198.42C1198.32 198.703 1201.29 195.654 1201.58 190.061L1201.82 185.418L1196.63 185.146ZM1210.58 198.945L1216.07 199.232L1216.68 187.648L1224.84 164.644L1219.6 164.369L1214.57 180.078L1211.21 163.93L1205.47 163.629L1211.18 187.36L1210.58 198.945Z" fill="white"/>
<path d="M639.718 147.042C635.556 145.939 632.44 142.479 631.779 138.225C631.651 137.405 630.967 136.786 630.138 136.743C629.309 136.7 628.563 137.243 628.35 138.045C627.248 142.206 623.787 145.323 619.534 145.984C618.713 146.111 618.095 146.796 618.051 147.625C618.008 148.454 618.552 149.2 619.354 149.412C623.515 150.515 626.631 153.976 627.292 158.229C627.42 159.049 628.105 159.668 628.934 159.711C629.763 159.755 630.508 159.211 630.721 158.409C631.824 154.248 635.284 151.132 639.538 150.47C640.358 150.343 640.976 149.658 641.02 148.829C641.063 148 640.52 147.255 639.718 147.042Z" fill="white"/>
<path d="M45.9687 102.862L37.8798 102.438L36.0481 137.39L41.5405 137.678L42.2288 124.546L44.8252 124.682C50.3177 124.97 53.1736 122.065 53.4667 116.473L53.7048 111.929C53.9979 106.337 51.4612 103.15 45.9687 102.862ZM45.7071 107.855C47.4547 107.947 48.3615 108.795 48.2307 111.292L47.9559 116.535C47.825 119.031 46.8345 119.78 45.0869 119.689L42.4904 119.553L43.1106 107.719L45.7071 107.855ZM73.6882 139.363C73.207 138.036 73.2225 136.785 73.3115 135.087L73.5941 129.694C73.7851 126.049 73.025 123.356 70.339 122.064C72.8458 121.043 74.1172 118.757 74.3056 115.162L74.4496 112.416C74.7322 107.023 72.4242 104.248 66.732 103.95L58.4434 103.516L56.6117 138.468L62.1041 138.756L62.8499 124.525L64.7473 124.624C67.2439 124.755 68.2796 126.011 68.1095 129.257L67.8216 134.749C67.6725 137.595 67.8434 138.155 68.0959 139.07L73.6882 139.363ZM66.3206 108.935C68.2679 109.037 69.0592 110.18 68.9283 112.677L68.7478 116.122C68.6012 118.918 67.3058 119.752 65.2586 119.644L63.1116 119.532L63.6742 108.797L66.3206 108.935ZM84.6528 112.95C84.7836 110.454 85.9318 109.563 87.6794 109.654C89.427 109.746 90.4758 110.752 90.3449 113.249L89.3558 132.123C89.225 134.619 88.0767 135.51 86.3291 135.419C84.5815 135.327 83.5328 134.321 83.6636 131.824L84.6528 112.95ZM78.1895 131.187C77.8964 136.779 80.6749 140.129 86.0675 140.412C91.4601 140.695 94.5735 137.653 94.8666 132.061L95.8191 113.886C96.1122 108.294 93.3337 104.944 87.9411 104.661C82.5485 104.378 79.4351 107.42 79.142 113.012L78.1895 131.187ZM118.866 106.682L110.577 106.248L108.745 141.2L117.383 141.653C122.876 141.94 125.874 139.194 126.156 133.801L126.305 130.955C126.499 127.26 125.489 124.553 122.604 123.251C125.11 122.23 126.329 119.991 126.518 116.396L126.583 115.148C126.866 109.755 124.558 106.981 118.866 106.682ZM117.509 125.888C120.005 126.018 121.001 127.072 120.831 130.317L120.672 133.363C120.536 135.96 119.492 136.756 117.645 136.659L114.499 136.495L115.062 125.759L117.509 125.888ZM118.454 111.668C120.401 111.77 121.193 112.913 121.062 115.409L120.96 117.356C120.813 120.153 119.518 120.986 117.471 120.879L115.324 120.766L115.808 111.529L118.454 111.668ZM130.528 142.341L145.058 143.103L145.32 138.11L136.282 137.636L137.852 107.677L132.36 107.389L130.528 142.341ZM155.399 116.658C155.53 114.161 156.678 113.27 158.426 113.362C160.174 113.453 161.222 114.46 161.092 116.956L160.102 135.83C159.972 138.327 158.823 139.218 157.076 139.126C155.328 139.035 154.279 138.029 154.41 135.532L155.399 116.658ZM148.936 134.895C148.643 140.487 151.422 143.837 156.814 144.12C162.207 144.402 165.32 141.361 165.613 135.769L166.566 117.594C166.859 112.001 164.08 108.651 158.688 108.369C153.295 108.086 150.182 111.127 149.889 116.72L148.936 134.895ZM181.659 131.953L181.397 136.946C181.267 139.443 180.121 140.284 178.373 140.193C176.626 140.101 175.574 139.145 175.705 136.648L176.694 117.774C176.825 115.277 177.973 114.386 179.721 114.478C181.469 114.569 182.517 115.576 182.387 118.072L182.19 121.817L187.383 122.089L187.561 118.694C187.854 113.102 185.226 109.759 179.833 109.477C174.44 109.194 171.477 112.243 171.184 117.836L170.231 136.011C169.938 141.603 172.567 144.945 177.959 145.228C183.352 145.51 186.316 142.461 186.609 136.869L186.852 132.225L181.659 131.953ZM203.532 146.167L209.175 146.463L202.55 126.689L211.006 111.511L205.514 111.223L197.526 126.076L198.324 110.846L192.831 110.559L190.999 145.511L196.492 145.798L197.055 135.063L198.92 131.957L203.532 146.167ZM224.249 134.185L223.987 139.178C223.857 141.675 222.711 142.516 220.963 142.425C219.216 142.333 218.164 141.377 218.295 138.88L219.284 120.006C219.415 117.509 220.563 116.618 222.311 116.71C224.059 116.801 225.107 117.808 224.977 120.304L224.78 124.049L229.973 124.321L230.151 120.926C230.444 115.334 227.816 111.992 222.423 111.709C217.03 111.426 214.067 114.475 213.774 120.068L212.821 138.243C212.528 143.835 215.157 147.177 220.549 147.46C225.942 147.742 228.906 144.693 229.199 139.101L229.442 134.457L224.249 134.185ZM239.867 133.051L246.108 133.378L245.323 148.358L250.916 148.651L252.747 113.699L247.155 113.406L246.37 128.385L240.129 128.058L240.914 113.078L235.421 112.791L233.589 147.743L239.082 148.031L239.867 133.051ZM270.411 114.624L262.372 114.203L254.948 148.862L259.991 149.126L261.272 142.835L268.013 143.188L268.629 149.579L274.172 149.87L270.411 114.624ZM265.793 120.591L267.513 138.405L262.22 138.128L265.793 120.591ZM278.227 150.082L283.72 150.37L285.552 115.418L280.059 115.13L278.227 150.082ZM300.968 151.274L306.61 151.57L308.442 116.617L303.548 116.361L302.452 137.282L297.906 116.065L291.016 115.704L289.184 150.656L294.127 150.915L295.454 125.6L300.968 151.274ZM330.713 117.785L323.073 117.384L321.241 152.336L326.035 152.588L327.33 127.871L330.129 152.802L335.322 153.074L340.431 128.208L339.117 153.273L344.31 153.545L346.142 118.593L338.502 118.193L333.457 142.813L330.713 117.785ZM356.866 124.162L366.353 124.659L366.614 119.666L351.635 118.881L349.803 153.833L364.782 154.618L365.044 149.625L355.557 149.128L356.094 138.892L363.633 139.287L363.895 134.294L356.355 133.899L356.866 124.162ZM369.684 154.875L378.372 155.33C383.864 155.618 386.72 152.714 387.014 147.121L387.94 129.446C388.233 123.853 385.696 120.666 380.204 120.378L371.516 119.923L369.684 154.875ZM379.842 125.366C381.59 125.458 382.591 126.412 382.46 128.908L381.508 147.083C381.377 149.58 380.281 150.424 378.534 150.332L375.438 150.17L376.747 125.204L379.842 125.366ZM391.564 156.022L397.057 156.31L398.888 121.358L393.396 121.07L391.564 156.022ZM416.586 122.285L408.547 121.864L401.122 156.523L406.166 156.787L407.447 150.495L414.187 150.849L414.804 157.24L420.346 157.53L416.586 122.285ZM411.967 128.252L413.687 146.066L408.394 145.789L411.967 128.252ZM447.668 123.914L439.629 123.493L432.205 158.152L437.248 158.416L438.529 152.124L445.27 152.478L445.886 158.869L451.428 159.159L447.668 123.914ZM443.049 129.88L444.769 147.695L439.477 147.418L443.049 129.88ZM464.482 145.323L466.978 145.454L466.641 151.895C466.51 154.392 465.364 155.233 463.617 155.142C461.869 155.05 460.818 154.094 460.949 151.597L461.938 132.723C462.069 130.226 463.217 129.335 464.964 129.427C466.712 129.518 467.761 130.525 467.63 133.021L467.434 136.766L472.627 137.038L472.804 133.643C473.098 128.051 470.469 124.708 465.076 124.426C459.684 124.143 456.72 127.192 456.427 132.785L455.474 150.96C455.181 156.552 457.81 159.894 463.203 160.177C468.595 160.459 471.559 157.41 471.852 151.818L472.433 140.733L464.743 140.33L464.482 145.323ZM483.5 130.799L492.987 131.296L493.249 126.303L478.27 125.518L476.438 160.47L491.417 161.255L491.679 156.262L482.192 155.765L482.728 145.529L490.268 145.924L490.53 140.931L482.99 140.535L483.5 130.799ZM508.053 162.127L513.695 162.422L515.527 127.47L510.633 127.214L509.537 148.135L504.991 126.918L498.101 126.557L496.269 161.509L501.212 161.768L502.539 136.453L508.053 162.127ZM530.544 150.237L530.282 155.231C530.151 157.727 529.005 158.568 527.258 158.477C525.51 158.385 524.459 157.429 524.59 154.932L525.579 136.058C525.71 133.562 526.858 132.671 528.606 132.762C530.353 132.854 531.402 133.86 531.271 136.357L531.075 140.101L536.268 140.374L536.446 136.978C536.739 131.386 534.11 128.044 528.717 127.761C523.325 127.478 520.361 130.528 520.068 136.12L519.116 154.295C518.823 159.887 521.451 163.229 526.844 163.512C532.236 163.795 535.2 160.746 535.493 155.153L535.736 150.51L530.544 150.237ZM544.491 164.036L549.983 164.324L550.59 152.74L558.755 129.736L553.512 129.461L548.483 145.169L545.124 129.021L539.382 128.721L545.098 152.452L544.491 164.036Z" fill="white"/>
<path d="M1378.14 172.678L1370.05 172.254L1368.22 207.206L1373.71 207.494L1374.4 194.362L1377 194.498C1382.49 194.786 1385.35 191.882 1385.64 186.289L1385.88 181.746C1386.17 176.153 1383.63 172.966 1378.14 172.678ZM1377.88 177.671C1379.63 177.763 1380.53 178.612 1380.4 181.108L1380.13 186.351C1380 188.848 1379.01 189.597 1377.26 189.505L1374.66 189.369L1375.28 177.535L1377.88 177.671ZM1405.86 209.179C1405.38 207.852 1405.39 206.601 1405.48 204.903L1405.77 199.511C1405.96 195.866 1405.2 193.172 1402.51 191.88C1405.02 190.86 1406.29 188.573 1406.48 184.978L1406.62 182.232C1406.9 176.839 1404.6 174.065 1398.9 173.766L1390.62 173.332L1388.78 208.284L1394.28 208.572L1395.02 194.341L1396.92 194.441C1399.42 194.572 1400.45 195.828 1400.28 199.073L1399.99 204.566C1399.84 207.412 1400.02 207.971 1400.27 208.886L1405.86 209.179ZM1398.49 178.752C1400.44 178.854 1401.23 179.997 1401.1 182.493L1400.92 185.939C1400.77 188.735 1399.48 189.568 1397.43 189.461L1395.28 189.348L1395.85 178.613L1398.49 178.752ZM1416.82 182.767C1416.96 180.27 1418.1 179.379 1419.85 179.471C1421.6 179.562 1422.65 180.568 1422.52 183.065L1421.53 201.939C1421.4 204.436 1420.25 205.327 1418.5 205.235C1416.75 205.144 1415.7 204.137 1415.84 201.641L1416.82 182.767ZM1410.36 201.003C1410.07 206.596 1412.85 209.946 1418.24 210.228C1423.63 210.511 1426.75 207.47 1427.04 201.877L1427.99 183.702C1428.28 178.11 1425.51 174.76 1420.11 174.477C1414.72 174.195 1411.61 177.236 1411.31 182.828L1410.36 201.003ZM1451.04 176.499L1442.75 176.064L1440.92 211.016L1449.56 211.469C1455.05 211.757 1458.05 209.01 1458.33 203.617L1458.48 200.771C1458.67 197.076 1457.66 194.37 1454.78 193.067C1457.28 192.047 1458.5 189.807 1458.69 186.212L1458.75 184.964C1459.04 179.572 1456.73 176.797 1451.04 176.499ZM1449.68 195.704C1452.18 195.835 1453.17 196.888 1453 200.134L1452.84 203.18C1452.71 205.776 1451.66 206.573 1449.82 206.476L1446.67 206.311L1447.23 195.576L1449.68 195.704ZM1450.63 181.484C1452.57 181.586 1453.36 182.729 1453.23 185.226L1453.13 187.173C1452.99 189.969 1451.69 190.802 1449.64 190.695L1447.5 190.583L1447.98 181.345L1450.63 181.484ZM1462.7 212.158L1477.23 212.919L1477.49 207.926L1468.45 207.453L1470.02 177.494L1464.53 177.206L1462.7 212.158ZM1487.57 186.474C1487.7 183.978 1488.85 183.087 1490.6 183.178C1492.35 183.27 1493.39 184.276 1493.26 186.773L1492.27 205.647C1492.14 208.143 1491 209.034 1489.25 208.943C1487.5 208.851 1486.45 207.845 1486.58 205.348L1487.57 186.474ZM1481.11 204.711C1480.81 210.303 1483.59 213.653 1488.99 213.936C1494.38 214.219 1497.49 211.177 1497.79 205.585L1498.74 187.41C1499.03 181.818 1496.25 178.468 1490.86 178.185C1485.47 177.902 1482.35 180.944 1482.06 186.536L1481.11 204.711ZM1513.83 201.77L1513.57 206.763C1513.44 209.259 1512.29 210.101 1510.55 210.009C1508.8 209.917 1507.75 208.961 1507.88 206.464L1508.87 187.59C1509 185.094 1510.15 184.203 1511.89 184.294C1513.64 184.386 1514.69 185.392 1514.56 187.889L1514.36 191.634L1519.56 191.906L1519.73 188.51C1520.03 182.918 1517.4 179.576 1512 179.293C1506.61 179.011 1503.65 182.06 1503.36 187.652L1502.4 205.827C1502.11 211.419 1504.74 214.762 1510.13 215.044C1515.52 215.327 1518.49 212.278 1518.78 206.685L1519.02 202.042L1513.83 201.77ZM1535.7 215.984L1541.35 216.28L1534.72 196.506L1543.18 181.328L1537.69 181.04L1529.7 195.892L1530.5 180.663L1525 180.375L1523.17 215.327L1528.66 215.615L1529.23 204.88L1531.09 201.773L1535.7 215.984ZM1556.42 204.002L1556.16 208.995C1556.03 211.491 1554.88 212.333 1553.14 212.241C1551.39 212.149 1550.34 211.193 1550.47 208.697L1551.46 189.822C1551.59 187.326 1552.74 186.435 1554.48 186.526C1556.23 186.618 1557.28 187.624 1557.15 190.121L1556.95 193.866L1562.15 194.138L1562.32 190.742C1562.62 185.15 1559.99 181.808 1554.59 181.525C1549.2 181.243 1546.24 184.292 1545.95 189.884L1544.99 208.059C1544.7 213.651 1547.33 216.994 1552.72 217.276C1558.11 217.559 1561.08 214.51 1561.37 208.917L1561.61 204.274L1556.42 204.002ZM1572.04 202.867L1578.28 203.195L1577.5 218.174L1583.09 218.467L1584.92 183.515L1579.33 183.222L1578.54 198.201L1572.3 197.874L1573.09 182.895L1567.59 182.607L1565.76 217.559L1571.25 217.847L1572.04 202.867ZM1602.58 184.441L1594.54 184.019L1587.12 218.678L1592.16 218.943L1593.44 212.651L1600.18 213.004L1600.8 219.395L1606.34 219.686L1602.58 184.441ZM1597.96 190.407L1599.68 208.222L1594.39 207.944L1597.96 190.407ZM1610.4 219.898L1615.89 220.186L1617.72 185.234L1612.23 184.946L1610.4 219.898ZM1633.14 221.09L1638.78 221.386L1640.61 186.434L1635.72 186.177L1634.62 207.099L1630.08 185.882L1623.19 185.521L1621.36 220.473L1626.3 220.732L1627.63 195.416L1633.14 221.09ZM1662.88 187.601L1655.25 187.201L1653.41 222.153L1658.21 222.404L1659.5 197.688L1662.3 222.619L1667.49 222.891L1672.6 198.024L1671.29 223.09L1676.48 223.362L1678.31 188.41L1670.67 188.009L1665.63 212.629L1662.88 187.601ZM1689.04 193.979L1698.52 194.476L1698.79 189.483L1683.81 188.698L1681.97 223.65L1696.95 224.435L1697.22 219.441L1687.73 218.944L1688.27 208.708L1695.81 209.103L1696.07 204.11L1688.53 203.715L1689.04 193.979ZM1701.86 224.692L1710.54 225.147C1716.04 225.435 1718.89 222.53 1719.19 216.938L1720.11 199.262C1720.4 193.67 1717.87 190.483 1712.38 190.195L1703.69 189.739L1701.86 224.692ZM1712.01 195.183C1713.76 195.274 1714.76 196.228 1714.63 198.725L1713.68 216.9C1713.55 219.396 1712.45 220.24 1710.71 220.148L1707.61 219.986L1708.92 195.02L1712.01 195.183ZM1723.74 225.838L1729.23 226.126L1731.06 191.174L1725.57 190.886L1723.74 225.838ZM1748.76 192.101L1740.72 191.68L1733.29 226.339L1738.34 226.603L1739.62 220.312L1746.36 220.665L1746.98 227.056L1752.52 227.347L1748.76 192.101ZM1744.14 198.068L1745.86 215.882L1740.57 215.605L1744.14 198.068ZM1779.84 193.73L1771.8 193.309L1764.38 227.968L1769.42 228.232L1770.7 221.941L1777.44 222.294L1778.06 228.685L1783.6 228.976L1779.84 193.73ZM1775.22 199.697L1776.94 217.511L1771.65 217.234L1775.22 199.697ZM1796.65 215.14L1799.15 215.271L1798.81 221.712C1798.68 224.208 1797.54 225.05 1795.79 224.958C1794.04 224.866 1792.99 223.91 1793.12 221.413L1794.11 202.539C1794.24 200.043 1795.39 199.152 1797.14 199.243C1798.88 199.335 1799.93 200.341 1799.8 202.838L1799.61 206.583L1804.8 206.855L1804.98 203.459C1805.27 197.867 1802.64 194.525 1797.25 194.242C1791.86 193.96 1788.89 197.009 1788.6 202.601L1787.65 220.776C1787.35 226.368 1789.98 229.711 1795.37 229.993C1800.77 230.276 1803.73 227.227 1804.02 221.634L1804.6 210.55L1796.92 210.147L1796.65 215.14ZM1815.67 200.615L1825.16 201.112L1825.42 196.119L1810.44 195.334L1808.61 230.286L1823.59 231.071L1823.85 226.078L1814.36 225.581L1814.9 215.345L1822.44 215.74L1822.7 210.747L1815.16 210.352L1815.67 200.615ZM1840.22 231.943L1845.87 232.239L1847.7 197.287L1842.81 197.03L1841.71 217.952L1837.16 196.735L1830.27 196.373L1828.44 231.326L1833.38 231.585L1834.71 206.269L1840.22 231.943ZM1862.72 220.054L1862.45 225.047C1862.32 227.544 1861.18 228.385 1859.43 228.293C1857.68 228.202 1856.63 227.245 1856.76 224.749L1857.75 205.875C1857.88 203.378 1859.03 202.487 1860.78 202.579C1862.53 202.67 1863.57 203.676 1863.44 206.173L1863.25 209.918L1868.44 210.19L1868.62 206.795C1868.91 201.202 1866.28 197.86 1860.89 197.578C1855.5 197.295 1852.53 200.344 1852.24 205.936L1851.29 224.111C1850.99 229.704 1853.62 233.046 1859.02 233.328C1864.41 233.611 1867.37 230.562 1867.66 224.97L1867.91 220.326L1862.72 220.054ZM1876.66 233.853L1882.15 234.141L1882.76 222.556L1890.93 199.552L1885.68 199.278L1880.66 214.986L1877.3 198.838L1871.55 198.537L1877.27 222.269L1876.66 233.853Z" fill="white"/>
</svg>
