<svg width="28" height="28" viewBox="0 0 28 28" fill="none" xmlns="http://www.w3.org/2000/svg">
<path d="M27.7614 26.6099L21.3993 20.2479C23.352 18.0212 24.4294 15.2038 24.4294 12.2147C24.4294 8.95187 23.1586 5.88468 20.8516 3.57772C18.5447 1.27077 15.4775 0 12.2147 0C8.95187 0 5.88468 1.27077 3.57772 3.57772C1.27077 5.88468 0 8.95187 0 12.2147C0 15.4775 1.27077 18.5447 3.57772 20.8516C5.88468 23.1586 8.95187 24.4294 12.2147 24.4294C15.2038 24.4294 18.0212 23.352 20.2479 21.3993L26.6099 27.7614C26.7689 27.9204 26.9773 27.9999 27.1856 27.9999C27.394 27.9999 27.6023 27.9204 27.7614 27.7614C28.0794 27.4433 28.0794 26.928 27.7614 26.6099ZM4.72921 19.7001C2.73001 17.7006 1.62862 15.0421 1.62862 12.2147C1.62862 9.38725 2.73001 6.72881 4.72921 4.72921C6.72881 2.73001 9.38725 1.62862 12.2147 1.62862C15.0421 1.62862 17.7006 2.73001 19.7001 4.72921C21.6993 6.72881 22.8007 9.38725 22.8007 12.2147C22.8007 15.0421 21.6993 17.7006 19.7001 19.7001C17.7006 21.6993 15.0421 22.8007 12.2147 22.8007C9.38725 22.8007 6.72881 21.6993 4.72921 19.7001Z" fill="white"/>
</svg>
