<svg width="70" height="50" viewBox="0 0 70 50" fill="none" xmlns="http://www.w3.org/2000/svg">
<path d="M68.5578 8.19638C67.7508 5.19766 65.3865 2.83393 62.3884 2.02644C56.9105 0.527344 34.9993 0.527344 34.9993 0.527344C34.9993 0.527344 13.0886 0.527344 7.61082 1.96929C4.67031 2.77625 2.24837 5.19819 1.44142 8.19638C0 13.6737 0 25.033 0 25.033C0 25.033 0 36.4495 1.44142 41.8696C2.24891 44.8678 4.61264 47.2321 7.61136 48.0396C13.1463 49.5387 34.9999 49.5387 34.9999 49.5387C34.9999 49.5387 56.9105 49.5387 62.3884 48.0967C65.3871 47.2898 67.7508 44.9255 68.5583 41.9273C69.9997 36.4495 69.9997 25.0907 69.9997 25.0907C69.9997 25.0907 70.0574 13.6737 68.5578 8.19638Z" fill="#3C3C3C"/>
<path d="M28.0229 35.5273L46.2434 25.0331L28.0229 14.5388V35.5273Z" fill="white"/>
</svg>
