<svg width="20" height="20" viewBox="0 0 20 20" fill="none" xmlns="http://www.w3.org/2000/svg">
<mask id="path-1-inside-1" fill="white">
<path fill-rule="evenodd" clip-rule="evenodd" d="M13.8645 13.2169C16.4097 10.0662 16.2659 5.37999 13.4119 2.40139C10.3732 -0.769957 5.41272 -0.804646 2.33244 2.32391C-0.747847 5.45247 -0.781541 10.5596 2.25718 13.7309C5.26267 16.8676 10.1481 16.9358 13.2349 13.9099L19.219 19.8667C19.4019 20.0488 19.6937 20.0437 19.8705 19.8553C20.0474 19.667 20.0425 19.3666 19.8596 19.1845L13.8645 13.2169ZM12.6898 3.09324C15.3546 5.87427 15.3246 10.364 12.624 13.1068C9.93951 15.8334 5.62823 15.8037 2.97922 13.0391C0.314506 10.258 0.344506 5.76834 3.04502 3.0255C5.72955 0.298898 10.0408 0.328622 12.6898 3.09324Z"/>
</mask>
<path fill-rule="evenodd" clip-rule="evenodd" d="M13.8645 13.2169C16.4097 10.0662 16.2659 5.37999 13.4119 2.40139C10.3732 -0.769957 5.41272 -0.804646 2.33244 2.32391C-0.747847 5.45247 -0.781541 10.5596 2.25718 13.7309C5.26267 16.8676 10.1481 16.9358 13.2349 13.9099L19.219 19.8667C19.4019 20.0488 19.6937 20.0437 19.8705 19.8553C20.0474 19.667 20.0425 19.3666 19.8596 19.1845L13.8645 13.2169ZM12.6898 3.09324C15.3546 5.87427 15.3246 10.364 12.624 13.1068C9.93951 15.8334 5.62823 15.8037 2.97922 13.0391C0.314506 10.258 0.344506 5.76834 3.04502 3.0255C5.72955 0.298898 10.0408 0.328622 12.6898 3.09324Z" fill="#333333"/>
<path d="M12.624 13.1068L14.0492 14.51L12.624 13.1068ZM12.6898 3.09324L14.1339 1.70955V1.70955L12.6898 3.09324ZM2.97922 13.0391L4.42331 11.6554L2.97922 13.0391ZM3.04502 3.0255L1.61986 1.62232L1.61985 1.62232L3.04502 3.0255ZM13.8645 13.2169L12.3087 11.9601L11.1759 13.3625L12.4535 14.6343L13.8645 13.2169ZM13.4119 2.40139L14.856 1.0177V1.0177L13.4119 2.40139ZM2.33244 2.32391L0.907272 0.920737L0.907272 0.920737L2.33244 2.32391ZM2.25718 13.7309L3.70127 12.3472H3.70127L2.25718 13.7309ZM13.2349 13.9099L14.6458 12.4925L13.2457 11.0987L11.8348 12.4817L13.2349 13.9099ZM19.219 19.8667L17.808 21.2841L17.808 21.2841L19.219 19.8667ZM19.8596 19.1845L21.2705 17.7671L21.2705 17.7671L19.8596 19.1845ZM14.0492 14.51C17.5092 10.9957 17.5467 5.27125 14.1339 1.70955L11.2457 4.47694C13.1624 6.47729 13.1399 9.73221 11.1989 11.7036L14.0492 14.51ZM1.53514 14.4228C4.9636 18.0009 10.5732 18.0405 14.0492 14.51L11.1989 11.7036C9.30583 13.6263 6.29285 13.6065 4.42331 11.6554L1.53514 14.4228ZM1.61985 1.62232C-1.84018 5.13659 -1.87761 10.8611 1.53514 14.4228L4.42331 11.6554C2.50662 9.65502 2.52919 6.40009 4.47019 4.42868L1.61985 1.62232ZM14.1339 1.70955C10.7055 -1.86856 5.09587 -1.90817 1.61986 1.62232L4.47019 4.42868C6.36323 2.50596 9.37621 2.5258 11.2457 4.47694L14.1339 1.70955ZM15.4203 14.4737C18.5893 10.5506 18.4157 4.73278 14.856 1.0177L11.9678 3.78509C14.1161 6.0272 14.23 9.58168 12.3087 11.9601L15.4203 14.4737ZM14.856 1.0177C11.0378 -2.96711 4.77907 -3.01174 0.907272 0.920737L3.7576 3.72709C6.04638 1.40244 9.70851 1.4272 11.9678 3.78509L14.856 1.0177ZM0.907272 0.920737C-2.93255 4.82074 -2.97363 11.1626 0.813093 15.1146L3.70127 12.3472C1.41055 9.95652 1.43686 6.0842 3.7576 3.72709L0.907272 0.920737ZM0.813093 15.1146C4.58913 19.0555 10.7532 19.1433 14.6349 15.3382L11.8348 12.4817C9.54296 14.7283 5.9362 14.6797 3.70127 12.3472L0.813093 15.1146ZM20.6299 18.4492L14.6458 12.4925L11.8239 15.3274L17.808 21.2841L20.6299 18.4492ZM18.4126 18.4862C19.0062 17.8542 20.0125 17.8346 20.6299 18.4492L17.808 21.2841C18.7913 22.2629 20.3811 22.2332 21.3285 21.2245L18.4126 18.4862ZM18.4486 20.602C17.8635 20.0196 17.8501 19.0852 18.4126 18.4862L21.3285 21.2245C22.2448 20.2487 22.2215 18.7137 21.2705 17.7671L18.4486 20.602ZM12.4535 14.6343L18.4486 20.602L21.2705 17.7671L15.2755 11.7994L12.4535 14.6343Z" fill="#333333" mask="url(#path-1-inside-1)"/>
</svg>
