<svg width="37" height="37" viewBox="0 0 37 37" fill="none" xmlns="http://www.w3.org/2000/svg">
<path fill-rule="evenodd" clip-rule="evenodd" d="M25.6494 24.4512C30.3579 18.6224 30.0919 9.95299 24.812 4.44258C19.1904 -1.42442 10.0135 -1.4886 4.31501 4.29924C-1.38352 10.0871 -1.44585 19.5352 4.17579 25.4022C9.73594 31.205 18.7739 31.3313 24.4845 25.7334L35.5551 36.7533C35.8935 37.0902 36.4332 37.0808 36.7605 36.7324C37.0877 36.3839 37.0786 35.8282 36.7401 35.4913L25.6494 24.4512ZM23.6567 5.54954C28.68 10.792 28.6235 19.2523 23.5326 24.423C18.4673 29.5677 10.3291 29.5115 5.33106 24.2952C0.307823 19.0528 0.364246 10.5925 5.45515 5.42178C10.5205 0.277075 18.6586 0.333305 23.6567 5.54954Z" fill="white"/>
</svg>
